<svg xmlns="http://www.w3.org/2000/svg" width="41" height="46" viewBox="0 0 41 46"><g><g><path fill="none" stroke="#fa6400" stroke-linecap="round" stroke-linejoin="round" stroke-miterlimit="20" stroke-width="2.5" d="M15 28l10-10"/></g><g><path fill="none" stroke="#fa6400" stroke-linecap="round" stroke-linejoin="round" stroke-miterlimit="20" stroke-width="2.5" d="M25.797 27.561c.22.22.22.574 0 .791a.55.55 0 0 1-.784 0 .561.561 0 0 1 0-.79.55.55 0 0 1 .784 0"/></g><g><path fill="none" stroke="#fa6400" stroke-linecap="round" stroke-linejoin="round" stroke-miterlimit="20" stroke-width="2.5" d="M15.989 17.65a.561.561 0 0 1 0 .792.55.55 0 0 1-.784 0 .56.56 0 0 1 0-.791.551.551 0 0 1 .784 0"/></g><g><path fill="none" stroke="#fa6400" stroke-linecap="round" stroke-linejoin="round" stroke-miterlimit="20" stroke-width="2.5" d="M2 6.149V40.5c0 1.734 1.808 2.863 3.346 2.086l1.783-.9a2.289 2.289 0 0 1 2.068 0l4.1 2.067c.65.329 1.417.329 2.067 0l4.1-2.068a2.289 2.289 0 0 1 2.067 0l4.1 2.068a2.293 2.293 0 0 0 2.07 0l4.096-2.068a2.293 2.293 0 0 1 2.07 0l1.785.901c1.54.777 3.348-.352 3.348-2.086V6.149C39 3.857 37.16 2 34.89 2H6.113C3.84 2 2 3.857 2 6.149z"/></g></g></svg>