<svg xmlns="http://www.w3.org/2000/svg" width="20" height="20" viewBox="0 0 20 20"><g><g><path fill="none" stroke="#323232" stroke-linecap="round" stroke-linejoin="round" stroke-miterlimit="20" stroke-width="1.5" d="M1.496 11.464l1.194 1.564v0l.259 1.947a2.414 2.414 0 0 0 2.072 2.074l1.953.26v0l1.562 1.195c.864.66 2.064.66 2.929 0l1.564-1.195v0h-.002v0l1.948-.258a2.413 2.413 0 0 0 2.074-2.073l.26-1.952 1.196-1.562c.66-.865.66-2.064 0-2.93l-1.196-1.563v0l-.257-1.947a2.412 2.412 0 0 0-2.073-2.073l-1.952-.261v0l-1.562-1.194a2.414 2.414 0 0 0-2.93-.001L6.972 2.69v0h.002v0l-1.95.259A2.412 2.412 0 0 0 2.952 5.02L2.69 6.973 1.495 8.536c-.66.864-.66 2.063 0 2.928z"/></g><g><path fill="none" stroke="#323232" stroke-linecap="round" stroke-linejoin="round" stroke-miterlimit="20" stroke-width="1.5" d="M7.9 12.1l4.2-4.2"/></g><g><path fill="none" stroke="#323232" stroke-linecap="round" stroke-linejoin="round" stroke-miterlimit="20" stroke-width="1.5" d="M12.29 11.95a.237.237 0 0 1 0 .34.239.239 0 0 1-.34 0 .239.239 0 0 1 0-.34.239.239 0 0 1 .34 0"/></g><g><path fill="none" stroke="#323232" stroke-linecap="round" stroke-linejoin="round" stroke-miterlimit="20" stroke-width="1.5" d="M8.05 7.71a.239.239 0 0 1 0 .34.239.239 0 0 1-.34 0 .24.24 0 0 1 .339-.339"/></g></g></svg>