<svg xmlns="http://www.w3.org/2000/svg" width="34" height="33" viewBox="0 0 34 33"><g><g><path fill="none" stroke="#323232" stroke-linecap="round" stroke-linejoin="round" stroke-miterlimit="20" stroke-width="2.5" d="M16.998 26.953v0l7.2 3.82c1.402.746 3.039-.458 2.773-2.033l-1.377-8.093v0l5.827-5.73c1.134-1.115.508-3.062-1.06-3.292l-8.048-1.18v0l-3.599-7.37c-.702-1.433-2.726-1.433-3.426 0l-3.601 7.37v0l-8.049 1.18c-1.567.23-2.193 2.177-1.059 3.291l5.827 5.731v0L7.03 28.74c-.268 1.575 1.37 2.779 2.771 2.034l7.2-3.82v0z"/></g></g></svg>