<svg xmlns="http://www.w3.org/2000/svg" width="210" height="223" viewBox="0 0 210 223">
  <g fill="#FFF" fill-rule="evenodd">
    <path d="M147.707946 136.329364C148.910635 136.569316 149.782925 135.983979 150.573522 135.208226 150.91799 134.870567 151.643234 134.659246 151.431743 134.093905 151.271535 133.664446 150.609376 133.950297 150.188662 133.899398 148.56889 133.49857 148.075107 134.846026 147.32944 135.756752 147.046241 136.103046 147.342601 136.256197 147.707946 136.329364M146.122667 135.684948C146.617811 134.561083 146.236128 133.581735 145.651576 132.640561 145.396969 132.231097 145.348408 131.475795 144.751148 131.560323 144.297303 131.623947 144.432095 132.332895 144.291857 132.733269 143.549367 134.229332 144.75614 135.004631 145.482746 135.931263 145.758229 136.28301 145.97199 136.026243 146.122667 135.684948M83.7289979 122.475332C84.9357711 122.475332 84.7832793 123.318344 84.7955331 124.079555 84.8177715 125.433828 84.8173177 126.78901 84.8672406 128.14192 84.8881174 128.702716 85.0755553 129.28669 85.7622224 129.260331 86.4207512 129.236245 86.6236198 128.664087 86.6454043 128.099201 86.693058 126.835819 86.6817119 125.571073 86.7184733 124.307691 86.7393502 123.597379 86.7261887 122.524867 87.573063 122.524867 88.131292 122.524867 88.8510898 122.468515 88.8497302 121.70276 88.8483667 120.969271 87.7913623 121.081976 87.1886565 121.076068 86.1706827 121.065161 85.4195696 121.063798 83.9427588 121.088338 83.4312758 121.096973 82.7160165 121.006536 82.6070937 121.675947 82.4800172 122.454881 83.2433841 122.475332 83.7289979 122.475332M122.137425 155.53732C121.251974 155.450974 120.903422 156.115386 120.893891 156.827061 120.848053 160.031871 120.847145 163.238953 120.885268 166.444672 120.893437 167.145895 121.189344 167.830303 122.082056 167.788947 122.954346 167.748501 123.205776 167.056822 123.205776 166.35469 123.205776 164.800457 123.254791 158.580799 123.213491 157.027021 123.195338 156.328979 122.993377 155.619576 122.137425 155.53732M111.342274 129.495284C112.227725 129.495284 114.346273 129.250788 114.173812 127.807442 114.057627 126.833092 113.03693 127.608391 112.489594 127.773812 111.516097 128.068298 110.896599 127.832891 110.401454 127.160753 109.889063 126.464984 109.589072 124.417214 110.484054 123.300621 110.852576 122.841167 111.774334 122.493056 112.628924 122.882068 113.12543 123.108386 113.864743 123.710538 114.138866 122.674837 114.33538 121.933168 113.699544 121.505527 113.093207 121.314202 111.533343 120.821574 109.982101 120.93655 108.834328 122.181755 107.449648 123.683271 107.45464 126.215034 108.104092 127.419792 108.784859 128.681357 109.774241 129.495284 111.342274 129.495284M80.1731243 129.317138C80.8634222 129.158533 81.7806424 128.788608 81.5691508 127.948322 81.2832286 126.812187 80.4486081 127.635203 79.869956 127.800625 78.989951 128.052847 78.3187147 127.863339 77.8022393 127.112127 77.206795 126.246392 77.1913643 124.650349 77.8045086 123.47604 78.0877077 122.932967 78.9468358 122.417162 79.8676868 122.802084 80.4404389 123.041582 81.2805055 123.746894 81.5618893 122.612123 81.7697502 121.772746 80.9324066 121.372372 80.2162396 121.212404 78.6255137 120.858384 77.0756339 121.054709 76.0476755 122.421252 75.0800785 123.707811 74.84181 125.771487 75.6079 127.545222 76.212875 128.945395 77.7223627 129.88157 80.1731243 129.317138M59.997002 139.574621C61.590451 139.574621 62.4091869 139.402837 62.4091869 138.641627 62.4091869 137.595473 61.7229736 137.721357 58.6350139 137.721357 54.5613034 137.721357 54.8712794 138.194444 54.8712794 143.943288 54.8712794 148.952281 54.6380032 150.165218 56.2160214 150.165218 57.3483641 150.165218 57.2730258 149.71849 57.2730258 144.71586 57.2730258 141.192023 56.9753037 139.574621 59.997002 139.574621M116.827896 129.459837C118.306522 129.459837 118.085046 128.711805 118.085046 126.96352 118.085046 126.611318 118.148584 126.198674 118.625575 126.151865 119.012704 126.114146 119.328126 126.325921 119.511934 126.649947 119.95534 127.430245 120.307523 128.269621 120.810383 129.006746 121.136698 129.484832 121.810203 129.669794 122.262687 129.278964 122.997007 128.645455 122.446948 127.922418 121.942726 127.041686 121.260144 125.849653 120.911137 125.488362 120.863029 124.859852 120.82536 124.372678 121.342743 123.90868 121.659981 123.37197 121.829265 123.086573 123.046023 121.984522 121.945903 121.371009 120.909322 120.792943 120.222201 122.26901 119.985747 122.649842 119.656256 123.179281 119.412542 123.88414 118.697282 123.88414 117.310787 123.88414 118.859759 121.241035 117.007618 121.241035 116.179352 121.241035 115.935183 121.825463 115.896152 122.489874 115.843506 123.38833 115.82263 127.470691 115.821241 127.937415 115.818999 128.582286 115.958329 129.459837 116.827896 129.459837M107.245418 157.393765C107.791847 157.573274 108.397276 157.840493 108.80029 157.334231 109.32448 156.673455 108.437214 156.082665 107.804554 155.804539 107.280364 155.573222 106.694904 155.423252 106.123513 155.367354 101.489305 154.913355 98.2452223 159.833729 100.229885 164.565959 102.211372 169.289555 107.357971 167.99936 108.235253 167.274051 108.616936 166.958205 109.053989 166.598732 108.857474 166.069748 108.630552 165.458052 108.088207 165.646196 107.628463 165.815253 106.331828 166.292885 104.589518 166.129281 103.884697 165.735724 102.238602 164.815909 101.475689 161.337972 102.711055 159.059794 103.521168 157.566003 104.898586 156.622102 107.245418 157.393765M91.9213421 123.739623C91.9186265 124.41267 92.6574857 124.310417 93.4426372 124.326778 94.1597119 124.297693 94.7832946 124.351773 94.7737638 123.581928 94.7651408 122.932058 94.0734814 122.558043 93.4031527 122.559402 92.6298012 122.560315 91.9240726 122.962052 91.9213421 123.739623M89.7301871 127.50114C88.8660667 125.712408 89.1202198 123.917769 90.2571009 122.377624 91.2796131 120.991085 92.8435621 120.841115 94.4211265 121.111061 95.4627002 121.288752 96.2569285 121.972251 96.6976117 122.944783 97.4251249 124.550824 96.8591805 125.616518 95.1087013 125.695593 93.3509605 125.774668 91.858719 125.47791 91.7706731 126.532243 91.6304351 128.202817 94.0621353 128.17055 95.2471239 127.804715 95.7508916 127.649292 96.3953511 127.561582 96.4983739 128.34597 96.6404273 129.428479 94.369842 129.484377 94.1887579 129.505282 92.1110567 129.561634 90.5543692 129.20716 89.7301871 127.50114M128.185814 126.839909C128.216676 126.16868 127.922584 125.835111 127.405655 125.845109 126.637296 125.859651 125.951537 126.117781 125.881191 127.029416 125.841252 127.545676 126.201605 127.920601 126.687219 127.936052 127.485986 127.961956 128.058738 127.577033 128.185814 126.839909M125.071986 129.283963C124.147504 128.980388 123.574752 128.242809 123.519383 127.251644 123.459021 126.167317 123.975043 125.353844 124.925394 124.814861 125.659261 124.398127 126.474366 124.375404 127.279033 124.274516 127.75557 124.214528 128.172199 124.00048 128.079161 123.415597 128.000192 122.918879 127.63757 122.592581 127.156041 122.586219 126.62595 122.578947 126.094498 122.725736 125.561684 122.787542 125.038855 122.847984 124.381688 123.015678 124.289557 122.254467 124.208773 121.587329 124.82464 121.336924 125.345654 121.246943 128.899258 120.632521 130.534461 121.401003 130.587561 124.792593 130.593915 125.170245 130.538546 127.468419 130.538546 128.190092 130.538546 130.011089 125.361992 129.379398 125.071986 129.283963M68.9173206 127.102583C68.9241283 127.609754 69.2840272 127.965592 69.7887026 127.94196 70.5802078 127.904695 71.1529599 127.527498 71.2260289 126.734021 71.1919905 126.099603 70.8842838 125.791483 70.3605469 125.840564 69.6044416 125.911914 68.9041591 126.161409 68.9173206 127.102583M66.5836509 127.457057C66.3567285 126.003713 67.0883263 124.546279 70.1004939 124.3086 70.6795998 124.262245 71.1647598 124.095915 71.0939601 123.358336 70.9981988 122.352175 69.1528661 122.69756 68.7965979 122.742096 68.208869 122.815718 67.390133 123.15974 67.3279563 122.195388 67.2775795 121.417363 68.0854232 121.243761 68.6944829 121.170594 72.3261486 120.733409 73.8633207 121.509163 73.616883 126.424992 73.616883 126.624952 73.6218753 127.166661 73.6159753 127.708371 73.6019062 128.928125 73.1426153 129.51937 71.7760887 129.323955 70.9078837 129.199889 69.9888481 129.493921 69.0952278 129.476651 67.7781703 129.450747 66.7915118 128.789062 66.5836509 127.457057M134.592741 123.605559C134.550987 124.348137 135.052032 124.712155 135.741422 124.78305 136.496166 124.860761 136.895095 124.486291 136.92278 123.726898 136.929134 123.005225 136.651834 122.517596 135.858968 122.537138 135.170031 122.554407 134.633587 122.868435 134.592741 123.605559M132.628955 127.32572C133.646928 126.134142 133.75222 126.051885 133.638305 125.769215 133.505329 125.438372 132.258617 125.28613 132.258617 123.665093 132.258617 121.019261 134.345849 121.019261 136.727627 121.054254 138.345583 121.077431 139.129373 121.054254 139.129373 122.720283 139.129373 123.876414 139.083988 126.890808 139.083988 128.395051 139.083988 128.980388 138.644667 129.343951 137.9875 129.343951 136.191182 129.343951 138.012461 126.461803 136.187097 126.461803 135.513138 126.461803 135.229485 127.058956 134.229211 128.520026 133.510775 129.568906 132.934846 129.489376 132.509593 129.191709 132.154687 128.943122 131.859688 128.226448 132.628955 127.32572M117.121079 164.341913C117.121079 162.696789 116.172544 162.222794 114.83461 162.222794 113.345545 162.222794 113.345545 163.018543 113.345545 164.368272 113.391837 165.387612 113.636006 166.398318 114.765625 166.398318 116.006891 166.398318 117.121079 165.795257 117.121079 164.341913M119.591356 164.110142C119.591356 166.05566 118.243891 167.990725 114.815094 167.990725 111.208844 168.012993 110.866645 167.489462 110.866645 164.517787 110.866645 162.07237 110.907945 159.626043 110.907945 157.180626 110.907945 156.454863 111.083583 155.538683 112.152387 155.538683 113.345545 155.538683 113.313322 156.467588 113.313322 157.258792 113.313322 160.335446 113.345545 160.684012 116.175721 160.684012 118.779882 160.684012 119.591356 162.222794 119.591356 164.110142M89.8382021 148.959552C91.1734134 148.959552 91.9458572 148.281052 91.9458572 146.872699 91.9458572 145.525697 91.3254514 144.829019 89.7433486 144.829019 88.4040527 144.829019 88.0958921 145.934251 88.0958921 146.774537 88.1126844 147.861136 88.3196376 148.959552 89.8382021 148.959552M89.7015949 150.510176C85.9687218 150.51333 85.6732689 150.242476 85.6351459 147.007217 85.6065537 144.57407 85.6197152 142.138651 85.6764458 139.705958 85.6941457 138.932477 85.6206229 137.683183 86.8006192 137.683183 88.382722 137.683183 88.1085998 138.682527 88.1085998 141.525592 88.1085998 142.604921 88.6695519 143.118908 89.7415332 143.117999 90.2266933 143.117999 94.5436645 143.023018 94.5436645 146.637746 94.5436645 150.658756 89.9239788 150.490153 89.7015949 150.510176M79.2205042 144.116435C80.5175925 144.116435 81.4139359 143.502013 81.4139359 141.884611 81.4139359 140.529883 81.1071368 139.551898 79.4860034 139.551898 78.0768154 139.5419 78.145346 140.842093 78.145346 141.771906 78.145346 142.984844 78.048677 144.116435 79.2205042 144.116435M78.0790846 148.600079C78.0790846 149.698494 78.0768154 150.313371 76.9031729 150.313371 75.2439165 150.313371 75.6823305 148.962279 75.6823305 142.33452 75.6823305 137.850877 76.0213525 137.682729 79.6698105 137.682729 82.2608102 137.682729 83.8833052 139.037456 83.8833052 141.771906 83.8833052 143.941016 82.4350866 145.802005 80.5398309 145.802005 78.297384 145.802005 78.0790846 145.882898 78.0790846 148.600079M83.7612289 159.149321C83.7584979 157.924567 83.2270456 157.069739 81.9735264 157.069739 80.4290928 157.069739 80.4599542 157.918659 80.4599542 159.1625 80.4595004 161.231175 80.6414921 161.437952 81.4883664 161.44386 82.8194931 161.452494 83.7643978 160.608119 83.7612289 159.149321M86.2396671 158.724861C86.2396671 162.124177 84.6516643 163.107616 82.1931873 163.254859 80.4595004 163.358929 80.4540542 163.592518 80.4540542 165.256275 80.4540542 166.967749 80.4595004 167.793492 79.194635 167.793492 78.4793757 167.793492 78.1113076 167.222698 78.1113076 166.624182 78.1113076 163.191236 78.1589613 160.317268 78.1589613 156.661185 78.1589613 155.417799 78.9209666 155.286007 81.5764123 155.329635 85.1645089 155.329635 86.2396671 156.947945 86.2396671 158.724861M71.9190498 159.457895C71.4942511 158.431738 71.0090911 159.055703 70.8234686 159.401997 70.3968545 160.197747 70.1250015 161.059846 69.8899099 161.932398 69.6752414 162.72951 70.2470857 162.943558 71.2682364 162.943558 73.2070612 162.943558 73.0232541 162.125086 71.9190498 159.457895M76.3059132 165.677554C76.6490198 166.743249 76.8201193 167.514457 75.9664373 167.812579 74.9511866 168.167962 74.6666259 167.268597 74.2091504 166.301974 73.3704453 164.530966 73.2528995 164.433259 71.3889591 164.433259 68.6409292 164.433259 69.0997662 164.904982 67.8244625 167.39948 67.5866478 167.865296 67.0529264 167.973456 66.5355434 167.788038 65.9341991 167.572173 65.9015223 167.052732 66.0662679 166.590098 67.2744026 163.203051 68.4330683 159.793737 69.7864333 156.464406 70.3800623 155.003337 72.0942339 154.898358 72.6946705 156.293532 73.8823822 159.049341 75.7485918 163.947447 76.3059132 165.677554M101.252398 125.393836C101.285528 126.652219 101.598227 127.95832 103.063238 127.894242 104.491034 127.832437 104.801917 126.615409 104.797833 125.237958 104.792841 123.765527 104.090289 122.720283 103.125869 122.720283 101.658135 122.720737 101.211098 124.110458 101.252398 125.393836M99.0444429 131.164039C99.0444429 129.710695 99.0349122 124.515376 99.0349122 122.746187 99.0349122 121.679128 99.4896646 120.477097 100.722307 121.356466 101.297782 121.766384 101.95858 121.234218 102.57354 121.161505 105.177247 120.852476 106.81608 122.102225 106.806591 124.932111 106.796111 128.051938 105.882976 129.436205 103.227984 129.436205 101.675381 129.436205 101.11216 128.661361 101.11216 131.289014 101.11216 131.894801 100.891591 132.558759 99.9997861 132.558759 99.1588118 132.558759 99.0444429 131.797094 99.0444429 131.164039M101.762065 148.70324C102.04708 149.287213 102.599863 150.947334 103.736744 150.262472 104.81644 149.612602 103.868359 147.988383 103.667306 147.523931 103.073223 146.149208 102.264471 144.610426 102.151918 143.997822 101.985357 143.094368 102.268556 142.474492 102.837677 141.413796 103.322384 140.509887 104.485588 138.845222 103.254761 138.225347 101.698073 137.440959 101.405797 140.087699 100.758615 141.125673 100.367854 141.752819 99.7406408 142.770796 98.7026978 142.770796 98.3296375 142.770796 98.0237461 142.727169 98.0237461 140.207675 98.0237461 138.588455 97.8585466 138.029477 96.8836881 138.029477 96.0699444 138.029477 95.7626915 138.417126 95.7626915 139.049726 95.7626915 143.414758 95.7558839 145.977424 95.7558839 149.284032 95.7558839 149.905725 96.2301516 150.311098 96.9435956 150.311098 97.6565857 150.311098 97.9679232 149.69804 97.9679232 149.087708 97.9679232 146.161933 97.915731 144.988987 98.6718364 144.946268 100.764515 144.829019 100.329277 145.764285 101.762065 148.70324M64.5549649 157.534191C64.5549649 154.955164 62.4091869 154.976521 61.3830439 154.976521 58.7330444 154.976521 57.15548 155.697742 56.8114657 159.607865 56.6067817 161.937851 56.4533822 165.465778 54.7283183 166.179725 54.2109353 166.393773 53.5923449 167.255873 54.3625194 167.622617 55.9850144 168.396552 57.8970624 166.872768 58.2093076 165.426695 58.4970451 164.094236 58.8696517 160.51132 59.0284973 159.448806 59.3380195 157.377405 60.0078943 156.895229 60.836161 156.895229 61.6862122 156.895229 62.1563954 156.937039 62.1563954 158.940727 62.1563954 159.526972 62.1563954 163.473452 62.1477723 165.561668 62.1441416 166.487391 62.1563954 167.910741 63.3599916 167.910741 64.7224336 167.910741 64.5785648 166.375595 64.5785648 165.448963 64.5785648 163.160333 64.5549649 159.098422 64.5549649 157.534191M55.3696009 129.296233C56.1742677 129.468471 56.5141974 128.822237 56.6417278 128.191001 56.8908886 126.95534 56.8781809 125.057086 57.3696948 125.057086 58.359984 125.057086 58.3018919 129.370309 59.89761 129.370309 60.6777692 129.370309 61.0022682 128.896768 61.2432597 128.280983 61.637197 127.274821 62.4391406 124.648986 62.9374622 124.658529 63.3554532 124.667164 63.3581763 127.047594 63.5351757 127.926509 63.6558984 128.52457 63.7580135 129.329863 64.5826494 129.26533 65.5929078 129.186255 65.4177237 128.287345 65.4413237 127.971045 65.2234782 125.988716 65.0796094 124.37495 64.8549563 122.772999 64.7546566 122.055416 64.5059496 121.347377 63.6304831 121.1865 62.6996475 121.014717 62.1042032 121.430996 61.6676046 122.23947 61.0943986 123.300621 60.9310145 125.293402 59.982479 125.272042 59.1179047 125.252955 59.0579972 123.349247 58.5469681 122.316273 58.1389616 121.491893 57.6066017 121.023351 56.6548893 121.158778 55.7626305 121.285117 55.503939 121.973615 55.3882086 122.69756 55.118171 124.383585 54.9071331 126.079153 54.6783954 127.77154 54.5903495 128.423681 54.5622111 129.123995 55.3696009 129.296233M114.338103 144.064173C114.31178 141.318361 112.939354 139.415107 110.976021 139.402771 109.01042 139.390112 107.652516 141.225198 107.557663 144.022817 107.453278 147.099926 108.66459 148.920923 110.837145 148.952281 112.834516 148.981366 114.363973 146.845431 114.338103 144.064173M110.665592 150.507877C107.063426 150.486063 105.100093 148.376942 105.059701 144.484543 105.015678 140.306292 107.273102 137.845878 111.145306 137.850869 114.664418 137.855421 116.856942 140.315381 116.805657 144.200509 116.753465 148.126083 114.413442 150.5306 110.665592 150.507877M67.9347467 148.952281C69.9316636 148.981366 71.4615743 146.845431 71.4352513 144.064173 71.4093822 141.318361 70.0365018 139.415107 68.0736232 139.402771 66.1080216 139.390112 64.7496643 141.225198 64.6548107 144.022817 64.5504264 147.099926 65.7621919 148.920923 67.9347467 148.952281M62.1568492 144.484543C62.1132801 140.306292 64.3707039 137.845878 68.2429073 137.850869 71.7620195 137.855421 73.9545435 140.315381 73.9028052 144.200509 73.8510669 148.126083 71.5105895 150.5306 67.7631934 150.507877 64.1610276 150.486063 62.1976952 148.376942 62.1568492 144.484543M137.740154 144.430463C137.740154 140.516704 136.040506 139.412381 134.258257 139.412381 132.673885 139.412381 130.94156 140.768017 130.94156 144.207326 130.94156 147.698442 132.245002 148.96137 134.341765 148.96137 135.565784 148.96137 137.740154 148.005653 137.740154 144.430463M140.195454 144.284583C140.195454 148.676427 137.463763 150.50515 134.239196 150.50515 130.94156 150.50515 128.496244 148.953644 128.496244 144.369111 128.496244 140.404908 130.654276 137.85224 134.362188 137.85224 137.740154 137.85224 140.195454 139.845475 140.195454 144.284583M124.776989 146.905419C124.778348 145.493885 124.091227 144.677231 122.624855 144.689501 121.071344 144.702226 120.929291 145.587957 120.954252 146.75136 120.98466 147.814782 120.860306 148.795039 122.476901 148.796404 123.882459 148.797312 124.775625 148.311955 124.776989 146.905419M120.967414 141.380621C120.989652 142.325886 121.150313 143.004386 122.386586 143.025745 123.547521 143.045741 124.083512 142.052759 124.091227 141.095224 124.099396 140.013169 123.472637 139.547354 122.008534 139.547354 120.96696 139.547354 120.951983 140.710756 120.967414 141.380621M127.237279 147.246714C127.237279 149.325842 125.666976 150.514697 122.860854 150.514697 118.70409 150.514697 118.484429 150.5306 118.484429 148.421478 118.484429 147.737525 118.519829 141.485146 118.490329 140.214947 118.449483 138.461208 118.915582 137.830426 122.06708 137.830426 125.172285 137.830426 126.438966 139.208331 126.438966 140.529429 126.438966 142.270897 125.615692 142.528118 125.615692 143.489288 125.615692 144.177786 127.237279 144.107346 127.237279 147.246714M151.999978 141.915059C151.999978 138.433487 152.017656 138.05629 151.046882 138.05629 149.718479 138.05629 149.891394 138.205805 149.191565 139.168793 146.655934 142.659909 144.576872 147.667993 144.576872 144.4241 144.576872 143.200255 144.65221 141.611484 144.65221 139.955453 144.65221 138.697979 144.509702 138.06447 143.385983 138.06447 142.222325 138.06447 142.150164 138.712067 142.150164 139.409654 142.150164 143.746964 142.096156 145.505246 142.096156 148.2656 142.096156 149.037718 141.961364 150.356544 143.080999 150.356544 144.403049 150.356544 144.386257 149.806654 144.876863 149.093616 146.146267 147.247169 147.428832 145.408902 148.63379 143.520191 149.476579 142.198184 149.532402 142.51403 149.532402 143.800135 149.532402 145.359821 149.541025 146.919962 149.585956 148.478285 149.608194 149.255401 149.476126 150.290193 150.775937 150.290193 152.030364 150.290193 151.989972 149.33584 151.989972 148.462834 151.989972 145.213941 151.999978 144.741764 151.999978 141.915059M98.0264692 158.526264C98.0264692 160.742637 98.021023 162.300506 98.021023 165.606204 98.021023 166.531473 98.1657995 167.812579 96.7262039 167.758044 95.5466614 167.713508 95.5938613 166.579191 95.5938613 165.723908 95.5938613 164.236934 95.5698075 163.157151 95.5698075 162.381398 95.5698075 159.963703 95.5875075 160.276822 94.4823955 161.749253 93.0405307 163.669776 92.4523479 164.438712 90.9228911 166.537381 90.4123158 167.238603 89.8459175 167.991634 88.8529052 167.748501 87.952931 167.528091 87.9992232 166.516476 87.9946848 165.738451 87.9774387 163.008545 88.0359846 157.16063 88.0359846 156.966124 88.0359846 156.122202 88.3087453 155.536411 89.1855734 155.536411 90.3147391 155.536411 90.3578544 156.197187 90.3578544 156.909317 90.3578544 159.072064 90.3896235 160.214107 90.3896235 161.952394 90.3896235 162.286417 90.268447 163.338933 90.8116991 162.794952 91.1420981 162.464109 93.6772749 158.840292 94.8518251 157.165629 95.3878158 156.400783 95.7100455 155.546864 97.0225646 155.546864 98.3196529 155.546864 98.0264692 156.641189 98.0264692 158.526264M153.6402 52.7447883C153.588157 52.9244016 153.696809 53.1273234 153.877591 53.1748547 154.298961 53.2854563 154.5957 53.178968 154.761417 52.7616984 154.829896 52.5898547 154.739961 52.3878469 154.570591 52.3142648 154.083939 52.1031164 153.786287 52.2411398 153.6402 52.7447883M158.255178 51.6721359C158.116396 51.8581477 158.21957 52.1355656 158.448743 52.1744133 159.632504 52.3759641 160.311352 51.8266125 160.953222 51.0715969 161.107983 50.8887844 161.002526 50.5994836 160.766048 50.5629211 159.738874 50.4047883 158.956852 50.7324797 158.255178 51.6721359M133.843591 18.9486984C135.894743 18.8189016 137.624048 18.0332648 139.386222 17.3710266 139.560157 17.3056711 139.683417 17.1050344 139.829961 16.9670109 139.680678 16.8760617 139.53733 16.719757 139.380743 16.704218 136.935613 16.4619914 134.572657 16.8111633 132.308309 17.7681867 132.161765 17.8298859 131.9787 18.0981633 132.009743 18.2179055 132.053113 18.3824367 132.264939 18.5661633 132.441157 18.620093 132.936483 18.7718273 133.450983 18.8604914 133.843591 18.9486984M182.765374 19.4157844C182.992265 19.2709055 183.06257 18.8490656 182.917852 18.6219211 182.814678 18.460132 182.52433 18.3833508 182.35907 18.4820695 182.223026 18.5634211 182.184678 18.7773117 182.145417 18.9313312 182.101135 19.1077453 182.285113 19.3801359 182.462243 19.4240109 182.462243 19.4240109 182.703743 19.4550891 182.765374 19.4157844M209.557265 79.7937258C209.402048 78.4984992 206.772026 66.6947531 205.509743 67.2175969 205.285135 67.3108313 205.107091 67.7079914 205.053678 67.9959211 204.898917 68.828632 204.719048 69.676425 204.727265 70.5169055 204.752374 72.9752766 204.474809 75.3929719 204.057091 77.8106672 203.047265 83.6606672 201.09883 89.1349875 197.539787 93.9301594 196.341874 95.5443938 194.898809 96.9794719 193.52833 98.4597961 193.189135 98.8263352 192.678287 99.336382 192.17657 99.0274289 191.581722 98.6608898 192.026374 98.077718 192.250526 97.6206867 192.437243 97.2399797 192.7422 96.9118313 192.895591 96.5215266 193.86433 94.056757 195.500048 91.7213273 195.440243 89.0207297 195.306026 82.9961438 196.624461 76.9349953 195.014309 70.9410305 194.698852 69.7673742 194.967743 68.6453625 195.816417 67.6682297 201.10933 61.5750891 200.760548 53.7411164 200.193091 46.1877609 199.620157 38.5672219 198.083961 30.6043664 193.334309 24.4033664 190.228135 20.3476711 186.887309 16.4958117 183.24883 12.9076594 182.946613 12.609675 182.627961 12.3254016 182.29333 12.0653508 182.036765 11.8665422 181.708526 11.7582258 181.466113 12.0466125 181.362483 12.170468 181.348787 12.4702805 181.424113 12.6274992 181.699396 13.2001594 181.995678 13.7682492 182.343548 14.2988625 183.915809 16.6991906 185.494917 19.0958625 187.097309 21.4756242 189.903091 25.6419211 191.496352 30.1171711 191.332917 35.2537453 191.157613 40.7787961 191.840113 46.2805383 192.360548 51.7790813 192.459157 52.8165422 192.954026 54.5189836 192.097135 54.7127648 190.716613 55.0249172 190.797417 53.1469758 190.205309 52.2402258 189.977961 51.892425 189.900352 51.4486477 189.739657 51.0542297 187.757439 46.1868469 185.040678 41.7394758 181.770613 37.6563586 177.516287 32.3442844 173.193483 27.0911672 169.554548 21.3202336 166.812222 16.9702102 163.458157 13.1247492 159.647113 9.70295625 154.73357 5.29123359 149.124743 2.12629219 142.557222.937553906 140.586417.581069531 138.582743.179339063 136.553048.584725781 136.281874.6391125 135.88333.613061719 135.896113 1.02164766 135.900222 1.1656125 136.157243 1.34431172 136.335743 1.43480391 138.263178 2.40919453 140.166417 3.44025703 142.134026 4.32598359 145.113743 5.66737031 147.790787 7.59055781 150.011765 9.98997187 152.028678 12.1700109 154.132787 14.2705266 156.457396 16.1621789 159.847983 18.9212766 163.409765 21.4198664 167.060113 23.8060266 167.952613 24.3887414 168.867026 24.93855 169.492004 25.8357023 169.740809 26.1931008 169.956287 26.6249953 169.583765 26.9673117 169.413483 27.1236164 168.997135 27.0902531 168.717287 27.0285539 168.415526 26.9622844 168.121983 26.7936398 167.860396 26.6163117 164.521396 24.3434953 160.902548 22.4920617 157.739309 19.9569094 151.396396 14.8751789 144.158243 11.6942414 136.319765 9.77790938 135.272048 9.52197187 134.198309 9.53568281 133.150591 9.75414375 125.143657 11.4227648 117.139004 13.1032687 109.138461 14.8002258 107.996243 15.0419953 106.845809 15.3344953 105.934135 16.1343 105.553396 16.4679328 104.9307 16.7915109 105.184526 17.3861086 105.283591 17.6187375 105.934591 17.7233977 106.32583 17.7055734 110.131852 17.5323586 113.896787 18.1868273 117.745265 17.9002688 122.126048 17.5744055 126.365765 16.9075969 130.590874 15.7645617 133.655961 14.935507 136.784961 14.3038898 140.0322 14.729843 145.499504 15.446925 150.5532 17.4130734 155.289157 20.0771086 163.948461 24.9481477 171.768678 30.9672492 178.722417 38.0969367 181.64507 41.0932336 183.655135 44.4720656 183.666091 48.8006086 183.668374 49.6621125 183.723613 50.4824836 184.631635 50.9939016 187.198657 52.4399484 188.415287 54.9015188 189.492678 57.494257 191.904483 63.2980969 192.744483 69.3587883 192.589265 75.306593 192.589265 76.6607766 192.571917 77.7256594 192.592917 78.7896281 192.632635 80.820675 192.47833 82.8265852 191.973874 84.8027883 191.74607 85.6953703 191.877091 87.0993703 190.870917 87.139132 190.261461 87.1638117 190.572809 85.6601789 190.497026 84.8443781 190.369657 83.4691711 190.401157 82.0752258 190.212613 80.7100734 189.141613 72.9560813 185.438765 66.4516125 180.4677 60.5974992 177.52907 57.1373156 174.004265 54.437632 169.634439 52.9924992 169.18157 52.842593 168.611374 52.3334602 168.230635 52.9403977 168.092309 53.1606867 168.400917 53.7383742 168.610917 54.0898313 173.08483 61.574632 177.545504 69.0672023 182.070548 76.520925 184.499243 80.5204055 187.059417 84.4399055 189.5292 88.4147063 190.863157 90.561382 191.307352 92.8264289 190.913374 95.4132258 190.352765 99.0959836 188.833461 102.332679 186.942548 105.426323 184.985896 108.62737 183.708091 112.122745 182.262287 115.548195 182.108896 115.911991 181.947743 116.614448 182.076026 116.693058 182.5362 116.976417 182.816048 116.463171 182.998657 116.147363 184.539417 113.476472 186.890048 112.040023 189.846483 111.384183 191.869787 110.934921 193.52833 109.803769 194.953135 108.287339 197.272722 105.818456 199.517896 103.281476 201.764439 100.745866 203.502874 98.7847453 205.365483 96.9438234 206.689852 94.6582102 209.263265 90.2158664 210.167635 84.8667727 209.557265 79.7937258M118.883374 45.0648352C119.659917 44.3034211 121.297917 43.8258234 120.820396 42.5497922 120.457461 41.5799719 118.963265 42.224843 118.0137 42.1105852 114.356961 41.2052063 113.241222 44.2476633 111.55757 46.3033898 110.917983 47.0844563 111.5877 47.4308859 112.412178 47.5954172 115.128939 48.1379133 117.097461 46.8161789 118.883374 45.0648352M108.833048 46.1416008C109.95107 43.6050773 109.089157 41.3939602 107.769352 39.2687648 107.195048 38.3446477 107.08457 36.6403781 105.736461 36.8300461 104.712483 36.974468 105.016983 38.5749914 104.6997 39.4776281 103.023809 42.8550891 105.74833 44.6055187 107.3877 46.6968938 108.010396 47.4912141 108.492939 46.9116984 108.833048 46.1416008M34.3323522 76.7512688C34.4218304 77.0579367 34.5702 77.4221906 34.9418087 77.2910227 35.1910696 77.2032727 35.4175043 76.8998039 35.5393957 76.6388391 35.7101348 76.2736711 36.0977217 75.8093273 35.8813304 75.4752375 35.2212 74.4574289 35.7567 72.8514211 34.7235913 72.8820422 33.8685261 72.9076359 33.7461783 74.4816516 34.0123304 75.5465344 34.1127652 75.9496359 34.2150261 76.3527375 34.3323522 76.7512688M96.7210696 81.3535734C102.046396 83.7301359 107.552048 76.9413938 110.391157 72.2220891 112.503483 68.710718 114.093548 64.1888508 113.2467 59.0646164 112.843135 56.6245266 110.658678 55.6464797 108.412135 56.6258977 104.764983 58.2149953 101.601743 61.6957453 99.8623957 64.7651672 98.0422435 67.9758117 92.6288087 79.5268195 96.7210696 81.3535734M179.383399 80.1109055C179.435048 80.4139172 177.8637 80.8307297 177.504874 80.9724094 170.497722 83.745218 167.256874 85.6981125 161.435765 89.8411008 156.702548 93.2107922 149.519178 100.296605 144.94757 99.6128859 141.424135 99.0859289 141.422309 91.6614563 142.050026 89.2519875 142.105722 89.0371828 141.819939 89.039925 141.721787 89.1624094 139.567004 91.8415266 139.846396 95.0608547 140.35907 98.1750656 140.393309 98.3821008 140.1372 98.5132687 139.993852 98.3597063 139.397635 97.7212336 139.1082 96.7404445 138.945678 95.9027062 138.559461 93.9132492 138.76307 91.8890578 139.107287 89.9105695 139.301309 88.7954133 140.262743 86.7195773 138.990417 85.865843 138.429809 85.4892492 137.677917 85.5559758 137.134657 85.9577063 132.674439 89.2593 126.358917 88.9562883 124.913113 95.3602102 124.588983 96.7943742 124.349309 98.3162883 123.694657 99.6476203 123.523461 99.9954211 121.81333 102.589987 121.852591 101.003632 121.8777 100.066718 121.964896 98.9451633 122.133809 97.756425 122.142939 97.6915266 122.051178 97.6695891 122.031548 97.7326594 121.53257 99.3299836 121.010765 100.895316 120.278504 102.340448 119.925157 103.036964 117.262265 103.557523 117.239896 102.003159 117.15133 95.9059055 119.475939 90.9466594 121.272809 85.369507 121.363657 85.0866047 121.177396 84.7808508 120.882483 84.7438312 120.177157 84.6556242 119.524787 86.1981047 119.089265 86.744257 115.284613 91.5211477 112.515352 96.3295734 107.161265 99.6051164 102.517526 102.44648 90.4279174 105.087206 88.9474174 92.3392336 88.7794174 90.897757 89.2674391 86.7406008 87.447287 86.2748859 86.3498087 85.9938117 85.5340043 86.582925 85.1308957 87.5362922 81.0094174 97.2856828 72.3355043 106.263148 68.0154391 103.379737 67.1594609 102.808448 66.6554609 101.828116 66.5824174 100.800253 65.388613 83.979218 72.1291565 66.898132 74.3633739 59.0179992 75.9269609 53.5034602 74.0675478 56.0765461 71.9821565 60.4594758 70.0948957 64.4269641 67.8867 70.1837297 66.7467652 74.6690344 62.3381348 92.0142844 63.5821565 100.169093 64.1080696 102.498124 64.1409391 102.641632 63.9743087 102.740808 63.8588087 102.649402 62.5654826 101.627937 61.629613 100.094597 61.3150696 98.5219523 60.9790696 96.8391633 61.1580261 95.0997023 61.3785261 93.398175 64.6353522 68.2578 76.1611565 45.2641008 86.6789609 22.5446203 87.1998522 21.4189523 86.514613 20.7608273 85.1984609 20.9724328 83.4938087 21.2475656 82.3515913 22.3654641 81.4476783 23.7169055 67.5310696 44.5296516 57.249287 67.9319367 46.539287 90.4900852 43.6193739 96.6412687 40.2242217 102.566222 36.3944609 108.195019 34.0693957 111.612241 30.1414826 114.977362 25.7474609 114.663382 21.0283957 114.32655 18.2847 110.344894 17.5629391 106.108214 16.0212652 97.0631086 10.660787 96.7107375 8.69637391 97.0004953 5.4893087 97.4744367 3.38154783 99.9094992 1.13135217 101.995847.892134783 102.217507.585808696 102.482128.302308696 102.258183.104634783 102.101878-.0286695652 101.703804.00511304348 101.437812.657026087 96.3186047 7.26928696 93.4397648 11.8541348 94.3286906 19.2616565 95.7646828 19.3981565 105.147077 22.4130261 106.591296 27.5817652 109.067948 37.6270696 92.5755188 39.5179826 89.0216437 39.6627 88.7501672 39.9274826 88.367632 40.071287 88.3159875 40.4643522 88.1747648 40.220113 89.0303273 40.0877217 89.3644172 37.5394174 95.7975891 35.3435478 101.393937 30.8038957 107.151616 30.5441348 107.481136 29.9141348 108.428105 30.2916783 108.806527 30.8372217 109.352679 32.6149174 107.291925 33.3654391 106.391573 41.5896783 96.5256398 45.8033739 83.9019797 50.6982 72.2051789 56.1175696 59.2561125 71.3809174 31.1646867 77.4964826 23.4376594 79.3317 21.1191398 88.9862217 8.69794453 92.1942 13.4570109 93.9938087 16.1269875 92.5146783 21.95505 91.3610478 24.9810539 83.7480913 44.9432648 74.481613 65.5581164 72.2190913 87.0033938 72.0588522 88.5221086 72.1287 90.063218 72.5281565 91.5362297 74.2054174 97.7235187 78.4670478 92.4699445 78.7934609 91.8726047 80.9824826 87.8662688 82.5547435 84.2100188 82.745113 79.8229758 82.7583522 79.5085383 82.8058304 79.1771906 82.9245261 78.889718 83.2952217 77.9921086 83.984113 77.9034445 84.7346348 78.3431086 85.0852435 78.5483156 85.3217217 78.9445617 85.6180043 79.2462023 88.6479391 82.3325344 89.9093087 79.080757 90.849287 76.2467062 93.7062 67.6344094 97.2027 57.0669328 105.986178 52.7511867 111.044896 50.2658508 118.310896 51.7050422 120.324613 57.2570578 124.28083 68.1663937 115.416548 79.8485695 110.406222 82.7264953 110.198504 82.8457805 110.013613 82.5272297 110.185265 82.3599563 116.221396 76.4820773 118.934961 67.3432805 117.217983 63.1810969 117.123483 62.9521242 116.779722 62.9740617 116.7642 63.2213156 116.285765 70.6535578 113.860722 75.4866633 109.706374 80.703675 101.859222 90.5577258 94.4941565 88.5454172 94.4512435 88.5234797 94.0581783 88.8438586 93.7564174 89.2954055 93.5943522 89.741468 92.0321348 94.0375617 95.710787 98.3661047 100.009852 98.3217727 108.236374 98.2358508 115.868048 86.2945383 120.069874 80.7452648 123.407504 76.3367414 126.527374 70.7033742 129.457787 66.006007 132.612352 60.9489563 133.7322 55.3782023 140.394222 54.4682531 140.428004 54.4641398 140.460417 54.4600266 140.491917 54.4577414 140.943417 54.4193508 141.1872 54.977843 140.8512 55.2822258 140.090178 55.9718859 139.312265 56.7278156 138.60283 57.4846594 137.094026 59.0924953 134.1417 62.7565148 134.65483 64.2519211 134.871678 64.8826242 138.181917 60.44805 139.78933 58.8018234 139.8537 58.736468 139.962352 58.8127922 139.921722 58.8955148 137.7117 63.3675656 133.802048 67.8217922 131.915243 72.5228156 130.523765 75.9903117 129.897417 80.0939953 127.34957 82.9659797 126.768874 83.6213625 127.371939 83.9522531 128.13433 84.7548 129.989635 86.7076945 134.688613 82.6168078 138.181004 79.2448313 142.947091 74.6425266 146.998265 69.5511984 150.3012 63.7944328 152.092135 60.6719953 153.45257 59.7725578 156.690678 60.1052766 157.554874 60.1939406 157.852983 60.4425656 157.246722 61.2761906 154.520374 65.0275031 151.585396 68.798925 149.874809 73.1558039 149.737852 73.5045187 149.6397 73.8093586 149.675765 74.1059719 149.719135 74.4601711 150.180222 74.575343 150.413961 74.3061516 152.1072 72.3555422 156.113635 65.6490656 158.671983 63.0092531 158.931287 62.7423469 159.244917 62.4471047 159.757135 62.6902453 159.887243 62.7519445 159.600548 63.2377687 159.459483 63.5005617 155.768504 70.3852805 152.361483 76.9930383 149.71183 84.3818625 148.770483 87.0056789 147.524635 89.5924758 147.606809 92.4484641 147.628722 93.2107922 147.857439 94.1266828 148.732591 94.2075773 149.0517 94.2368273 149.367157 94.1312531 149.637874 93.9598664 156.312678 89.7359836 169.331309 79.2818508 177.643657 79.9148391 178.563091 79.9847648 179.35607 79.9619133 179.383399 80.1109055M129.954483 29.9448703C131.954961 29.2958859 134.002004 29.0312648 136.057265 29.0321765 138.442591 29.03355 140.837961 29.3923195 143.1822 29.9224758 147.452961 30.8886398 151.648852 32.8227961 156.099939 32.6692336 159.055461 32.5673156 163.216657 34.7414133 165.932504 35.8213781 172.289113 38.3483039 178.396461 40.9328156 180.749374 47.8463273 182.065526 51.716468 171.219026 46.891132 170.215591 46.5081398 163.282852 43.8623859 156.607591 40.5790734 150.153287 36.9246516 144.151852 33.5270813 137.664222 31.3360734 130.653874 31.0933898 130.534722 31.0892766 130.281809 31.0737375 130.16357 31.0540852 129.781917 30.9896437 129.240483 31.0842492 129.270157 30.4901086 129.2802 30.2931281 129.683765 30.0326203 129.954483 29.9448703"/>
    <path d="M75.6029545,10.9888382 C74.9529545,10.9856308 74.4656818,11.3160923 74.4843182,12.9790154 C74.4079545,14.8935149 75.1347727,14.8944 75.7106818,14.8935149 C75.9643182,14.8930154 76.9556818,14.8935149 76.9561364,12.9790154 C76.9561364,11.1199385 76.2243182,10.9911692 75.6029545,10.9888382 M78.7634091,12.9974769 C78.7634091,10.9856308 78.2702273,8.77532308 74.1102273,9.72101538 C72.6334091,10.0565538 72.6211364,12.7597846 72.6211364,12.9420923 C72.6388636,13.8979385 72.5629545,14.8805538 73.3125,15.6444 C74.3656818,16.7188615 76.7597727,16.7077846 77.9461364,15.7662462 C78.4797727,15.3420923 78.7634091,14.1716308 78.7634091,12.9974769 M72.3561364,27.8073231 C72.3502273,27.2382462 72.1847727,26.9696308 71.5852273,26.9959385 C70.8656818,27.0268615 70.0438636,26.9996308 69.3229545,26.9779385 C68.6329545,26.9571692 68.8815909,26.3788615 68.8061364,25.9657846 C68.6843182,25.2988615 69.5902273,25.6224 70.7752273,25.5591692 C71.2193182,25.5356308 71.5738636,25.5250154 71.5788636,24.9259385 C71.5843182,24.3577846 71.2934091,24.2276308 70.8170455,24.2484 C68.6511364,24.3444 68.8020455,24.3444 68.7856818,23.5431692 C68.7752273,23.0276308 68.9593182,23.1024 69.9425,23.0470154 C70.8597727,22.9953231 72.2079545,23.3045538 72.3097727,22.2333231 C72.3593182,21.7117846 71.6938636,21.5008615 71.1847727,21.5073231 C70.0584091,21.5207077 69.3202273,21.4782462 68.1943182,21.5147077 C67.4506818,21.5382462 67.2238636,21.7644 67.1865909,22.5097846 C67.1434091,23.3770154 67.1820455,26.9474769 67.1720455,27.8631692 C67.1661364,28.4484 67.4484091,28.5591692 68.1306818,28.5716308 C69.2365909,28.5914769 70.0415909,28.5914769 71.3584091,28.5790154 C72.0738636,28.5730154 72.3634091,28.4779385 72.3561364,27.8073231 M67.2615909,15.8165538 C67.2497727,15.2687077 67.3206818,14.9700923 67.3393182,14.4370154 C67.3765909,13.3519385 68.2561364,13.6237846 68.8520455,13.5877846 C69.9079545,13.5231692 69.7061364,15.0596308 69.7170455,15.4247077 C69.7465909,16.4248615 69.8034091,16.4834769 70.6752273,16.4793231 C71.4697727,16.4756308 71.5120455,16.4405538 71.5293182,15.4911692 C71.5452273,14.6239385 71.5329545,13.7553231 71.5329545,12.8876308 C71.5329545,12.8876308 71.5175,10.9690154 71.5302273,10.0099385 C71.5374726,9.52024615 71.2879545,9.38824615 70.8570455,9.39932308 C70.0165909,9.42009231 69.6838636,9.71916923 69.7152273,10.8804 C69.7579545,12.4574769 69.3102273,12.3637846 68.1897727,12.4191692 C67.0206818,12.4764 67.3393182,11.6576308 67.2634091,10.0542462 C67.2365909,9.47593846 66.9488636,9.3804 66.4829545,9.40255385 C65.8770455,9.43255385 65.5679545,9.76486154 65.5634091,10.3547077 C65.5488636,12.1819385 65.5606818,14.0087077 65.5524839,15.8359385 C65.5497727,16.4128615 65.8947727,16.4876308 66.3497727,16.4839385 C66.8229545,16.4802462 67.2765909,16.5019385 67.2615909,15.8165538 M65.8402273,27.7814769 C65.1806818,26.9124 64.5425,26.0225538 63.8311364,25.1987077 C63.5452273,24.8673231 63.5888636,24.7330154 63.8402273,24.4344 C64.4543182,23.7051692 65.0325,22.9431692 65.5915909,22.1691692 C65.9515909,21.6707077 65.8770455,21.5987077 65.3352273,21.4957846 C64.2552273,21.2890154 63.6875,21.9393231 63.1315909,22.7040923 C62.9020455,23.0193231 62.6911364,23.5990154 62.2947727,23.4928615 C61.8620455,23.3760923 62.0629545,22.2439385 62.0684091,22.1525538 C62.1006818,21.5719385 61.7588636,21.4717846 61.2893182,21.5077846 C60.6861364,21.5544 60.4029545,21.8848615 60.4025,22.4871692 C60.4020455,23.3567077 60.3793182,26.7448615 60.4075,27.5677846 C60.4325,28.3016308 60.5779545,28.3782462 61.3193182,28.3953231 C61.9334091,28.4096308 62.0606818,28.1017846 62.0879545,27.5534769 C62.1111364,27.0882462 61.9420455,26.2436308 62.4465909,26.2320923 C63.0025,26.2196308 63.0170455,26.7970154 63.2697727,27.2170154 C63.4225,27.4708615 63.8079545,28.5697846 65.5970455,28.3884 C66.1065909,28.3367077 66.0865909,28.1064 65.8402273,27.7814769 M59.9034091,15.3850154 C60.4338636,15.3102462 60.9702273,15.2567077 61.4897727,15.1330154 C62.0111364,15.0097846 62.3929545,15.1113231 62.5215909,15.6674769 C62.6934091,16.4105538 63.1852273,16.5360923 63.8320455,16.4839385 C64.4897727,16.4317846 64.5420455,16.4036308 64.3193182,15.7667077 C63.7047727,14.0077846 63.0770455,12.2539385 62.4356818,10.5051692 C62.0988636,9.58624615 62.0806818,9.59316923 61.0634091,9.58947692 C60.0193182,9.58578462 60.0143182,9.58393846 59.6365909,10.6168615 C59.1993182,11.8117846 58.7688636,13.0094769 58.3415909,14.2085538 C58.1284091,14.8071692 57.9284091,15.4108615 57.7256818,16.0136308 C57.6620455,16.2019385 57.6761364,16.4202462 57.8915909,16.4400923 C58.2897727,16.4770154 58.7011364,16.4857846 59.0947727,16.4239385 C59.3984091,16.3764 59.4743182,16.0482462 59.4820455,15.7837846 C59.4915909,15.4676308 59.6647727,15.4191692 59.9034091,15.3850154 M58.2493182,25.8900923 C57.7288636,25.8831692 57.4529545,26.0950154 57.1811364,26.5224 C56.8475,27.0476308 56.3075,26.9862462 55.7270455,26.9257846 C54.6993182,26.8187077 54.9397727,24.6434769 55.0125,24.1034769 C55.1420455,23.1407077 56.2043182,22.7364 56.9688636,23.3373231 C57.1402273,23.4720923 57.2393182,23.6973231 57.3906818,23.8634769 C57.6752273,24.1745538 58.9270455,24.3573231 59.1170455,24.0679385 C59.4056818,23.6276308 58.8452273,22.7414769 58.8188636,22.7040923 C58.0675,21.6522462 56.4906818,21.2327077 55.0138636,21.6910154 C53.7175,22.0939385 53.2088636,22.8060923 53.1279545,24.3434769 C53.1156818,24.5714769 53.1120455,25.7502462 53.1406818,26.1084 C53.2220455,27.1210154 53.8565909,28.0948615 54.8220455,28.3607077 C57.4470455,29.0844 58.6779545,27.7491692 59.0125,27.0702462 C59.4725,26.1360923 59.2979545,25.9034769 58.2493182,25.8900923 M54.4388636,10.8051692 C55.2520455,10.8859385 55.1179545,11.9313231 55.0902273,13.1054769 C55.0252273,15.9060923 54.8256818,16.4853231 55.8056818,16.4853231 C56.3047727,16.4853231 56.7088636,16.4410154 56.6997727,15.7833231 C56.6870455,14.8676308 56.6965909,13.9524 56.6965909,13.0367077 L56.7020455,13.0367077 C56.7020455,12.2128615 56.6952273,10.3828615 56.6934091,10.2910154 C56.6806818,9.75147692 56.4365909,9.41316923 55.8806818,9.40993846 C54.9797727,9.40486154 54.0697727,9.34901538 53.1797727,9.45424615 C51.8447727,9.61209231 50.9679545,10.4373231 50.8561364,11.7411692 C50.7388636,13.1036308 50.8011364,14.4827077 50.8052273,15.8553231 C50.8075,16.5379385 51.3147727,16.4760923 51.7715909,16.4816308 C52.2356818,16.4880923 52.6029545,16.4442462 52.5820455,15.7537846 C52.5515909,14.7476308 52.5347727,12.0850154 52.7388636,11.6147077 C52.9920455,11.0299385 53.6765909,10.7290154 54.4388636,10.8051692 M51.8216185,22.1945538 C51.8247727,21.6605538 51.5529545,21.4999385 51.0579545,21.4925538 C50.5570455,21.4847077 50.2011364,21.6199385 49.9579545,22.0944 C49.5625,22.8647077 49.1284091,23.6142462 48.7093182,24.3716308 C48.4675,24.8082462 48.2538636,24.6956308 48.0556818,24.3337846 C47.6393182,23.5750154 47.2152273,22.8204 46.8102273,22.0556308 C46.5602273,21.5834769 46.1938636,21.4104 45.6906818,21.5419385 C45.0479545,21.7099385 45.0393182,22.2328615 45.0297727,22.9505538 C45.0106818,24.4053231 45.0029545,25.8942462 45.0265909,27.6333231 C45.0356818,28.3044 45.0820455,28.5757846 45.6434091,28.5891692 C46.4825,28.6085538 46.5902273,28.5444 46.6284091,27.7237846 C46.6415909,27.4533231 46.5238636,26.1282462 46.6765909,25.3990154 C46.7161364,25.2111692 46.9484091,25.1576308 47.0743182,25.3011692 C47.3502273,25.6140923 47.4515909,26.0520923 47.6956818,26.3890154 C48.1843182,27.0651692 48.6779545,27.0517846 49.1515909,26.3142462 C49.3725,25.9704 49.5534091,25.6007077 49.7638636,25.2499385 C49.8061364,25.1802462 49.8993182,25.1082462 49.9688636,25.0967077 C50.2529545,25.0500923 50.1452273,26.7633231 50.1447727,26.8570154 C50.1388636,28.4917846 50.1352273,28.5918889 50.9979545,28.5840923 C51.4370455,28.5799385 51.8225,28.5637846 51.8175,27.9628615 C51.8093182,27.0019385 51.8152273,26.0400923 51.8152273,25.0787077 L51.8197727,25.0787077 C51.8197727,24.1173231 51.8152273,23.1559385 51.8216185,22.1945538 M45.0784091,16.4797846 C45.7088636,16.4627077 48.2338636,16.4622462 48.8638636,16.4844 C49.3656818,16.5019385 49.5997727,16.3233231 49.597069,15.7796308 C49.5925,15.0204 49.5465909,14.9294769 48.7684091,14.9050154 C48.0929545,14.8837846 47.4152273,14.9220923 46.7411364,14.8833231 C46.2029545,14.8519385 45.9988636,14.4928615 46.0329545,13.8024 C46.0611364,13.2296308 47.1925,13.4908615 47.5556818,13.4793231 C48.2538636,13.4571692 48.8425,13.4013231 48.8229545,12.7602462 C48.8079545,12.2696308 48.5638636,12.1380923 48.1352273,12.1491692 C47.6402273,12.1611692 47.1438636,12.1454769 46.6484091,12.1367077 C46.1515909,12.1288615 46.0934091,11.7490154 46.0552273,11.3779385 C45.9943182,10.7940923 46.4620455,11.0091692 46.7129545,10.9902462 C47.3379545,10.9422462 47.9643182,10.8573231 48.5838636,10.9537846 C49.3456818,11.0724 49.5588636,10.7779385 49.5529545,10.2056308 C49.5484091,9.73532308 49.4534091,9.39701538 48.8925,9.40158412 C47.7093182,9.41132308 46.5265909,9.39932308 45.3434091,9.40716923 C44.8438636,9.41086154 44.4379545,9.82532308 44.4334091,10.3330154 C44.4188636,12.1630154 44.4265909,13.9934769 44.4247727,15.8239385 C44.4243119,16.2679385 44.6161364,16.4927077 45.0784091,16.4797846 M43.6834133,24.2793231 C43.6847727,21.3670154 43.3556818,20.1573231 40.7352273,20.0437846 C37.1379545,19.8882462 37.5947727,22.6274769 37.5947727,24.3919385 C37.5947727,28.0916308 37.9561364,28.6953231 40.7588636,28.6953231 C43.4965909,28.6953231 43.6820455,27.5442462 43.6834133,24.2793231 M35.9615909,16.4779385 C37.0888636,16.4834769 38.2165909,16.4797846 39.3443182,16.4793231 C40.4715909,16.4793231 41.5993182,16.4710154 42.7270455,16.4834769 C43.1856818,16.4885538 43.5365909,16.4008615 43.5484091,15.8382462 C43.5588636,15.3550154 43.5543182,14.8837846 42.8870455,14.8980923 C42.3888636,14.9082462 42.2993182,14.5934769 42.3020455,14.1790154 C42.3070455,13.3090154 42.2897727,12.4390154 42.3011364,11.5685538 C42.3293182,9.31578462 42.3002273,9.38316923 40.1379545,9.39516923 C37.1138636,9.41132308 36.3525,10.1622462 36.3320455,13.1807077 C36.3265909,13.9593231 36.5884091,14.8413231 35.4661364,15.1814769 C35.1588636,15.2742462 35.0411364,15.7607077 35.1634091,16.1451692 C35.2920455,16.5513231 35.6556818,16.4760923 35.9615909,16.4779385 M34.5115909,13.9833231 C34.2456818,13.5697846 33.5734091,13.7165538 33.1043182,13.8296308 C32.7388636,13.9177846 32.8270455,14.5380923 32.4593182,14.6950154 C30.7406818,15.4302462 30.3347727,14.2588615 30.3343182,13.6944 C30.3338636,13.1451692 29.9956818,11.3396308 31.1220455,11.0400923 C32.3256818,10.7202462 32.5947727,11.5870154 32.7147727,11.7213231 C33.0043182,12.0457846 33.8079545,12.2968615 34.4252273,11.9871692 C34.7547727,11.8219385 34.4120455,11.0599385 34.1870455,10.6445538 C33.6202273,9.59824615 31.2188636,9.16993846 29.8956818,9.7464 C28.7493182,10.2457846 28.5429545,11.4614769 28.4615909,12.4680923 C28.4502273,12.6051692 28.2206818,14.8122462 28.9511364,15.5945538 C30.1425,16.8702462 33.0384091,16.7447077 34.1143182,15.3499385 C34.4297727,14.9410154 34.7656818,14.3779385 34.5115909,13.9833231 M34.5315909,26.4171692 C34.5315909,25.5217846 33.6679545,25.5291692 33.5361364,25.0487077 C33.4106818,24.5894769 34.2702273,24.2954769 34.2965909,23.4222462 C34.3284091,22.3860923 33.7147727,21.6397846 32.4738636,21.5308615 C31.5361364,21.4482462 30.5847727,21.4750154 29.6425,21.5193231 C28.9188636,21.5544 28.7452273,21.7690154 28.7143182,22.5785538 C28.6811364,23.4448615 28.7075,27.0084 28.7156818,27.9217846 C28.7184091,28.1959385 28.7488636,28.5300923 29.0893182,28.5425538 C30.9738636,28.6140923 31.6052273,28.7737846 33.3547727,28.4340923 C34.1947727,28.2707077 34.5315909,27.3134769 34.5315909,26.4171692 M113.070682,11.5865538 C112.783409,12.0674769 112.287045,12.3827077 111.7375,12.4565538 C110.278864,12.6522462 108.816591,12.8322462 107.350682,13.0007077 C101.410682,13.6828615 95.4111364,14.0608615 89.3406818,15.8867077 C89.0452273,15.9757846 88.9584091,16.4336308 89.3506818,16.3796308 C95.9506818,15.4736308 110.462955,13.9482462 109.702045,14.6451692 C109.227955,15.0785538 101.758409,15.9965538 98.1506818,16.5744 C98.1752273,18.4685538 97.4193182,20.6013231 96.1765909,22.2074769 C95.9402273,22.5125538 95.6061364,22.7211692 95.2311364,22.7945538 C89.3679545,23.9414769 83.6129545,25.6625538 78.1143182,27.9559385 C77.7979545,28.0879385 77.8025,28.6713231 78.2134091,28.5347077 C85.4229545,26.1467077 93.0115909,24.7210154 100.610227,24.3988615 C101.755227,24.3499385 102.904773,24.3268615 104.055682,24.3319385 C104.504773,24.3337846 104.946591,24.4967077 105.274773,24.8077846 C105.888864,25.3902462 107.452955,26.9982462 106.381591,27.0291692 C106.183409,27.0351692 105.980682,27.0596308 105.788864,27.0757846 C98.0406818,27.7297846 90.3502273,29.4905538 82.9347727,31.7622462 C82.5597727,31.8767077 82.4529545,32.5122462 82.9475,32.3954769 C90.0597727,30.7140923 98.4320455,28.9865538 106.364318,29.3257846 C106.748864,29.3424 107.068409,29.6622462 107.068864,30.0531692 C107.074318,33.1810154 103.942045,35.3013231 101.161136,35.8265538 C94.0438636,37.1710154 86.9534091,38.6308615 79.7820455,39.5345538 C72.8352273,40.4096308 65.8520455,40.6713231 58.8943182,41.5076308 C54.5175,42.0337846 56.0734091,35.6936308 58.8920455,33.9042462 C40.8284091,34.0810154 22.7643182,34.2573231 4.70022727,34.4340923 C-0.327045455,34.4830154 -0.493863636,31.5171692 1.65431818,28.2217846 C2.07704545,27.5733231 2.7425,27.1168615 3.49522727,26.9770154 C9.31386364,25.8919385 15.1843182,25.9436308 21.0743182,25.3999385 C21.2884091,25.3800923 21.4670455,25.0417846 21.1725,25.0117846 C16.9243182,24.5733231 12.4411364,24.0753231 8.0025,24.0393231 C7.61159091,24.0365538 7.31977273,23.6816308 7.38977273,23.2916308 C7.58977273,22.1737846 8.07477273,20.1707077 9.20840909,18.7113231 C9.44568182,18.4062462 9.80613636,18.2253231 10.1884091,18.2082462 C14.1834091,18.0333231 18.2493182,18.0674769 21.9634091,17.4559385 C22.1406818,17.4264 22.3493182,17.0470154 22.0765909,17.0100923 C17.8143182,16.4290154 12.5525,15.7348615 7.42340909,15.8442462 C7.15886364,15.8497846 6.97613636,15.5904 7.06068182,15.3360923 C7.10113636,15.2147077 7.47704545,12.2682462 8.84022727,10.3948615 C9.24522727,9.83824615 9.82022727,9.43763077 10.4670455,9.21978462 C13.9756818,8.03778462 20.9979545,6.34624615 26.4043182,5.90270769 C32.3884091,5.41209231 38.2979545,3.92778462 44.1334091,2.54778462 C49.3347727,1.31778462 54.0784091,-0.00590769231 59.4656818,0.240092308 C66.1247727,0.543784615 72.6434091,1.99486154 79.2343182,2.22378462 C79.4170455,2.22978462 79.4297727,2.49793846 79.2488636,2.51963077 C77.7870455,2.6964 69.6193182,3.46993846 67.0220455,3.81101538 C66.0265909,3.94116923 62.6138636,3.92686154 62.7170455,5.2704 C62.7370455,5.52747692 63.7570455,5.96270769 65.4915909,5.42316923 C66.1002273,5.23393846 80.5443182,4.94778462 80.3761364,5.11209231 C90.3706818,4.49501538 100.353409,3.63101538 110.312045,2.48963077 C115.344773,1.91270769 115.378409,7.72024615 113.070682,11.5865538 M61.6729545,13.1516308 C61.5597727,12.7870154 61.4093182,12.4357846 61.2634091,12.0822462 C61.1893182,11.9031692 60.9297727,11.8491692 60.8329545,12.0167077 C60.5820455,12.4510154 59.6597727,14.1504 60.6434091,14.0700923 C61.5570455,13.9957846 61.8561364,13.7410154 61.6729545,13.1516308 M31.7029545,25.5591692 C31.6065909,25.5471692 30.5975,25.3907077 30.3961364,25.8264 C30.2543182,26.1333231 30.2975,27.0208615 30.7547727,27.2031692 C31.1184091,27.3476308 32.1920455,27.2677846 32.4220455,27.0162462 C32.7738636,26.6322462 32.8420455,25.7017846 31.7029545,25.5591692 M31.1320455,24.2470154 C31.9679545,24.3831692 32.4961364,24.0827077 32.5297727,23.5699385 C32.5652273,23.0345538 32.1920455,22.8485538 31.1879545,22.8088615 C30.2020455,22.7580923 30.3597727,23.3733231 30.3802273,23.5367077 C30.4297727,23.9244 30.6970455,24.1754769 31.1320455,24.2470154 M40.4929545,13.6884 C40.4984091,13.3251692 40.5897727,12.1754769 40.5838636,11.4310154 C40.5825,11.2122462 40.4606818,10.8767077 40.2752273,10.8051692 C39.2343182,10.4027077 38.2511364,11.2265538 38.2011364,12.3794769 C38.1797727,12.8774769 38.1934091,13.2988615 38.2015909,13.7973231 C38.2188636,14.8990154 38.2220455,14.8990154 39.3247727,14.8994769 C40.4738636,14.9004 40.4752273,14.9004 40.4929545,13.6884 M41.8815909,24.2640923 C41.8815909,26.2090154 41.8065909,27.1353231 40.5220455,27.136709 C39.1761364,27.1380923 39.2620455,26.0119385 39.2620455,24.2640923 C39.2620455,22.8060923 39.1411364,21.6845538 40.5720455,21.6522462 C41.8338636,21.6231692 41.8815909,22.8060923 41.8815909,24.2640923" transform="translate(42 181)"/>
  </g>
</svg>
