<svg xmlns="http://www.w3.org/2000/svg" width="210" height="223" viewBox="0 0 210 223">
  <path fill-rule="evenodd" d="M147.707946 136.329364C148.910635 136.569316 149.782925 135.983979 150.573522 135.208226 150.91799 134.870567 151.643234 134.659246 151.431743 134.093905 151.271535 133.664446 150.609376 133.950297 150.188662 133.899398 148.56889 133.49857 148.075107 134.846026 147.32944 135.756752 147.046241 136.103046 147.342601 136.256197 147.707946 136.329364M146.122667 135.684948C146.617811 134.561083 146.236128 133.581735 145.651576 132.640561 145.396969 132.231097 145.348408 131.475795 144.751148 131.560323 144.297303 131.623947 144.432095 132.332895 144.291857 132.733269 143.549367 134.229332 144.75614 135.004631 145.482746 135.931263 145.758229 136.28301 145.97199 136.026243 146.122667 135.684948M83.7289979 122.475332C84.9357711 122.475332 84.7832793 123.318344 84.7955331 124.079555 84.8177715 125.433828 84.8173177 126.78901 84.8672406 128.14192 84.8881174 128.702716 85.0755553 129.28669 85.7622224 129.260331 86.4207512 129.236245 86.6236198 128.664087 86.6454043 128.099201 86.693058 126.835819 86.6817119 125.571073 86.7184733 124.307691 86.7393502 123.597379 86.7261887 122.524867 87.573063 122.524867 88.131292 122.524867 88.8510898 122.468515 88.8497302 121.70276 88.8483667 120.969271 87.7913623 121.081976 87.1886565 121.076068 86.1706827 121.065161 85.4195696 121.063798 83.9427588 121.088338 83.4312758 121.096973 82.7160165 121.006536 82.6070937 121.675947 82.4800172 122.454881 83.2433841 122.475332 83.7289979 122.475332M122.137425 155.53732C121.251974 155.450974 120.903422 156.115386 120.893891 156.827061 120.848053 160.031871 120.847145 163.238953 120.885268 166.444672 120.893437 167.145895 121.189344 167.830303 122.082056 167.788947 122.954346 167.748501 123.205776 167.056822 123.205776 166.35469 123.205776 164.800457 123.254791 158.580799 123.213491 157.027021 123.195338 156.328979 122.993377 155.619576 122.137425 155.53732M111.342274 129.495284C112.227725 129.495284 114.346273 129.250788 114.173812 127.807442 114.057627 126.833092 113.03693 127.608391 112.489594 127.773812 111.516097 128.068298 110.896599 127.832891 110.401454 127.160753 109.889063 126.464984 109.589072 124.417214 110.484054 123.300621 110.852576 122.841167 111.774334 122.493056 112.628924 122.882068 113.12543 123.108386 113.864743 123.710538 114.138866 122.674837 114.33538 121.933168 113.699544 121.505527 113.093207 121.314202 111.533343 120.821574 109.982101 120.93655 108.834328 122.181755 107.449648 123.683271 107.45464 126.215034 108.104092 127.419792 108.784859 128.681357 109.774241 129.495284 111.342274 129.495284M80.1731243 129.317138C80.8634222 129.158533 81.7806424 128.788608 81.5691508 127.948322 81.2832286 126.812187 80.4486081 127.635203 79.869956 127.800625 78.989951 128.052847 78.3187147 127.863339 77.8022393 127.112127 77.206795 126.246392 77.1913643 124.650349 77.8045086 123.47604 78.0877077 122.932967 78.9468358 122.417162 79.8676868 122.802084 80.4404389 123.041582 81.2805055 123.746894 81.5618893 122.612123 81.7697502 121.772746 80.9324066 121.372372 80.2162396 121.212404 78.6255137 120.858384 77.0756339 121.054709 76.0476755 122.421252 75.0800785 123.707811 74.84181 125.771487 75.6079 127.545222 76.212875 128.945395 77.7223627 129.88157 80.1731243 129.317138M59.997002 139.574621C61.590451 139.574621 62.4091869 139.402837 62.4091869 138.641627 62.4091869 137.595473 61.7229736 137.721357 58.6350139 137.721357 54.5613034 137.721357 54.8712794 138.194444 54.8712794 143.943288 54.8712794 148.952281 54.6380032 150.165218 56.2160214 150.165218 57.3483641 150.165218 57.2730258 149.71849 57.2730258 144.71586 57.2730258 141.192023 56.9753037 139.574621 59.997002 139.574621M116.827896 129.459837C118.306522 129.459837 118.085046 128.711805 118.085046 126.96352 118.085046 126.611318 118.148584 126.198674 118.625575 126.151865 119.012704 126.114146 119.328126 126.325921 119.511934 126.649947 119.95534 127.430245 120.307523 128.269621 120.810383 129.006746 121.136698 129.484832 121.810203 129.669794 122.262687 129.278964 122.997007 128.645455 122.446948 127.922418 121.942726 127.041686 121.260144 125.849653 120.911137 125.488362 120.863029 124.859852 120.82536 124.372678 121.342743 123.90868 121.659981 123.37197 121.829265 123.086573 123.046023 121.984522 121.945903 121.371009 120.909322 120.792943 120.222201 122.26901 119.985747 122.649842 119.656256 123.179281 119.412542 123.88414 118.697282 123.88414 117.310787 123.88414 118.859759 121.241035 117.007618 121.241035 116.179352 121.241035 115.935183 121.825463 115.896152 122.489874 115.843506 123.38833 115.82263 127.470691 115.821241 127.937415 115.818999 128.582286 115.958329 129.459837 116.827896 129.459837M107.245418 157.393765C107.791847 157.573274 108.397276 157.840493 108.80029 157.334231 109.32448 156.673455 108.437214 156.082665 107.804554 155.804539 107.280364 155.573222 106.694904 155.423252 106.123513 155.367354 101.489305 154.913355 98.2452223 159.833729 100.229885 164.565959 102.211372 169.289555 107.357971 167.99936 108.235253 167.274051 108.616936 166.958205 109.053989 166.598732 108.857474 166.069748 108.630552 165.458052 108.088207 165.646196 107.628463 165.815253 106.331828 166.292885 104.589518 166.129281 103.884697 165.735724 102.238602 164.815909 101.475689 161.337972 102.711055 159.059794 103.521168 157.566003 104.898586 156.622102 107.245418 157.393765M91.9213421 123.739623C91.9186265 124.41267 92.6574857 124.310417 93.4426372 124.326778 94.1597119 124.297693 94.7832946 124.351773 94.7737638 123.581928 94.7651408 122.932058 94.0734814 122.558043 93.4031527 122.559402 92.6298012 122.560315 91.9240726 122.962052 91.9213421 123.739623M89.7301871 127.50114C88.8660667 125.712408 89.1202198 123.917769 90.2571009 122.377624 91.2796131 120.991085 92.8435621 120.841115 94.4211265 121.111061 95.4627002 121.288752 96.2569285 121.972251 96.6976117 122.944783 97.4251249 124.550824 96.8591805 125.616518 95.1087013 125.695593 93.3509605 125.774668 91.858719 125.47791 91.7706731 126.532243 91.6304351 128.202817 94.0621353 128.17055 95.2471239 127.804715 95.7508916 127.649292 96.3953511 127.561582 96.4983739 128.34597 96.6404273 129.428479 94.369842 129.484377 94.1887579 129.505282 92.1110567 129.561634 90.5543692 129.20716 89.7301871 127.50114M128.185814 126.839909C128.216676 126.16868 127.922584 125.835111 127.405655 125.845109 126.637296 125.859651 125.951537 126.117781 125.881191 127.029416 125.841252 127.545676 126.201605 127.920601 126.687219 127.936052 127.485986 127.961956 128.058738 127.577033 128.185814 126.839909M125.071986 129.283963C124.147504 128.980388 123.574752 128.242809 123.519383 127.251644 123.459021 126.167317 123.975043 125.353844 124.925394 124.814861 125.659261 124.398127 126.474366 124.375404 127.279033 124.274516 127.75557 124.214528 128.172199 124.00048 128.079161 123.415597 128.000192 122.918879 127.63757 122.592581 127.156041 122.586219 126.62595 122.578947 126.094498 122.725736 125.561684 122.787542 125.038855 122.847984 124.381688 123.015678 124.289557 122.254467 124.208773 121.587329 124.82464 121.336924 125.345654 121.246943 128.899258 120.632521 130.534461 121.401003 130.587561 124.792593 130.593915 125.170245 130.538546 127.468419 130.538546 128.190092 130.538546 130.011089 125.361992 129.379398 125.071986 129.283963M68.9173206 127.102583C68.9241283 127.609754 69.2840272 127.965592 69.7887026 127.94196 70.5802078 127.904695 71.1529599 127.527498 71.2260289 126.734021 71.1919905 126.099603 70.8842838 125.791483 70.3605469 125.840564 69.6044416 125.911914 68.9041591 126.161409 68.9173206 127.102583M66.5836509 127.457057C66.3567285 126.003713 67.0883263 124.546279 70.1004939 124.3086 70.6795998 124.262245 71.1647598 124.095915 71.0939601 123.358336 70.9981988 122.352175 69.1528661 122.69756 68.7965979 122.742096 68.208869 122.815718 67.390133 123.15974 67.3279563 122.195388 67.2775795 121.417363 68.0854232 121.243761 68.6944829 121.170594 72.3261486 120.733409 73.8633207 121.509163 73.616883 126.424992 73.616883 126.624952 73.6218753 127.166661 73.6159753 127.708371 73.6019062 128.928125 73.1426153 129.51937 71.7760887 129.323955 70.9078837 129.199889 69.9888481 129.493921 69.0952278 129.476651 67.7781703 129.450747 66.7915118 128.789062 66.5836509 127.457057M134.592741 123.605559C134.550987 124.348137 135.052032 124.712155 135.741422 124.78305 136.496166 124.860761 136.895095 124.486291 136.92278 123.726898 136.929134 123.005225 136.651834 122.517596 135.858968 122.537138 135.170031 122.554407 134.633587 122.868435 134.592741 123.605559M132.628955 127.32572C133.646928 126.134142 133.75222 126.051885 133.638305 125.769215 133.505329 125.438372 132.258617 125.28613 132.258617 123.665093 132.258617 121.019261 134.345849 121.019261 136.727627 121.054254 138.345583 121.077431 139.129373 121.054254 139.129373 122.720283 139.129373 123.876414 139.083988 126.890808 139.083988 128.395051 139.083988 128.980388 138.644667 129.343951 137.9875 129.343951 136.191182 129.343951 138.012461 126.461803 136.187097 126.461803 135.513138 126.461803 135.229485 127.058956 134.229211 128.520026 133.510775 129.568906 132.934846 129.489376 132.509593 129.191709 132.154687 128.943122 131.859688 128.226448 132.628955 127.32572M117.121079 164.341913C117.121079 162.696789 116.172544 162.222794 114.83461 162.222794 113.345545 162.222794 113.345545 163.018543 113.345545 164.368272 113.391837 165.387612 113.636006 166.398318 114.765625 166.398318 116.006891 166.398318 117.121079 165.795257 117.121079 164.341913M119.591356 164.110142C119.591356 166.05566 118.243891 167.990725 114.815094 167.990725 111.208844 168.012993 110.866645 167.489462 110.866645 164.517787 110.866645 162.07237 110.907945 159.626043 110.907945 157.180626 110.907945 156.454863 111.083583 155.538683 112.152387 155.538683 113.345545 155.538683 113.313322 156.467588 113.313322 157.258792 113.313322 160.335446 113.345545 160.684012 116.175721 160.684012 118.779882 160.684012 119.591356 162.222794 119.591356 164.110142M89.8382021 148.959552C91.1734134 148.959552 91.9458572 148.281052 91.9458572 146.872699 91.9458572 145.525697 91.3254514 144.829019 89.7433486 144.829019 88.4040527 144.829019 88.0958921 145.934251 88.0958921 146.774537 88.1126844 147.861136 88.3196376 148.959552 89.8382021 148.959552M89.7015949 150.510176C85.9687218 150.51333 85.6732689 150.242476 85.6351459 147.007217 85.6065537 144.57407 85.6197152 142.138651 85.6764458 139.705958 85.6941457 138.932477 85.6206229 137.683183 86.8006192 137.683183 88.382722 137.683183 88.1085998 138.682527 88.1085998 141.525592 88.1085998 142.604921 88.6695519 143.118908 89.7415332 143.117999 90.2266933 143.117999 94.5436645 143.023018 94.5436645 146.637746 94.5436645 150.658756 89.9239788 150.490153 89.7015949 150.510176M79.2205042 144.116435C80.5175925 144.116435 81.4139359 143.502013 81.4139359 141.884611 81.4139359 140.529883 81.1071368 139.551898 79.4860034 139.551898 78.0768154 139.5419 78.145346 140.842093 78.145346 141.771906 78.145346 142.984844 78.048677 144.116435 79.2205042 144.116435M78.0790846 148.600079C78.0790846 149.698494 78.0768154 150.313371 76.9031729 150.313371 75.2439165 150.313371 75.6823305 148.962279 75.6823305 142.33452 75.6823305 137.850877 76.0213525 137.682729 79.6698105 137.682729 82.2608102 137.682729 83.8833052 139.037456 83.8833052 141.771906 83.8833052 143.941016 82.4350866 145.802005 80.5398309 145.802005 78.297384 145.802005 78.0790846 145.882898 78.0790846 148.600079M83.7612289 159.149321C83.7584979 157.924567 83.2270456 157.069739 81.9735264 157.069739 80.4290928 157.069739 80.4599542 157.918659 80.4599542 159.1625 80.4595004 161.231175 80.6414921 161.437952 81.4883664 161.44386 82.8194931 161.452494 83.7643978 160.608119 83.7612289 159.149321M86.2396671 158.724861C86.2396671 162.124177 84.6516643 163.107616 82.1931873 163.254859 80.4595004 163.358929 80.4540542 163.592518 80.4540542 165.256275 80.4540542 166.967749 80.4595004 167.793492 79.194635 167.793492 78.4793757 167.793492 78.1113076 167.222698 78.1113076 166.624182 78.1113076 163.191236 78.1589613 160.317268 78.1589613 156.661185 78.1589613 155.417799 78.9209666 155.286007 81.5764123 155.329635 85.1645089 155.329635 86.2396671 156.947945 86.2396671 158.724861M71.9190498 159.457895C71.4942511 158.431738 71.0090911 159.055703 70.8234686 159.401997 70.3968545 160.197747 70.1250015 161.059846 69.8899099 161.932398 69.6752414 162.72951 70.2470857 162.943558 71.2682364 162.943558 73.2070612 162.943558 73.0232541 162.125086 71.9190498 159.457895M76.3059132 165.677554C76.6490198 166.743249 76.8201193 167.514457 75.9664373 167.812579 74.9511866 168.167962 74.6666259 167.268597 74.2091504 166.301974 73.3704453 164.530966 73.2528995 164.433259 71.3889591 164.433259 68.6409292 164.433259 69.0997662 164.904982 67.8244625 167.39948 67.5866478 167.865296 67.0529264 167.973456 66.5355434 167.788038 65.9341991 167.572173 65.9015223 167.052732 66.0662679 166.590098 67.2744026 163.203051 68.4330683 159.793737 69.7864333 156.464406 70.3800623 155.003337 72.0942339 154.898358 72.6946705 156.293532 73.8823822 159.049341 75.7485918 163.947447 76.3059132 165.677554M101.252398 125.393836C101.285528 126.652219 101.598227 127.95832 103.063238 127.894242 104.491034 127.832437 104.801917 126.615409 104.797833 125.237958 104.792841 123.765527 104.090289 122.720283 103.125869 122.720283 101.658135 122.720737 101.211098 124.110458 101.252398 125.393836M99.0444429 131.164039C99.0444429 129.710695 99.0349122 124.515376 99.0349122 122.746187 99.0349122 121.679128 99.4896646 120.477097 100.722307 121.356466 101.297782 121.766384 101.95858 121.234218 102.57354 121.161505 105.177247 120.852476 106.81608 122.102225 106.806591 124.932111 106.796111 128.051938 105.882976 129.436205 103.227984 129.436205 101.675381 129.436205 101.11216 128.661361 101.11216 131.289014 101.11216 131.894801 100.891591 132.558759 99.9997861 132.558759 99.1588118 132.558759 99.0444429 131.797094 99.0444429 131.164039M101.762065 148.70324C102.04708 149.287213 102.599863 150.947334 103.736744 150.262472 104.81644 149.612602 103.868359 147.988383 103.667306 147.523931 103.073223 146.149208 102.264471 144.610426 102.151918 143.997822 101.985357 143.094368 102.268556 142.474492 102.837677 141.413796 103.322384 140.509887 104.485588 138.845222 103.254761 138.225347 101.698073 137.440959 101.405797 140.087699 100.758615 141.125673 100.367854 141.752819 99.7406408 142.770796 98.7026978 142.770796 98.3296375 142.770796 98.0237461 142.727169 98.0237461 140.207675 98.0237461 138.588455 97.8585466 138.029477 96.8836881 138.029477 96.0699444 138.029477 95.7626915 138.417126 95.7626915 139.049726 95.7626915 143.414758 95.7558839 145.977424 95.7558839 149.284032 95.7558839 149.905725 96.2301516 150.311098 96.9435956 150.311098 97.6565857 150.311098 97.9679232 149.69804 97.9679232 149.087708 97.9679232 146.161933 97.915731 144.988987 98.6718364 144.946268 100.764515 144.829019 100.329277 145.764285 101.762065 148.70324M64.5549649 157.534191C64.5549649 154.955164 62.4091869 154.976521 61.3830439 154.976521 58.7330444 154.976521 57.15548 155.697742 56.8114657 159.607865 56.6067817 161.937851 56.4533822 165.465778 54.7283183 166.179725 54.2109353 166.393773 53.5923449 167.255873 54.3625194 167.622617 55.9850144 168.396552 57.8970624 166.872768 58.2093076 165.426695 58.4970451 164.094236 58.8696517 160.51132 59.0284973 159.448806 59.3380195 157.377405 60.0078943 156.895229 60.836161 156.895229 61.6862122 156.895229 62.1563954 156.937039 62.1563954 158.940727 62.1563954 159.526972 62.1563954 163.473452 62.1477723 165.561668 62.1441416 166.487391 62.1563954 167.910741 63.3599916 167.910741 64.7224336 167.910741 64.5785648 166.375595 64.5785648 165.448963 64.5785648 163.160333 64.5549649 159.098422 64.5549649 157.534191M55.3696009 129.296233C56.1742677 129.468471 56.5141974 128.822237 56.6417278 128.191001 56.8908886 126.95534 56.8781809 125.057086 57.3696948 125.057086 58.359984 125.057086 58.3018919 129.370309 59.89761 129.370309 60.6777692 129.370309 61.0022682 128.896768 61.2432597 128.280983 61.637197 127.274821 62.4391406 124.648986 62.9374622 124.658529 63.3554532 124.667164 63.3581763 127.047594 63.5351757 127.926509 63.6558984 128.52457 63.7580135 129.329863 64.5826494 129.26533 65.5929078 129.186255 65.4177237 128.287345 65.4413237 127.971045 65.2234782 125.988716 65.0796094 124.37495 64.8549563 122.772999 64.7546566 122.055416 64.5059496 121.347377 63.6304831 121.1865 62.6996475 121.014717 62.1042032 121.430996 61.6676046 122.23947 61.0943986 123.300621 60.9310145 125.293402 59.982479 125.272042 59.1179047 125.252955 59.0579972 123.349247 58.5469681 122.316273 58.1389616 121.491893 57.6066017 121.023351 56.6548893 121.158778 55.7626305 121.285117 55.503939 121.973615 55.3882086 122.69756 55.118171 124.383585 54.9071331 126.079153 54.6783954 127.77154 54.5903495 128.423681 54.5622111 129.123995 55.3696009 129.296233M114.338103 144.064173C114.31178 141.318361 112.939354 139.415107 110.976021 139.402771 109.01042 139.390112 107.652516 141.225198 107.557663 144.022817 107.453278 147.099926 108.66459 148.920923 110.837145 148.952281 112.834516 148.981366 114.363973 146.845431 114.338103 144.064173M110.665592 150.507877C107.063426 150.486063 105.100093 148.376942 105.059701 144.484543 105.015678 140.306292 107.273102 137.845878 111.145306 137.850869 114.664418 137.855421 116.856942 140.315381 116.805657 144.200509 116.753465 148.126083 114.413442 150.5306 110.665592 150.507877M67.9347467 148.952281C69.9316636 148.981366 71.4615743 146.845431 71.4352513 144.064173 71.4093822 141.318361 70.0365018 139.415107 68.0736232 139.402771 66.1080216 139.390112 64.7496643 141.225198 64.6548107 144.022817 64.5504264 147.099926 65.7621919 148.920923 67.9347467 148.952281M62.1568492 144.484543C62.1132801 140.306292 64.3707039 137.845878 68.2429073 137.850869 71.7620195 137.855421 73.9545435 140.315381 73.9028052 144.200509 73.8510669 148.126083 71.5105895 150.5306 67.7631934 150.507877 64.1610276 150.486063 62.1976952 148.376942 62.1568492 144.484543M137.740154 144.430463C137.740154 140.516704 136.040506 139.412381 134.258257 139.412381 132.673885 139.412381 130.94156 140.768017 130.94156 144.207326 130.94156 147.698442 132.245002 148.96137 134.341765 148.96137 135.565784 148.96137 137.740154 148.005653 137.740154 144.430463M140.195454 144.284583C140.195454 148.676427 137.463763 150.50515 134.239196 150.50515 130.94156 150.50515 128.496244 148.953644 128.496244 144.369111 128.496244 140.404908 130.654276 137.85224 134.362188 137.85224 137.740154 137.85224 140.195454 139.845475 140.195454 144.284583M124.776989 146.905419C124.778348 145.493885 124.091227 144.677231 122.624855 144.689501 121.071344 144.702226 120.929291 145.587957 120.954252 146.75136 120.98466 147.814782 120.860306 148.795039 122.476901 148.796404 123.882459 148.797312 124.775625 148.311955 124.776989 146.905419M120.967414 141.380621C120.989652 142.325886 121.150313 143.004386 122.386586 143.025745 123.547521 143.045741 124.083512 142.052759 124.091227 141.095224 124.099396 140.013169 123.472637 139.547354 122.008534 139.547354 120.96696 139.547354 120.951983 140.710756 120.967414 141.380621M127.237279 147.246714C127.237279 149.325842 125.666976 150.514697 122.860854 150.514697 118.70409 150.514697 118.484429 150.5306 118.484429 148.421478 118.484429 147.737525 118.519829 141.485146 118.490329 140.214947 118.449483 138.461208 118.915582 137.830426 122.06708 137.830426 125.172285 137.830426 126.438966 139.208331 126.438966 140.529429 126.438966 142.270897 125.615692 142.528118 125.615692 143.489288 125.615692 144.177786 127.237279 144.107346 127.237279 147.246714M151.999978 141.915059C151.999978 138.433487 152.017656 138.05629 151.046882 138.05629 149.718479 138.05629 149.891394 138.205805 149.191565 139.168793 146.655934 142.659909 144.576872 147.667993 144.576872 144.4241 144.576872 143.200255 144.65221 141.611484 144.65221 139.955453 144.65221 138.697979 144.509702 138.06447 143.385983 138.06447 142.222325 138.06447 142.150164 138.712067 142.150164 139.409654 142.150164 143.746964 142.096156 145.505246 142.096156 148.2656 142.096156 149.037718 141.961364 150.356544 143.080999 150.356544 144.403049 150.356544 144.386257 149.806654 144.876863 149.093616 146.146267 147.247169 147.428832 145.408902 148.63379 143.520191 149.476579 142.198184 149.532402 142.51403 149.532402 143.800135 149.532402 145.359821 149.541025 146.919962 149.585956 148.478285 149.608194 149.255401 149.476126 150.290193 150.775937 150.290193 152.030364 150.290193 151.989972 149.33584 151.989972 148.462834 151.989972 145.213941 151.999978 144.741764 151.999978 141.915059M98.0264692 158.526264C98.0264692 160.742637 98.021023 162.300506 98.021023 165.606204 98.021023 166.531473 98.1657995 167.812579 96.7262039 167.758044 95.5466614 167.713508 95.5938613 166.579191 95.5938613 165.723908 95.5938613 164.236934 95.5698075 163.157151 95.5698075 162.381398 95.5698075 159.963703 95.5875075 160.276822 94.4823955 161.749253 93.0405307 163.669776 92.4523479 164.438712 90.9228911 166.537381 90.4123158 167.238603 89.8459175 167.991634 88.8529052 167.748501 87.952931 167.528091 87.9992232 166.516476 87.9946848 165.738451 87.9774387 163.008545 88.0359846 157.16063 88.0359846 156.966124 88.0359846 156.122202 88.3087453 155.536411 89.1855734 155.536411 90.3147391 155.536411 90.3578544 156.197187 90.3578544 156.909317 90.3578544 159.072064 90.3896235 160.214107 90.3896235 161.952394 90.3896235 162.286417 90.268447 163.338933 90.8116991 162.794952 91.1420981 162.464109 93.6772749 158.840292 94.8518251 157.165629 95.3878158 156.400783 95.7100455 155.546864 97.0225646 155.546864 98.3196529 155.546864 98.0264692 156.641189 98.0264692 158.526264M153.6402 52.7447883C153.588157 52.9244016 153.696809 53.1273234 153.877591 53.1748547 154.298961 53.2854563 154.5957 53.178968 154.761417 52.7616984 154.829896 52.5898547 154.739961 52.3878469 154.570591 52.3142648 154.083939 52.1031164 153.786287 52.2411398 153.6402 52.7447883M158.255178 51.6721359C158.116396 51.8581477 158.21957 52.1355656 158.448743 52.1744133 159.632504 52.3759641 160.311352 51.8266125 160.953222 51.0715969 161.107983 50.8887844 161.002526 50.5994836 160.766048 50.5629211 159.738874 50.4047883 158.956852 50.7324797 158.255178 51.6721359M133.843591 18.9486984C135.894743 18.8189016 137.624048 18.0332648 139.386222 17.3710266 139.560157 17.3056711 139.683417 17.1050344 139.829961 16.9670109 139.680678 16.8760617 139.53733 16.719757 139.380743 16.704218 136.935613 16.4619914 134.572657 16.8111633 132.308309 17.7681867 132.161765 17.8298859 131.9787 18.0981633 132.009743 18.2179055 132.053113 18.3824367 132.264939 18.5661633 132.441157 18.620093 132.936483 18.7718273 133.450983 18.8604914 133.843591 18.9486984M182.765374 19.4157844C182.992265 19.2709055 183.06257 18.8490656 182.917852 18.6219211 182.814678 18.460132 182.52433 18.3833508 182.35907 18.4820695 182.223026 18.5634211 182.184678 18.7773117 182.145417 18.9313312 182.101135 19.1077453 182.285113 19.3801359 182.462243 19.4240109 182.462243 19.4240109 182.703743 19.4550891 182.765374 19.4157844M209.557265 79.7937258C209.402048 78.4984992 206.772026 66.6947531 205.509743 67.2175969 205.285135 67.3108313 205.107091 67.7079914 205.053678 67.9959211 204.898917 68.828632 204.719048 69.676425 204.727265 70.5169055 204.752374 72.9752766 204.474809 75.3929719 204.057091 77.8106672 203.047265 83.6606672 201.09883 89.1349875 197.539787 93.9301594 196.341874 95.5443938 194.898809 96.9794719 193.52833 98.4597961 193.189135 98.8263352 192.678287 99.336382 192.17657 99.0274289 191.581722 98.6608898 192.026374 98.077718 192.250526 97.6206867 192.437243 97.2399797 192.7422 96.9118313 192.895591 96.5215266 193.86433 94.056757 195.500048 91.7213273 195.440243 89.0207297 195.306026 82.9961438 196.624461 76.9349953 195.014309 70.9410305 194.698852 69.7673742 194.967743 68.6453625 195.816417 67.6682297 201.10933 61.5750891 200.760548 53.7411164 200.193091 46.1877609 199.620157 38.5672219 198.083961 30.6043664 193.334309 24.4033664 190.228135 20.3476711 186.887309 16.4958117 183.24883 12.9076594 182.946613 12.609675 182.627961 12.3254016 182.29333 12.0653508 182.036765 11.8665422 181.708526 11.7582258 181.466113 12.0466125 181.362483 12.170468 181.348787 12.4702805 181.424113 12.6274992 181.699396 13.2001594 181.995678 13.7682492 182.343548 14.2988625 183.915809 16.6991906 185.494917 19.0958625 187.097309 21.4756242 189.903091 25.6419211 191.496352 30.1171711 191.332917 35.2537453 191.157613 40.7787961 191.840113 46.2805383 192.360548 51.7790813 192.459157 52.8165422 192.954026 54.5189836 192.097135 54.7127648 190.716613 55.0249172 190.797417 53.1469758 190.205309 52.2402258 189.977961 51.892425 189.900352 51.4486477 189.739657 51.0542297 187.757439 46.1868469 185.040678 41.7394758 181.770613 37.6563586 177.516287 32.3442844 173.193483 27.0911672 169.554548 21.3202336 166.812222 16.9702102 163.458157 13.1247492 159.647113 9.70295625 154.73357 5.29123359 149.124743 2.12629219 142.557222.937553906 140.586417.581069531 138.582743.179339063 136.553048.584725781 136.281874.6391125 135.88333.613061719 135.896113 1.02164766 135.900222 1.1656125 136.157243 1.34431172 136.335743 1.43480391 138.263178 2.40919453 140.166417 3.44025703 142.134026 4.32598359 145.113743 5.66737031 147.790787 7.59055781 150.011765 9.98997187 152.028678 12.1700109 154.132787 14.2705266 156.457396 16.1621789 159.847983 18.9212766 163.409765 21.4198664 167.060113 23.8060266 167.952613 24.3887414 168.867026 24.93855 169.492004 25.8357023 169.740809 26.1931008 169.956287 26.6249953 169.583765 26.9673117 169.413483 27.1236164 168.997135 27.0902531 168.717287 27.0285539 168.415526 26.9622844 168.121983 26.7936398 167.860396 26.6163117 164.521396 24.3434953 160.902548 22.4920617 157.739309 19.9569094 151.396396 14.8751789 144.158243 11.6942414 136.319765 9.77790938 135.272048 9.52197187 134.198309 9.53568281 133.150591 9.75414375 125.143657 11.4227648 117.139004 13.1032687 109.138461 14.8002258 107.996243 15.0419953 106.845809 15.3344953 105.934135 16.1343 105.553396 16.4679328 104.9307 16.7915109 105.184526 17.3861086 105.283591 17.6187375 105.934591 17.7233977 106.32583 17.7055734 110.131852 17.5323586 113.896787 18.1868273 117.745265 17.9002688 122.126048 17.5744055 126.365765 16.9075969 130.590874 15.7645617 133.655961 14.935507 136.784961 14.3038898 140.0322 14.729843 145.499504 15.446925 150.5532 17.4130734 155.289157 20.0771086 163.948461 24.9481477 171.768678 30.9672492 178.722417 38.0969367 181.64507 41.0932336 183.655135 44.4720656 183.666091 48.8006086 183.668374 49.6621125 183.723613 50.4824836 184.631635 50.9939016 187.198657 52.4399484 188.415287 54.9015188 189.492678 57.494257 191.904483 63.2980969 192.744483 69.3587883 192.589265 75.306593 192.589265 76.6607766 192.571917 77.7256594 192.592917 78.7896281 192.632635 80.820675 192.47833 82.8265852 191.973874 84.8027883 191.74607 85.6953703 191.877091 87.0993703 190.870917 87.139132 190.261461 87.1638117 190.572809 85.6601789 190.497026 84.8443781 190.369657 83.4691711 190.401157 82.0752258 190.212613 80.7100734 189.141613 72.9560813 185.438765 66.4516125 180.4677 60.5974992 177.52907 57.1373156 174.004265 54.437632 169.634439 52.9924992 169.18157 52.842593 168.611374 52.3334602 168.230635 52.9403977 168.092309 53.1606867 168.400917 53.7383742 168.610917 54.0898313 173.08483 61.574632 177.545504 69.0672023 182.070548 76.520925 184.499243 80.5204055 187.059417 84.4399055 189.5292 88.4147063 190.863157 90.561382 191.307352 92.8264289 190.913374 95.4132258 190.352765 99.0959836 188.833461 102.332679 186.942548 105.426323 184.985896 108.62737 183.708091 112.122745 182.262287 115.548195 182.108896 115.911991 181.947743 116.614448 182.076026 116.693058 182.5362 116.976417 182.816048 116.463171 182.998657 116.147363 184.539417 113.476472 186.890048 112.040023 189.846483 111.384183 191.869787 110.934921 193.52833 109.803769 194.953135 108.287339 197.272722 105.818456 199.517896 103.281476 201.764439 100.745866 203.502874 98.7847453 205.365483 96.9438234 206.689852 94.6582102 209.263265 90.2158664 210.167635 84.8667727 209.557265 79.7937258M118.883374 45.0648352C119.659917 44.3034211 121.297917 43.8258234 120.820396 42.5497922 120.457461 41.5799719 118.963265 42.224843 118.0137 42.1105852 114.356961 41.2052063 113.241222 44.2476633 111.55757 46.3033898 110.917983 47.0844563 111.5877 47.4308859 112.412178 47.5954172 115.128939 48.1379133 117.097461 46.8161789 118.883374 45.0648352M108.833048 46.1416008C109.95107 43.6050773 109.089157 41.3939602 107.769352 39.2687648 107.195048 38.3446477 107.08457 36.6403781 105.736461 36.8300461 104.712483 36.974468 105.016983 38.5749914 104.6997 39.4776281 103.023809 42.8550891 105.74833 44.6055187 107.3877 46.6968938 108.010396 47.4912141 108.492939 46.9116984 108.833048 46.1416008M34.3323522 76.7512688C34.4218304 77.0579367 34.5702 77.4221906 34.9418087 77.2910227 35.1910696 77.2032727 35.4175043 76.8998039 35.5393957 76.6388391 35.7101348 76.2736711 36.0977217 75.8093273 35.8813304 75.4752375 35.2212 74.4574289 35.7567 72.8514211 34.7235913 72.8820422 33.8685261 72.9076359 33.7461783 74.4816516 34.0123304 75.5465344 34.1127652 75.9496359 34.2150261 76.3527375 34.3323522 76.7512688M96.7210696 81.3535734C102.046396 83.7301359 107.552048 76.9413938 110.391157 72.2220891 112.503483 68.710718 114.093548 64.1888508 113.2467 59.0646164 112.843135 56.6245266 110.658678 55.6464797 108.412135 56.6258977 104.764983 58.2149953 101.601743 61.6957453 99.8623957 64.7651672 98.0422435 67.9758117 92.6288087 79.5268195 96.7210696 81.3535734M179.383399 80.1109055C179.435048 80.4139172 177.8637 80.8307297 177.504874 80.9724094 170.497722 83.745218 167.256874 85.6981125 161.435765 89.8411008 156.702548 93.2107922 149.519178 100.296605 144.94757 99.6128859 141.424135 99.0859289 141.422309 91.6614562 142.050026 89.2519875 142.105722 89.0371828 141.819939 89.039925 141.721787 89.1624094 139.567004 91.8415266 139.846396 95.0608547 140.35907 98.1750656 140.393309 98.3821008 140.1372 98.5132687 139.993852 98.3597062 139.397635 97.7212336 139.1082 96.7404445 138.945678 95.9027062 138.559461 93.9132492 138.76307 91.8890578 139.107287 89.9105695 139.301309 88.7954133 140.262743 86.7195773 138.990417 85.865843 138.429809 85.4892492 137.677917 85.5559758 137.134657 85.9577063 132.674439 89.2593 126.358917 88.9562883 124.913113 95.3602102 124.588983 96.7943742 124.349309 98.3162883 123.694657 99.6476203 123.523461 99.9954211 121.81333 102.589987 121.852591 101.003632 121.8777 100.066718 121.964896 98.9451633 122.133809 97.756425 122.142939 97.6915266 122.051178 97.6695891 122.031548 97.7326594 121.53257 99.3299836 121.010765 100.895316 120.278504 102.340448 119.925157 103.036964 117.262265 103.557523 117.239896 102.003159 117.15133 95.9059055 119.475939 90.9466594 121.272809 85.369507 121.363657 85.0866047 121.177396 84.7808508 120.882483 84.7438312 120.177157 84.6556242 119.524787 86.1981047 119.089265 86.744257 115.284613 91.5211477 112.515352 96.3295734 107.161265 99.6051164 102.517526 102.44648 90.4279174 105.087206 88.9474174 92.3392336 88.7794174 90.897757 89.2674391 86.7406008 87.447287 86.2748859 86.3498087 85.9938117 85.5340043 86.582925 85.1308957 87.5362922 81.0094174 97.2856828 72.3355043 106.263148 68.0154391 103.379737 67.1594609 102.808448 66.6554609 101.828116 66.5824174 100.800253 65.388613 83.979218 72.1291565 66.898132 74.3633739 59.0179992 75.9269609 53.5034602 74.0675478 56.0765461 71.9821565 60.4594758 70.0948957 64.4269641 67.8867 70.1837297 66.7467652 74.6690344 62.3381348 92.0142844 63.5821565 100.169093 64.1080696 102.498124 64.1409391 102.641632 63.9743087 102.740808 63.8588087 102.649402 62.5654826 101.627937 61.629613 100.094597 61.3150696 98.5219523 60.9790696 96.8391633 61.1580261 95.0997023 61.3785261 93.398175 64.6353522 68.2578 76.1611565 45.2641008 86.6789609 22.5446203 87.1998522 21.4189523 86.514613 20.7608273 85.1984609 20.9724328 83.4938087 21.2475656 82.3515913 22.3654641 81.4476783 23.7169055 67.5310696 44.5296516 57.249287 67.9319367 46.539287 90.4900852 43.6193739 96.6412687 40.2242217 102.566222 36.3944609 108.195019 34.0693957 111.612241 30.1414826 114.977362 25.7474609 114.663382 21.0283957 114.32655 18.2847 110.344894 17.5629391 106.108214 16.0212652 97.0631086 10.660787 96.7107375 8.69637391 97.0004953 5.4893087 97.4744367 3.38154783 99.9094992 1.13135217 101.995847.892134783 102.217507.585808696 102.482128.302308696 102.258183.104634783 102.101878-.0286695652 101.703804.00511304348 101.437812.657026087 96.3186047 7.26928696 93.4397648 11.8541348 94.3286906 19.2616565 95.7646828 19.3981565 105.147077 22.4130261 106.591296 27.5817652 109.067948 37.6270696 92.5755187 39.5179826 89.0216437 39.6627 88.7501672 39.9274826 88.367632 40.071287 88.3159875 40.4643522 88.1747648 40.220113 89.0303273 40.0877217 89.3644172 37.5394174 95.7975891 35.3435478 101.393937 30.8038957 107.151616 30.5441348 107.481136 29.9141348 108.428105 30.2916783 108.806527 30.8372217 109.352679 32.6149174 107.291925 33.3654391 106.391573 41.5896783 96.5256398 45.8033739 83.9019797 50.6982 72.2051789 56.1175696 59.2561125 71.3809174 31.1646867 77.4964826 23.4376594 79.3317 21.1191398 88.9862217 8.69794453 92.1942 13.4570109 93.9938087 16.1269875 92.5146783 21.95505 91.3610478 24.9810539 83.7480913 44.9432648 74.481613 65.5581164 72.2190913 87.0033937 72.0588522 88.5221086 72.1287 90.063218 72.5281565 91.5362297 74.2054174 97.7235187 78.4670478 92.4699445 78.7934609 91.8726047 80.9824826 87.8662688 82.5547435 84.2100188 82.745113 79.8229758 82.7583522 79.5085383 82.8058304 79.1771906 82.9245261 78.889718 83.2952217 77.9921086 83.984113 77.9034445 84.7346348 78.3431086 85.0852435 78.5483156 85.3217217 78.9445617 85.6180043 79.2462023 88.6479391 82.3325344 89.9093087 79.080757 90.849287 76.2467062 93.7062 67.6344094 97.2027 57.0669328 105.986178 52.7511867 111.044896 50.2658508 118.310896 51.7050422 120.324613 57.2570578 124.28083 68.1663937 115.416548 79.8485695 110.406222 82.7264953 110.198504 82.8457805 110.013613 82.5272297 110.185265 82.3599563 116.221396 76.4820773 118.934961 67.3432805 117.217983 63.1810969 117.123483 62.9521242 116.779722 62.9740617 116.7642 63.2213156 116.285765 70.6535578 113.860722 75.4866633 109.706374 80.703675 101.859222 90.5577258 94.4941565 88.5454172 94.4512435 88.5234797 94.0581783 88.8438586 93.7564174 89.2954055 93.5943522 89.741468 92.0321348 94.0375617 95.710787 98.3661047 100.009852 98.3217727 108.236374 98.2358508 115.868048 86.2945383 120.069874 80.7452648 123.407504 76.3367414 126.527374 70.7033742 129.457787 66.006007 132.612352 60.9489563 133.7322 55.3782023 140.394222 54.4682531 140.428004 54.4641398 140.460417 54.4600266 140.491917 54.4577414 140.943417 54.4193508 141.1872 54.977843 140.8512 55.2822258 140.090178 55.9718859 139.312265 56.7278156 138.60283 57.4846594 137.094026 59.0924953 134.1417 62.7565148 134.65483 64.2519211 134.871678 64.8826242 138.181917 60.44805 139.78933 58.8018234 139.8537 58.736468 139.962352 58.8127922 139.921722 58.8955148 137.7117 63.3675656 133.802048 67.8217922 131.915243 72.5228156 130.523765 75.9903117 129.897417 80.0939953 127.34957 82.9659797 126.768874 83.6213625 127.371939 83.9522531 128.13433 84.7548 129.989635 86.7076945 134.688613 82.6168078 138.181004 79.2448313 142.947091 74.6425266 146.998265 69.5511984 150.3012 63.7944328 152.092135 60.6719953 153.45257 59.7725578 156.690678 60.1052766 157.554874 60.1939406 157.852983 60.4425656 157.246722 61.2761906 154.520374 65.0275031 151.585396 68.798925 149.874809 73.1558039 149.737852 73.5045187 149.6397 73.8093586 149.675765 74.1059719 149.719135 74.4601711 150.180222 74.575343 150.413961 74.3061516 152.1072 72.3555422 156.113635 65.6490656 158.671983 63.0092531 158.931287 62.7423469 159.244917 62.4471047 159.757135 62.6902453 159.887243 62.7519445 159.600548 63.2377687 159.459483 63.5005617 155.768504 70.3852805 152.361483 76.9930383 149.71183 84.3818625 148.770483 87.0056789 147.524635 89.5924758 147.606809 92.4484641 147.628722 93.2107922 147.857439 94.1266828 148.732591 94.2075773 149.0517 94.2368273 149.367157 94.1312531 149.637874 93.9598664 156.312678 89.7359836 169.331309 79.2818508 177.643657 79.9148391 178.563091 79.9847648 179.35607 79.9619133 179.383399 80.1109055M129.954483 29.9448703C131.954961 29.2958859 134.002004 29.0312648 136.057265 29.0321765 138.442591 29.03355 140.837961 29.3923195 143.1822 29.9224758 147.452961 30.8886398 151.648852 32.8227961 156.099939 32.6692336 159.055461 32.5673156 163.216657 34.7414133 165.932504 35.8213781 172.289113 38.3483039 178.396461 40.9328156 180.749374 47.8463273 182.065526 51.716468 171.219026 46.891132 170.215591 46.5081398 163.282852 43.8623859 156.607591 40.5790734 150.153287 36.9246516 144.151852 33.5270813 137.664222 31.3360734 130.653874 31.0933898 130.534722 31.0892766 130.281809 31.0737375 130.16357 31.0540852 129.781917 30.9896437 129.240483 31.0842492 129.270157 30.4901086 129.2802 30.2931281 129.683765 30.0326203 129.954483 29.9448703M117.602955 191.988838C116.952955 191.985631 116.465682 192.316092 116.484318 193.979015 116.407955 195.893515 117.134773 195.8944 117.710682 195.893515 117.964318 195.893015 118.955682 195.893515 118.956136 193.979015 118.956136 192.119938 118.224318 191.991169 117.602955 191.988838M120.763409 193.997477C120.763409 191.985631 120.270227 189.775323 116.110227 190.721015 114.633409 191.056554 114.621136 193.759785 114.621136 193.942092 114.638864 194.897938 114.562955 195.880554 115.3125 196.6444 116.365682 197.718862 118.759773 197.707785 119.946136 196.766246 120.479773 196.342092 120.763409 195.171631 120.763409 193.997477M114.356136 208.807323C114.350227 208.238246 114.184773 207.969631 113.585227 207.995938 112.865682 208.026862 112.043864 207.999631 111.322955 207.977938 110.632955 207.957169 110.881591 207.378862 110.806136 206.965785 110.684318 206.298862 111.590227 206.6224 112.775227 206.559169 113.219318 206.535631 113.573864 206.525015 113.578864 205.925938 113.584318 205.357785 113.293409 205.227631 112.817045 205.2484 110.651136 205.3444 110.802045 205.3444 110.785682 204.543169 110.775227 204.027631 110.959318 204.1024 111.9425 204.047015 112.859773 203.995323 114.207955 204.304554 114.309773 203.233323 114.359318 202.711785 113.693864 202.500862 113.184773 202.507323 112.058409 202.520708 111.320227 202.478246 110.194318 202.514708 109.450682 202.538246 109.223864 202.7644 109.186591 203.509785 109.143409 204.377015 109.182045 207.947477 109.172045 208.863169 109.166136 209.4484 109.448409 209.559169 110.130682 209.571631 111.236591 209.591477 112.041591 209.591477 113.358409 209.579015 114.073864 209.573015 114.363409 209.477938 114.356136 208.807323M109.261591 196.816554C109.249773 196.268708 109.320682 195.970092 109.339318 195.437015 109.376591 194.351938 110.256136 194.623785 110.852045 194.587785 111.907955 194.523169 111.706136 196.059631 111.717045 196.424708 111.746591 197.424862 111.803409 197.483477 112.675227 197.479323 113.469773 197.475631 113.512045 197.440554 113.529318 196.491169 113.545227 195.623938 113.532955 194.755323 113.532955 193.887631 113.532955 193.887631 113.5175 191.969015 113.530227 191.009938 113.537473 190.520246 113.287955 190.388246 112.857045 190.399323 112.016591 190.420092 111.683864 190.719169 111.715227 191.8804 111.757955 193.457477 111.310227 193.363785 110.189773 193.419169 109.020682 193.4764 109.339318 192.657631 109.263409 191.054246 109.236591 190.475938 108.948864 190.3804 108.482955 190.402554 107.877045 190.432554 107.567955 190.764862 107.563409 191.354708 107.548864 193.181938 107.560682 195.008708 107.552484 196.835938 107.549773 197.412862 107.894773 197.487631 108.349773 197.483938 108.822955 197.480246 109.276591 197.501938 109.261591 196.816554M107.840227 208.781477C107.180682 207.9124 106.5425 207.022554 105.831136 206.198708 105.545227 205.867323 105.588864 205.733015 105.840227 205.4344 106.454318 204.705169 107.0325 203.943169 107.591591 203.169169 107.951591 202.670708 107.877045 202.598708 107.335227 202.495785 106.255227 202.289015 105.6875 202.939323 105.131591 203.704092 104.902045 204.019323 104.691136 204.599015 104.294773 204.492862 103.862045 204.376092 104.062955 203.243938 104.068409 203.152554 104.100682 202.571938 103.758864 202.471785 103.289318 202.507785 102.686136 202.5544 102.402955 202.884862 102.4025 203.487169 102.402045 204.356708 102.379318 207.744862 102.4075 208.567785 102.4325 209.301631 102.577955 209.378246 103.319318 209.395323 103.933409 209.409631 104.060682 209.101785 104.087955 208.553477 104.111136 208.088246 103.942045 207.243631 104.446591 207.232092 105.0025 207.219631 105.017045 207.797015 105.269773 208.217015 105.4225 208.470862 105.807955 209.569785 107.597045 209.3884 108.106591 209.336708 108.086591 209.1064 107.840227 208.781477M101.903409 196.385015C102.433864 196.310246 102.970227 196.256708 103.489773 196.133015 104.011136 196.009785 104.392955 196.111323 104.521591 196.667477 104.693409 197.410554 105.185227 197.536092 105.832045 197.483938 106.489773 197.431785 106.542045 197.403631 106.319318 196.766708 105.704773 195.007785 105.077045 193.253938 104.435682 191.505169 104.098864 190.586246 104.080682 190.593169 103.063409 190.589477 102.019318 190.585785 102.014318 190.583938 101.636591 191.616862 101.199318 192.811785 100.768864 194.009477 100.341591 195.208554 100.128409 195.807169 99.9284091 196.410862 99.7256818 197.013631 99.6620455 197.201938 99.6761364 197.420246 99.8915909 197.440092 100.289773 197.477015 100.701136 197.485785 101.094773 197.423938 101.398409 197.3764 101.474318 197.048246 101.482045 196.783785 101.491591 196.467631 101.664773 196.419169 101.903409 196.385015M100.249318 206.890092C99.7288636 206.883169 99.4529545 207.095015 99.1811364 207.5224 98.8475 208.047631 98.3075 207.986246 97.7270455 207.925785 96.6993182 207.818708 96.9397727 205.643477 97.0125 205.103477 97.1420455 204.140708 98.2043182 203.7364 98.9688636 204.337323 99.1402273 204.472092 99.2393182 204.697323 99.3906818 204.863477 99.6752273 205.174554 100.927045 205.357323 101.117045 205.067938 101.405682 204.627631 100.845227 203.741477 100.818864 203.704092 100.0675 202.652246 98.4906818 202.232708 97.0138636 202.691015 95.7175 203.093938 95.2088636 203.806092 95.1279545 205.343477 95.1156818 205.571477 95.1120455 206.750246 95.1406818 207.1084 95.2220455 208.121015 95.8565909 209.094862 96.8220455 209.360708 99.4470455 210.0844 100.677955 208.749169 101.0125 208.070246 101.4725 207.136092 101.297955 206.903477 100.249318 206.890092M96.4388636 191.805169C97.2520455 191.885938 97.1179545 192.931323 97.0902273 194.105477 97.0252273 196.906092 96.8256818 197.485323 97.8056818 197.485323 98.3047727 197.485323 98.7088636 197.441015 98.6997727 196.783323 98.6870455 195.867631 98.6965909 194.9524 98.6965909 194.036708L98.7020455 194.036708C98.7020455 193.212862 98.6952273 191.382862 98.6934091 191.291015 98.6806818 190.751477 98.4365909 190.413169 97.8806818 190.409938 96.9797727 190.404862 96.0697727 190.349015 95.1797727 190.454246 93.8447727 190.612092 92.9679545 191.437323 92.8561364 192.741169 92.7388636 194.103631 92.8011364 195.482708 92.8052273 196.855323 92.8075 197.537938 93.3147727 197.476092 93.7715909 197.481631 94.2356818 197.488092 94.6029545 197.444246 94.5820455 196.753785 94.5515909 195.747631 94.5347727 193.085015 94.7388636 192.614708 94.9920455 192.029938 95.6765909 191.729015 96.4388636 191.805169M93.8216185 203.194554C93.8247727 202.660554 93.5529545 202.499938 93.0579545 202.492554 92.5570455 202.484708 92.2011364 202.619938 91.9579545 203.0944 91.5625 203.864708 91.1284091 204.614246 90.7093182 205.371631 90.4675 205.808246 90.2538636 205.695631 90.0556818 205.333785 89.6393182 204.575015 89.2152273 203.8204 88.8102273 203.055631 88.5602273 202.583477 88.1938636 202.4104 87.6906818 202.541938 87.0479545 202.709938 87.0393182 203.232862 87.0297727 203.950554 87.0106818 205.405323 87.0029545 206.894246 87.0265909 208.633323 87.0356818 209.3044 87.0820455 209.575785 87.6434091 209.589169 88.4825 209.608554 88.5902273 209.5444 88.6284091 208.723785 88.6415909 208.453323 88.5238636 207.128246 88.6765909 206.399015 88.7161364 206.211169 88.9484091 206.157631 89.0743182 206.301169 89.3502273 206.614092 89.4515909 207.052092 89.6956818 207.389015 90.1843182 208.065169 90.6779545 208.051785 91.1515909 207.314246 91.3725 206.9704 91.5534091 206.600708 91.7638636 206.249938 91.8061364 206.180246 91.8993182 206.108246 91.9688636 206.096708 92.2529545 206.050092 92.1452273 207.763323 92.1447727 207.857015 92.1388636 209.491785 92.1352273 209.591889 92.9979545 209.584092 93.4370455 209.579938 93.8225 209.563785 93.8175 208.962862 93.8093182 208.001938 93.8152273 207.040092 93.8152273 206.078708L93.8197727 206.078708C93.8197727 205.117323 93.8152273 204.155938 93.8216185 203.194554M87.0784091 197.479785C87.7088636 197.462708 90.2338636 197.462246 90.8638636 197.4844 91.3656818 197.501938 91.5997727 197.323323 91.597069 196.779631 91.5925 196.0204 91.5465909 195.929477 90.7684091 195.905015 90.0929545 195.883785 89.4152273 195.922092 88.7411364 195.883323 88.2029545 195.851938 87.9988636 195.492862 88.0329545 194.8024 88.0611364 194.229631 89.1925 194.490862 89.5556818 194.479323 90.2538636 194.457169 90.8425 194.401323 90.8229545 193.760246 90.8079545 193.269631 90.5638636 193.138092 90.1352273 193.149169 89.6402273 193.161169 89.1438636 193.145477 88.6484091 193.136708 88.1515909 193.128862 88.0934091 192.749015 88.0552273 192.377938 87.9943182 191.794092 88.4620455 192.009169 88.7129545 191.990246 89.3379545 191.942246 89.9643182 191.857323 90.5838636 191.953785 91.3456818 192.0724 91.5588636 191.777938 91.5529545 191.205631 91.5484091 190.735323 91.4534091 190.397015 90.8925 190.401584 89.7093182 190.411323 88.5265909 190.399323 87.3434091 190.407169 86.8438636 190.410862 86.4379545 190.825323 86.4334091 191.333015 86.4188636 193.163015 86.4265909 194.993477 86.4247727 196.823938 86.4243119 197.267938 86.6161364 197.492708 87.0784091 197.479785M85.6834133 205.279323C85.6847727 202.367015 85.3556818 201.157323 82.7352273 201.043785 79.1379545 200.888246 79.5947727 203.627477 79.5947727 205.391938 79.5947727 209.091631 79.9561364 209.695323 82.7588636 209.695323 85.4965909 209.695323 85.6820455 208.544246 85.6834133 205.279323M77.9615909 197.477938C79.0888636 197.483477 80.2165909 197.479785 81.3443182 197.479323 82.4715909 197.479323 83.5993182 197.471015 84.7270455 197.483477 85.1856818 197.488554 85.5365909 197.400862 85.5484091 196.838246 85.5588636 196.355015 85.5543182 195.883785 84.8870455 195.898092 84.3888636 195.908246 84.2993182 195.593477 84.3020455 195.179015 84.3070455 194.309015 84.2897727 193.439015 84.3011364 192.568554 84.3293182 190.315785 84.3002273 190.383169 82.1379545 190.395169 79.1138636 190.411323 78.3525 191.162246 78.3320455 194.180708 78.3265909 194.959323 78.5884091 195.841323 77.4661364 196.181477 77.1588636 196.274246 77.0411364 196.760708 77.1634091 197.145169 77.2920455 197.551323 77.6556818 197.476092 77.9615909 197.477938M76.5115909 194.983323C76.2456818 194.569785 75.5734091 194.716554 75.1043182 194.829631 74.7388636 194.917785 74.8270455 195.538092 74.4593182 195.695015 72.7406818 196.430246 72.3347727 195.258862 72.3343182 194.6944 72.3338636 194.145169 71.9956818 192.339631 73.1220455 192.040092 74.3256818 191.720246 74.5947727 192.587015 74.7147727 192.721323 75.0043182 193.045785 75.8079545 193.296862 76.4252273 192.987169 76.7547727 192.821938 76.4120455 192.059938 76.1870455 191.644554 75.6202273 190.598246 73.2188636 190.169938 71.8956818 190.7464 70.7493182 191.245785 70.5429545 192.461477 70.4615909 193.468092 70.4502273 193.605169 70.2206818 195.812246 70.9511364 196.594554 72.1425 197.870246 75.0384091 197.744708 76.1143182 196.349938 76.4297727 195.941015 76.7656818 195.377938 76.5115909 194.983323M76.5315909 207.417169C76.5315909 206.521785 75.6679545 206.529169 75.5361364 206.048708 75.4106818 205.589477 76.2702273 205.295477 76.2965909 204.422246 76.3284091 203.386092 75.7147727 202.639785 74.4738636 202.530862 73.5361364 202.448246 72.5847727 202.475015 71.6425 202.519323 70.9188636 202.5544 70.7452273 202.769015 70.7143182 203.578554 70.6811364 204.444862 70.7075 208.0084 70.7156818 208.921785 70.7184091 209.195938 70.7488636 209.530092 71.0893182 209.542554 72.9738636 209.614092 73.6052273 209.773785 75.3547727 209.434092 76.1947727 209.270708 76.5315909 208.313477 76.5315909 207.417169M155.070682 192.586554C154.783409 193.067477 154.287045 193.382708 153.7375 193.456554 152.278864 193.652246 150.816591 193.832246 149.350682 194.000708 143.410682 194.682862 137.411136 195.060862 131.340682 196.886708 131.045227 196.975785 130.958409 197.433631 131.350682 197.379631 137.950682 196.473631 152.462955 194.948246 151.702045 195.645169 151.227955 196.078554 143.758409 196.996554 140.150682 197.5744 140.175227 199.468554 139.419318 201.601323 138.176591 203.207477 137.940227 203.512554 137.606136 203.721169 137.231136 203.794554 131.367955 204.941477 125.612955 206.662554 120.114318 208.955938 119.797955 209.087938 119.8025 209.671323 120.213409 209.534708 127.422955 207.146708 135.011591 205.721015 142.610227 205.398862 143.755227 205.349938 144.904773 205.326862 146.055682 205.331938 146.504773 205.333785 146.946591 205.496708 147.274773 205.807785 147.888864 206.390246 149.452955 207.998246 148.381591 208.029169 148.183409 208.035169 147.980682 208.059631 147.788864 208.075785 140.040682 208.729785 132.350227 210.490554 124.934773 212.762246 124.559773 212.876708 124.452955 213.512246 124.9475 213.395477 132.059773 211.714092 140.432045 209.986554 148.364318 210.325785 148.748864 210.3424 149.068409 210.662246 149.068864 211.053169 149.074318 214.181015 145.942045 216.301323 143.161136 216.826554 136.043864 218.171015 128.953409 219.630862 121.782045 220.534554 114.835227 221.409631 107.852045 221.671323 100.894318 222.507631 96.5175 223.033785 98.0734091 216.693631 100.892045 214.904246 82.8284091 215.081015 64.7643182 215.257323 46.7002273 215.434092 41.6729545 215.483015 41.5061364 212.517169 43.6543182 209.221785 44.0770455 208.573323 44.7425 208.116862 45.4952273 207.977015 51.3138636 206.891938 57.1843182 206.943631 63.0743182 206.399938 63.2884091 206.380092 63.4670455 206.041785 63.1725 206.011785 58.9243182 205.573323 54.4411364 205.075323 50.0025 205.039323 49.6115909 205.036554 49.3197727 204.681631 49.3897727 204.291631 49.5897727 203.173785 50.0747727 201.170708 51.2084091 199.711323 51.4456818 199.406246 51.8061364 199.225323 52.1884091 199.208246 56.1834091 199.033323 60.2493182 199.067477 63.9634091 198.455938 64.1406818 198.4264 64.3493182 198.047015 64.0765909 198.010092 59.8143182 197.429015 54.5525 196.734862 49.4234091 196.844246 49.1588636 196.849785 48.9761364 196.5904 49.0606818 196.336092 49.1011364 196.214708 49.4770455 193.268246 50.8402273 191.394862 51.2452273 190.838246 51.8202273 190.437631 52.4670455 190.219785 55.9756818 189.037785 62.9979545 187.346246 68.4043182 186.902708 74.3884091 186.412092 80.2979545 184.927785 86.1334091 183.547785 91.3347727 182.317785 96.0784091 180.994092 101.465682 181.240092 108.124773 181.543785 114.643409 182.994862 121.234318 183.223785 121.417045 183.229785 121.429773 183.497938 121.248864 183.519631 119.787045 183.6964 111.619318 184.469938 109.022045 184.811015 108.026591 184.941169 104.613864 184.926862 104.717045 186.2704 104.737045 186.527477 105.757045 186.962708 107.491591 186.423169 108.100227 186.233938 122.544318 185.947785 122.376136 186.112092 132.370682 185.495015 142.353409 184.631015 152.312045 183.489631 157.344773 182.912708 157.378409 188.720246 155.070682 192.586554M103.672955 194.151631C103.559773 193.787015 103.409318 193.435785 103.263409 193.082246 103.189318 192.903169 102.929773 192.849169 102.832955 193.016708 102.582045 193.451015 101.659773 195.1504 102.643409 195.070092 103.557045 194.995785 103.856136 194.741015 103.672955 194.151631M73.7029545 206.559169C73.6065909 206.547169 72.5975 206.390708 72.3961364 206.8264 72.2543182 207.133323 72.2975 208.020862 72.7547727 208.203169 73.1184091 208.347631 74.1920455 208.267785 74.4220455 208.016246 74.7738636 207.632246 74.8420455 206.701785 73.7029545 206.559169M73.1320455 205.247015C73.9679545 205.383169 74.4961364 205.082708 74.5297727 204.569938 74.5652273 204.034554 74.1920455 203.848554 73.1879545 203.808862 72.2020455 203.758092 72.3597727 204.373323 72.3802273 204.536708 72.4297727 204.9244 72.6970455 205.175477 73.1320455 205.247015M82.4929545 194.6884C82.4984091 194.325169 82.5897727 193.175477 82.5838636 192.431015 82.5825 192.212246 82.4606818 191.876708 82.2752273 191.805169 81.2343182 191.402708 80.2511364 192.226554 80.2011364 193.379477 80.1797727 193.877477 80.1934091 194.298862 80.2015909 194.797323 80.2188636 195.899015 80.2220455 195.899015 81.3247727 195.899477 82.4738636 195.9004 82.4752273 195.9004 82.4929545 194.6884M83.8815909 205.264092C83.8815909 207.209015 83.8065909 208.135323 82.5220455 208.136709 81.1761364 208.138092 81.2620455 207.011938 81.2620455 205.264092 81.2620455 203.806092 81.1411364 202.684554 82.5720455 202.652246 83.8338636 202.623169 83.8815909 203.806092 83.8815909 205.264092"/>
</svg>
