<svg xmlns="http://www.w3.org/2000/svg" width="210" height="223" viewBox="0 0 210 223"><g><g><path fill="#fff" d="M98.026 158.526c0 2.217-.005 3.774-.005 7.08 0 .925.145 2.207-1.295 2.152-1.18-.044-1.132-1.179-1.132-2.034 0-1.487-.024-2.567-.024-3.343 0-2.417.018-2.104-1.088-.632-1.441 1.92-2.03 2.69-3.56 4.788-.51.702-1.076 1.455-2.07 1.211-.9-.22-.853-1.232-.857-2.01-.018-2.73.041-8.577.041-8.772 0-.844.273-1.43 1.15-1.43 1.129 0 1.172.661 1.172 1.373 0 2.163.032 3.305.032 5.043 0 .334-.122 1.387.422.843.33-.33 2.865-3.955 4.04-5.63.536-.764.858-1.618 2.17-1.618zm53.964-10.063c0 .873.04 1.827-1.214 1.827-1.3 0-1.168-1.035-1.19-1.812a162.349 162.349 0 0 1-.054-4.678c0-1.286-.055-1.602-.898-.28-1.205 1.889-2.488 3.727-3.757 5.574-.49.713-.474 1.263-1.796 1.263-1.12 0-.985-1.32-.985-2.091 0-2.76.054-4.519.054-8.856 0-.698.072-1.346 1.236-1.346 1.124 0 1.266.634 1.266 1.891 0 1.656-.075 3.245-.075 4.47 0 3.243 2.079-1.765 4.615-5.256.7-.963.526-1.113 1.855-1.113.97 0 .953.377.953 3.86zm-24.743-1.216c0 2.079-1.572 3.268-4.381 3.268-4.162 0-4.382.016-4.382-2.094 0-.683.036-6.936.006-8.206-.04-1.754.426-2.385 3.581-2.385 3.109 0 4.377 1.378 4.377 2.7 0 1.74-.824 1.998-.824 2.96zm-6.28-5.866c.023.945.183 1.623 1.42 1.645 1.16.02 1.697-.973 1.704-1.93.008-1.083-.618-1.549-2.082-1.549zm3.81 5.524c.001-1.411-.686-2.228-2.152-2.215-1.554.012-1.696.898-1.67 2.061.03 1.064-.095 2.044 1.522 2.045zm15.418-2.615c0 4.395-2.731 6.225-5.956 6.225-3.297 0-5.743-1.553-5.743-6.14 0-3.968 2.158-6.523 5.866-6.523zm-2.455.14c0-3.913-1.7-5.018-3.482-5.018-1.584 0-3.316 1.356-3.316 4.795 0 3.491 1.303 4.754 3.4 4.754zm-75.583.055c-.044-4.179 2.212-6.64 6.08-6.634 3.517.004 5.707 2.464 5.656 6.35-.052 3.925-2.39 6.33-6.135 6.307zm5.778 4.467c1.997.03 3.527-2.107 3.5-4.888-.026-2.746-1.399-4.649-3.361-4.661-1.966-.013-3.324 1.822-3.42 4.62zm42.73 1.556c-3.602-.022-5.565-2.131-5.605-6.023-.044-4.179 2.213-6.64 6.085-6.634 3.52.004 5.712 2.464 5.66 6.35zm3.673-6.444c-.026-2.746-1.399-4.649-3.362-4.661-1.966-.013-3.323 1.822-3.418 4.62-.105 3.077 1.107 4.898 3.28 4.93zm-59.66-16.292c.229-1.693.44-3.388.71-5.074.115-.724.374-1.413 1.265-1.54.95-.135 1.483.334 1.89 1.158.51 1.033.57 2.937 1.435 2.956.947.021 1.11-1.971 1.683-3.033.436-.808 1.031-1.224 1.961-1.053.875.161 1.123.87 1.223 1.587.225 1.602.369 3.216.586 5.198-.023.316.152 1.215-.858 1.294-.823.065-.925-.74-1.046-1.338-.177-.88-.18-3.26-.597-3.268-.498-.01-1.3 2.616-1.693 3.622-.24.616-.565 1.09-1.344 1.09-1.595 0-1.536-4.314-2.526-4.314-.49 0-.478 1.898-.727 3.134-.128.631-.467 1.277-1.271 1.105zm9.9 37.677c0 .927.144 2.462-1.218 2.462-1.204 0-1.216-1.424-1.212-2.35.008-2.088.008-6.034.008-6.62 0-2.004-.47-2.046-1.32-2.046-.828 0-1.498.482-1.808 2.554-.158 1.062-.531 4.645-.819 5.978-.312 1.446-2.224 2.97-3.846 2.196-.77-.367-.152-1.23.365-1.443 1.725-.714 1.879-4.242 2.083-6.572.344-3.91 1.922-4.631 4.572-4.631 1.026 0 3.172-.022 3.172 2.557zm34.09-20.503c-.755.043-.703 1.216-.703 4.142 0 .61-.31 1.223-1.023 1.223-.712 0-1.186-.405-1.186-1.027 0-3.307.007-5.87.007-10.234 0-.633.307-1.02 1.12-1.02.973 0 1.138.558 1.138 2.178 0 2.52.306 2.563.678 2.563 1.037 0 1.663-1.018 2.054-1.645.646-1.038.938-3.685 2.493-2.9 1.23.62.067 2.284-.417 3.188-.568 1.06-.851 1.68-.685 2.584.113.612.92 2.151 1.514 3.526.2.464 1.148 2.089.07 2.738-1.136.685-1.688-.975-1.973-1.559zm.376-13.782c0-1.453-.01-6.649-.01-8.418 0-1.067.456-2.269 1.69-1.39.577.41 1.238-.122 1.854-.194 2.607-.31 4.248.94 4.239 3.77-.01 3.12-.925 4.504-3.584 4.504-1.554 0-2.118-.775-2.118 1.853 0 .606-.221 1.27-1.114 1.27zm2.208-5.77c.034 1.258.346 2.564 1.811 2.5 1.428-.062 1.739-1.279 1.735-2.656-.005-1.472-.708-2.518-1.672-2.518zm-24.946 40.275c.343 1.065.514 1.836-.34 2.134-1.015.355-1.3-.544-1.757-1.51-.839-1.77-.956-1.867-2.82-1.867-2.748 0-2.29.471-3.565 2.964-.237.465-.771.573-1.288.388-.602-.216-.634-.735-.47-1.197 1.208-3.384 2.367-6.79 3.72-10.118.594-1.46 2.308-1.564 2.909-.17zm-4.394-6.212c-.423-1.024-.907-.402-1.092-.056-.425.794-.696 1.654-.93 2.524-.214.795.356 1.009 1.373 1.009zm14.328-.732c0 3.4-1.588 4.383-4.047 4.53-1.733.104-1.739.338-1.739 2.001 0 1.712.006 2.537-1.26 2.537-.715 0-1.083-.57-1.083-1.169 0-3.433.048-6.307.048-9.963 0-1.243.762-1.375 3.417-1.331zm-2.479.424c-.003-1.224-.534-2.08-1.787-2.08-1.545 0-1.514.85-1.514 2.094 0 2.068.181 2.275 1.028 2.28zM78.08 148.6c0 1.098-.002 1.713-1.176 1.713-1.66 0-1.22-1.35-1.22-7.978 0-4.484.338-4.652 3.987-4.652 2.59 0 4.213 1.354 4.213 4.089 0 2.169-1.448 4.03-3.343 4.03zm1.142-4.474c1.297 0 2.193-.615 2.193-2.236 0-1.358-.307-2.338-1.928-2.338-1.41-.01-1.34 1.293-1.34 2.225zm10.48 6.384c-3.732.003-4.028-.268-4.066-3.503-.028-2.433-.015-4.868.041-7.301.018-.774-.055-2.023 1.125-2.023 1.582 0 1.308 1 1.308 3.843 0 1.079.56 1.593 1.633 1.592.485 0 4.802-.095 4.802 3.52zm.137-1.55c1.335 0 2.108-.679 2.108-2.087 0-1.347-.62-2.044-2.203-2.044-1.339 0-1.647 1.105-1.647 1.946zm29.753 15.15c0 1.946-1.347 3.88-4.776 3.88-3.606.023-3.948-.5-3.948-3.472 0-2.446.04-4.892.04-7.337 0-.726.177-1.642 1.245-1.642 1.194 0 1.161.929 1.161 1.72 0 3.076.033 3.425 2.863 3.425zm-2.48.232c0-1.645-.946-2.12-2.28-2.12-1.485 0-1.485.797-1.485 2.146.046 1.02.29 2.03 1.416 2.03zm15.518-37.016c1.018-1.192 1.123-1.274 1.01-1.557-.134-.33-1.38-.483-1.38-2.104 0-2.646 2.087-2.646 4.469-2.61 1.618.022 2.401 0 2.401 1.665 0 1.156-.045 4.17-.045 5.675 0 .585-.44.949-1.097.949-1.796 0 .025-2.882-1.8-2.882-.674 0-.958.597-1.958 2.058-.718 1.049-1.294.97-1.72.672zm1.964-3.725c-.042.74.459 1.102 1.148 1.172.755.077 1.154-.295 1.182-1.051.006-.719-.271-1.204-1.064-1.185zm-68.01 3.856c-.226-1.453.505-2.91 3.512-3.148.579-.047 1.063-.213.993-.95-.096-1.007-1.939-.661-2.295-.617-.586.074-1.404.418-1.466-.547-.05-.778.756-.951 1.364-1.024 3.627-.438 5.162.338 4.916 5.254 0 .2.005.742-.001 1.283-.014 1.22-.473 1.811-1.837 1.616-.867-.124-1.785.17-2.677.153zm2.334-.36c.007.504.367.859.872.835.791-.037 1.364-.412 1.437-1.202-.034-.632-.342-.938-.865-.89zm56.157 2.197c-.926-.304-1.5-1.043-1.555-2.035-.06-1.086.457-1.9 1.408-2.44.735-.417 1.552-.44 2.357-.54.478-.06.895-.275.802-.86-.08-.498-.443-.825-.925-.831-.53-.007-1.063.14-1.596.202-.524.06-1.182.228-1.274-.534-.081-.668.535-.919 1.057-1.009 3.559-.615 5.196.154 5.25 3.55.006.378-.05 2.68-.05 3.402zm3.112-2.45c.03-.674-.263-1.009-.78-.999-.769.015-1.454.274-1.525 1.19-.04.519.32.896.806.911zm-38.455.657c-.865-1.789-.61-3.583.527-5.123 1.024-1.387 2.59-1.537 4.17-1.267 1.043.178 1.838.861 2.28 1.834.728 1.606.161 2.672-1.592 2.75-1.76.08-3.254-.217-3.342.837-.14 1.67 2.294 1.639 3.48 1.273.505-.156 1.15-.243 1.254.541.142 1.082-2.132 1.138-2.313 1.16zm2.19-3.761c-.002.673.736.57 1.522.587.717-.03 1.34.025 1.33-.745-.008-.65-.7-1.024-1.37-1.023zm10.79 35.32c-1.235 2.278-.472 5.756 1.174 6.676.705.393 2.447.557 3.743.08.46-.17 1.003-.358 1.23.254.196.529-.241.888-.623 1.204-.877.725-6.024 2.016-8.005-2.708-1.985-4.732 1.26-9.653 5.894-9.199a5.57 5.57 0 0 1 1.68.438c.633.278 1.52.868.996 1.53-.403.505-1.008.238-1.555.059zm13.11-31.123c.002-.466.023-4.549.075-5.447.04-.665.283-1.249 1.112-1.249 1.852 0 .303 2.643 1.69 2.643.715 0 .958-.705 1.288-1.234.236-.381.923-1.857 1.96-1.279 1.1.614-.117 1.716-.286 2.001-.317.537-.835 1-.797 1.488.048.628.397.99 1.08 2.182.504.88 1.054 1.603.32 2.237-.453.39-1.126.206-1.453-.272-.502-.737-.855-1.577-1.298-2.357-.184-.324-.5-.536-.886-.498-.477.047-.541.46-.541.812 0 1.748.222 2.496-1.257 2.496zm-58.548 16.779c0 5.002.075 5.45-1.057 5.45-1.578 0-1.345-1.214-1.345-6.223 0-5.749-.31-6.222 3.764-6.222 3.088 0 3.774-.126 3.774.92 0 .762-.819.934-2.412.934zm18.335-17.178c-.766-1.772-.528-3.833.44-5.118 1.028-1.365 2.578-1.561 4.168-1.208.716.16 1.554.56 1.346 1.398-.281 1.134-1.122.43-1.694.19-.921-.384-1.78.13-2.063.673-.614 1.173-.598 2.767-.003 3.632.517.75 1.188.94 2.068.688.579-.166 1.413-.988 1.7.147.21.84-.707 1.209-1.397 1.367zm32.496-.11c-.65-1.207-.654-3.742.73-5.245 1.148-1.247 2.7-1.362 4.26-.868.606.191 1.241.62 1.045 1.362-.274 1.037-1.014.434-1.51.207-.855-.39-1.776-.04-2.145.42-.895 1.117-.595 3.167-.083 3.864.496.673 1.115.909 2.089.614.547-.166 1.568-.942 1.684.033.172 1.446-1.946 1.69-2.832 1.69zm15.11 29.599c.04 1.554-.008 7.773-.008 9.328 0 .702-.252 1.394-1.124 1.434-.893.041-1.189-.643-1.197-1.344-.038-3.206-.037-6.413.009-9.618.01-.712.358-1.376 1.243-1.29zm-40.607-35.351c.109-.67.824-.579 1.336-.588 1.477-.024 2.228-.023 3.246-.012.602.006 1.66-.107 1.66.627.002.766-.718.822-1.276.822-.847 0-.834 1.072-.855 1.783-.036 1.263-.025 2.528-.073 3.791-.021.565-.224 1.137-.883 1.161-.686.027-.874-.557-.895-1.118-.05-1.353-.05-2.708-.071-4.062-.013-.762.14-1.605-1.067-1.605zm62.876 14.255c-.727-.926-1.934-1.702-1.191-3.198.14-.4.005-1.11.46-1.173.596-.084.645.671.9 1.08.584.942.966 1.921.47 3.045zm1.846-.182c.746-.907 1.24-2.25 2.86-1.85.42.05 1.083-.234 1.243.194.211.563-.514.774-.858 1.11-.791.773-1.663 1.356-2.866 1.117z"/></g><g clip-path="url(#clip-EF60178B-A364-CBED-B5DB-577D49D70A5A)"><path fill="#fff" d="M129.955 29.94c2-.649 4.047-.914 6.102-.913 2.386.002 4.781.36 7.125.89 4.271.967 8.467 2.901 12.918 2.747 2.956-.101 7.117 2.073 9.833 3.153 6.356 2.527 12.464 5.111 14.817 12.025 1.316 3.87-9.53-.956-10.534-1.339-6.933-2.645-13.608-5.929-20.063-9.583-6.001-3.398-12.489-5.589-19.499-5.831a5.185 5.185 0 0 1-.49-.04c-.382-.064-.923.03-.894-.564zm49.427 50.166c.053.303-1.518.72-1.877.862-7.007 2.772-10.248 4.725-16.07 8.868-4.732 3.37-11.916 10.456-16.487 9.772-3.524-.527-3.526-7.951-2.898-10.36.056-.216-.23-.213-.328-.09-2.155 2.679-1.875 5.898-1.363 9.012.034.207-.222.338-.365.185-.596-.639-.886-1.62-1.048-2.457-.386-1.99-.183-4.014.161-5.992.194-1.115 1.156-3.191-.116-4.045-.561-.377-1.313-.31-1.856.092-4.46 3.302-10.776 2.999-12.222 9.402-.324 1.435-.564 2.957-1.218 4.288-.171.348-1.882 2.942-1.842 1.356.025-.937.112-2.059.28-3.247.01-.065-.082-.087-.101-.024-.5 1.597-1.021 3.163-1.753 4.608-.354.696-3.017 1.217-3.039-.338-.089-6.097 2.236-11.056 4.033-16.633a.482.482 0 0 0-.39-.626c-.706-.088-1.358 1.454-1.794 2-3.804 4.777-6.574 9.586-11.928 12.861-4.643 2.842-16.733 5.482-18.213-7.266-.168-1.441.32-5.598-1.5-6.064-1.098-.281-1.914.308-2.317 1.262-4.121 9.749-12.795 18.726-17.115 15.843-.856-.571-1.36-1.552-1.433-2.58-1.194-16.82 5.546-33.902 7.78-41.782 1.564-5.514-.295-2.941-2.38 1.442-1.888 3.967-4.096 9.724-5.236 14.21-4.409 17.345-3.165 25.5-2.639 27.828.033.144-.134.243-.25.152-1.292-1.022-2.228-2.555-2.543-4.128-.336-1.683-.157-3.422.064-5.124 3.256-25.14 14.782-48.134 25.3-70.853.521-1.126-.164-1.784-1.48-1.572-1.705.275-2.847 1.393-3.751 2.744C67.53 44.525 57.249 67.927 46.539 90.485a132.49 132.49 0 0 1-10.144 17.705c-2.325 3.417-6.253 6.783-10.647 6.469-4.72-.337-7.463-4.319-8.185-8.556-1.542-9.045-6.902-9.397-8.867-9.107-3.207.474-5.314 2.909-7.565 4.995-.239.222-.545.486-.829.262-.197-.156-.33-.554-.297-.82.652-5.12 7.264-7.998 11.85-7.11 7.407 1.437 7.543 10.82 10.558 12.264 5.169 2.476 15.214-14.016 17.105-17.57.145-.272.41-.654.553-.706.393-.141.15.715.017 1.049-2.548 6.433-4.744 12.03-9.284 17.787-.26.33-.89 1.276-.512 1.655.545.546 2.323-1.515 3.074-2.415C41.59 96.52 45.803 83.897 50.698 72.2c5.42-12.949 20.683-41.04 26.799-48.767 1.835-2.319 11.49-14.74 14.697-9.98 1.8 2.67.32 8.497-.833 11.523C83.748 44.938 74.481 65.553 72.22 87c-.16 1.518-.09 3.06.31 4.532 1.677 6.188 5.938.934 6.265.337 2.189-4.007 3.76-7.663 3.951-12.05.013-.314.061-.646.18-.933.37-.898 1.06-.986 1.81-.547.35.206.587.602.883.903 3.03 3.087 4.291-.165 5.231-3 2.857-8.611 6.354-19.179 15.137-23.495 5.059-2.485 12.325-1.046 14.339 4.506 3.956 10.91-4.908 22.592-9.919 25.47-.207.119-.392-.2-.22-.367 6.036-5.878 8.75-15.016 7.032-19.179-.094-.229-.438-.207-.454.04-.478 7.433-2.903 12.266-7.058 17.483-7.847 9.854-15.212 7.842-15.255 7.82-.393.32-.694.772-.857 1.218-1.562 4.296 2.117 8.624 6.416 8.58 8.226-.086 15.858-12.027 20.06-17.577 3.338-4.408 6.457-10.041 9.388-14.739 3.154-5.057 4.274-10.628 10.936-11.538.034-.004.067-.008.098-.01a.475.475 0 0 1 .36.824 39.285 39.285 0 0 0-2.25 2.203c-1.508 1.608-4.46 5.272-3.947 6.767.217.63 3.527-3.804 5.134-5.45.065-.065.173.011.133.094-2.21 4.472-6.12 8.926-8.007 13.627-1.391 3.468-2.017 7.571-4.565 10.443-.581.656.022.986.784 1.789 1.856 1.953 6.555-2.138 10.047-5.51 4.766-4.602 8.817-9.694 12.12-15.45 1.791-3.123 3.152-4.022 6.39-3.69.864.09 1.162.338.556 1.171-2.727 3.752-5.661 7.523-7.372 11.88-.137.349-.235.654-.2.95.044.354.505.47.74.2 1.692-1.95 5.699-8.657 8.257-11.297.26-.266.573-.562 1.085-.319.13.062-.156.548-.297.81-3.691 6.886-7.098 13.493-9.748 20.882-.941 2.624-2.187 5.21-2.105 8.067.022.762.25 1.678 1.126 1.759.319.03.634-.077.905-.248 6.675-4.224 19.693-14.678 28.006-14.045zm-82.66 1.243c5.325 2.376 10.83-4.412 13.67-9.132 2.112-3.511 3.702-8.033 2.855-13.157-.404-2.44-2.588-3.418-4.835-2.439-3.647 1.59-6.81 5.07-8.55 8.14zm-62.71-5.813c-.266-1.063-.143-2.633.712-2.659 1.033-.03.497 1.572 1.157 2.588.217.333-.17.796-.341 1.16-.122.261-.349.564-.598.651-.372.131-.52-.232-.61-.538zm73.382-28.844c-1.642-2.091-4.372-3.842-2.693-7.22.318-.902.013-2.502 1.039-2.647 1.35-.19 1.461 1.515 2.036 2.439 1.323 2.125 2.186 4.336 1.066 6.873zm5.02.899c-.826-.165-1.496-.511-.856-1.292 1.685-2.056 2.802-5.099 6.463-4.193.95.114 2.446-.53 2.81.439.477 1.276-1.162 1.754-1.94 2.515zm94.266 47.062c-1.324 2.286-3.186 4.127-4.925 6.088-2.246 2.536-4.491 5.073-6.81 7.542-1.425 1.516-3.083 2.647-5.106 3.096-2.957.656-5.307 2.093-6.848 4.764-.182.315-.462.829-.922.545-.128-.078.033-.78.186-1.145 1.446-3.425 2.723-6.92 4.68-10.121 1.89-3.094 3.41-6.33 3.97-10.014.394-2.586-.05-4.851-1.384-6.998-2.47-3.975-5.03-7.894-7.458-11.894-4.524-7.454-8.985-14.946-13.458-22.43-.21-.352-.519-.93-.38-1.15.38-.607.95-.098 1.403.052 4.37 1.445 7.894 4.145 10.833 7.605 4.97 5.854 8.673 12.358 9.744 20.112.188 1.365.157 2.76.284 4.135.076.815-.236 2.319.374 2.294 1.006-.04.875-1.443 1.103-2.336.504-1.976.658-3.982.619-6.013-.021-1.064-.004-2.129-.004-3.483.155-5.948-.685-12.009-3.096-17.813-1.078-2.592-2.294-5.054-4.86-6.5-.909-.511-.964-1.332-.966-2.193-.011-4.329-2.021-7.708-4.944-10.704a103.441 103.441 0 0 0-23.43-18.02c-4.736-2.664-9.79-4.63-15.256-5.347-3.247-.426-6.376.206-9.44 1.035-4.225 1.143-8.464 1.81-12.845 2.135-3.848.287-7.613-.367-11.418-.194-.391.018-1.042-.087-1.141-.32-.254-.594.368-.918.75-1.251.91-.8 2.061-1.093 3.203-1.335 8-1.697 16.004-3.377 24.01-5.046 1.048-.218 2.121-.232 3.169.024 7.838 1.916 15.075 5.097 21.417 10.18 3.163 2.534 6.782 4.386 10.12 6.659.262.177.556.346.857.412.28.061.696.095.867-.061.372-.343.157-.775-.092-1.132-.625-.897-1.54-1.447-2.432-2.03-3.65-2.386-7.211-4.884-10.601-7.644-2.325-1.891-4.429-3.992-6.445-6.172a24.344 24.344 0 0 0-7.877-5.664c-1.968-.886-3.87-1.917-5.798-2.891-.179-.09-.436-.27-.44-.413-.013-.409.386-.383.657-.437 2.03-.405 4.033-.004 6.004.353 6.567 1.189 12.175 4.353 17.088 8.765 3.81 3.422 7.164 7.267 9.906 11.617 3.64 5.771 7.961 11.025 12.215 16.337 3.27 4.083 5.987 8.53 7.969 13.397.16.395.238.839.465 1.186.592.907.512 2.785 1.892 2.473.857-.194.362-1.896.263-2.934-.52-5.498-1.203-11-1.027-16.525.163-5.137-1.43-9.612-4.235-13.778a677.22 677.22 0 0 1-4.754-7.177 14.477 14.477 0 0 1-.92-1.671c-.074-.158-.06-.457.043-.581.242-.289.57-.18.827.019.335.26.653.544.955.842 3.639 3.588 6.98 7.44 10.085 11.496 4.75 6.2 6.285 14.163 6.858 21.784.567 7.553.916 15.387-4.376 21.48-.849.978-1.118 2.1-.802 3.273 1.61 5.994.291 12.055.426 18.08.06 2.7-1.576 5.036-2.545 7.5-.153.391-.458.72-.645 1.1-.224.457-.668 1.04-.074 1.407.502.309 1.013-.201 1.352-.568 1.37-1.48 2.813-2.915 4.011-4.53 3.559-4.795 5.507-10.27 6.517-16.12.417-2.417.695-4.835.67-7.293-.008-.84.171-1.688.326-2.52.054-.289.232-.686.456-.78 1.262-.522 3.892 11.282 4.047 12.577zM182.462 19.42c-.177-.044-.36-.316-.316-.492.039-.154.077-.368.213-.45.165-.098.456-.022.559.14.145.227.074.65-.153.794zm-50.02-.812c-.177-.054-.389-.237-.432-.4-.031-.12.152-.387.298-.448a14.342 14.342 0 0 1 7.073-1.06c.156.016.3.171.45.262-.147.137-.27.337-.445.402-1.762.66-3.491 1.442-5.542 1.571zm28.333 31.951a.312.312 0 0 1 .188.509c-.644.755-1.325 1.304-2.513 1.103-.23-.04-.334-.317-.194-.503zm-6.212 1.751a.356.356 0 0 1 .189.448c-.165.417-.459.524-.876.413a.351.351 0 0 1-.236-.43z"/></g><g clip-path="url(#clip-1E4ED89E-E45D-D120-E45F-EDFCD3ED1A74)"><path fill="#fff" d="M83.884 205.269c0 1.948-.075 2.876-1.36 2.877-1.346.002-1.26-1.126-1.26-2.877 0-1.461-.12-2.585 1.31-2.617zm-2.552-9.37c-1.108 0-1.11 0-1.128-1.102-.008-.498-.022-.92 0-1.418.05-1.153 1.037-1.977 2.082-1.574.186.071.309.407.31.626.006.744-.086 1.894-.091 2.257zm-8.95 8.637c-.02-.163-.178-.778.808-.727 1.004.04 1.377.225 1.342.76-.034.513-.562.814-1.398.678zm2.033 3.48c-.229.251-1.298.331-1.66.187-.455-.182-.498-1.07-.357-1.377.2-.436 1.205-.28 1.301-.267zm28.234-12.956c-.99.08-.062-1.612.19-2.044.098-.167.359-.113.434.065.146.352.298.702.412 1.065zm52.424-2.474c-.287.481-.784.796-1.333.87-1.459.196-2.921.376-4.387.544-5.94.683-11.94 1.06-18.01 2.886-.296.09-.382.547.01.493 6.6-.906 21.112-2.431 20.351-1.734-.474.433-7.943 1.351-11.551 1.93.024 1.893-.731 4.026-1.974 5.632a1.58 1.58 0 0 1-.946.587 88.796 88.796 0 0 0-17.116 5.162c-.317.132-.312.715.099.578 7.21-2.388 14.798-3.813 22.396-4.135a73.175 73.175 0 0 1 3.446-.067c.449.001.89.164 1.219.475.614.583 2.178 2.19 1.107 2.222-.198.006-.401.03-.593.046-7.748.654-15.439 2.415-22.854 4.687-.375.114-.482.75.013.633 7.112-1.681 15.484-3.409 23.417-3.07a.738.738 0 0 1 .704.728c.006 3.128-3.127 5.248-5.908 5.773-7.117 1.345-14.207 2.805-21.379 3.708-6.947.875-13.93 1.137-20.887 1.973-4.377.526-2.821-5.814-.003-7.603l-54.192.53c-5.027.049-5.194-2.917-3.045-6.213a2.83 2.83 0 0 1 1.84-1.244c5.819-1.085 11.69-1.034 17.58-1.577.214-.02.392-.359.098-.389-4.248-.438-8.732-.936-13.17-.972a.63.63 0 0 1-.613-.748c.2-1.118.685-3.12 1.819-4.58.237-.305.597-.486.98-.503 3.995-.175 8.06-.14 11.775-.752.177-.03.386-.41.113-.446-4.262-.581-9.524-1.275-14.653-1.166a.38.38 0 0 1-.363-.508c.04-.122.416-3.068 1.78-4.941.404-.557.98-.958 1.626-1.176 3.509-1.182 10.531-2.873 15.938-3.317 5.984-.49 11.893-1.975 17.729-3.355 5.201-1.23 9.945-2.553 15.332-2.307 6.659.303 13.178 1.755 19.769 1.983.182.006.195.275.014.296-1.462.177-9.63.95-12.227 1.292-.995.13-4.408.116-4.305 1.46.02.256 1.04.691 2.775.152.608-.19 15.053-.476 14.884-.311a572.983 572.983 0 0 0 29.936-2.623zm-78.54 14.824c0-.894-.863-.887-.995-1.367-.125-.458.734-.752.76-1.624.033-1.034-.581-1.78-1.822-1.889-.938-.082-1.889-.055-2.831-.011-.724.035-.898.25-.928 1.058-.034.865-.007 4.423 0 5.335.004.274.034.608.375.62 1.884.072 2.515.231 4.265-.108zm-.02-12.427c-.265-.414-.937-.267-1.407-.154-.365.088-.277.709-.644.866-1.72.735-2.125-.436-2.126-1 0-.55-.338-2.356.788-2.655 1.204-.32 1.473.547 1.593.681.29.324 1.093.576 1.71.266.33-.165-.013-.927-.238-1.343-.567-1.046-2.968-1.474-4.291-.898-1.147.5-1.353 1.715-1.434 2.722-.012.137-.241 2.344.49 3.126 1.19 1.276 4.087 1.15 5.162-.244zm1.45 2.495c1.128.005 2.256.001 3.384.001 1.127 0 2.254-.008 3.382.004.459.005.81-.082.822-.645.01-.483.005-.955-.662-.94-.498.01-.588-.305-.585-.72.005-.87-.012-1.74 0-2.61.027-2.253-.002-2.185-2.164-2.173-3.024.016-3.785.767-3.806 3.785-.005.779.257 1.661-.866 2.001-.307.093-.425.58-.302.964zm7.723 7.801c0-2.912-.328-4.122-2.949-4.236-3.597-.155-3.14 2.584-3.14 4.349 0 3.7.361 4.303 3.164 4.303zm1.395-7.79c.63-.017 3.155-.017 3.785.005.502.018.736-.161.733-.706-.004-.76-.05-.851-.828-.876-.676-.02-1.354.018-2.028-.021-.538-.032-.742-.391-.708-1.083.028-.573 1.16-.312 1.523-.323.698-.022 1.287-.078 1.267-.72-.015-.492-.259-.623-.688-.612-.495.012-.991-.004-1.486-.013-.497-.008-.555-.388-.594-.76-.06-.584.407-.369.658-.388.625-.048 1.251-.133 1.871-.036.762.118.975-.176.97-.75-.005-.47-.1-.81-.661-.805-1.184.01-2.366-.002-3.55.006a.928.928 0 0 0-.91.927c-.014 1.833-.006 3.666-.008 5.499zm6.743 5.705c.003-.534-.269-.694-.764-.702-.5-.008-.857.128-1.1.602-.395.77-.83 1.52-1.248 2.277-.242.437-.456.324-.654-.038-.417-.758-.84-1.513-1.246-2.278-.25-.472-.616-.645-1.12-.513-.642.168-.65.69-.66 1.408-.02 1.455-.027 2.944-.003 4.683.009.671.055.942.617.956.839.02.946-.045.985-.866.013-.27-.105-1.595.048-2.324.04-.188.272-.242.398-.098.275.313.377.75.62 1.088.49.676.983.662 1.457-.075.22-.344.402-.714.612-1.064a.358.358 0 0 1 .205-.154c.284-.046.176 1.667.176 1.76-.006 1.635-.01 1.736.853 1.728.44-.004.825-.02.82-.621-.008-.961-.003-1.923-.003-2.885h.005zm2.61-11.39c.813.082.679 1.127.651 2.301-.065 2.8-.264 3.38.714 3.38.499 0 .902-.044.893-.702-.013-.916-.003-1.83-.003-2.747h.005c0-.823-.007-2.653-.008-2.745-.013-.54-.257-.878-.812-.881-.9-.005-1.808-.061-2.696.044-1.333.158-2.208.983-2.32 2.287-.117 1.362-.055 2.741-.05 4.114.002.683.508.62.964.626.463.007.83-.037.81-.728-.031-1.006-.048-3.668.156-4.139zm3.817 15.086c-.52-.007-.796.205-1.068.632-.333.525-.873.464-1.454.403-1.028-.107-.787-2.282-.714-2.822.13-.963 1.191-1.367 1.956-.766.171.135.27.36.422.526.284.311 1.536.494 1.726.205.289-.44-.272-1.327-.298-1.364-.751-1.052-2.328-1.472-3.805-1.013-1.296.403-1.805 1.115-1.886 2.652-.012.228-.016 1.407.013 1.765.081 1.013.716 1.987 1.681 2.252 2.625.724 3.856-.611 4.19-1.29zm1.655-10.514c.53-.074 1.066-.128 1.586-.251.521-.123.903-.022 1.032.533.172.742.663.868 1.31.816.658-.052.71-.08.488-.717a362.255 362.255 0 0 0-1.884-5.253c-.337-.918-.355-.911-1.372-.915-1.045-.004-1.05-.005-1.427 1.026-.438 1.193-.868 2.39-1.295 3.587-.213.597-.413 1.2-.616 1.802-.064.188-.05.406.166.426.398.037.81.045 1.203-.016.304-.048.38-.375.387-.64zm5.936 12.405c-.66-.869-1.297-1.759-2.009-2.583-.286-.331-.242-.465.01-.764a38.564 38.564 0 0 0 1.75-2.265c.36-.499.286-.57-.256-.674-1.08-.206-1.647.444-2.203 1.209-.23.315-.44.895-.837.789-.433-.117-.232-1.25-.226-1.34.032-.581-.31-.682-.78-.646-.603.047-.886.378-.886.98 0 .87-.024 4.258.005 5.08.025.734.17.81.911.828.615.014.742-.294.77-.842.022-.465-.147-1.31.358-1.321.556-.013.57.565.823.985.153.254.538 1.352 2.327 1.171zm1.425-11.974c-.012-.547.059-.845.077-1.377.038-1.084.919-.812 1.516-.848 1.057-.065.855 1.47.866 1.834.03.999.087 1.057.96 1.053.796-.004.838-.039.855-.987.016-.866.004-1.733.004-2.6 0 0-.015-1.916-.003-2.873.008-.49-.242-.621-.674-.61-.842.02-1.175.32-1.144 1.479.043 1.575-.405 1.481-1.528 1.537-1.17.057-.852-.76-.928-2.362-.026-.577-.315-.673-.781-.65-.607.03-.917.361-.921.95-.015 1.825-.003 3.649-.011 5.474-.003.576.343.65.798.647zm5.091 12c-.006-.57-.171-.838-.77-.811-.72.03-1.542.003-2.263-.018-.69-.021-.441-.6-.517-1.013-.121-.666.784-.343 1.97-.406.443-.024.798-.034.803-.633.006-.569-.285-.699-.762-.678-2.166.096-2.015.096-2.031-.705-.01-.516.174-.44 1.157-.496.917-.052 2.265.257 2.367-.814.05-.522-.616-.732-1.125-.726-1.126.013-1.865-.03-2.99.007-.744.024-.97.25-1.008.995-.043.868-.005 4.438-.015 5.354-.006.585.277.696.959.708 1.106.02 1.91.02 3.228.008zm6.418-14.815c0-2.009-.494-4.216-4.661-3.272-1.48.335-1.492 3.035-1.492 3.217.018.954-.058 1.936.693 2.698 1.055 1.073 3.453 1.062 4.641.122zm-1.818-.013c0 1.914-.991 1.914-1.245 1.914-.576.001-1.303 0-1.226-1.914-.02-1.663.468-1.994 1.118-1.99z"/></g></g></svg>