<svg xmlns="http://www.w3.org/2000/svg" width="22" height="22" viewBox="0 0 22 22"><g><g><path fill="none" stroke="#323232" stroke-linecap="round" stroke-linejoin="round" stroke-miterlimit="20" stroke-width="1.5" d="M21 11c0 5.523-4.478 10-10 10S1 16.523 1 11C1 5.478 5.478 1 11 1s10 4.478 10 10z"/></g><g><path fill="none" stroke="#323232" stroke-linecap="round" stroke-linejoin="round" stroke-miterlimit="20" stroke-width="1.5" d="M9.681 8.64v0h1.216v6.075h-.002c-1.251 0-2.626-.76-3.602-2.16C5.83 10.503 5.43 8.952 5.43 8.64"/></g><g><path fill="none" stroke="#323232" stroke-linecap="round" stroke-linejoin="round" stroke-miterlimit="20" stroke-width="1.5" d="M15.654 14.715v0s-.442-.932-1.339-1.957c-.598-.7-1.439-1.08-2.205-1.08.766 0 1.607-.38 2.205-1.08.897-1.027 1.339-1.958 1.339-1.958v0"/></g><g><path fill="none" stroke="#323232" stroke-linecap="round" stroke-linejoin="round" stroke-miterlimit="20" stroke-width="1.5" d="M12.116 11.68H10.9"/></g></g></svg>