<svg xmlns="http://www.w3.org/2000/svg" width="618" height="60" viewBox="0 0 618 60"><g><g><path fill="#343434" d="M603.932 37.683c-1.93-.03-4.373 2.441-4.33 4.407.038 1.754 1.34 2.021 2.69 2.05 1.987.042 3.577-1.772 3.573-4.183zM125.25 23.456c3.543-.732 6.661-2.74 10.232-3.407.658-.123 1.622-.128 1.35-1.275-.256-1.085-1.12-.717-1.8-.653-3.892.36-7.52 2.113-11.487 2.144-1.006.008-1.585.822-1.449 1.86.144 1.098.965 1.469 2.068 1.526zm328.294-2.1c-1.055.01-1.72.7-1.632 1.81.088 1.144.91 1.747 1.945 1.653 6.127-.557 12.108-2.034 18.17-3 .5-.08.688-.46.668-.95-.019-.52-.313-.777-.81-.809-.852-.053-1.708-.092-2.927-.156zm-273.591.03c-.994.02-1.636.738-1.531 1.802.111 1.134.924 1.725 1.966 1.631 6.119-.548 12.087-2.038 18.143-2.991.589-.093.742-.592.734-1.116-.01-.59-.46-.657-.906-.665-.792-.014-1.584-.003-2.377-.003zm98.176-.022c-1.054.01-1.698.736-1.585 1.844.116 1.143.951 1.707 1.986 1.613 6.098-.55 12.044-2.05 18.082-2.977.544-.084.744-.489.712-1.013-.032-.53-.364-.748-.85-.776-.823-.047-1.647-.081-2.887-.14zm-30.605 24.034c4.595.523 11.807-5.518 12.13-10.158.031-.444-.122-.79-.525-.98-.479-.226-.745.094-.965.446-.356.571-.674 1.165-1.045 1.725-1.804 2.721-3.786 5.3-6.741 6.857-2.935 1.544-4.969.304-4.66-2.855.498-5.097 2.562-9.582 5.703-13.59.202-.258.49-.46.767-.645.308-.204.681-.4 1.022-.145.335.25.125.626.038.936-.455 1.617-.948 3.223-1.38 4.845-.241.905.059 1.65.932 2.059.901.423 1.622.049 2.163-.674 1.202-1.607 1.798-3.436 2.016-5.428.27-2.451-.994-3.754-3.138-4.492-1.853-.638-3.611-.56-4.986.955-3.92 4.32-5.877 9.497-6.443 14.48zm-160.78-1.596c1.945.803 3.425-.279 4.596-1.759.641-.81 1.154-1.723 1.746-2.575.193-.276.209-.776.681-.707.069.01.08.599.073.919-.042 1.891.226 3.748 2.138 4.597 1.931.859 3.651.125 5.006-1.418 1.797-2.047 3.004-4.445 4.05-6.936.347-.83-.002-1.388-.737-1.702-.818-.35-1.074.324-1.322.881-.844 1.901-1.673 3.815-2.954 5.472-.581.753-1.237 1.869-2.307 1.425-1-.415-.698-1.652-.635-2.567.28-4.133 1.777-7.903 3.546-11.586.381-.794.906-1.58.185-2.462-.615-.753-1.393-1.103-2.351-.888-1.069.24-1.276 1.149-1.589 2.039-1.689 4.814-3.329 9.659-6.209 13.939-.519.77-1.187 1.698-2.293 1.242-1.094-.45-.917-1.573-.786-2.496.616-4.357 2.359-8.33 4.307-12.22.558-1.116.466-2.052-.598-2.694-1.072-.646-2.068-.32-2.66.744a35.361 35.361 0 0 0-4.39 14.343zm221.997-19.124c-.129.081-.332.047-.5.066-.013-.175-.081-.367-.032-.522 1.239-3.836 2.266-7.757 4.213-11.323.426-.78.952-1.79 2.144-1.482 1.071.277 1.582 1.086 1.565 1.907-.375 5.38-3.284 8.77-7.39 11.354zm3.402 2.626c1.205-.813 2.036-.153 2.099 1.184.044.925-.137 1.889-.376 2.793-.875 3.3-2.298 6.37-4.152 9.229a8.262 8.262 0 0 1-1.769 1.949c-.902.713-1.993.975-3.093.419-1.068-.542-1.138-1.57-1.156-2.64.673-5.7 3.829-9.815 8.447-12.934zm-20.444 3.437l.3.13c-.082.303-.158.608-.248.909-.645 2.167-1.362 4.315-1.918 6.504-.462 1.822.606 3.82 2.412 4.696 1.668.81 2.859-.17 3.817-1.324 1.03-1.24 1.93-2.598 2.78-3.97.646-1.043 1.222-2.115 2.233-2.858.211-.155.445-.278.668-.416.008.285.073.582.014.853a199.318 199.318 0 0 1-1.008 4.378c-.461 1.913-.547 3.596 2.11 3.776.219.016.437.205.636.344 2.801 1.945 5.92 1.842 8.14-.815 3.589-4.3 5.89-9.22 5.48-15.028-.11-1.553-.687-2.933-2.297-3.575-.657-.262-.419-.578-.123-.965.834-1.09 1.963-2.08 2.415-3.315 2.87-7.829 2.414-10.252-4.829-11.41-.12-.02-.248-.081-.36-.06-1.044.208-2.3.297-2.31 1.71-.005.834-.21 1.544-.477 2.288-1.365 3.796-2.858 7.554-4.019 11.412-.759 2.522-1.758 4.656-4.11 6.067-1.056.634-1.9 1.625-2.833 2.46-.397.356-.796.798-.713 1.33.367 2.376-1.33 3.815-2.458 5.492-.467.695-1.163 1.477-2.124 1.02-.95-.45-.76-1.466-.594-2.294.654-3.275 1.857-6.363 3.804-9.067 1.244-1.728.887-3.194-.572-4.18-1.489-1.005-2.19.695-2.881 1.59-2.89 3.742-4.986 7.972-7.234 12.107-.16.294-.35.571-.864 1.401.49-3.553 1.243-6.37 2.167-9.146.378-1.135 1.461-2.487-.142-3.293-1.472-.739-2.222.806-2.945 1.724-2.699 3.422-4.683 7.298-6.816 11.077-.198.35-.426.682-.728 1.161-.072-.296-.13-.392-.108-.463 1.186-3.985 1.63-8.237 4.35-11.663.958-1.207.34-2.235-.77-2.91-1.034-.627-2.12-.521-2.552.76-1.529 4.548-3.046 9.104-4.094 13.79-.276 1.232-.26 2.583 1.249 3.188 1.581.635 2.59-.193 3.309-1.48 1.384-2.48 2.714-4.993 4.083-7.483.337-.615.733-1.196 1.103-1.792-.223 2.573-.725 5.014-1.15 7.47-.155.897-.054 1.82.924 2.286 1.045.498 1.83-.021 2.503-.772 1.424-1.586 2.381-3.47 3.375-5.331 1.126-2.109 2.27-4.21 3.405-6.313zm34.27-.281c.547-.614 1.255-1.19 2.17-.844.893.34.997 1.216.96 2.01-.177 3.755-1.517 7.08-3.914 9.96-.618.744-1.45 1.336-2.492.896-1.002-.422-.896-1.42-.982-2.307.324-3.716 1.79-6.943 4.259-9.715zm18.057 7.684c-.076.906-.144 1.324-.14 1.742.014 1.817.31 3.612 2.167 4.407 1.854.795 3.55.18 4.872-1.315a19.128 19.128 0 0 0 1.653-2.194c.457-.697.778-.778 1.348-.076.727.895 1.516 1.765 2.396 2.507 1.357 1.143 2.663.993 3.817-.411 1.222-1.486 1.738-3.278 2.298-5.057.668-2.124 1.069-4.34 2.191-6.307.334-.586.712-.976 1.47-.693.792.295.51.856.384 1.37-.654 2.653-1.105 5.333-1.003 8.074.123 3.308 3.31 4.982 6.124 3.248 1.038-.64 1.783-1.568 2.532-2.5.161-.2.4-.34.605-.506.108.23.266.45.318.694.311 1.467.833 2.844 2.41 3.297 1.728.497 3.277-.008 4.494-1.349 1.917-2.112 3.231-4.588 4.282-7.217.314-.786-.034-1.314-.734-1.628-.76-.34-1.05.225-1.299.772-.791 1.756-1.544 3.537-2.674 5.11-.66.919-1.349 2.344-2.614 1.866-1.172-.443-.702-1.94-.613-2.99.348-4.092 1.857-7.832 3.674-11.456.714-1.42.316-2.404-1.078-2.926-1.39-.521-2.3.123-2.724 1.495-1.301 4.217-3 8.271-4.976 12.213-.4.797-.833 1.575-1.557 2.128-.713.544-1.434 1.433-2.406.866-.87-.508-.572-1.551-.441-2.365.685-4.276 2.373-8.205 4.325-12.028.434-.851.43-1.593-.21-2.27-.627-.662-1.688-1.052-2.204-.392-1.129 1.444-2.806 1.652-4.235 2.418-3.15 1.687-4.548 4.672-5.557 7.875-.655 2.078-1.372 4.117-2.502 5.99-.246.41-.506.766-1.087.608-1.76-.478-3.116-3.14-2.397-4.795.373-.857.484-1.648-.501-2.098-1.054-.48-1.209.491-1.509 1.106-1.067 2.195-1.94 4.507-3.778 6.229-.381.357-.84.695-1.4.473-.538-.214-.558-.773-.599-1.252a9.816 9.816 0 0 1 .005-1.554c.308-4.07 1.787-7.78 3.527-11.408.399-.83.907-1.655.135-2.543-.613-.705-1.387-1.017-2.3-.807-1.06.244-1.283 1.15-1.593 2.04-1.666 4.794-3.317 9.602-6.15 13.874-.53.798-1.21 1.77-2.355 1.302-1.093-.447-.9-1.583-.768-2.503.625-4.388 2.347-8.4 4.366-12.293.561-1.082.351-1.917-.57-2.547-.942-.645-1.906-.5-2.584.437-.479.662-.79 1.444-1.191 2.163-1.027 1.84-2.438 3.342-4.112 4.599-.898.674-1.434.587-1.57-.708-.287-2.72-1.042-3.441-3.757-3.869-.201-.032-.429-.108-.576-.24-1.431-1.292-2.873-.957-3.963.297-3.43 3.944-5.56 8.497-5.502 13.813.035 3.23 2.614 5.133 5.778 4.438 3.686-.809 5.395-3.715 6.503-6.872.768-2.186 1.798-3.819 4.006-4.596.193-.068.385-.142.577-.212.013.227.066.462.032.682-.245 1.569-.571 3.128-.75 4.704-.24 2.137.425 3.996 2.515 4.816 2.089.819 3.571-.472 4.755-2.034.782-1.032 1.441-2.157 2.42-3.642zM219.984 33.51c-.35.475-.803.871-1.465.745-.717-.136-.927-.724-1.079-1.332-.405-1.632 1.502-5.908 3.068-6.603 1.365-.605 1.398.496 1.518 1.31-.224 2.183-.775 4.16-2.042 5.88zm-53.208-5.618c.591-.527 1.4-.926 2.174-.333.732.561.412 1.351.149 2.026-1.72 4.406-3.755 8.627-7.287 11.925-.418.39-.91.788-1.554.545-.415-.156-.384-.579-.446-1.352 1.27-4.563 3.003-9.28 6.964-12.81zm11.234 13.594c-.105-.285-.174-.375-.156-.44 1.151-3.964 1.6-8.191 4.282-11.588.502-.636.676-1.303.283-2.04-.435-.814-1.102-1.294-2.053-1.315-.895-.02-1.293.583-1.584 1.294-.196.48-.428.964-.516 1.468-.752 4.354-3.468 7.603-6.113 10.887-.44.547-.977 1.352-1.788.926-.753-.397-.407-1.276-.256-1.93.789-3.421 2.257-6.58 3.798-9.714.402-.818 1.099-1.7.4-2.647-.708-.958-1.813-.868-2.864-.814-.497.025-.978.255-1.479-.159-2.422-2-3.986-1.982-6.292.204-3.144 2.98-5.016 6.75-6.314 10.81-.376 1.178-.866 2.225-1.75 3.052-.966.904-1.874 2.563-3.357 1.793-1.561-.81-.659-2.508-.284-3.737.988-3.243 2.166-6.427 3.23-9.647.252-.76.85-1.872-.476-2.08-1.748-.275-3.527-.11-5.159.79-3.227 1.779-4.668 4.82-5.683 8.114-.625 2.03-1.377 3.98-2.44 5.817-.447.771-.992.859-1.644.31-1.503-1.264-3.054-2.492-1.415-4.745.509-.7.232-1.45-.556-1.843-.863-.431-1.097.327-1.416.867-1.135 1.92-2.177 3.9-3.642 5.603-.369.428-.766 1.013-1.434.766-.663-.247-.622-.94-.588-1.51.226-3.763 1.282-7.33 2.6-10.834.232-.613.565-1.13 1.08-1.558.996-.824.846-1.708-.041-2.482-1.49-1.3-2.788-.86-3.93.543-3.151 3.872-5.272 8.367-7.68 12.69-.157.283-.189.721-.779.768.076-.464.127-.878.214-1.284.742-3.42 1.846-6.717 3.362-9.874.387-.806.896-1.69-.289-2.264-1.123-.543-2.265-.47-2.85.74-2.28 4.715-3.738 9.684-4.24 14.908-.119 1.242.41 2.198 1.657 2.659 1.245.46 1.964-.277 2.62-1.137 1.699-2.227 2.777-4.814 4.172-7.218l1.71-2.955c.243.43.217.747.157 1.057-.457 2.316-.822 4.645-.58 7.012.15 1.478.576 2.896 2.142 3.461 1.607.58 2.93-.078 4.015-1.28.771-.854 1.517-1.731 2.273-2.599.803.821 1.568 1.684 2.416 2.453 1.946 1.765 3.362 1.593 4.829-.587 1.021-1.517 1.488-3.272 2.003-5.002.593-1.988 1.004-4.042 2.088-5.856.336-.56.753-.845 1.444-.585.748.282.485.824.367 1.3-.586 2.353-.993 4.724-.906 7.163.068 1.904.353 3.764 2.316 4.633 1.963.87 3.557-.102 4.952-1.43.53-.503.795-.49 1.095.217.79 1.862 2.25 2.428 4.122 1.87 2.443-.73 3.91-2.616 5.26-4.62.187-.276.266-.798.715-.672.144.04.188.584.207.902.09 1.45.254 2.89 1.87 3.462 1.686.597 2.95-.258 4.07-1.407.297-.307.544-.661.836-.974.137-.148.323-.25.487-.374.056.19.164.38.16.57-.029 1.267.145 2.409 1.59 2.85 1.56.475 2.444-.421 3.11-1.61 1.537-2.747 3.025-5.522 4.544-8.278.178-.324.425-.61.977-1.387-.575 2.902-1.049 5.223-1.487 7.55-.194 1.033-.205 2.07.91 2.637 1.153.587 1.942-.13 2.6-.928.64-.775 1.248-1.595 1.74-2.468 1.513-2.69 2.961-5.418 4.442-8.126.177-.323.403-.618.94-1.432-.895 3.08-1.667 5.547-2.318 8.046-.47 1.802.564 3.814 2.363 4.717 1.655.83 2.783-.18 3.843-1.265.32-.327.586-.705.898-1.04.16-.17.367-.297.553-.443.124.193.295.37.367.58 1.29 3.812 4.31 4.503 7.16 1.609 1.405-1.428 2.402-3.157 3.41-4.871.382-.65.702-1.553 1.656-1.261.961.293.353 1.163.32 1.743-.293 5.242 2.224 7.813 6.789 6.396 5.054-1.568 7.724-5.703 9.72-10.32.046-.106.044-.24.04-.362-.018-.455-.146-.879-.63-1.01-.45-.121-.652.255-.832.574-.495.878-.934 1.79-1.467 2.645-1.633 2.623-3.504 5.045-6.367 6.425-2.016.972-3.34.204-3.651-2.001-.194-1.373-.124-2.745.147-4.105.105-.523.289-.869.928-.532 1.587.837 2.989.357 4.199-.76 2.391-2.209 3.725-4.98 4.022-8.21.256-2.783.045-3.011-3.73-4.342-1.783-.627-3.002.315-3.966 1.685-1.92 2.728-3.223 5.748-4.192 8.927-.166.546-.132 1.334-.962 1.378-.765.041-.98-.648-1.218-1.19-.526-1.196-1.4-1.777-2.693-1.534-1.047.197-1.977.72-2.123 1.868-.166 1.305.705 1.993 1.829 2.411.42.157.875.33.502.903-1.056 1.623-2.236 3.14-3.848 4.258-.494.343-1.058.534-1.634.183-.573-.348-.69-.947-.61-1.531.13-.936.288-1.88.562-2.78a928.693 928.693 0 0 1 3.457-11.113c.436-1.375-.15-1.835-1.44-1.715-1.43.133-2.447.824-3.01 2.19-.726 1.761-1.306 3.578-1.575 5.45-.342 2.383-1.367 4.428-2.75 6.314-.77 1.051-1.459 2.916-3.028 2.17-1.48-.705-.572-2.423-.25-3.663.783-3.015 2.132-5.786 3.876-8.366 1.04-1.54-.042-2.635-1.003-3.476-.95-.832-1.68.22-2.25.879-.795.922-1.562 1.896-2.176 2.944-1.919 3.268-3.756 6.582-5.637 9.873-.18.313-.224.768-.845.884.483-3.126 1.214-6.108 2.279-9.002.378-1.03.981-2.152-.216-2.866-1.228-.734-1.97.449-2.63 1.219-2.405 2.802-4.093 6.075-5.926 9.251-.647 1.121-1.273 2.254-1.987 3.52zm333.856-14.988c.31-.316.722-.487 1.17-.279.44.204.611.622.6 1.058-.07 2.34-.677 4.515-2.14 6.384-.371.473-.895.81-1.526.537-.875-.38-.936-1.196-.97-2.247.328-1.978 1.31-3.864 2.866-5.453zm48.358 6.978c-.363.51-.84.936-1.536.767-.722-.177-.97-.78-1.085-1.44-.295-1.661 1.582-5.62 3.061-6.473.34-.195.692-.285 1.032-.05.527.362.523.92.474 1.841a10.7 10.7 0 0 1-1.946 5.355zm-64.51 7.93c-.645.795-1.46 1.538-2.594 1.088-1.093-.435-1.02-1.51-.967-2.448.218-3.687 1.788-6.81 4.162-9.552.554-.64 1.3-1.259 2.243-.854 1.005.43.883 1.42.91 2.4-.268 3.451-1.521 6.611-3.753 9.367zm48.997-3.083c0 1.068-.057 1.824.012 2.569.137 1.507.673 2.88 2.182 3.448 1.571.592 3.077.249 4.33-.929.356-.334.692-.692 1.013-1.06.352-.404.63-.418.902.084 1.189 2.196 3.2 2.491 5.374 2.181 3.168-.451 5.27-2.555 7.154-4.905.661-.829 1.02-.743 1.617.074.803 1.106 1.678 2.193 2.675 3.123 1.728 1.61 3.127 1.416 4.522-.505 1.062-1.461 1.517-3.19 2.044-4.882.639-2.038 1.025-4.163 2.095-6.051.351-.617.764-1.029 1.551-.71.788.322.448.894.325 1.397-.665 2.682-1.097 5.393-.967 8.167.146 3.045 3.016 4.702 5.73 3.32 1.207-.616 2.036-1.634 2.862-2.665.172-.218.447-.356.676-.53.107.24.26.47.31.722.298 1.482.864 2.825 2.438 3.265 1.613.45 3.085.025 4.277-1.213 2.01-2.087 3.294-4.614 4.391-7.25.325-.779.073-1.416-.691-1.741-.876-.374-1.097.366-1.365.941-.944 2.022-1.804 4.093-3.256 5.826-.505.604-1.1 1.363-1.972 1.042-.83-.306-.642-1.239-.635-1.947.065-4.527 1.755-8.588 3.708-12.555.7-1.416.344-2.406-1.059-2.935-1.376-.52-2.324.082-2.733 1.471-1.077 3.646-2.576 7.127-4.146 10.576-.593 1.301-1.128 2.665-2.252 3.638-.722.627-1.47 1.603-2.518 1.02-.956-.53-.593-1.67-.447-2.53.703-4.172 2.323-8.034 4.265-11.76.596-1.148.45-2.033-.589-2.677-1.05-.649-2.002-.376-2.671.68-.29.459-.608.807-1.185.908-2.297.397-3.956 1.72-5.324 3.566-1.968 2.653-2.45 5.907-3.757 8.823-1.628 3.63-2.197 3.664-4.69.565-.916-1.139-1.394-2.16-.374-3.48.39-.5.554-1.16.478-1.83-.046-.379-.164-.743-.589-.842-.405-.094-.615.22-.78.511-.466.824-.882 1.68-1.375 2.488-1.663 2.716-3.581 5.21-6.524 6.646-1.945.95-3.184.26-3.597-1.859-.275-1.436-.16-2.862.138-4.278.08-.38.172-.882.76-.57 2.003 1.065 3.563.212 4.9-1.214 2.24-2.389 3.386-5.27 3.555-8.538.038-.714-.03-1.409-.532-1.984-2.029-2.326-5.706-2.149-7.418.4-2.434 3.63-4.036 7.618-4.75 11.924-.325 1.97-1.27 3.544-2.523 4.988-.436.501-.994 1.08-1.72.812-.772-.285-.646-1.108-.646-1.76-.004-4.438 1.632-8.418 3.486-12.335.405-.856.944-1.719.191-2.645-.585-.724-1.384-1.021-2.293-.825-1.112.24-1.315 1.203-1.632 2.116-1.64 4.706-3.272 9.422-6.016 13.637-.55.846-1.23 1.945-2.453 1.467-1.193-.466-.795-1.706-.776-2.68.007-.453.118-.91.221-1.355.868-3.714 2.267-7.235 4.048-10.592.623-1.172.535-2.092-.566-2.748-1.146-.686-2.121-.314-2.763.849-1.17 2.122-2.194 4.324-2.786 6.67-.757 3.013-2.381 5.544-4.136 8.014-.515.728-1.05 1.98-2.094 1.559-1.074-.432-.638-1.743-.524-2.657.44-3.39 1.449-6.64 2.641-9.832.172-.464.532-.885.883-1.247.493-.502.975-.977.654-1.747-.401-.969-1.22-1.43-2.198-1.595-.783-.133-1.185.433-1.44 1.037-.49 1.15-1.178 2.302-1.308 3.505-.32 3.031-1.914 4.278-4.85 4.054-.03-.002-.06.006-.088.013-.802.176-1.112-.068-.829-.907.49-1.448.91-2.92 1.433-4.355.295-.811.558-1.558-.435-2.022-1.006-.47-2.01-.475-2.706.516-.432.617-.692 1.357-1.017 2.047-1.166 2.454-1.475 5.226-2.939 7.58-1.705 2.744-3.623 5.25-6.642 6.629-1.79.819-2.966.145-3.368-1.774-.317-1.494-.202-2.982.115-4.46.088-.406.214-.84.784-.533 1.876 1.01 3.39.266 4.697-1.059 2.178-2.212 3.244-4.93 3.722-7.997.474-3.042-1.739-3.408-3.676-4.157-1.594-.617-2.817-.001-3.792 1.225-1.146 1.443-2.014 3.061-2.767 4.74-.604 1.359-1.578 2.381-2.813 3.18-.852.551-1.353.542-1.483-.673-.29-2.762-1.04-3.493-3.787-3.953a1.183 1.183 0 0 1-.573-.25c-1.533-1.372-3.031-.859-4.105.432-3.287 3.948-5.442 8.43-5.35 13.697.053 3.194 2.537 5.046 5.686 4.467 2.358-.432 3.868-1.974 5.11-3.868 1.15-1.756 1.842-3.716 2.507-5.689.371-1.093 1.525-1.319 2.316-1.282.635.028.08 1.022.008 1.56-.187 1.4-.317 2.797-.195 4.205.248 2.919 1.968 4.481 4.892 4.45 3.107-.034 5.313-1.757 7.3-3.897.21-.228.52-.366.783-.546.065.314.146.625.188.941.046.332 0 .684.088 1.001.378 1.38 1.368 2.221 2.71 1.81 1.257-.386 2.373-1.36 1.853-2.979-1.254-3.907-.138-6.209 3.925-6.55.092-.007.183-.024.271-.052 1.162-.375 1.533-.092 1.223 1.192-.497 2.063-.672 4.18-.091 6.262.73 2.611 3.237 3.374 5.3 1.604.738-.63 1.334-1.423 1.965-2.169.394-.466.604-.463.898.111 1.667 3.215 4.376 3.549 6.692.774.929-1.114 1.667-2.386 2.702-3.889zM617.68 1.847c-1.563-2.149-3.42-2.127-4.873.135a17.623 17.623 0 0 0-1.56 3.103c-1.91 4.901-3.554 9.895-4.872 14.987-1.112 4.287-2.278 8.566-2.79 12.984-.16 1.388.45 1.846 1.788 1.816 2.06-.047 1.697-1.733 2.083-2.904 2.26-6.849 4.438-13.726 6.784-20.545 1.028-2.986 1.647-6.149 3.44-8.842zm-192.13 26.058c.592-.528 1.39-.927 2.174-.357.757.55.432 1.331.18 2.013-1.456 3.92-3.367 7.588-6.1 10.78-.49.572-1.112 1.037-1.704 1.512-.314.25-.761.439-1.097.158-.245-.201-.314-.61-.497-1.006 1.402-4.888 3.107-9.59 7.044-13.1zm55.325 12.206c-.562.934-1.341 1.67-2.492 1.856-1.54.248-2.988-1.153-2.549-2.602 1.166-3.82 2.79-7.431 5.374-10.53.523-.632 1.104-1.532 2.09-1.142 1.002.396.788 1.466.89 2.355-.332 3.593-1.448 6.956-3.313 10.063zm-10.323 19.886h.734c1.766-.777.329-2.072.478-3.108.68-4.633 1.758-9.184 2.77-13.747.12-.524.322-.667.792-.217 1.98 1.894 4.365 1.984 6.497.248 1.449-1.18 2.488-2.708 3.272-4.375 1.85-3.936 2.97-8.027 1.372-12.308-1.005-2.691-3.432-3.103-5.424-1.08-.844.858-1.574 1.824-2.358 2.74.33-2.106.952-4.09 1.544-6.082.253-.85.444-1.757-.642-2.182-1.097-.431-1.471.476-1.827 1.198-1.47 2.98-2.35 6.175-3.08 9.39-.745 3.302-2.224 6.195-4.261 8.836-.54.696-1.212 1.53-2.21 1.048-.94-.455-.726-1.485-.557-2.308.672-3.335 1.914-6.472 3.902-9.225 1.246-1.726.623-3.071-.684-4.014-1.35-.97-2.06.568-2.71 1.395-2.947 3.743-5.056 8-7.311 12.167-.184.343-.41.665-.94 1.522.508-3.719 1.28-6.721 2.369-9.637.378-1.017.906-2.057-.271-2.758-1.158-.688-1.87.363-2.519 1.08-.734.812-1.41 1.7-1.976 2.636-1.804 2.98-3.543 6.001-5.309 9.004-.217.367-.462.718-.691 1.076.993-4.008 1.322-8.214 3.917-11.615.54-.702.933-1.373.447-2.248-.466-.838-1.13-1.355-2.132-1.33-1.044.027-1.376.817-1.628 1.611-.692 2.154-1.189 4.383-2.037 6.47-1.575 3.864-4.19 6.945-7.797 9.086-1.105.657-2.442 1.098-3.646.254-1.17-.82-1.17-2.167-1.01-3.43.608-4.883 2.558-9.214 5.546-13.09.276-.352.658-.646 1.048-.87.233-.133.623-.186.852-.082.348.157.176.54.095.822-.462 1.615-.963 3.22-1.402 4.84-.264.97.011 1.783.982 2.202.963.414 1.666-.068 2.201-.818 1.09-1.526 1.651-3.251 1.896-5.103.325-2.43-.764-3.873-3.012-4.656-1.93-.673-3.657-.564-5.152.955-2.006 2.044-3.401 4.492-4.387 7.14-1.17 3.136-3.233 5.659-5.27 8.211-.444.558-.975 1.469-1.827 1.036-.856-.432-.425-1.382-.256-2.086.814-3.412 2.289-6.569 3.83-9.7 1.157-2.35.335-3.488-2.313-3.345-.528.028-1.059.321-1.598-.06-2.98-2.114-4.51-2.013-7.032.727-2.817 3.065-4.712 6.693-5.805 10.7-.379 1.375-.983 2.557-1.892 3.606-.428.49-.841 1.252-1.61.954-.798-.309-.676-1.167-.607-1.854.36-3.729 1.46-7.275 2.756-10.765.164-.435.508-.832.852-1.16.516-.493.975-.978.661-1.743-.397-.973-1.204-1.439-2.194-1.597-.78-.125-1.204.42-1.46 1.02-.489 1.15-.963 2.315-1.326 3.51-1.108 3.653-1.089 3.64-4.9 4.086-.959.112-1.07-.254-.806-1.03.451-1.332.856-2.68 1.326-4.004.321-.897.734-1.805-.485-2.321-1.22-.514-2.32-.248-2.855.999-1.953 4.57-3.818 9.18-4.086 14.238-.065 1.203.02 2.354 1.292 2.98.807.394 1.548.416 2.297-.21 1.135-.95 1.353-1.978.83-3.4-1.032-2.798.175-4.853 3.053-5.503.57-.128 1.147-.211 1.705-.362.883-.24 1.108.075.913.925-.447 1.978-.707 3.973-.31 5.997.624 3.186 3.242 4.123 5.688 2.012.512-.443.848-.587 1.299.078.868 1.28 2.125 1.57 3.558 1.185 2.377-.64 3.818-2.422 5.175-4.303.271-.374.352-.935.925-1.046.076.434.168.867.225 1.304.172 1.278.432 2.518 1.82 3.044 1.395.529 2.599.066 3.604-.919.691-.683 1.28-1.471 1.937-2.195.188-.208.448-.353.677-.527.088.247.214.489.264.744.573 2.929 2.105 4.433 5.03 4.718 3.133.307 5.614-1.108 7.796-3.194.374-.357.833-.937 1.005.121.172 1.048.665 1.74 1.739 1.984 1.15.26 2.01-.189 2.568-1.138.929-1.579 1.766-3.21 2.657-4.81.91-1.633 1.838-3.254 2.759-4.88-.084 2.304-.57 4.458-.944 6.63-.195 1.118-.531 2.427.864 3.064 1.418.652 2.213-.414 2.95-1.363 1.85-2.383 3.039-5.154 4.487-7.773.604-1.093 1.227-2.177 1.838-3.264.16.498.058.869-.05 1.238-.63 2.138-1.337 4.258-1.872 6.42-.52 2.1.791 3.425 2.324 4.483 1.127.78 2.213.287 3.195-.483.24-.19.474-.645.806-.395.15.11.05.625-.019.937-1.032 4.592-2.083 9.179-2.782 13.84-.245 1.635.126 2.776 1.853 3.202zM61.665 33.424c-.378.53-.87 1.005-1.605.812-.764-.2-1.052-.856-1.059-1.548-.024-2.581 1.257-4.574 3.01-6.318.268-.266.662-.31 1.028-.129.386.19.574.662.56 1.49-.146 1.978-.7 3.954-1.934 5.693zm-15.5-2.81c.512-.601 1.232-1.365 2-.97.735.378 1.244 1.348 1.206 2.223-.17 3.861-1.579 7.249-4.234 10.077-.464.494-1.134.93-1.807.539-1-.581-1.165-1.645-1.225-2.792.36-3.42 1.802-6.435 4.06-9.078zM30.18 41.526c-.616.745-1.411 1.382-2.464.977-1.066-.41-1.03-1.43-.987-2.346.168-3.624 1.688-6.705 3.95-9.45.598-.727 1.36-1.481 2.423-1.071 1.077.415.868 1.482.921 2.675-.272 3.287-1.56 6.46-3.843 9.215zm45.523-1.271c-.834 1.293-2.019 2.237-3.704 1.493-.976-.43-1.566-1.29-1.224-2.384 1.201-3.84 2.811-7.49 5.435-10.6.513-.609 1.087-1.45 2.034-1.074.961.383.788 1.406.895 2.319-.354 3.63-1.416 7.111-3.436 10.246zM65.492 59.997h.734c1.769-.773.335-2.07.484-3.105.668-4.637 1.765-9.184 2.776-13.749.12-.543.332-.64.792-.21 2.08 1.948 4.549 1.962 6.713.058 1.306-1.15 2.272-2.573 3.015-4.122 1.857-3.869 2.94-7.903 1.507-12.139-.995-2.94-3.552-3.403-5.669-1.182-.785.823-1.477 1.737-2.212 2.61.294-2.008.895-3.877 1.453-5.759.276-.93.723-2.018-.579-2.51-1.247-.47-1.568.681-1.936 1.459-1.55 3.281-2.418 6.797-3.265 10.299-.693 2.863-2.156 5.244-4.043 7.401-1.372 1.568-2.855 3.048-4.965 3.625-1.24.339-2.124-.128-2.527-1.334-.579-1.733-.45-3.497-.057-5.252.096-.43.308-.655.783-.398 1.786.97 3.281.308 4.557-.959 2.155-2.139 3.371-4.758 3.753-7.78.337-2.667.196-2.88-3.537-4.451-1.72-.725-2.975.039-3.978 1.357-1.134 1.49-1.979 3.155-2.776 4.846-.618 1.312-1.643 2.265-2.859 3.019-.74.458-1.22.326-1.264-.635-.13-2.905-1.455-5.245-3.403-7.313-.647-.687-1.192-1.471-1.76-2.228-.365-.487-.24-.871.262-1.227 2.019-1.432 4.207-1.502 6.278-.212.672.42 1.38.799 2.11 1.103 4.148 1.728 8.452-.375 9.113-4.43.301-1.846-.916-3.692-2.551-3.862-.52-.054-.99.009-1.178.608-.187.595.088.922.624 1.125 1.177.444 1.277 1.305.808 2.305-.554 1.178-1.495 1.879-2.78 2.177-2.083.484-3.654-.567-5.25-1.626-2.683-1.778-7.66-1.385-9.822.92-2.387 2.545-.46 4.658.918 6.775l.052.076c.254.346.179.535-.2.79-2.004 1.346-4.241 2.38-5.757 4.39-.39.517-1.015.871-1.57 1.244-.79.533-1.183.313-1.296-.666-.334-2.885-1.028-3.59-3.801-4.046-.175-.029-.377-.079-.502-.19-1.732-1.556-3.196-.762-4.444.622-1.847 2.048-2.975 4.536-3.97 7.082-.153.393-.273.904-.578 1.118-3.427 2.396-6.75 5.02-11.037 5.758-4.656.801-7.691-1.757-7.775-6.475C4.796 30.07 6.229 25.6 8.26 21.318c2.46-5.185 5.518-9.996 10.347-13.318 3.66-2.52 5.864-1.65 7.062 2.486.185.636.422 1.242 1.176 1.377.79.141 1.443-.136 1.957-.745 1.087-1.29.913-3.399-.318-4.897-1.251-1.524-3.118-1.96-4.73-2.864-3.986-2.233-5.984-2.209-8.993 1.175C7.83 12.327 2.87 21.23.534 31.485c-.16.702.005 1.49-.534 2.097v1.65c.13.27.319.527.379.811 1.133 5.351 4.656 8.248 10.139 8.549 4.552.25 8.117-1.829 11.5-4.48.23-.179.516-.285.776-.426.104.236.292.469.3.708.077 2.066.7 3.848 2.771 4.656 2.273.887 4.337.277 6.13-1.274 1.808-1.564 2.974-3.6 3.659-5.834.56-1.831 1.346-3.274 3.31-3.794.244-.065.46-.447.71-.175.105.113.008.464-.07.682-.564 1.59-1.031 3.208-1.124 4.899-.113 2.037.214 3.975 2.104 5.153 1.87 1.165 3.81.877 5.67-.123 1.214-.653 2.096-1.668 2.86-2.793 1.232-1.815 2.041-3.822 2.679-5.906.36-1.176 1.534-1.425 2.336-1.395.686.025.108 1.059.032 1.613-.197 1.431-.29 2.859-.161 4.295.243 2.737 1.902 4.27 4.634 4.312 2.617.04 4.713-1.12 6.517-2.894.55-.54 1.001-1.18 1.497-1.775.26.735.184 1.205.076 1.668-1.161 5-2.297 10.005-3.08 15.084-.252 1.638.124 2.774 1.848 3.204z"/></g></g></svg>