<svg xmlns="http://www.w3.org/2000/svg" width="618" height="60" viewBox="0 0 618 60">
  <path fill="#343434" fill-rule="evenodd" d="M479.586345,19.8886624 C480.671763,20.3140127 480.480668,21.2216561 480.228423,22.0712102 L479.832529,23.3993012 C479.373687,24.950644 478.940021,26.5145223 478.684378,28.1526115 C479.467866,27.2365605 480.197848,26.2704459 481.042486,25.4136306 C483.033692,23.3896815 485.460594,23.8016561 486.465751,26.4924841 C488.063302,30.7738854 486.943488,34.8649682 485.093692,38.8012739 C484.310204,40.4675159 483.270649,41.9950318 481.822152,43.1759236 C479.689536,44.9121019 477.304675,44.822293 475.324935,42.9275159 C474.854842,42.477707 474.652282,42.6214013 474.533803,43.144586 C473.521002,47.7084076 472.443228,52.2584713 471.762931,56.8922293 C471.613878,57.9275159 473.050909,59.2230573 471.285195,60 L470.551391,60 L470.551391,60 C468.823896,59.5742675 468.453173,58.433121 468.697774,56.7978344 C469.39718,52.1369427 470.4482,47.5501911 471.480111,42.957707 C471.548905,42.6454777 471.648275,42.1310828 471.499221,42.0206369 C471.166716,41.7710828 470.933581,42.226242 470.692801,42.4161783 C469.710575,43.1858599 468.625158,43.6784713 467.497699,42.8988535 C465.965121,41.8410191 464.654212,40.5156688 465.173989,38.4164331 C465.709054,36.2541401 466.416104,34.1342675 467.046716,31.9956688 C467.153729,31.6264968 467.25692,31.2557962 467.096401,30.7574522 C466.484898,31.8450955 465.861929,32.9289172 465.258071,34.022293 C463.809573,36.6408917 462.620965,39.4119745 460.771169,41.7947771 C460.033544,42.7440764 459.23859,43.8099363 457.820668,43.1583439 C456.425677,42.5205096 456.762004,41.2123567 456.95692,40.0929936 C457.331466,37.9219108 457.816846,35.7684076 457.900928,33.4643312 L456.056511,36.7142109 C455.750052,37.2563482 455.444725,37.7991083 455.141521,38.3430573 C454.25102,39.9435669 453.414026,41.5750318 452.485306,43.153758 C451.92731,44.1030573 451.067384,44.5521019 449.916994,44.2918471 C448.843043,44.0484076 448.350019,43.3555414 448.178033,42.3084076 C448.006048,41.2501911 447.547421,41.8303185 447.172876,42.1864968 C444.990575,44.2727389 442.510167,45.6875159 439.376215,45.3814013 C436.452468,45.0959236 434.919889,43.5917197 434.346605,40.6628025 C434.29692,40.4075159 434.170798,40.1663694 434.082894,39.9187261 C433.853581,40.0926115 433.593692,40.2374522 433.406419,40.4461146 C432.749054,41.1695541 432.160482,41.9583439 431.46872,42.6408917 C430.463562,43.6257325 429.259666,44.088535 427.864675,43.5603822 C426.477328,43.0341401 426.21744,41.7940127 426.045455,40.5156688 C425.988126,40.0784713 425.896401,39.646242 425.819963,39.2117197 C425.246679,39.3225478 425.166419,39.8835669 424.895065,40.2580892 C423.538293,42.1387261 422.09744,43.9207643 419.720223,44.5608917 C418.287013,44.9464968 417.02961,44.6564331 416.162041,43.3761783 C415.711058,42.7112102 415.374731,42.8545223 414.862597,43.2974522 C412.416586,45.4089172 409.79859,44.4722293 409.175622,41.2861146 C408.778145,39.2621656 409.038033,37.266879 409.485195,35.2887898 C409.680111,34.4392357 409.45462,34.1247134 408.571763,34.3635669 C408.013766,34.5149045 407.43666,34.5982166 406.867199,34.726242 C403.989314,35.3763057 402.781596,37.4312102 403.813506,40.2294268 C404.337106,41.6510828 404.119258,42.6794904 402.984156,43.6287898 C402.235065,44.2547771 401.493618,44.2329936 400.687199,43.8382166 C399.414508,43.2129936 399.330427,42.0619108 399.395399,40.8584713 C399.662931,35.8001274 401.528015,31.1912102 403.481002,26.6208917 C404.016067,25.3742675 405.116772,25.1075159 406.335955,25.6215287 C407.555139,26.1374522 407.142375,27.0454777 406.821336,27.9431847 C406.351243,29.2673885 405.946122,30.6145223 405.495139,31.9463694 C405.231429,32.7229299 405.342263,33.0890446 406.301558,32.9770701 C410.111985,32.5318471 410.092876,32.5440764 411.201224,28.8905732 C411.564304,27.6959236 412.038219,26.5307006 412.527421,25.3807643 C412.783488,24.7807643 413.207718,24.2361783 413.987384,24.3611465 C414.977254,24.5189809 415.783673,24.9852229 416.18115,25.9574522 C416.494545,26.7233121 416.035918,27.2075159 415.519963,27.7001274 C415.175993,28.0287898 414.832022,28.4258599 414.667681,28.8607643 C413.372059,32.3507006 412.271354,35.8971975 411.912096,39.6263694 C411.843302,40.313121 411.721002,41.1710828 412.519777,41.4798726 C413.287978,41.7775796 413.700742,41.0163057 414.128794,40.5256051 C415.038404,39.4765605 415.642263,38.2945223 416.020631,36.9194904 C417.113692,32.9128662 419.009351,29.284586 421.826085,26.2203822 C424.348534,23.4798726 425.877291,23.3793631 428.858367,25.493121 C429.397254,25.8741401 429.928497,25.5810191 430.455918,25.5527389 C433.10449,25.4094268 433.926197,26.5482803 432.768163,28.8970701 C431.227941,32.0292994 429.75269,35.1856051 428.938627,38.5979618 C428.770464,39.302293 428.33859,40.2519745 429.194694,40.6834395 C430.046976,41.1164331 430.578219,40.2061146 431.021558,39.6481529 C433.058627,37.0956688 435.122449,34.5729936 436.291948,31.4361783 C437.277996,28.7892994 438.672987,26.3411465 440.679481,24.2969427 C442.17384,22.7778344 443.901336,22.6692994 445.831391,23.3419108 C448.078664,24.1253503 449.167904,25.5687898 448.843043,27.9982166 C448.598442,29.8498089 448.036623,31.5745223 446.947384,33.1005096 C446.412319,33.8510828 445.709091,34.3333758 444.745974,33.9187261 C443.775213,33.4994904 443.500037,32.686242 443.763748,31.7174522 C444.203265,30.0966879 444.703933,28.4919745 445.166382,26.8769427 C445.246642,26.5949045 445.418627,26.2119745 445.070835,26.0552866 C444.841521,25.9505732 444.451688,26.0036943 444.218553,26.1374522 C443.82872,26.3614013 443.446531,26.6545223 443.171354,27.006879 C440.182635,30.8828025 438.233469,35.2142675 437.625788,40.096051 C437.465269,41.3598726 437.465269,42.7070064 438.634768,43.5267516 C439.838664,44.3713376 441.176327,43.9299363 442.280853,43.2733758 C445.88872,41.1317197 448.502894,38.0507006 450.077514,34.186242 C450.925974,32.1 451.42282,29.8704459 452.114583,27.7173248 C452.366827,26.9231847 452.699332,26.1324841 453.742709,26.1061146 C454.744045,26.0805096 455.409054,26.5983439 455.875325,27.4356688 C456.360705,28.310828 455.96705,28.982293 455.428163,29.6843312 C452.833098,33.0852229 452.504416,37.2905732 451.510724,41.2991083 C451.740037,40.9406369 451.984638,40.5898089 452.202486,40.2225478 C453.9682,37.2202548 455.707161,34.1996178 457.511095,31.2191083 C458.076735,30.2820382 458.75321,29.395414 459.487013,28.5829299 C460.136735,27.8656051 460.847607,26.8150318 462.00564,27.5029299 C463.182783,28.2042038 462.655362,29.2436943 462.276994,30.2606369 C461.187755,33.1769427 460.415733,36.1792357 459.907421,39.8980892 C460.438664,39.0412739 460.664156,38.7191083 460.847607,38.3755414 C463.102523,34.209172 465.212208,29.9522293 468.158887,26.2089172 C468.808609,25.382293 469.519481,23.8440764 470.868609,24.8140127 C472.175696,25.7564331 472.798664,27.1016561 471.552727,28.8282803 C469.565343,31.5806369 468.323228,34.7178344 467.650575,38.0526115 C467.482412,38.8757962 467.268386,39.9057325 468.208571,40.3612739 C469.206085,40.8424204 469.878738,40.0089172 470.417625,39.3133758 C472.454694,36.6718471 473.933766,33.7784713 474.679035,30.477707 C475.409017,27.2621656 476.288052,24.0672611 477.759481,21.0867516 C478.114917,20.3652229 478.489462,19.4575796 479.586345,19.8886624 Z M23.7549722,3.36 C25.3666642,4.26305732 27.2336586,4.69987261 28.4853284,6.22394904 C29.7163599,7.72242038 29.8898738,9.83044586 28.8025455,11.1206369 C28.2888831,11.7298089 27.6368683,12.006879 26.8457365,11.8658599 C26.0916772,11.7313376 25.8547199,11.1252229 25.6705046,10.4892994 C24.471577,6.35235669 22.268256,5.48369427 18.6076475,8.00254777 C13.7794508,11.3250955 10.7215547,16.1361783 8.26102041,21.3210191 C6.22930241,25.6028025 4.79609276,30.0733758 4.88284972,34.9070064 C4.96693135,39.6248408 8.00151391,42.1830573 12.6577254,41.3820382 C16.9443599,40.6448408 20.2682597,38.0201274 23.6949685,35.6235669 C24.0003377,35.4099363 24.1199629,34.8989809 24.273603,34.5057325 C25.2684416,31.9597452 26.3955176,29.4722293 28.2426382,27.4238217 C29.4912505,26.0396178 30.9550353,25.246242 32.6867347,26.8012739 C32.8117106,26.9132484 33.0142709,26.9633121 33.1885492,26.9919745 C35.9617143,27.4478981 36.6557699,28.1529936 36.9898033,31.0379618 C37.1029314,32.0166879 37.4954397,32.2364331 38.2861892,31.7040764 C38.841128,31.3310828 39.4663896,30.9764331 39.8562226,30.4593631 C41.3719852,28.449172 43.609321,27.4157962 45.6131391,26.0690446 C45.9915065,25.8149045 46.0667978,25.6261146 45.8130241,25.2802548 C45.7950612,25.255414 45.7782449,25.2301911 45.7614286,25.2042038 C44.3824898,23.0873885 42.456256,20.9736306 44.8426456,18.4295541 C47.0058367,16.1235669 51.9823228,15.7307006 54.6645269,17.5089172 C56.2609314,18.5675159 57.8324935,19.6184713 59.9154249,19.1350318 C61.1995807,18.8369427 62.141295,18.136051 62.694705,16.9574522 C63.1636512,15.9580892 63.0635176,15.0970701 61.886757,14.6526115 C61.3505455,14.4500637 61.0757514,14.1229299 61.2626419,13.5282803 C61.4510612,12.9286624 61.9203896,12.8663694 62.4409314,12.9202548 C64.0755547,13.0899363 65.2932096,14.9361783 64.9920445,16.7816561 C64.3312393,20.8368153 60.0266419,22.9402548 55.8791243,21.2121019 C55.1487607,20.9078981 54.4413284,20.5280255 53.7690575,20.109172 C51.697974,18.8185987 49.5099406,18.888535 47.4912171,20.3208917 C46.9897848,20.6766879 46.8636623,21.0611465 47.2286531,21.5480255 C47.7973506,22.3047134 48.3419703,23.0892994 48.9886345,23.7756688 C50.9370353,25.8443312 52.2617032,28.1835669 52.3924119,31.089172 C52.4355993,32.0503185 52.9163933,32.1821656 53.6563117,31.723949 C54.8724378,30.9703185 55.8970872,30.0168153 56.5154694,28.7048408 C57.312334,27.0141401 58.15659,25.3482803 59.2905455,23.8589809 C60.2941744,22.5405096 61.5492839,21.7773248 63.2691354,22.5015287 C67.0015955,24.0729936 67.1426234,24.286242 66.8059147,26.953758 C66.4244898,29.9751592 65.2075993,32.5941401 63.0531985,34.733121 C61.7770686,35.9996178 60.2815622,36.6615287 58.4955918,35.6923567 C58.0205306,35.4347771 57.80918,35.6602548 57.7128683,36.0901911 C57.3199777,37.8447134 57.19118,39.6087898 57.7701967,41.342293 C58.1726419,42.5476433 59.0577922,43.0146497 60.2968497,42.6756688 C62.4065343,42.0993631 63.8898108,40.6184713 65.2618701,39.0512102 C67.1495028,36.8938854 68.612141,34.5126115 69.3050501,31.6498089 C70.1523636,28.1480255 71.0191688,24.6321019 72.570475,21.350828 C72.938141,20.573121 73.2587978,19.4220382 74.5062635,19.8924841 C75.8076178,20.383949 75.3608386,21.4727389 75.084898,22.4021656 L74.7104406,23.6562821 C74.2751664,25.1211795 73.8610855,26.5990234 73.6321967,28.1610191 C74.3667644,27.2881529 75.0585269,26.3743949 75.844308,25.5504459 C77.9612542,23.3300637 80.5181002,23.7936306 81.5129388,26.7332484 C82.9461484,30.9687898 81.8626419,35.0029299 80.0059666,38.8723567 C79.2629907,40.4205096 78.2971985,41.8448408 76.9908757,42.9940127 C74.826538,44.8975796 72.3579777,44.8834395 70.2784861,42.9366879 C69.8183302,42.5067516 69.6062152,42.6030573 69.4858256,43.1461146 C68.4745529,47.7110828 67.3776698,52.257707 66.7103673,56.8945223 C66.5613135,57.9294268 67.9945232,59.2264968 66.2257514,60 L65.4919481,60 L65.4919481,60 C63.7682746,59.5696815 63.3918182,58.4342675 63.6444453,56.7963057 C64.4271688,51.7165605 65.5630353,46.7124841 66.7241262,41.7118471 C66.8315213,41.2490446 66.9087236,40.7793631 66.6480705,40.0440764 C66.1519889,40.6387261 65.7010056,41.2788535 65.1514174,41.8188535 C63.3474842,43.5932484 61.2507941,44.7527389 58.6335622,44.7126115 C55.9024378,44.6713376 54.2429722,43.1380892 53.9995176,40.4006369 C53.8714842,38.9648408 53.9643562,37.5370701 54.1611837,36.1054777 C54.2372393,35.5517197 54.8147273,34.5183439 54.1286976,34.4927389 C53.3268646,34.4625478 52.1527792,34.7121019 51.792757,35.8884076 C51.1552653,37.9715924 50.3461707,39.9791083 49.1139926,41.7940127 C48.3503785,42.9187261 47.4675213,43.9341401 46.2548349,44.5864968 C44.3943377,45.5866242 42.4535807,45.8747771 40.5842931,44.7099363 C38.693603,43.5317197 38.3668312,41.5941401 38.479577,39.5568153 C38.5728312,37.8657325 39.0402486,36.2487898 39.6043599,34.6582166 C39.6815622,34.4403822 39.7786382,34.0887898 39.6746827,33.976051 C39.4239666,33.7035669 39.2080297,34.0861146 38.9638108,34.1507006 C36.9997403,34.670828 36.2143414,36.1138854 35.6536698,37.9444586 C34.9691688,40.1797452 33.8027273,42.2147771 31.9949722,43.7789809 C30.2021224,45.3298089 28.1375362,45.9401274 25.8654212,45.053121 C23.7939555,44.2444586 23.170987,42.4628025 23.0949314,40.3971975 C23.0857588,40.1579618 22.8984861,39.9252229 22.7937662,39.6894268 C22.5342597,39.8296815 22.2476178,39.9359236 22.0183043,40.1155414 C18.6351651,42.766242 15.0704861,44.8444586 10.5178479,44.5949045 C5.03534323,44.2941401 1.51232282,41.3969427 0.378749536,36.046242 C0.318745826,35.7619108 0.129179963,35.5050955 3.27179685e-12,35.2356688 L3.27179685e-12,33.5847134 L3.27179685e-12,33.5847134 C0.539269017,32.9782166 0.373781076,32.1901911 0.533918367,31.4877707 C2.87024119,21.2327389 7.82876438,12.3301911 14.7620594,4.53477707 C17.7710353,1.1510828 19.7691206,1.1266242 23.7549722,3.36 Z M372.916564,24.6481529 C373.556731,25.3249682 373.561317,26.0667516 373.126768,26.9182166 C371.17531,30.7414013 369.486798,34.6696815 368.801532,38.9457325 C368.671206,39.7597452 368.373098,40.8030573 369.242961,41.3109554 C370.214868,41.8780892 370.935677,40.989172 371.648842,40.4449682 C372.372709,39.8923567 372.806111,39.1138854 373.205881,38.3170701 C375.182564,34.375414 376.880631,30.3210191 378.181603,26.1042038 C378.605069,24.7318471 379.51659,24.0875159 380.90623,24.6087898 C382.300074,25.1304459 382.697551,26.1152866 381.984386,27.5346497 C380.166694,31.1591083 378.658193,34.8985987 378.309636,38.9912102 C378.220586,40.0414013 377.750876,41.5383439 378.922668,41.9805096 C380.188096,42.4585987 380.876419,41.0338854 381.536842,40.1140127 C382.666976,38.5417834 383.419889,36.7608917 384.21102,35.0044586 C384.459443,34.4575796 384.749907,33.8927389 385.510464,34.2328662 C386.20987,34.5473885 386.557662,35.0751592 386.244267,35.8612739 C385.193247,38.4898089 383.878516,40.966242 381.961837,43.0780892 C380.745328,44.4187261 379.195551,44.9243312 377.468438,44.4271338 C375.891143,43.9735032 375.369072,42.5969427 375.057588,41.1298089 C375.005993,40.8867516 374.848148,40.6666242 374.739607,40.4357962 C374.535518,40.6028025 374.296267,40.7415287 374.134983,40.9425478 C373.386275,41.8738854 372.640623,42.8025478 371.603362,43.4415287 C368.788156,45.1761783 365.602226,43.5019108 365.479161,40.1938854 C365.377117,37.4529936 365.828482,34.7728662 366.482026,32.1206369 C366.608913,31.606242 366.889822,31.0452229 366.097926,30.7498089 C365.340045,30.4670064 364.962059,30.8568153 364.628026,31.4426752 C363.505918,33.4104459 363.10462,35.626242 362.436553,37.7503185 C361.87741,39.528535 361.361072,41.3212739 360.139213,42.8067516 C358.98462,44.2112102 357.679061,44.3614013 356.322289,43.2179618 C355.44249,42.4761783 354.652887,41.6063694 353.925963,40.7109554 C353.356119,40.0092994 353.03508,40.0903185 352.578364,40.7873885 C352.077696,41.5521019 351.530019,42.2961783 350.925013,42.9806369 C349.602256,44.476051 347.907247,45.0905732 346.052865,44.296051 C344.196571,43.5011465 343.900375,41.7057325 343.885087,39.8889172 C343.881647,39.4712102 343.949677,39.053121 344.025733,38.1470064 C343.047328,39.6317197 342.388434,40.7571975 341.606093,41.7886624 C340.422071,43.3509554 338.939558,44.6419108 336.850894,43.8225478 C334.760701,43.0028025 334.096074,41.1443312 334.336853,39.0064968 C334.514571,37.4304459 334.840961,35.8715924 335.085944,34.3031847 C335.120341,34.0826752 335.066835,33.8484076 335.054223,33.6206369 C334.861981,33.6913376 334.670505,33.7647134 334.477117,33.8327389 C332.268827,34.6100637 331.238827,36.2426752 330.471009,38.4294268 C329.363043,41.5857325 327.653892,44.4921019 323.968442,45.3007643 C320.804297,45.9955414 318.225284,44.0927389 318.190505,40.8626752 C318.132794,35.5471338 320.262353,30.9940127 323.692119,27.0500637 C324.782505,25.7961783 326.22374,25.4610191 327.655421,26.7523567 C327.802182,26.884586 328.029967,26.9614013 328.230998,26.993121 C330.946071,27.4207643 331.701276,28.1411465 331.987918,30.8621656 C332.12436,32.1569427 332.659807,32.2440764 333.557952,31.5699363 C335.231558,30.3129936 336.642983,28.8103185 337.669544,26.9713376 C338.071607,26.2521019 338.382327,25.4698089 338.86121,24.8075159 C339.539213,23.8704459 340.503095,23.7263694 341.444809,24.3707006 C342.366267,25.0008917 342.576471,25.8359236 342.015417,26.9174522 C339.995547,30.8105732 338.273785,34.8233121 337.648905,39.2109554 C337.517814,40.130828 337.324427,41.2673885 338.417488,41.713758 C339.562527,42.1811465 340.242059,41.2096815 340.771391,40.4117197 C343.604942,36.1402548 345.256,31.3318471 346.921963,26.5387261 L347.029232,26.2245894 C347.295851,25.4433509 347.579081,24.7134807 348.514545,24.4983439 C349.42836,24.2881529 350.202293,24.6003822 350.81456,25.3047134 C351.586583,26.1932484 351.078653,27.0175796 350.680412,27.8480255 C348.940304,31.4759236 347.461232,35.1863694 347.152805,39.256051 C347.113822,39.7719745 347.105032,40.2959236 347.148219,40.8103185 C347.188731,41.289172 347.209369,41.8475159 347.747874,42.0619108 C348.307017,42.2843312 348.765644,41.9461146 349.147069,41.5887898 C350.984635,39.8667516 351.857555,37.5550318 352.925391,35.3602548 C353.225028,34.7453503 353.379814,33.7735032 354.433892,34.2542675 C355.419176,34.7040764 355.307959,35.4947771 354.934942,36.3519745 C354.216045,38.0059873 355.572434,40.668535 357.332033,41.1473885 C357.912579,41.3052229 358.17285,40.9482803 358.419362,40.5389809 C359.549113,38.6656051 360.265718,36.6271338 360.92079,34.548535 C361.930152,31.3459873 363.3282,28.3612739 366.477822,26.6736306 C367.906827,25.9081529 369.584256,25.6998726 370.713243,24.256051 C371.229199,23.5964331 372.289774,23.986242 372.916564,24.6481529 Z M513.249573,22.4705732 C515.187273,23.2196178 517.400148,23.5857325 516.926234,26.6281529 C516.448497,29.6946497 515.382189,32.4133758 513.203711,34.6253503 C511.896623,35.9499363 510.383154,36.6936306 508.506605,35.6835669 C507.937143,35.3778344 507.81102,35.8104459 507.723117,36.2178344 C507.4059,37.6952866 507.291243,39.1830573 507.60846,40.6765605 C508.009759,42.5961783 509.186902,43.2699363 510.975547,42.4509554 C513.994842,41.0717197 515.913432,38.5658599 517.617996,35.8226752 C519.081781,33.4677707 519.391354,30.6955414 520.557032,28.2416561 C520.881892,27.5522293 521.141781,26.8119745 521.573655,26.1951592 C522.269239,25.2034395 523.274397,25.209172 524.279555,25.6784713 C525.273247,26.1428025 525.009536,26.8899363 524.71525,27.7012739 C524.191651,29.1359236 523.771243,30.6076433 523.282041,32.056051 C522.999221,32.8949045 523.308794,33.1387261 524.111391,32.9629299 C524.138145,32.956051 524.16872,32.9476433 524.199295,32.9499363 C527.134508,33.1742675 528.728237,31.9272611 529.049276,28.8955414 C529.179221,27.6932484 529.867161,26.5417834 530.356364,25.3907006 C530.61243,24.7872611 531.013729,24.2212739 531.797217,24.3535032 C532.775622,24.5185987 533.593506,24.9802548 533.994805,25.9494268 C534.315844,26.7191083 533.834286,27.193758 533.341262,27.6963057 C532.989647,28.0578344 532.63039,28.4793631 532.458404,28.9425478 C531.265974,32.1343949 530.256994,35.3858599 529.817477,38.7749045 C529.70282,39.6890446 529.267124,40.9994904 530.341076,41.4317197 C531.384453,41.8528662 531.919518,40.6008917 532.435473,39.8724841 C534.189722,37.4025478 535.814026,34.8722293 536.570761,31.8592357 C537.163154,29.5127389 538.187421,27.3110828 539.35692,25.1889172 C539.998998,24.0256051 540.973581,23.653758 542.120148,24.3397452 C543.220853,24.9963057 543.308757,25.9161783 542.685788,27.0875159 C540.904787,30.4452229 539.505974,33.9657325 538.638404,37.6796178 C538.535213,38.1252229 538.424378,38.5815287 538.416735,39.0347771 C538.397625,40.0089172 538.000148,41.2490446 539.192579,41.7145223 C540.415584,42.1926115 541.095881,41.0935032 541.646234,40.2481529 C544.390353,36.0332484 546.022301,31.3173248 547.661892,26.6113376 C547.979109,25.6983439 548.18167,24.7352866 549.29384,24.4952866 C550.203451,24.2984713 551.002226,24.5961783 551.586976,25.3203822 C552.339889,26.2463694 551.801002,27.1092994 551.395881,27.9653503 C549.542263,31.8821656 547.906494,35.8620382 547.910315,40.2989809 C547.910315,40.9517197 547.784193,41.7749045 548.556215,42.06 C549.282375,42.3286624 549.840371,41.7489172 550.276067,41.2482803 C551.529647,39.8036943 552.473655,38.229172 552.798516,36.2594904 C553.51321,31.9540127 555.114583,27.9664968 557.549128,24.3366879 C559.261336,21.786879 562.937996,21.6099363 564.967421,23.9361783 C565.468089,24.5109554 565.536883,25.2057325 565.498664,25.92 C565.330501,29.1878981 564.183933,32.0690446 561.944304,34.4579618 C560.606642,35.8842038 559.04731,36.7368153 557.044638,35.6728662 C556.456067,35.3602548 556.364341,35.8612739 556.284082,36.2415287 C555.985974,37.6574522 555.871317,39.0836943 556.146494,40.5202548 C556.559258,42.6393631 557.797551,43.3284076 559.742894,42.3791083 C562.685751,40.9429299 564.604341,38.448535 566.266865,35.7324841 C566.759889,34.9249682 567.176475,34.0692994 567.642746,33.2453503 C567.807087,32.9529936 568.017291,32.6396178 568.422412,32.7343949 C568.846642,32.8333758 568.965121,33.1971975 569.010983,33.5763057 C569.087421,34.2450955 568.92308,34.906242 568.533247,35.4057325 C567.512801,36.7261146 567.990538,37.7472611 568.907792,38.8857325 C571.399666,41.9850955 571.969128,41.9503185 573.597254,38.3205096 C574.904341,35.4049682 575.3859,32.1504459 577.354174,29.4978344 C578.722412,27.6523567 580.381113,26.328535 582.678071,25.931465 C583.255176,25.8313376 583.572393,25.4828025 583.862857,25.024586 C584.531688,23.9678981 585.48334,23.6950318 586.53436,24.343949 C587.573915,24.9875159 587.719147,25.8729936 587.122931,27.0210191 C585.18141,30.7471338 583.560928,34.608535 582.857699,38.7817834 C582.712468,39.6401274 582.349388,40.7805096 583.304861,41.3113376 C584.352059,41.8941401 585.10115,40.917707 585.823488,40.2913376 C586.947124,39.3183439 587.482189,37.9540127 588.074583,36.653121 C589.64538,33.2036943 591.143562,29.7229299 592.221336,26.0770701 C592.630278,24.6878981 593.578108,24.0867516 594.953989,24.6061146 C596.356623,25.1346497 596.712059,26.1244586 596.012653,27.5411465 C594.059666,31.5084076 592.37039,35.5692994 592.305417,40.096051 C592.297774,40.8042038 592.110501,41.7370701 592.939852,42.0428025 C593.811243,42.3634395 594.407458,41.6052229 594.911948,41.0010191 C596.364267,39.2682803 597.224193,37.1973248 598.1682,35.1752866 C598.435733,34.5997452 598.657403,33.8602548 599.532616,34.2336306 C600.296994,34.5592357 600.549239,35.1959236 600.224378,35.9747771 C599.127495,38.6105732 597.84334,41.1382166 595.833024,43.2252229 C594.640594,44.4630573 593.169165,44.8887898 591.556327,44.4382166 C589.981707,43.9983439 589.416067,42.6546497 589.117959,41.1726115 C589.068275,40.9211465 588.915399,40.6907006 588.808386,40.4510828 C588.579072,40.6253503 588.303896,40.7625478 588.131911,40.9807643 C587.306382,42.0118471 586.477032,43.0303185 585.269314,43.6456051 C582.55577,45.0275159 579.685529,43.370828 579.540297,40.3257325 C579.410353,37.5519745 579.842226,34.8412739 580.507236,32.1584713 C580.629536,31.6563057 580.969685,31.0834395 580.182375,30.7628025 C579.395065,30.4429299 578.982301,30.8545223 578.630686,31.4717197 C577.560557,33.3596178 577.174545,35.4852229 576.536289,37.5225478 C576.008868,39.2140127 575.554063,40.9436943 574.491577,42.4047134 C573.096586,44.3258599 571.697774,44.5203822 569.970278,42.9099363 C568.972764,41.9797452 568.097551,40.8932484 567.294954,39.7872611 C566.698738,38.9701911 566.339481,38.8842038 565.678293,39.713121 C563.7941,42.0626752 561.692059,44.166879 558.523711,44.6182166 C556.349054,44.9281529 554.338738,44.633121 553.15013,42.4368153 C552.878776,41.935414 552.599777,41.949172 552.248163,42.353121 C551.927124,42.7207643 551.590798,43.0792357 551.235362,43.4132484 C549.981781,44.5907006 548.475955,44.9342675 546.905158,44.3419108 C545.39551,43.7732484 544.860445,42.4012739 544.722857,40.8936306 C544.654063,40.149172 544.711391,39.3928662 544.711391,38.3250955 C543.675659,39.8277707 542.938033,41.1003822 542.009314,42.2143949 C539.693247,44.9889172 536.983525,44.6552866 535.31718,41.4401274 C535.022894,40.8657325 534.81269,40.8626752 534.419035,41.3289172 C533.788423,42.0745223 533.192208,42.8678981 532.454583,43.4980892 C530.390761,45.2678981 527.883599,44.5050955 527.153618,41.8941401 C526.57269,39.8121019 526.748497,37.6949045 527.245343,35.6319745 C527.554917,34.3478981 527.184193,34.0647134 526.022338,34.4403822 C525.934434,34.4682803 525.842709,34.4847134 525.750983,34.4919745 C521.688312,34.8332484 520.572319,37.1346497 521.8259,41.042293 C522.345677,42.6611465 521.229685,43.6352866 519.972282,44.0208917 C518.630798,44.4321019 517.640928,43.5917197 517.26256,42.2113376 C517.174657,41.893758 517.220519,41.5421656 517.174657,41.2100637 C517.132616,40.8940127 517.052356,40.5829299 516.987384,40.269172 C516.723673,40.449172 516.4141,40.5867516 516.203896,40.8149045 C514.216512,42.9546497 512.01128,44.6782166 508.904082,44.7118471 C505.980334,44.7431847 504.260482,43.1808917 504.012059,40.2619108 C503.889759,38.8536306 504.019703,37.4571975 504.206976,36.057707 C504.279592,35.5192357 504.833766,34.5252229 504.199332,34.4965605 C503.4082,34.4602548 502.253989,34.6857325 501.883265,35.7791083 C501.218256,37.7522293 500.526494,39.7119745 499.376104,41.4684076 C498.133989,43.3624204 496.624341,44.9036943 494.266234,45.3363057 C491.116994,45.9145223 488.632764,44.0625478 488.579258,40.8687898 C488.487532,35.6010191 490.64308,31.1201274 493.929907,27.1715924 C495.003859,25.8810191 496.502041,25.3677707 498.03462,26.7401274 C498.183673,26.8727389 498.405343,26.956051 498.607904,26.9896815 C501.355844,27.4501911 502.104935,28.1805096 502.395399,30.9428025 C502.525343,32.1580892 503.026011,32.166879 503.878293,31.6161783 C505.112764,30.8170701 506.087347,29.7947771 506.691206,28.4365605 C507.444119,26.7573248 508.311688,25.1392357 509.458256,23.6961783 C510.432839,22.4698089 511.655844,21.8541401 513.249573,22.4705732 Z M253.841302,23.3017834 C255.98462,24.0401274 257.248902,25.3429299 256.979458,27.7941401 C256.760846,29.7856051 256.165013,31.615414 254.962646,33.2216561 C254.42223,33.9447134 253.701039,34.3188535 252.799837,33.8957962 C251.926917,33.4864968 251.626516,32.7416561 251.867295,31.8370701 C252.300315,30.2147771 252.792957,28.608535 253.248145,26.9919745 C253.335284,26.6820382 253.545106,26.3067516 253.209926,26.056051 C252.869395,25.8011465 252.495996,25.9971975 252.188334,26.2012739 C251.911247,26.3850955 251.623458,26.5880255 251.42128,26.8459873 C248.280449,30.8541401 246.216245,35.3388535 245.71787,40.4357962 C245.409061,43.5947771 247.443455,44.8349045 250.377904,43.2905732 C253.333373,41.7347771 255.315406,39.1551592 257.118575,36.4341401 C257.489681,35.8738854 257.808427,35.28 258.164245,34.7090446 C258.383622,34.3566879 258.65039,34.0371975 259.128891,34.2626752 C259.5321,34.4526115 259.685358,34.7992357 259.654019,35.2425478 C259.331451,39.8831847 252.119158,45.9240764 247.524096,45.4005096 C244.196757,45.0210191 242.400085,42.9500637 242.412253,38.7370701 C242.977955,33.7536306 244.934764,28.5771975 248.855262,24.2564331 C250.229614,22.7419108 251.988449,22.6635669 253.841302,23.3017834 Z M312.281095,8.65757962 C319.523581,9.8155414 319.97915,12.2392357 317.110056,20.0675159 C316.657544,21.302293 315.528557,22.2928662 314.69462,23.3831847 C314.399187,23.7699363 314.160701,24.0859873 314.818449,24.3481529 C316.42823,24.9898089 317.004571,26.3694268 317.11426,27.9225478 C317.525113,33.7318471 315.22357,38.651465 311.63443,42.950828 C309.415822,45.6084076 306.296011,45.7104459 303.494946,43.7656051 C303.296208,43.6272611 303.077978,43.437707 302.858219,43.4224204 C300.202386,43.2420382 300.287996,41.5593631 300.749299,39.6454777 C301.100148,38.1898089 301.438768,36.7310828 301.75675,35.2677707 C301.815607,34.9971975 301.750635,34.6998726 301.742609,34.4147771 C301.519792,34.5527389 301.286275,34.6761783 301.075306,34.8313376 C300.063651,35.5742675 299.487692,36.6458599 298.842557,37.6880255 C297.99295,39.0611465 297.091365,40.4189809 296.061748,41.6587261 C295.103599,42.8128662 293.913462,43.7919745 292.245206,42.9833121 C290.438597,42.1077707 289.370761,40.1090446 289.83321,38.2872611 C290.388913,36.0978344 291.106282,33.9496815 291.751035,31.7828025 C291.84085,31.4816561 291.917288,31.1766879 291.99984,30.8732484 L291.69944,30.7436943 L291.69944,30.7436943 C290.563573,32.8475159 289.420445,34.9478981 288.294134,37.0566879 C287.300059,38.9174522 286.34344,40.8019108 284.919403,42.3878981 C284.245603,43.1384713 283.460968,43.6574522 282.416063,43.1594904 C281.438423,42.6932484 281.337143,41.7710828 281.492312,40.8733758 C281.916542,38.4179618 282.418738,35.9766879 282.641555,33.4035669 C282.27236,33.9997452 281.87603,34.5814013 281.538557,35.1955414 C280.170319,37.6861146 278.840301,40.1980892 277.455629,42.6791083 C276.737878,43.9654777 275.728134,44.7940127 274.146635,44.1588535 C272.638134,43.5535032 272.622464,42.2029299 272.89764,40.9715924 C273.945603,36.2847134 275.463276,31.728535 276.992416,27.1815287 C277.423525,25.8997452 278.510471,25.7942675 279.543529,26.4210191 C280.654935,27.0955414 281.272171,28.1235669 280.314022,29.3304459 C277.593599,32.7565605 277.15026,37.0092994 275.963944,40.993758 C275.942924,41.0652229 275.99987,41.1607643 276.072104,41.4573248 C276.373651,40.977707 276.6022,40.6452229 276.799792,40.2955414 C278.933173,36.5170701 280.917499,32.6411465 283.615755,29.2188535 C284.338857,28.3012739 285.089095,26.7561783 286.560523,27.4952866 C288.164189,28.3005096 287.080683,29.6526115 286.702698,30.7884076 C285.778564,33.5644586 285.025651,36.3810191 284.536067,39.9340127 C285.049347,39.1043312 285.240059,38.8272611 285.400197,38.5329936 C287.647852,34.3983439 289.744542,30.1681529 292.63351,26.4256051 C293.324126,25.5309554 294.026208,23.8307006 295.514835,24.8361783 C296.974033,25.8221656 297.33138,27.2881529 296.087354,29.0159236 C294.139718,31.7197452 292.936586,34.8076433 292.28266,38.0828025 C292.117173,38.9105732 291.927224,39.9271338 292.876965,40.3773248 C293.837788,40.8340127 294.533755,40.0517197 295.00079,39.3573248 C296.129013,37.68 297.825933,36.2411465 297.458649,33.8656051 C297.376096,33.3328662 297.775102,32.8910828 298.171814,32.5352866 C299.104738,31.6994904 299.948612,30.7092994 301.004983,30.0752866 C303.356976,28.6643312 304.356019,26.5303185 305.115046,24.0076433 C306.275755,20.1500637 307.769351,16.3918471 309.133766,12.5957962 C309.401681,11.8517197 309.60577,11.1416561 309.611503,10.3077707 C309.62144,8.89452229 310.876931,8.80624204 311.921455,8.59872611 C312.033054,8.57656051 312.160323,8.63808917 312.281095,8.65757962 Z M221.473314,22.4170701 C225.248961,23.7477707 225.459929,23.9763057 225.203863,26.7592357 C224.906519,29.988535 223.573061,32.76 221.181703,34.968535 C219.971692,36.0863694 218.569822,36.5663694 216.983354,35.7290446 C216.343952,35.3919745 216.160119,35.7378344 216.055399,36.2610191 C215.783662,37.6211465 215.714486,38.9927389 215.907874,40.3654777 C216.218594,42.5713376 217.543262,43.3387261 219.558545,42.3672611 C222.421907,40.986879 224.293488,38.5647134 225.9262,35.942293 C226.45859,35.0873885 226.897725,34.1751592 227.393043,33.2965605 C227.573054,32.9778344 227.775614,32.6017834 228.225069,32.7229299 C228.709302,32.8540127 228.836954,33.2782166 228.854152,33.7333758 C228.858738,33.8541401 228.861414,33.9890446 228.815551,34.0956688 C226.818994,38.711465 224.149403,42.846879 219.094568,44.4152866 C214.529699,45.8315924 212.012601,43.2611465 212.306887,38.0193631 C212.339373,37.4388535 212.947054,36.5690446 211.98623,36.2755414 C211.031904,35.983949 210.712393,36.8877707 210.330204,37.5366879 C209.321607,39.2507006 208.325239,40.9796178 206.919165,42.4077707 C204.06918,45.3019108 201.050649,44.6105732 199.759614,40.7992357 C199.688145,40.5886624 199.516924,40.4117197 199.392712,40.2191083 C199.206968,40.3650955 198.999822,40.4912102 198.840449,40.6620382 C198.5282,40.9968153 198.261814,41.3751592 197.942304,41.7019108 C196.882494,42.7861146 195.753889,43.7973248 194.099009,42.9664968 C192.300427,42.0638217 191.266605,40.0521019 191.735933,38.2498089 C192.387184,35.7512102 193.159206,33.2843312 194.053529,30.2040764 C193.516935,31.0180892 193.291061,31.313121 193.11449,31.6356688 C191.633124,34.3436943 190.185009,37.0712102 188.671922,39.7616561 C188.180427,40.6352866 187.571599,41.4550318 186.932197,42.2296815 C186.273685,43.0276433 185.484846,43.7449682 184.331399,43.1579618 C183.217317,42.5904459 183.227636,41.5540127 183.422171,40.5214013 C183.86016,38.1940127 184.334456,35.8727389 184.908505,32.9713376 C184.357388,33.7482803 184.110111,34.0341401 183.932011,34.3578344 C182.413191,37.1143949 180.924946,39.888535 179.387781,42.6351592 C178.722007,43.8248408 177.837622,44.7214013 176.277907,44.2456051 C174.833232,43.804586 174.658954,42.6630573 174.687618,41.3950318 C174.691822,41.206242 174.584427,41.0155414 174.528245,40.8256051 C174.364286,40.9490446 174.17816,41.0518471 174.040571,41.1997452 C173.749343,41.5127389 173.502067,41.8673885 173.204341,42.1735032 C172.085673,43.3230573 170.821009,44.1783439 169.134408,43.5806369 C167.518894,43.0081529 167.354553,41.568535 167.265121,40.1193631 C167.245629,39.8014013 167.202442,39.2571975 167.057974,39.2166879 C166.608902,39.0905732 166.529788,39.6126115 166.34328,39.8889172 C164.993388,41.8933758 163.526163,43.7793631 161.082827,44.5081529 C159.210865,45.066879 157.750902,44.5012739 156.961299,42.6393631 C156.660898,41.9312102 156.395276,41.9193631 155.866327,42.422293 C154.470954,43.7503185 152.876842,44.7214013 150.913536,43.8515924 C148.951377,42.9825478 148.666263,41.1233121 148.597852,39.2185987 C148.510712,36.78 148.917744,34.4086624 149.50364,32.0556688 C149.622119,31.5802548 149.885065,31.0375796 149.136738,30.7563057 C148.44574,30.496051 148.028772,30.78 147.69321,31.3410191 C146.608557,33.1547771 146.197703,35.208535 145.60531,37.1969427 C145.090119,38.9266242 144.623083,40.6815287 143.601874,42.1991083 C142.134649,44.3785987 140.719403,44.5513376 138.772913,42.7857325 C137.924835,42.0164331 137.160456,41.1538854 136.357477,40.3333758 C135.600742,41.2005096 134.855091,42.0779618 134.084215,42.9317197 C132.998416,44.1343949 131.676423,44.7917197 130.068935,44.2123567 C128.502724,43.6471338 128.076965,42.2289172 127.926382,40.7507006 C127.685221,38.383949 128.050212,36.055414 128.506545,33.7391083 C128.567314,33.429172 128.592538,33.1123567 128.349848,32.6820382 L126.639551,35.6365605 L126.639551,35.6365605 C125.245325,38.0407643 124.166787,40.6280255 122.467955,42.8549045 C121.811737,43.7147771 121.092839,44.4527389 119.847666,43.9918471 C118.601729,43.5305732 118.072015,42.5747771 118.191258,41.333121 C118.693072,36.1092994 120.151506,31.1403822 122.431265,26.4248408 C123.016397,25.2141401 124.158378,25.142293 125.28125,25.6853503 C126.466419,26.2585987 125.957343,27.1429299 125.570186,27.948535 C124.054041,31.1063694 122.949514,34.4025478 122.208449,37.8229299 C122.120928,38.2287898 122.070479,38.6430573 121.994041,39.1066242 C122.584141,39.06 122.615863,38.6216561 122.773325,38.3384713 C125.180735,34.0161783 127.301885,29.5211465 130.4538,25.6490446 C131.595399,24.2464968 132.893314,23.8066242 134.382705,25.1056051 C135.270148,25.8798726 135.420349,26.7642038 134.424746,27.5881529 C133.90879,28.0150318 133.575904,28.5328662 133.344679,29.146242 C132.025744,32.6495541 130.970137,36.2166879 130.744263,39.9791083 C130.710249,40.5504459 130.669354,41.2429299 131.332453,41.4894268 C131.999755,41.7366879 132.397232,41.1515924 132.766045,40.7235669 C134.230976,39.0217834 135.273206,37.0402548 136.407926,35.1214013 C136.727054,34.5814013 136.960571,33.8228025 137.823555,34.2535032 C138.612011,34.6467516 138.888716,35.3973248 138.37964,36.0970701 C136.740813,38.3499363 138.292119,39.5774522 139.794887,40.8412739 C140.446902,41.3904459 140.992286,41.3029299 141.438683,40.5321019 C142.502315,38.695414 143.254082,36.7440764 143.879343,34.7147771 C144.893673,31.4201274 146.334909,28.3796178 149.562115,26.6014013 C151.194063,25.7017834 152.973154,25.5355414 154.720905,25.8103185 C156.046338,26.0189809 155.448594,27.1310828 155.197495,27.890828 C154.132716,31.1105732 152.954809,34.2951592 151.96685,37.5378344 C151.592304,38.766879 150.689573,40.4644586 152.251199,41.2750318 C153.733711,42.0447134 154.642174,40.3861146 155.608349,39.4819108 C156.492353,38.6549045 156.981555,37.6077707 157.358011,36.4307006 C158.655544,32.3705732 160.528271,28.6001274 163.67216,25.6196178 C165.977525,23.4343949 167.542208,23.4164331 169.964141,25.4163057 C170.464809,25.8298089 170.945603,25.5997452 171.442831,25.5749045 C172.494234,25.5214013 173.598761,25.4304459 174.306575,26.388535 C175.005981,27.3355414 174.308868,28.2183439 173.906805,29.0361783 C172.3662,32.169172 170.897829,35.328535 170.108991,38.7496815 C169.958026,39.4043312 169.611763,40.2833121 170.36544,40.6796178 C171.175681,41.1057325 171.712657,40.3005096 172.153321,39.7536306 C174.798453,36.4700637 177.513907,33.2212739 178.266438,28.866879 C178.353959,28.3628025 178.585948,27.8789809 178.782393,27.3985987 C179.073239,26.6881529 179.471481,26.0850955 180.366186,26.1049682 C181.31669,26.1259873 181.983993,26.6063694 182.418542,27.42 C182.811814,28.1571975 182.638301,28.8240764 182.136486,29.4596178 C179.453518,32.8566879 179.00521,37.0834395 177.854438,41.0487898 C177.835711,41.1129936 177.905269,41.2031847 178.009989,41.4878981 C178.723918,40.2221656 179.349944,39.0890446 179.996991,37.9681529 C181.829588,34.7923567 183.518482,31.5191083 185.922453,28.7166879 C186.582494,27.9466242 187.324705,26.7638217 188.553061,27.4975796 C189.75046,28.2122293 189.147365,29.3342675 188.768616,30.3642038 C187.704219,33.2583439 186.973473,36.2396178 186.489622,39.3661146 C187.110679,39.2503185 187.155777,38.7951592 187.335024,38.4817834 C189.215777,35.1913376 191.052961,31.8764331 192.971551,28.6089172 C193.586494,27.5606369 194.352783,26.5864968 195.148883,25.6647134 C195.717581,25.0066242 196.448709,23.953758 197.398067,24.7857325 C198.358508,25.626879 199.440868,26.7221656 198.400549,28.2619108 C196.657002,30.842293 195.307874,33.6133758 194.524768,36.6275159 C194.202965,37.8676433 193.295265,39.5858599 194.77472,40.2901911 C196.344371,41.0369427 197.03384,39.1723567 197.80357,38.1214013 C199.185948,36.2350318 200.210597,34.1896815 200.553039,31.806879 C200.8221,29.9350318 201.402263,28.1182166 202.128041,26.3564331 C202.691388,24.9905732 203.707629,24.3 205.138163,24.1666242 C206.42767,24.0466242 207.013948,24.5067516 206.578252,25.8817834 C205.407224,29.5803822 204.244987,33.2816561 203.120586,36.9940127 C202.847321,37.8955414 202.689477,38.8391083 202.559532,39.7746497 C202.478508,40.3589809 202.596223,40.9582166 203.169124,41.3063694 C203.745466,41.6568153 204.309195,41.4661146 204.803365,41.1233121 C206.414675,40.0054777 207.595258,38.4875159 208.651247,36.8648408 C209.023881,36.2919745 208.569076,36.1184713 208.14905,35.9621656 C207.025032,35.5440764 206.154022,34.8557962 206.319892,33.5510828 C206.465889,32.4026752 207.396137,31.8798726 208.443336,31.6830573 C209.736282,31.4403822 210.609967,32.0205096 211.136241,33.2170701 C211.374345,33.7585987 211.588753,34.4480255 212.354278,34.4067516 C213.184393,34.3628025 213.149614,33.5751592 213.315866,33.0290446 C214.285481,29.8501911 215.588746,26.8295541 217.5081,24.1016561 C218.471599,22.7319745 219.691165,21.7895541 221.473314,22.4170701 Z M91.2908683,24.309172 C92.3552653,24.950828 92.4473729,25.8867516 91.8886122,27.0030573 C89.9409759,30.893121 88.1978108,34.8661146 87.5817217,39.2231847 C87.4513952,40.1461146 87.2740594,41.268535 88.367885,41.7191083 C89.4735584,42.175414 90.1423896,41.2471338 90.6610204,40.4766879 C93.5411985,36.1968153 95.1811725,31.3521019 96.870449,26.5379618 C97.1826976,25.6478981 97.3902263,24.7387261 98.4588275,24.4987261 C99.4173581,24.2835669 100.195495,24.6343949 100.809673,25.3864968 C101.530865,26.268535 101.006119,27.0546497 100.624694,27.8487898 C98.8563043,31.5321019 97.3596512,35.3021656 97.0787421,39.4352866 C97.0164453,40.3498089 96.7133692,41.5872611 97.7139406,42.0019108 C98.7836883,42.4456051 99.439525,41.3300637 100.021217,40.5771975 C101.301933,38.9201274 102.130902,37.006242 102.975158,35.1053503 C103.222816,34.5477707 103.479265,33.8743949 104.296768,34.2236943 C105.0321,34.5374522 105.381039,35.0965605 105.033247,35.9258599 C103.988341,38.4168153 102.780623,40.8149045 100.98357,42.8617834 C99.6290909,44.404586 97.9092393,45.1387261 95.9780371,44.2803822 C94.0663265,43.430828 93.7976475,41.5738854 93.8404527,39.6825478 C93.8473321,39.3626752 93.8358664,38.7741401 93.7670724,38.7642038 C93.2946865,38.695414 93.2786345,39.1952866 93.0863933,39.470828 C92.494,40.3230573 91.9814842,41.2352866 91.3397885,42.046242 C90.1691429,43.5263694 88.6889239,44.6082803 86.7443451,43.804586 C84.8869054,43.0375796 84.1485158,41.4042038 84.2413878,39.3963057 C84.6751725,34.3031847 86.1458367,29.517707 88.6312134,25.0524841 C89.2232245,23.9881529 90.2192096,23.6629299 91.2908683,24.309172 Z M603.931614,37.6857325 C605.563562,37.7105732 605.766122,38.9117197 605.865499,39.96 C605.869314,42.3710828 604.279406,44.1848408 602.292022,44.1428025 C600.942894,44.1141401 599.639629,43.8466242 599.60141,42.0932484 C599.559369,40.1270064 602.001558,37.6563057 603.931614,37.6857325 Z M312.142742,27.3072611 C307.52475,30.4261146 304.368631,34.5412739 303.695978,40.2412739 C303.713558,41.3101911 303.783881,42.3389809 304.8521,42.8805096 C305.951659,43.4373248 307.042809,43.1751592 307.945158,42.4616561 C308.625837,41.9228025 309.241161,41.2414013 309.714312,40.5126115 C311.568312,37.6540127 312.99082,34.5833121 313.865651,31.2840764 C314.105284,30.3794904 314.285677,29.4156688 314.241725,28.4912102 C314.178664,27.1536306 313.347785,26.4936306 312.142742,27.3072611 Z M46.164256,30.616051 C43.9070464,33.2587261 42.4654286,36.2743949 42.1050241,39.6940127 C42.1646456,40.8408917 42.3293692,41.9044586 43.3303228,42.4857325 C44.0029759,42.8766879 44.6729536,42.4406369 45.1365492,41.9472611 C47.7923822,39.1184713 49.2003673,35.7309554 49.3708237,31.8695541 C49.4094249,30.9951592 48.9003488,30.0244586 48.1657811,29.646879 C47.3968163,29.2521019 46.6767718,30.0156688 46.164256,30.616051 Z M325.969584,30.4628025 C323.501406,33.235414 322.035328,36.4624204 321.711232,40.1774522 C321.797224,41.0648408 321.691358,42.0626752 322.692694,42.4853503 C323.73416,42.9252229 324.56695,42.3324841 325.18495,41.5895541 C327.582423,38.7087898 328.922378,35.383949 329.09895,31.6287898 C329.136022,30.8346497 329.031685,29.9583439 328.138508,29.6193631 C327.223547,29.2723567 326.516115,29.8494268 325.969584,30.4628025 Z M496.314768,30.4956688 C493.941373,33.2388535 492.370575,36.3611465 492.152727,40.0475159 C492.099221,40.986879 492.026605,42.0611465 493.119666,42.496051 C494.254768,42.946242 495.068831,42.2033121 495.714731,41.4087898 C497.946716,38.6529936 499.200297,35.4932484 499.467829,32.0411465 C499.441076,31.0628025 499.563377,30.0726115 498.558219,29.6419108 C497.614212,29.2371975 496.868942,29.8551592 496.314768,30.4956688 Z M30.6794768,30.7104459 C28.4184453,33.4563057 26.8980965,36.5373248 26.7303154,40.1610191 C26.6878924,41.0763057 26.65082,42.0966879 27.7167458,42.5067516 C28.7696772,42.911465 29.565013,42.2747771 30.1814842,41.5303185 C32.4635362,38.7741401 33.7518961,35.6017834 34.0240148,32.3147771 C33.9712727,31.1216561 34.1795659,30.055414 33.1029388,29.6396178 C32.0408349,29.2299363 31.277603,29.983949 30.6794768,30.7104459 Z M425.548609,27.9080255 C421.612059,31.4174522 419.907495,36.12 418.504861,41.0078981 C418.688312,41.4038217 418.757106,41.8127389 419.001707,42.013758 C419.338033,42.2946497 419.785195,42.106242 420.09859,41.8555414 C420.690983,41.3812739 421.313952,40.9157962 421.803154,40.3440764 C424.535807,37.1522293 426.446753,33.4834395 427.902894,29.563949 C428.155139,28.8821656 428.48,28.1010191 427.723265,27.5510828 C426.939777,26.9812739 426.141002,27.3798726 425.548609,27.9080255 Z M166.775918,27.8942675 C162.815291,31.4254777 161.081299,36.1421656 159.811666,40.7048408 C159.873581,41.4779618 159.842623,41.9010191 160.257681,42.0569427 C160.902052,42.2996178 161.393929,41.9021656 161.812427,41.5115924 C165.343855,38.2138854 167.379777,33.9932484 169.098865,29.586879 C169.362193,28.9119745 169.682468,28.1224204 168.949811,27.5610191 C168.175878,26.9682803 167.367165,27.366879 166.775918,27.8942675 Z M76.2112096,28.7675159 C73.5874805,31.8783439 71.9773173,35.5276433 70.7760965,39.3676433 C70.4336549,40.4621656 71.0241373,41.3212739 72.0002486,41.7523567 C73.685321,42.496051 74.8697254,41.5521019 75.7036623,40.2584713 C77.7235325,37.1243312 78.7864007,33.6431847 79.1399258,30.0126115 C79.0329128,29.1 79.2060445,28.0769427 78.2452208,27.6943949 C77.2977737,27.3175796 76.7244898,28.1591083 76.2112096,28.7675159 Z M481.206827,28.8370701 C478.623228,31.9364331 476.998924,35.5482803 475.833247,39.3684076 C475.393729,40.8164331 476.842226,42.2174522 478.382449,41.9694268 C479.532839,41.7836943 480.312505,41.0484076 480.874323,40.1140127 C482.739406,37.0070064 483.855399,33.6435669 484.187904,30.050828 C484.084712,29.1619108 484.298738,28.0918471 483.297403,27.6963057 C482.311354,27.3057325 481.730427,28.2057325 481.206827,28.8370701 Z M617.678961,1.84968153 L617.678961,2.58343949 L617.678961,2.58343949 C615.886494,5.27732484 615.267347,8.43974522 614.239258,11.4259873 C611.892616,18.2449682 609.714137,25.1220382 607.455399,31.9704459 C607.069388,33.1417834 607.432468,34.8278981 605.372468,34.8745223 C604.034805,34.9047134 603.423302,34.4472611 603.583822,33.0592357 C604.095955,28.6406369 605.261633,24.3619108 606.373803,20.0751592 C607.692356,14.9828025 609.33577,9.98942675 611.246716,5.0877707 C611.667124,4.01235669 612.18308,2.95375796 612.806048,1.98458599 C614.258367,-0.276687898 616.115807,-0.298853503 617.678961,1.84968153 Z M511.866048,26.4997452 C510.310538,28.089172 509.328312,29.9751592 508.999629,31.9532484 C509.034026,33.0038217 509.095176,33.8201274 509.97039,34.1996178 C510.601002,34.4732484 511.124601,34.1357962 511.495325,33.6630573 C512.959109,31.7935032 513.56679,29.6193631 513.635584,27.2789809 C513.64705,26.8425478 513.475065,26.4244586 513.035547,26.2211465 C512.588386,26.0132484 512.175622,26.1836943 511.866048,26.4997452 Z M560.66397,26.3323567 C559.184898,27.1857325 557.308349,31.1438217 557.602635,32.8054777 C557.717291,33.4654777 557.965714,34.0681529 558.688052,34.2447134 C559.383636,34.4140127 559.861373,33.9875159 560.224453,33.4780892 C561.443636,31.7709554 562.039852,29.8410191 562.169796,28.1231847 C562.219481,27.2025478 562.223302,26.6434395 561.695881,26.2815287 C561.355733,26.0472611 561.004119,26.1366879 560.66397,26.3323567 Z M62.0109685,26.3732484 C60.2578664,28.1170701 58.9767681,30.1096815 59.0012282,32.6912102 C59.0077254,33.3829299 59.2958961,34.0383439 60.0595102,34.2385987 C60.7956067,34.4319745 61.2874842,33.9573248 61.664705,33.4264968 C62.8995584,31.6884076 63.4525863,29.7122293 63.5997291,27.7333758 C63.6131058,26.9063694 63.4246865,26.4340127 63.0394397,26.2440764 C62.6729202,26.0633121 62.2792653,26.1064968 62.0109685,26.3732484 Z M220.508286,26.3220382 C218.942456,27.0164331 217.035332,31.2932484 217.440453,32.9247134 C217.5918,33.533121 217.801622,34.1208917 218.518991,34.2573248 C219.181325,34.3830573 219.633072,33.9867516 219.98354,33.5117197 C221.251262,31.7927389 221.801614,29.8150318 222.025577,27.6328662 C221.90557,26.8180892 221.872701,25.7166879 220.508286,26.3220382 Z M293.58669,19.9173248 C294.827276,19.9769427 295.651276,20.0105732 296.474894,20.0583439 C296.95951,20.086242 297.291633,20.3048408 297.323737,20.833758 C297.35584,21.3580892 297.155955,21.7631847 296.612482,21.8464968 C290.573892,22.7743949 284.627792,24.2740127 278.530345,24.8243312 C277.495377,24.9175796 276.660293,24.3535032 276.544108,23.210828 C276.431362,22.1033121 277.074968,21.3775796 278.129046,21.3664968 C283.460968,21.3103185 288.712249,20.4133758 293.58669,19.9173248 Z M198.358891,20.0503185 C198.804905,20.0579618 199.25436,20.1256051 199.264679,20.7149045 C199.273469,21.2388535 199.119829,21.7379618 198.530876,21.8304459 C192.475469,22.783949 186.50682,24.2736306 180.388353,24.8220382 C179.34574,24.9156688 178.533206,24.3252229 178.421989,23.1913376 C178.317269,22.1266242 178.958965,21.408535 179.952657,21.3890446 C185.333117,21.2854777 190.640579,20.4282803 195.982438,20.0464968 C196.774716,20.0464968 197.566994,20.0361783 198.358891,20.0503185 Z M468.957662,19.9073885 C470.176846,19.9712102 471.03295,20.0094268 471.885232,20.0633121 C472.382078,20.0946497 472.676364,20.3522293 472.695473,20.8727389 C472.714583,21.3619108 472.52731,21.7425478 472.026642,21.8224204 C465.965121,22.7881529 459.983859,24.2644586 453.857365,24.8216561 C452.821633,24.9156688 451.999926,24.3126115 451.912022,23.1684076 C451.824119,22.0585987 452.489128,21.3695541 453.54397,21.3584713 C458.841113,21.3026752 464.06564,20.4313376 468.957662,19.9073885 Z M312.422505,12.902293 C310.47525,16.4675159 309.447926,20.388535 308.20925,24.2250955 C308.159566,24.3794904 308.227596,24.5721019 308.24059,24.7467516 C308.409135,24.7276433 308.612078,24.7624204 308.741258,24.6810191 C312.846735,22.096051 315.755959,18.7073885 316.130887,13.3272611 C316.148468,12.5063694 315.637098,11.6965605 314.566204,11.4194904 C313.374156,11.1110828 312.848263,12.1226752 312.422505,12.902293 Z M136.83292,18.7773248 C137.104275,19.9242038 136.139629,19.9287898 135.481881,20.051465 C131.911469,20.7183439 128.793187,22.7270064 125.249529,23.4588535 C124.861989,23.5387261 124.470245,23.5991083 124.164494,23.653758 C123.060731,23.5968153 122.240171,23.2257325 122.096468,22.1281529 C121.960026,21.0898089 122.53866,20.2761783 123.544583,20.2681529 C127.512471,20.2371975 131.140212,18.4842038 135.03128,18.1234395 C135.711195,18.0603822 136.576471,17.6923567 136.83292,18.7773248 Z"/>
</svg>
