<svg xmlns="http://www.w3.org/2000/svg" width="34" height="34" viewBox="0 0 34 34"><g><g><path fill="none" stroke="#323232" stroke-linecap="round" stroke-linejoin="round" stroke-miterlimit="20" stroke-width="2.5" d="M27 29v0l-.577-1.512a5.548 5.548 0 0 0-1.325-2.014l-.106-.1A4.825 4.825 0 0 0 21.631 24h-8.264c-1.246 0-2.446.49-3.36 1.375l-.106.1a5.57 5.57 0 0 0-1.326 2.013L8 29v0"/></g><g><path fill="none" stroke="#323232" stroke-linecap="round" stroke-linejoin="round" stroke-miterlimit="20" stroke-width="2.5" d="M23 14a6 6 0 1 1-12 0 6 6 0 0 1 12 0z"/></g><g><path fill="none" stroke="#323232" stroke-linecap="round" stroke-linejoin="round" stroke-miterlimit="20" stroke-width="2.5" d="M32 17c0 8.285-6.715 15-15 15S2 25.285 2 17 8.715 2 17 2s15 6.715 15 15z"/></g></g></svg>