<svg xmlns="http://www.w3.org/2000/svg" width="31" height="34" viewBox="0 0 31 34"><g><g><path fill="none" stroke="#323232" stroke-linecap="round" stroke-linejoin="round" stroke-miterlimit="20" stroke-width="2.5" d="M22 9h-7"/></g><g><path fill="none" stroke="#323232" stroke-linecap="round" stroke-linejoin="round" stroke-miterlimit="20" stroke-width="2.5" d="M22 15h-7"/></g><g><path fill="none" stroke="#323232" stroke-linecap="round" stroke-linejoin="round" stroke-miterlimit="20" stroke-width="2.5" d="M22 22h-7"/></g><g><path fill="none" stroke="#323232" stroke-linecap="round" stroke-linejoin="round" stroke-miterlimit="20" stroke-width="2.5" d="M2 30.652V3.667C2 2.747 2.754 2 3.688 2h23.625C28.244 2 29 2.747 29 3.667v26.985c0 .62-.661 1.023-1.222.745L24.5 29.778v0L20.001 32v0L15.5 29.778v0L11 32v0l-4.5-2.222v0l-3.278 1.619C2.66 31.675 2 31.272 2 30.652z"/></g><g><path fill="none" stroke="#323232" stroke-linecap="round" stroke-linejoin="round" stroke-miterlimit="20" stroke-width="2.5" d="M8.754 8.645c-.005 0-.009.003-.009.008s.004.009.009.009c.005 0 .008-.004.008-.009 0-.005-.003-.008-.008-.008"/></g><g><path fill="none" stroke="#323232" stroke-linecap="round" stroke-linejoin="round" stroke-miterlimit="20" stroke-width="2.5" d="M8.754 15.335c-.005 0-.009.003-.009.008s.004.009.009.009c.005 0 .008-.004.008-.009 0-.005-.003-.008-.008-.008"/></g><g><path fill="none" stroke="#323232" stroke-linecap="round" stroke-linejoin="round" stroke-miterlimit="20" stroke-width="2.5" d="M8.754 21.985c-.005 0-.009.003-.009.008s.004.009.009.009c.005 0 .008-.004.008-.009 0-.005-.003-.008-.008-.008"/></g></g></svg>