<svg xmlns="http://www.w3.org/2000/svg" width="34" height="34" viewBox="0 0 34 34"><g><g><path fill="none" stroke="#323232" stroke-linecap="round" stroke-linejoin="round" stroke-miterlimit="20" stroke-width="2.5" d="M2 10h30"/></g><g><path fill="none" stroke="#323232" stroke-linecap="round" stroke-linejoin="round" stroke-miterlimit="20" stroke-width="2.5" d="M9 25v-2"/></g><g><path fill="none" stroke="#323232" stroke-linecap="round" stroke-linejoin="round" stroke-miterlimit="20" stroke-width="2.5" d="M14 25v-8"/></g><g><path fill="none" stroke="#323232" stroke-linecap="round" stroke-linejoin="round" stroke-miterlimit="20" stroke-width="2.5" d="M19 25v-3"/></g><g><path fill="none" stroke="#323232" stroke-linecap="round" stroke-linejoin="round" stroke-miterlimit="20" stroke-width="2.5" d="M24 25v-7"/></g><g><path fill="none" stroke="#323232" stroke-linecap="round" stroke-linejoin="round" stroke-miterlimit="20" stroke-width="2.5" d="M15.113 6.155c-.005 0-.008.003-.008.008s.003.009.008.009.009-.004.009-.009c0-.005-.004-.008-.009-.008"/></g><g><path fill="none" stroke="#323232" stroke-linecap="round" stroke-linejoin="round" stroke-miterlimit="20" stroke-width="2.5" d="M10.883 6.155c-.005 0-.008.003-.008.008s.003.009.008.009.009-.004.009-.009c0-.005-.004-.008-.009-.008"/></g><g><path fill="none" stroke="#323232" stroke-linecap="round" stroke-linejoin="round" stroke-miterlimit="20" stroke-width="2.5" d="M6.633 6.145c-.005 0-.008.003-.008.008s.003.009.008.009.009-.004.009-.009c0-.005-.004-.008-.009-.008"/></g><g><path fill="none" stroke="#323232" stroke-linecap="round" stroke-linejoin="round" stroke-miterlimit="20" stroke-width="2.5" d="M28.667 32H5.333A3.333 3.333 0 0 1 2 28.667V5.333A3.333 3.333 0 0 1 5.333 2h23.334A3.333 3.333 0 0 1 32 5.333v23.334A3.333 3.333 0 0 1 28.667 32z"/></g></g></svg>