<svg xmlns="http://www.w3.org/2000/svg" width="37" height="34" viewBox="0 0 37 34"><g><g><path fill="none" stroke="#323232" stroke-linecap="round" stroke-linejoin="round" stroke-miterlimit="20" stroke-width="2.5" d="M31.7 32H5.3C3.477 32 2 30.507 2 28.667V5.333C2 3.492 3.477 2 5.3 2h26.4C33.522 2 35 3.492 35 5.333v23.334C35 30.507 33.522 32 31.7 32z"/></g><g><path fill="none" stroke="#323232" stroke-linecap="round" stroke-linejoin="round" stroke-miterlimit="20" stroke-width="2.5" d="M2 10h33"/></g><g><path fill="none" stroke="#323232" stroke-linecap="round" stroke-linejoin="round" stroke-miterlimit="20" stroke-width="2.5" d="M7 5.989c-.006 0-.01.006-.01.01 0 .006.004.012.01.012s.01-.006.01-.012c0-.004-.004-.01-.01-.01"/></g><g><path fill="none" stroke="#323232" stroke-linecap="round" stroke-linejoin="round" stroke-miterlimit="20" stroke-width="2.5" d="M11 5.989c-.006 0-.01.006-.01.01 0 .006.004.012.01.012s.01-.006.01-.012c0-.004-.004-.01-.01-.01"/></g><g><path fill="none" stroke="#323232" stroke-linecap="round" stroke-linejoin="round" stroke-miterlimit="20" stroke-width="2.5" d="M15 5.989c-.006 0-.01.006-.01.01 0 .006.004.012.01.012s.01-.006.01-.012c0-.004-.004-.01-.01-.01"/></g><g><path fill="none" stroke="#323232" stroke-linecap="round" stroke-linejoin="round" stroke-miterlimit="20" stroke-width="2.5" d="M15.4 20h-4.8c-.883 0-1.6-.747-1.6-1.667v-1.666C9 15.745 9.717 15 10.6 15h4.8c.883 0 1.6.745 1.6 1.667v1.666c0 .92-.717 1.667-1.6 1.667z"/></g><g><path fill="none" stroke="#323232" stroke-linecap="round" stroke-linejoin="round" stroke-miterlimit="20" stroke-width="2.5" d="M22 15h7"/></g><g><path fill="none" stroke="#323232" stroke-linecap="round" stroke-linejoin="round" stroke-miterlimit="20" stroke-width="2.5" d="M22 20h5"/></g><g><path fill="none" stroke="#323232" stroke-linecap="round" stroke-linejoin="round" stroke-miterlimit="20" stroke-width="2.5" d="M28 32v0-5.25c0-.968-.747-1.75-1.667-1.75H9.667C8.747 25 8 25.782 8 26.75V32"/></g></g></svg>