<svg xmlns="http://www.w3.org/2000/svg" width="44" height="44" viewBox="0 0 44 44"><g><g clip-path="url(#clip-7DC6137A-D46A-4BE8-87FA-04DD87150E8F)"><path d="M17.985 46.305c.267-.912-.676-1.461-1.366-1.229-.905-1.024-1.91-1.94-2.415-3.223.503.269.979.576 1.417.91-.279 1.218 1.62 1.75 1.985.505.304-1.04-.962-1.611-1.635-1.089-1.807-1.347-4.187-2.295-6.421-2.11a.382.382 0 0 0-.086.018 55.307 55.307 0 0 1-.696-1.293 59.48 59.48 0 0 0-1.433-2.595c1.222.17 2.481.039 3.694-.272a.34.34 0 0 0 .09.067c1.029.52 2.094.943 3.187 1.297.055.046.122.07.196.063.23.073.463.144.696.211 1.502.433 3.048.395 4.572.647.31.774 1.653.952 1.953-.072.367-1.255-1.555-1.829-1.957-.613-1.211-.175-2.441-.178-3.644-.427a14.932 14.932 0 0 1-.902-.22c1.284-.964 2.703-2.142 4.233-2.541.326.757 1.646.924 1.943-.092.368-1.256-1.559-1.83-1.958-.61-1.856.411-3.528 1.926-5.032 3a20.645 20.645 0 0 1-2.442-.987 16.08 16.08 0 0 0 1.577-.623c1.398-.639 3.314-1.902 4.288-3.425.393-.01.774-.23.92-.73.298-1.015-.843-1.583-1.536-1.163a.98.98 0 0 0-.425.564l-.01.024c-.141.481.042.862.347 1.086-.354.438-.794.827-1.17 1.177-.24.223-.486.43-.74.625.164-.831.207-1.708.327-2.553a.955.955 0 0 0 .421-.57c.372-1.269-1.6-1.844-1.972-.574l-.004.025a.945.945 0 0 0 .058.689c.15.296.454.49.78.55-.045.25-.093.498-.13.75-.097.647-.077 1.352-.25 1.984a.325.325 0 0 0 .018.231c-.504.326-1.036.612-1.597.869-1.792.817-4.054 1.288-6.005.833a31.949 31.949 0 0 0-1.055-1.599c-.39-.55-.806-1.083-1.247-1.598 1.807-.732 3.88-.765 5.778-.343.143.934 1.682 1.23 2.006.124.348-1.188-1.357-1.767-1.881-.796-2.09-.457-4.333-.382-6.314.448a.39.39 0 0 0-.06.033 25 25 0 0 0-6.681-5.171c-.485-.259-.978-.49-1.479-.701a8.513 8.513 0 0 0 1.57-.534l.008.002c.017-.007.032-.017.049-.025.024-.01.049-.018.073-.029l-.01-.003c1.17-.553 2.28-1.313 3.338-2.063.02.001.04.002.06 0 1.107-.132 2.18.07 3.238.357-.001.046.007.094.027.144.5 1.235 1.037 4.17 2.163 4.717-.18 1.162 1.41 1.676 2.05.58.3-.517-.444-2.109-1.845-1.151-1.013-.975-1.191-2.734-1.623-4.068.27.081.54.164.809.244 1.395.418 2.744.977 4.002 1.708-.06 1.085 1.668 1.501 2.014.32.325-1.11-1.145-1.69-1.766-.965-1.395-.795-2.89-1.369-4.43-1.83-1.234-.37-2.44-.717-3.699-.762.147-.102.292-.202.437-.3 1.668-1.126 3.366-2.288 5.18-3.178a.323.323 0 0 0 .165.101c1.188.321 2.204 1.046 3.392 1.382.806.227 1.6.324 2.421.281.242.846 1.668 1.078 1.979.016.358-1.224-1.46-1.797-1.922-.697-1.025.072-2.01-.142-2.983-.473-.772-.262-1.45-.704-2.204-.998.963-.415 1.96-.742 3.004-.94.472.533 1.523.556 1.784-.337.372-1.27-1.6-1.844-1.971-.575-.027.09-.038.176-.043.26-2.817.543-5.31 2.02-7.686 3.59.933-1.754 1.762-3.56 3.045-5.103 1.146-1.379 3.048-3.133 4.865-3.612.36.714 1.627.853 1.918-.14.372-1.269-1.6-1.844-1.972-.575l-.004.026c-1.81.42-3.498 1.998-4.77 3.254-.071.07-.138.143-.207.214-.305-1.77-.513-3.57-.13-5.327.428.031.864-.173 1.02-.705.37-1.269-1.601-1.844-1.973-.575-.13.447.032.804.31 1.028-.461 1.993-.194 4.05.163 6.053.01.061.034.109.064.147-1.42 1.752-2.288 3.897-3.4 5.844a.334.334 0 0 0-.045.212c-1.125.75-2.252 1.495-3.377 2.243-.782.52-1.593 1.01-2.455 1.345l-.005-.001c-.635.233-1.3.377-2.006.379-2.716-.905-5.608-1.208-8.487-1.123-.908.027-1.804.055-2.698.061a8.678 8.678 0 0 0 2.028-1.821c.167-.204.778-.997.944-1.183 1.085.57 2.037 1.093 3.24 1.24.012.001.024.004.036.004.102.012.202.026.308.032.851.05 1.723.077 2.538-.152.44.595 1.565.656 1.837-.272.371-1.27-1.6-1.844-1.972-.575-.02.07-.031.137-.038.203-.733.249-1.502.272-2.265.152.135-.871.47-1.765 1.11-2.376.522.344 1.351.262 1.58-.516.37-1.27-1.6-1.845-1.973-.576a.988.988 0 0 0-.01.547c-.78.722-1.198 1.73-1.373 2.78-.898-.23-1.77-.617-2.544-1.015.61-.656 1.24-1.293 1.896-1.907.825-.771 1.706-1.578 2.658-2.269 1.018.009 2.02.337 3.004.567 1 .234 1.989.234 3 .142.398.665 1.607.77 1.89-.197.372-1.268-1.6-1.844-1.972-.575-.01.034-.011.064-.018.097a10.01 10.01 0 0 1-3.24-.25c-.578-.14-1.162-.298-1.753-.39 1.052-.637 2.188-1.088 3.426-1.177.434.607 1.574.675 1.848-.26.372-1.269-1.6-1.844-1.972-.575-.016.056-.022.108-.03.16-1.64.149-3.101.875-4.433 1.816a23.896 23.896 0 0 0-1.95 1.565c-.202.179-.4.362-.598.544.602-1.446.928-3.057 1.179-4.514.02-.118.038-.235.056-.353.069.05.16.07.269.037 1.982-.582 3.428-2.052 4.643-3.655.523.303 1.301.2 1.52-.55.372-1.27-1.6-1.844-1.97-.575a.981.981 0 0 0 0 .59c-1.131 1.52-2.487 2.977-4.359 3.527l-.015.006c.154-1.195.222-2.402.236-3.607.015-1.224.145-2.429-.129-3.614a.983.983 0 0 0 .327-.503c.371-1.27-1.6-1.845-1.972-.575-.22.75.38 1.254.985 1.28.221 1.006.158 2.038.115 3.073-.034.811-.063 1.616-.115 2.421-1.15-1.14-2.333-2.585-2.67-4.172a.972.972 0 0 0 .366-.535c.372-1.269-1.6-1.844-1.972-.575-.215.736.357 1.235.948 1.28.428 1.9 1.886 3.593 3.252 4.88l.006.005c-.022.231-.042.462-.071.694-.29 2.338-.88 5.386-2.459 7.215-.01.011-.016.023-.024.035-.284.297-.564.598-.838.904l-.137.153c-.001-1.864.15-3.75-.174-5.586a.998.998 0 0 0 .273-.454c.372-1.269-1.6-1.844-1.971-.575-.228.778.425 1.292 1.05 1.284.325 1.987.198 6.131.198 6.131-1.777 2.02-3.1 2.55-3.103 2.555a27.937 27.937 0 0 1-2.21-.135c-2.333-.242-4.638-.705-6.945-1.11-.43-.076-.627.579-.192.655 3.998.704 7.999 1.51 12.08 1.295a38.26 38.26 0 0 1 2.247-.052.358.358 0 0 0 .07.138c1.39 1.724 1.971 3.767 2.325 5.876a.36.36 0 0 0-.085.033c-1.009.559-1.582 1.656-2.047 2.7-.018.005-.037.01-.056.017-1.29.526-2.098 1.948-2.713 3.115-.551 1.044-1.037 2.2-1.265 3.375-.32.064-.606.28-.725.688-.372 1.27 1.6 1.844 1.971.575.168-.573-.144-1.003-.57-1.186.215-1.077.687-2.131 1.172-3.093.423-.84.972-1.829 1.75-2.45-.607 1.562-.892 3.133-.96 4.806a.962.962 0 0 0-.396.553c-.371 1.269 1.6 1.844 1.972.575.208-.71-.318-1.203-.887-1.277.075-1.558.342-3.037.938-4.507.44-1.082.974-2.542 2.013-3.21.132.907.235 1.82.353 2.72.082.634.167 1.267.255 1.9-.006.015-.013.029-.017.045-.88 3.107-1.173 6.459-.377 9.608a.936.936 0 0 0-.563.64c-.372 1.268 1.6 1.844 1.972.575.186-.636-.216-1.097-.71-1.24-.674-2.573-.588-5.28-.038-7.876.094.562.194 1.123.312 1.682.298 1.412.532 2.869 1.259 4.13-.018.042-.038.08-.052.127-.371 1.269 1.6 1.844 1.972.575.275-.938-.73-1.495-1.424-1.21-.738-1.39-.953-3.064-1.253-4.586-.335-1.697-.545-3.423-.746-5.142 2.247 1.336 4.919 3.77 4.975 6.544-.311.07-.587.286-.704.686-.371 1.269 1.6 1.844 1.972.575.17-.579-.15-1.01-.582-1.191.008-1.794-.982-3.467-2.301-4.837 1.38.425 2.818.69 4.042 1.495.23.858 1.67 1.098 1.982.03.35-1.194-1.375-1.772-1.889-.779-1.613-.942-3.528-1.063-5.206-1.87a.354.354 0 0 0-.2-.034 14.981 14.981 0 0 0-2.008-1.362.342.342 0 0 0-.175-.045c-.152-1.26-.338-2.517-.65-3.73 2.353.118 4.167 1.647 6.028 2.945.038 1.017 1.676 1.379 2.012.232.332-1.134-1.204-1.71-1.8-.916-1.979-1.385-3.901-2.92-6.435-2.956h-.001c-.373-1.221-.9-2.386-1.68-3.447 3.194.104 6.276.704 9.226 2.204a21.836 21.836 0 0 1 3.808 2.483c.013.036.03.073.057.107.866 1.126 1.341 2.475 1.6 3.877-.002.012-.005.022-.006.035-.235 3.181-2.321 5.874-3.228 8.877-.18.599-.343 1.202-.484 1.81-.012.01-.023.018-.034.03-1.62 1.71-3.149 4.065-3.068 6.507-.378.02-.739.236-.877.709-.372 1.269 1.6 1.844 1.971.575a.934.934 0 0 0-.403-1.098c-.172-1.93.896-3.873 2.137-5.389-.33 1.867-.439 3.762-.217 5.658a.958.958 0 0 0-.407.56c-.372 1.268 1.6 1.843 1.972.574.209-.714-.324-1.209-.897-1.278-.362-3.139.263-6.235 1.2-9.234.672-2.149 1.924-4.043 2.593-6.157.029.508.041 1.012.045 1.504.006 1.026-.071 2.054-.162 3.08a.288.288 0 0 0-.016.174c-.045.501-.092 1.001-.133 1.5-.13 1.582-.105 3.262-.661 4.767-.42-.023-.846.183-.999.706-.372 1.27 1.6 1.844 1.972.575.135-.462-.042-.83-.338-1.053.428-1.19.525-2.45.616-3.72.042-.593.094-1.185.146-1.778.494.738 1.02 1.454 1.423 2.249.584 1.15.755 2.58.765 3.883a.941.941 0 0 0-.534.63c-.371 1.269 1.6 1.844 1.972.575.192-.656-.242-1.123-.757-1.25-.029-1.3-.261-2.56-.69-3.798-.432-1.252-1.407-2.282-2.082-3.411.087-1.039.158-2.078.162-3.118.01-2.085-.199-4.33-1.05-6.272a24.63 24.63 0 0 1 3.358 4.029c.185.277.361.562.533.85a.28.28 0 0 0 .05.083c.297.501.58 1.014.856 1.532.127 3.076.394 6.67 2.447 9.122-.101.108-.184.244-.235.418-.371 1.269 1.6 1.844 1.972.575.233-.795-.453-1.317-1.09-1.285-1.734-1.948-2.171-4.78-2.337-7.396.868 1.644 1.776 3.26 3.039 4.604-.332 1.247 1.608 1.804 1.977.545.297-1.012-.897-1.58-1.581-1.124-.614-.68-1.126-1.424-1.592-2.202 1.183-.042 2.405.235 3.54.72a.343.343 0 0 0 .011.127c.462 1.639 1.633 2.707 2.708 3.932a1.132 1.132 0 0 0-.086.213c-.372 1.27 1.6 1.844 1.972.575"/></g><g clip-path="url(#clip-BB45222B-C9DC-4278-B870-8F547B88E14E)"><path d="M21.819-3.35c-.297.903.628 1.482 1.324 1.272.872 1.053 1.847 2.001 2.31 3.3-.494-.285-.96-.608-1.387-.955.318-1.209-1.563-1.802-1.967-.57-.338 1.03.908 1.642 1.598 1.142 1.763 1.405 4.11 2.43 6.35 2.316a.381.381 0 0 0 .086-.015c.224.433.439.873.653 1.315.43.889.874 1.772 1.349 2.64-1.216-.209-2.48-.119-3.702.152a.34.34 0 0 0-.088-.07 22.332 22.332 0 0 0-3.143-1.4.261.261 0 0 0-.193-.068c-.229-.08-.458-.16-.689-.234-1.487-.48-3.034-.493-4.549-.794-.285-.784-1.62-1.006-1.954.008-.408 1.243 1.495 1.878 1.936.676 1.205.214 2.434.258 3.628.545.299.072.597.158.894.25-1.314.921-2.77 2.052-4.313 2.402-.302-.767-1.615-.977-1.945.028-.408 1.244 1.499 1.88 1.937.673 1.868-.35 3.59-1.81 5.127-2.834.827.301 1.637.666 2.409 1.065-.549.164-1.084.358-1.597.572-1.418.593-3.373 1.794-4.397 3.284-.393-.002-.781.205-.944.7-.33 1.005.792 1.61 1.499 1.212a.98.98 0 0 0 .443-.55l.01-.024c.157-.476-.014-.863-.311-1.096.368-.427.82-.801 1.208-1.139.246-.215.5-.414.758-.601-.19.826-.261 1.701-.409 2.541a.956.956 0 0 0-.439.556c-.413 1.256 1.54 1.895 1.952.638.003-.008.003-.016.006-.025a.945.945 0 0 0-.036-.69c-.14-.3-.438-.506-.763-.575.054-.248.11-.495.156-.745.117-.644.12-1.35.313-1.976a.324.324 0 0 0-.01-.231c.515-.31 1.055-.578 1.625-.816 1.817-.76 4.093-1.157 6.028-.64.32.554.651 1.1 1.003 1.633.371.563.77 1.109 1.194 1.638-1.83.673-3.903.639-5.786.156-.113-.939-1.641-1.284-2.001-.189-.386 1.176 1.3 1.81 1.855.856 2.074.525 4.318.523 6.325-.243a.386.386 0 0 0 .061-.03 24.997 24.997 0 0 0 6.51 5.384c.475.274.96.521 1.454.748a8.507 8.507 0 0 0-1.587.483l-.007-.002-.05.023c-.024.01-.049.017-.073.027l.01.003c-1.188.515-2.323 1.239-3.404 1.953-.02 0-.039-.002-.06 0-1.11.095-2.177-.14-3.224-.462a.366.366 0 0 0-.023-.145c-.459-1.251-.901-4.201-2.008-4.786.218-1.155-1.356-1.72-2.03-.644-.317.506.374 2.121 1.806 1.21.98 1.007 1.102 2.77 1.49 4.117l-.8-.27a18.512 18.512 0 0 1-3.945-1.836c.095-1.083-1.619-1.555-2.002-.386-.362 1.1 1.089 1.726 1.733 1.023 1.369.84 2.844 1.461 4.369 1.972 1.22.409 2.414.795 3.671.881-.15.097-.298.193-.446.286-1.704 1.071-3.44 2.178-5.28 3.008a.323.323 0 0 0-.162-.106c-1.177-.36-2.17-1.117-3.346-1.49a7.397 7.397 0 0 0-2.41-.36c-.214-.854-1.632-1.131-1.977-.08-.398 1.212 1.4 1.843 1.898.759 1.027-.04 2.004.207 2.966.569.764.286 1.426.75 2.17 1.07-.975.382-1.982.677-3.033.84-.454-.547-1.504-.604-1.794.28-.413 1.257 1.54 1.895 1.952.639.03-.09.044-.175.05-.258 2.834-.453 5.375-1.848 7.8-3.34-.99 1.723-1.877 3.502-3.21 5.002-1.19 1.34-3.148 3.033-4.98 3.452-.337-.725-1.598-.905-1.921.078-.413 1.256 1.54 1.895 1.952.638.003-.008.003-.017.005-.025 1.823-.36 3.561-1.884 4.874-3.098.073-.067.142-.138.213-.208.247 1.779.397 3.586-.044 5.329-.426-.045-.868.145-1.04.671-.413 1.257 1.539 1.896 1.951.64.145-.443-.005-.805-.275-1.039.525-1.976.325-4.04.033-6.054a.322.322 0 0 0-.06-.15c1.478-1.704 2.415-3.82 3.59-5.73a.334.334 0 0 0 .052-.21c1.148-.714 2.298-1.422 3.447-2.133.8-.495 1.625-.958 2.498-1.265l.004.002a5.805 5.805 0 0 1 2.018-.314c2.685.992 5.565 1.388 8.446 1.397.909.002 1.805.004 2.698.026a8.68 8.68 0 0 0-2.085 1.755c-.174.198-.81.971-.983 1.151-1.065-.605-2-1.158-3.197-1.344-.013-.002-.024-.005-.036-.005-.102-.015-.202-.033-.307-.042-.85-.077-1.72-.133-2.541.07-.422-.61-1.544-.706-1.845.212-.413 1.257 1.539 1.895 1.952.639a1.12 1.12 0 0 0 .044-.202c.74-.225 1.51-.223 2.27-.078-.164.866-.529 1.748-1.188 2.338-.51-.361-1.342-.305-1.595.465-.413 1.257 1.54 1.895 1.952.639a.989.989 0 0 0 .028-.546c.803-.696 1.254-1.691 1.463-2.735.89.26 1.749.675 2.51 1.097a38.429 38.429 0 0 1-1.958 1.845c-.849.745-1.756 1.522-2.73 2.182-1.017-.042-2.007-.402-2.983-.664-.992-.267-1.98-.299-2.995-.239-.375-.678-1.58-.822-1.895.135-.413 1.256 1.54 1.895 1.952.639.01-.033.014-.064.021-.096 1.11-.05 2.14.05 3.231.355.573.16 1.152.335 1.74.447-1.073.602-2.223 1.016-3.464 1.065-.414-.621-1.551-.726-1.855.2-.413 1.256 1.54 1.894 1.952.638.018-.055.026-.107.035-.16 1.644-.094 3.129-.772 4.49-1.67a23.946 23.946 0 0 0 2-1.501c.208-.172.411-.349.616-.524-.65 1.425-1.028 3.025-1.326 4.473-.024.117-.045.234-.067.35a.301.301 0 0 0-.268-.045c-2 .518-3.492 1.94-4.759 3.503-.513-.32-1.294-.243-1.538.5-.413 1.257 1.54 1.895 1.952.64a.981.981 0 0 0 .018-.59c1.18-1.483 2.582-2.895 4.471-3.385l.016-.006c-.193 1.19-.3 2.394-.354 3.598-.054 1.223-.223 2.423.012 3.616a.983.983 0 0 0-.343.493c-.413 1.256 1.54 1.895 1.952.638.244-.742-.34-1.266-.942-1.312-.189-1.011-.093-2.04-.016-3.074.06-.81.116-1.613.194-2.416 1.112 1.177 2.248 2.66 2.533 4.256a.973.973 0 0 0-.384.523c-.412 1.256 1.54 1.895 1.953.638.239-.728-.317-1.245-.906-1.31-.366-1.913-1.768-3.651-3.091-4.982l-.006-.005c.029-.23.057-.461.093-.692.366-2.327 1.055-5.355 2.692-7.131.01-.011.017-.023.025-.034.293-.288.583-.58.868-.877l.141-.149c-.059 1.863-.27 3.743-.008 5.59a.999.999 0 0 0-.287.444c-.413 1.256 1.539 1.895 1.952.638.253-.77-.383-1.305-1.008-1.317-.26-1.996.002-6.134.002-6.134 1.84-1.96 3.18-2.448 3.184-2.453a27.92 27.92 0 0 1 2.205.206c2.322.318 4.612.855 6.904 1.336.427.09.645-.56.213-.65-3.973-.833-7.945-1.767-12.032-1.685-.755.014-1.504.008-2.247-.02a.357.357 0 0 0-.065-.141c-1.333-1.768-1.848-3.829-2.133-5.948a.366.366 0 0 0 .086-.03c1.026-.526 1.635-1.604 2.134-2.633a.378.378 0 0 0 .057-.015c1.306-.483 2.16-1.879 2.812-3.025.585-1.026 1.108-2.165 1.374-3.333.322-.054.615-.26.748-.664.412-1.257-1.54-1.895-1.952-.639-.187.568.111 1.007.53 1.205-.25 1.069-.755 2.107-1.27 3.053-.45.826-1.032 1.796-1.83 2.391.658-1.54.994-3.101 1.116-4.771.18-.11.33-.283.414-.54.412-1.256-1.54-1.895-1.952-.639-.231.704.279 1.213.845 1.305-.126 1.554-.44 3.024-1.084 4.474-.475 1.068-1.056 2.509-2.116 3.143-.103-.91-.177-1.826-.265-2.73-.062-.636-.126-1.272-.193-1.907.006-.014.014-.028.019-.045.98-3.076 1.382-6.417.689-9.59a.936.936 0 0 0 .583-.62c.413-1.257-1.54-1.896-1.952-.64-.207.63.18 1.104.67 1.263.59 2.593.415 5.295-.219 7.873a40.034 40.034 0 0 0-.257-1.691c-.252-1.422-.439-2.885-1.124-4.17.02-.04.04-.079.056-.125.412-1.256-1.54-1.894-1.953-.638-.305.929.683 1.518 1.385 1.254.692 1.415.853 3.094 1.103 4.626.28 1.706.433 3.439.578 5.163-2.202-1.408-4.793-3.928-4.76-6.702.314-.06.596-.267.726-.662.413-1.257-1.539-1.895-1.952-.64-.188.574.117 1.016.543 1.21-.066 1.793.87 3.497 2.143 4.91-1.366-.47-2.795-.782-3.991-1.626-.202-.865-1.633-1.152-1.98-.095-.389 1.183 1.316 1.817 1.862.84 1.582.994 3.492 1.178 5.143 2.039a.355.355 0 0 0 .199.04 14.981 14.981 0 0 0 1.962 1.426.34.34 0 0 0 .174.05c.11 1.265.255 2.528.528 3.75-2.347-.195-4.112-1.78-5.93-3.14-.004-1.017-1.63-1.431-2.002-.296-.369 1.122 1.147 1.747 1.77.973 1.931 1.449 3.803 3.045 6.334 3.164h.001c.334 1.233.822 2.413 1.567 3.5-3.189-.208-6.25-.907-9.15-2.503a21.83 21.83 0 0 1-3.725-2.605.362.362 0 0 0-.053-.108c-.83-1.154-1.26-2.517-1.473-3.927.002-.012.006-.022.007-.034.338-3.172 2.511-5.796 3.515-8.769.2-.592.382-1.19.543-1.793.012-.009.023-.017.035-.028 1.673-1.658 3.279-3.962 3.277-6.405.38-.008.747-.212.9-.68.413-1.256-1.539-1.895-1.951-.639-.161.49.04.884.366 1.11.11 1.935-1.02 3.843-2.31 5.317.391-1.854.56-3.745.401-5.647a.958.958 0 0 0 .425-.546c.412-1.256-1.54-1.895-1.952-.639-.233.708.284 1.219.854 1.307.26 3.149-.465 6.223-1.5 9.19-.74 2.126-2.053 3.978-2.79 6.07a29.907 29.907 0 0 1 .003-1.505c.027-1.025.138-2.05.262-3.073a.29.29 0 0 0 .021-.173c.062-.5.125-.998.182-1.495.182-1.577.21-3.257.816-4.743.42.036.851-.156 1.021-.674.413-1.256-1.54-1.894-1.952-.638-.15.458.015.831.304 1.063-.466 1.177-.605 2.432-.737 3.699-.061.59-.132 1.181-.204 1.772-.47-.753-.972-1.487-1.349-2.294-.546-1.168-.67-2.604-.638-3.906a.942.942 0 0 0 .554-.612c.412-1.256-1.54-1.895-1.952-.638-.213.648.205 1.13.715 1.273a12.38 12.38 0 0 0 .566 3.819c.392 1.265 1.333 2.326 1.97 3.476a39.81 39.81 0 0 0-.263 3.112c-.077 2.083.059 4.333.845 6.302a24.623 24.623 0 0 1-3.224-4.136 20.738 20.738 0 0 1-.506-.867.283.283 0 0 0-.047-.084c-.28-.51-.546-1.032-.805-1.559-.027-3.079-.177-6.679-2.15-9.197.105-.104.192-.237.249-.41.413-1.256-1.54-1.894-1.952-.638-.258.787.41 1.33 1.047 1.32 1.67 2.003 2.015 4.848 2.096 7.467-.814-1.67-1.669-3.316-2.888-4.7.372-1.236-1.549-1.855-1.958-.609-.33 1.003.845 1.608 1.544 1.176.591.698 1.079 1.459 1.519 2.251-1.184.004-2.396-.312-3.514-.833a.344.344 0 0 0-.008-.128c-.408-1.653-1.544-2.759-2.578-4.018.036-.063.067-.133.093-.21.413-1.256-1.54-1.895-1.952-.638"/></g></g></svg>