<svg xmlns="http://www.w3.org/2000/svg" width="44" height="44" viewBox="0 0 44 44"><g><g clip-path="url(#clip-2F5DC0F6-B66C-4B81-B38B-2F66390BB3CF)"><path d="M32.26.942l.752-.234 1.706-.523 1.36-.418 1.717-.529s.018-.144-.242-.104c-.329.05-1.24.253-1.497.31-.47.103-.976.233-1.45.323a86.621 86.621 0 0 0-2.539.535c-.087-1.001-.436-2.048-.87-3.01a17.924 17.924 0 0 0-.552-1.105 22.73 22.73 0 0 0-.959-1.588c-.055-.08-.105-.157-.153-.229-.37-.529-.621-.85-.621-.85s.048.381.178.995c.089.403.21.911.38 1.48.386 1.338 1.027 3.002 2.028 4.437-.16.038-.323.074-.482.112-.144.034-.283.07-.424.101l-.4.102c-.23.053-.457.112-.685.171a7.755 7.755 0 0 0-.646-1.342 11.083 11.083 0 0 0-1.008-1.417c-.227-.275-.464-.54-.709-.797a22.168 22.168 0 0 0-2.166-1.971c-.494-.39-.965-.74-1.393-1.04-.15-.11-.3-.21-.436-.305a26.229 26.229 0 0 0-1.4-.886l.033.06c.073.128.26.451.556.909.827 1.278 2.489 3.584 4.746 5.448.18.143.356.285.538.424.324.246.653.478.998.698.17.109.34.217.514.317-.21.052-.421.108-.633.164-.185.052-.372.098-.558.15l-.235.066c-.727.2-1.452.404-2.175.615-.571-1.01-1.388-1.945-2.327-2.79-.851-.762-1.81-1.458-2.777-2.077a30.393 30.393 0 0 0-1.866-1.087 33.444 33.444 0 0 0-2.16-1.071c-.275-.129-.541-.243-.787-.349a31.109 31.109 0 0 0-2.033-.804s.379.462 1.06 1.171c.618.641 1.482 1.489 2.54 2.39.584.5 1.23 1.016 1.929 1.525 1.157.843 2.448 1.662 3.842 2.343a22.084 22.084 0 0 0 .974.444c.38.159.76.307 1.152.44-.327.097-.657.199-.981.297l-.187.057c-.394.124-.788.249-1.184.377-.543.172-1.084.35-1.626.533-.477-.657-1.068-1.256-1.738-1.808-.117-.096-.234-.192-.356-.285-1.276-.98-2.776-1.782-4.25-2.427l-.18-.077c-.212-.091-.424-.183-.636-.264-3.063-1.241-5.793-1.788-5.793-1.788s3.615 3.386 8.474 5.476c1.29.556 2.665 1.02 4.087 1.303-1.166.395-2.33.807-3.486 1.232-.954-.948-2.2-1.687-3.561-2.272C9.095.534 3.29.368 3.29.368s1.8 1.185 4.506 2.35c2.473 1.063 5.708 2.11 9.013 2.205-.471.177-.942.355-1.41.538-.728.28-1.454.566-2.176.859a8.369 8.369 0 0 0-.873-.437C7.916 3.975.762 4.774.762 4.774s5.884 2.3 11.64 1.882c-1.083.451-2.162.92-3.23 1.418-4.98-1.307-10.792.09-10.792.09s5.593 1.439 9.618.515c-5.143 2.572-9.142 7.39-9.142 7.39s7.53-3.234 10.288-7.54c1.298-.45 3.067-1.224 4.21-1.585C7.68 10.919 3.85 17.878 3.85 17.878S11.926 12.3 13.862 6.782c.591-.192 1.184-.377 1.775-.57l1.447-.461c-4.685 5.187-6.413 12.928-6.413 12.928s6.639-7.17 6.958-13.104l3.387-1.082c-3.66 6.094-3.725 14.237-3.725 14.237s5.05-8.502 4.052-14.345l1.667-.535 2.119-.67c-2.605 6.372-1.764 13.946-1.764 13.946s3.778-8.491 2.483-14.173l2.131-.675.252-.08 1.057-.335c-2.156 4.917-1.486 10.963-1.486 10.963s3.002-6.747 1.818-11.068l.766-.244.977-.299.034-.01.473-.147c-.463 3.77 1.108 7.664 1.108 7.664s.459-3.016-.037-5.682c-.139-.754-.356-1.476-.68-2.098"/></g><g clip-path="url(#clip-90673464-7717-497A-A4DA-DB452436B4F7)"><path d="M44.87 11.62l.114-.778.264-1.762.209-1.404.264-1.774s-.122-.08-.198.173c-.096.317-.308 1.225-.368 1.48-.109.468-.21.98-.333 1.445a85.505 85.505 0 0 0-.394 1.578c-.075.313-.15.625-.22.939-.942-.354-2.039-.492-3.096-.517-.423-.008-.837 0-1.236.02-.692.034-1.331.109-1.85.177-.095.015-.187.027-.272.04-.638.103-1.037.191-1.037.191s.365.121.976.269c.402.094.914.204 1.502.298 1.376.23 3.157.372 4.885.09-.034.16-.072.323-.107.483-.03.144-.058.284-.091.425l-.08.403c-.052.23-.097.46-.142.691a7.788 7.788 0 0 0-1.492.002c-.566.048-1.142.154-1.716.296-.347.085-.688.184-1.026.293-.958.309-1.885.702-2.717 1.099-.566.276-1.085.549-1.542.804-.164.088-.319.18-.464.262-.447.26-.804.484-1.05.643-.004.003-.01.009-.017.008a9.58 9.58 0 0 0-.338.226l.069-.004c.147-.01.52-.039 1.061-.108 1.512-.193 4.315-.692 6.974-1.92.207-.1.41-.197.615-.3.362-.185.714-.381 1.062-.597.171-.106.343-.212.509-.326-.044.211-.085.426-.126.64-.033.19-.072.379-.105.568l-.042.24c-.134.74-.262 1.482-.383 2.223-1.16.078-2.358.41-3.527.89-1.056.437-2.1 1-3.077 1.603-.627.391-1.225.8-1.788 1.21a33.461 33.461 0 0 0-1.9 1.481c-.236.193-.454.383-.656.558-.331.289-.619.545-.855.763-.477.446-.749.72-.749.72s.58-.141 1.516-.449c.846-.279 1.985-.69 3.257-1.253.704-.31 1.45-.669 2.21-1.078 1.262-.678 2.56-1.486 3.777-2.447.249-.198.498-.402.737-.61l.085-.074c.308-.275.606-.553.896-.848-.054.337-.105.678-.155 1.012l-.03.193c-.058.408-.116.817-.17 1.229a96.962 96.962 0 0 0-.221 1.693c-.8.146-1.596.42-2.385.784-.137.064-.274.127-.411.197-1.437.726-2.81 1.73-4.029 2.778l-.147.128c-.174.152-.348.303-.513.459-2.445 2.22-4.118 4.442-4.118 4.442s4.62-1.792 8.609-5.263c1.059-.921 2.072-1.958 2.942-3.116a139.28 139.28 0 0 0-.392 3.67c-1.268.45-2.474 1.252-3.592 2.224-3.749 3.263-6.406 8.416-6.406 8.416s1.848-1.108 4.069-3.04c2.03-1.767 4.374-4.227 5.886-7.161-.043.5-.086 1.001-.123 1.502-.06.776-.116 1.552-.164 2.33-.264.18-.522.38-.771.597-3.64 3.167-6.007 9.951-6.007 9.951s4.62-4.304 6.728-9.665a84.767 84.767 0 0 0-.114 3.52c-3.331 3.918-4.579 9.753-4.579 9.753s3.716-4.413 4.619-8.435c.103 5.74 2.73 11.42 2.73 11.42s.33-8.175-2.37-12.516c.154-1.363.218-3.29.385-4.474 1.142 6.824 5.778 13.276 5.778 13.276s-1.554-9.678-5.704-13.804c.082-.614.17-1.228.252-1.843l.207-1.503c2.664 6.458 8.914 11.357 8.914 11.357s-3.612-9.072-8.838-11.923l.485-3.516c3.927 5.926 11.258 9.502 11.258 9.502s-5.502-8.218-11.213-9.843l.236-1.73.31-2.197c4.633 5.095 11.84 7.61 11.84 7.61s-6.041-7.068-11.735-8.357l.31-2.21.037-.26.153-1.096c3.513 4.063 9.266 6.072 9.266 6.072s-4.8-5.616-9.218-6.417l.111-.794.152-1.01.005-.035.072-.488c3.207 2.045 7.405 2.313 7.405 2.313s-2.527-1.716-5.151-2.422c-.742-.2-1.488-.316-2.19-.293"/></g><g clip-path="url(#clip-805EBBE3-DC19-4AA5-85CE-4FCDDE359787)"><path d="M-2.808 44.29l-.668.417-1.517.937-1.21.748-1.527.945s.019.144.26.04c.305-.132 1.137-.558 1.37-.677.428-.22.886-.473 1.32-.68a85.673 85.673 0 0 0 2.322-1.158c.338.946.94 1.87 1.605 2.692.267.328.541.638.814.929.473.505.943.944 1.33 1.295.074.062.142.125.207.182.491.418.816.665.816.665s-.143-.356-.425-.917a20.697 20.697 0 0 0-.742-1.337c-.714-1.196-1.756-2.644-3.088-3.779l.439-.23c.13-.07.255-.14.384-.205l.36-.2c.21-.11.414-.224.62-.339.274.4.602.78.965 1.136.403.4.856.77 1.335 1.116.29.209.586.405.887.592.856.53 1.755.982 2.596 1.36.577.252 1.121.471 1.612.654.173.069.343.128.5.185.486.173.89.3 1.17.385.004 0 .013.002.017.007.25.076.391.111.391.111l-.047-.05a18.985 18.985 0 0 0-.769-.738c-1.124-1.027-3.317-2.84-5.973-4.072-.21-.093-.417-.186-.628-.274a14.682 14.682 0 0 0-1.142-.423c-.192-.062-.385-.125-.578-.178.19-.103.38-.21.57-.318.166-.097.336-.189.502-.286l.212-.123c.653-.377 1.302-.758 1.947-1.145.81.834 1.837 1.532 2.96 2.112 1.016.522 2.12.953 3.213 1.308a30.43 30.43 0 0 0 2.08.58c.84.208 1.646.368 2.361.49a40.654 40.654 0 0 0 1.986.297c.65.076 1.035.106 1.035.106s-.483-.35-1.323-.865a35.722 35.722 0 0 0-3.062-1.67 31.416 31.416 0 0 0-2.254-.988c-1.333-.523-2.79-.99-4.31-1.296-.313-.061-.63-.12-.943-.167l-.112-.017a18.145 18.145 0 0 0-1.227-.135c.293-.176.586-.358.874-.535l.167-.102c.35-.22.7-.44 1.05-.664.481-.304.959-.612 1.437-.926.629.515 1.352.945 2.14 1.31.138.063.275.126.417.185 1.483.626 3.138 1.024 4.728 1.275l.192.03c.229.034.458.069.683.093 3.278.428 6.058.267 6.058.267s-4.356-2.362-9.587-3.157c-1.39-.212-2.837-.314-4.285-.228 1.029-.677 2.05-1.37 3.06-2.072 1.164.675 2.557 1.076 4.022 1.299 4.917.747 10.576-.558 10.576-.558s-2.041-.692-4.955-1.135c-2.662-.405-6.058-.601-9.28.143.412-.29.822-.582 1.23-.878a139.98 139.98 0 0 0 1.886-1.38c.308.085.628.153.956.202 4.773.726 11.491-1.854 11.491-1.854s-6.275-.738-11.738 1.12a85.18 85.18 0 0 0 2.766-2.188c5.148.006 10.417-2.813 10.417-2.813s-5.776.02-9.435 1.932c4.323-3.788 6.97-9.459 6.97-9.459s-6.466 5.03-8.041 9.892c-1.142.764-2.657 1.96-3.67 2.598 4.48-5.28 6.42-12.979 6.42-12.979s-6.398 7.436-6.872 13.264c-.523.334-1.05.664-1.572.999l-1.283.812c3.217-6.201 2.925-14.127 2.925-14.127s-4.604 8.613-3.408 14.435L7.17 38.016c1.995-6.82-.007-14.715-.007-14.715s-2.73 9.5-.283 14.901l-1.476.939-1.88 1.183c.904-6.822-1.83-13.937-1.83-13.937s-1.502 9.17 1.191 14.339l-1.89 1.19-.223.141-.938.592c.839-5.301-1.342-10.981-1.342-10.981S-2.702 38.953-.46 42.835l-.68.429-.869.536-.03.019-.42.261c-.509-3.764-3.016-7.135-3.016-7.135s.32 3.034 1.476 5.488c.326.695.72 1.339 1.191 1.858"/></g></g></svg>