<svg xmlns="http://www.w3.org/2000/svg" width="44" height="44" viewBox="0 0 44 44"><g><g><path d="M33.709 32.97c.02.447.071.894.055 1.338-.024.64-.073 1.283-.161 1.919-.028.199-.183.413-.339.557-.21.196-.547.512-.708.454-.304-.11-.565-.421-.761-.706-.153-.222-.182-.53-.31-.941-.15.266-.227.424-.323.57-.226.341-.43.705-.7 1.01-.39.44-1.014.44-1.188-.189-.178-.64-.235-.624-.913-.322-.402.177-.862.547-1.228.148-.327-.357.008-.814.204-1.19.192-.366.287-.623-.143-.944-.59-.44-.417-1.082.333-1.38.367-.146.767-.205 1.15-.313.172-.05.338-.124.623-.23-.238-.169-.37-.291-.526-.366-.231-.111-.51-.145-.712-.29-.245-.176-.619-.45-.597-.65.03-.29.31-.633.58-.812.639-.427 1.349-.45 2.07-.175.42.16.856.279 1.285.416l.09-.16c-.16-.154-.356-.286-.47-.47-.126-.204-.308-.52-.23-.671.098-.192.434-.371.664-.37.458.001.916.122 1.37.209.372.072.615-.04.803-.388a.84.84 0 0 1 .503-.367c.876-.192 1.637-.505 2.046-1.395.068-.145.45-.3.578-.237.334.165.136.444-.031.638-.589.68-.995 1.394-.742 2.343.04.15-.157.448-.323.557-.398.26-.517.508-.343.982.172.467.23.988.256 1.49.008.174-.203.476-.365.52-.221.058-.515-.032-.735-.142-.217-.108-.381-.32-.569-.486l-.193.044"/></g><g clip-path="url(#clip-046FF23C-FCD4-4EC6-A1B7-91BEC43B3A7D)"><path d="M1.26 18.844c-.426-.138-.863-.248-1.274-.42a19.355 19.355 0 0 1-1.742-.828c-.177-.096-.323-.316-.404-.513-.109-.266-.286-.691-.175-.82.211-.246.594-.38.93-.463.263-.065.562.017.992.043-.196-.234-.317-.362-.42-.503-.24-.332-.51-.65-.7-1.01-.275-.52-.055-1.102.596-1.043.663.06.668.001.625-.739-.025-.438-.21-.998.293-1.198.451-.18.761.294 1.044.609.276.309.483.488.936.2.62-.396 1.162-.008 1.177.798.007.394-.08.789-.113 1.184-.015.178-.004.36-.004.663.242-.163.403-.243.529-.362.185-.177.316-.425.522-.562.252-.167.64-.42.82-.329.262.132.485.514.557.828.175.748-.053 1.42-.566 1.996-.298.334-.563.7-.843 1.052l.118.14c.201-.094.394-.23.605-.271.237-.046.598-.105.712.02.145.16.195.537.112.752-.163.427-.437.812-.679 1.206-.198.322-.18.587.08.886a.837.837 0 0 1 .167.6c-.129.885-.104 1.705.586 2.402.112.114.123.527.019.624-.273.253-.465-.03-.587-.255-.431-.79-.957-1.421-1.936-1.52-.155-.015-.365-.304-.408-.498-.103-.462-.294-.662-.8-.666-.498-.005-1.007-.133-1.486-.287-.167-.054-.376-.357-.36-.524.024-.227.212-.47.392-.637.178-.164.435-.243.657-.359.01-.065.018-.13.027-.196"/></g><g><path d="M32.59 9.094c-.426-.138-.863-.248-1.274-.42a19.32 19.32 0 0 1-1.742-.828c-.177-.096-.323-.316-.403-.513-.11-.266-.287-.691-.176-.82.211-.246.594-.38.93-.463.263-.065.562.017.992.043-.196-.234-.317-.362-.42-.503-.24-.332-.51-.65-.7-1.01-.275-.52-.055-1.102.596-1.043.662.06.668.001.625-.739-.025-.438-.21-.998.293-1.199.451-.18.761.295 1.044.61.276.309.483.488.936.2.62-.396 1.162-.008 1.177.798.007.394-.08.789-.113 1.184-.015.178-.004.36-.005.663.243-.163.404-.243.53-.362.185-.177.316-.425.523-.562.25-.167.64-.42.82-.329.261.132.484.514.556.828.175.748-.053 1.42-.566 1.996-.298.334-.563.7-.843 1.052l.118.14c.201-.094.394-.23.605-.271.237-.046.598-.105.712.02.145.16.195.537.112.752-.162.427-.437.812-.679 1.206-.198.322-.18.587.08.887a.837.837 0 0 1 .167.598c-.129.886-.104 1.706.586 2.403.112.114.123.527.019.624-.273.253-.465-.031-.587-.255-.431-.79-.957-1.421-1.936-1.52-.155-.015-.365-.304-.408-.498-.103-.462-.294-.662-.8-.666-.498-.005-1.007-.133-1.486-.287-.167-.054-.376-.357-.36-.524.024-.227.212-.47.392-.637.178-.164.435-.243.657-.359l.028-.196"/></g><g clip-path="url(#clip-8780BAC8-DD16-4430-AC34-45352CBF1581)"><path d="M43.158 42.07c.447-.026.894-.082 1.34-.071.642.016 1.286.057 1.924.137.2.025.416.177.563.331.199.208.519.54.463.701-.107.305-.415.57-.698.769-.22.155-.53.188-.94.32.269.147.428.222.575.316.346.222.713.42 1.021.686.446.384.453 1.006-.174 1.188-.639.186-.623.242-.312.915.182.399.559.854.163 1.223-.354.332-.816.003-1.194-.188-.37-.187-.628-.28-.944.154-.434.594-1.08.43-1.388-.316-.15-.364-.214-.763-.327-1.143-.051-.172-.128-.337-.238-.62-.166.24-.287.374-.36.53-.109.232-.14.51-.282.714-.173.246-.443.623-.644.604-.292-.027-.638-.303-.82-.569-.436-.632-.469-1.34-.202-2.064.156-.42.27-.857.402-1.287l-.161-.087c-.153.16-.283.357-.465.473-.204.129-.519.314-.67.239-.194-.096-.378-.429-.38-.659-.003-.457.112-.916.193-1.37.068-.372-.047-.612-.399-.796a.84.84 0 0 1-.373-.498c-.203-.871-.525-1.626-1.422-2.025-.146-.065-.307-.445-.245-.573.161-.335.444-.14.64.024.689.578 1.409.975 2.356.71.15-.04.451.152.562.317.265.393.515.51.988.33.466-.177.987-.243 1.49-.274.175-.01.48.197.525.358.061.22-.025.514-.132.735-.106.218-.316.385-.48.574l.045.192"/></g><g><path d="M21.912 20.748c-.241.376-.459.77-.73 1.123-.39.508-.803 1.004-1.244 1.471-.137.146-.388.232-.599.26-.285.038-.743.1-.84-.04-.184-.265-.217-.669-.212-1.014.004-.27.159-.539.293-.947-.277.13-.431.214-.594.278-.383.148-.76.327-1.157.42-.573.134-1.082-.227-.86-.84.226-.625.171-.645-.557-.79-.43-.088-1.02-.051-1.087-.588-.06-.48.478-.66.855-.853.37-.188.596-.343.431-.853-.226-.7.287-1.123 1.072-.933.384.093.744.276 1.119.408.17.06.348.095.642.173-.097-.275-.133-.451-.217-.603-.124-.224-.332-.412-.412-.647-.098-.285-.244-.724-.111-.875.194-.22.621-.337.944-.328.769.022 1.362.412 1.79 1.053.25.373.537.722.807 1.081l.165-.078c-.04-.218-.123-.439-.11-.653.016-.241.05-.604.201-.682.192-.1.57-.052.757.082.373.265.677.628.996.961.262.274.525.323.88.147a.841.841 0 0 1 .623-.008c.826.349 1.627.533 2.477.044.14-.08.542.014.61.14.176.327-.148.44-.396.502-.875.215-1.62.562-1.963 1.483-.055.145-.388.275-.587.267-.474-.018-.716.116-.849.603-.13.48-.384.94-.655 1.363-.094.148-.441.272-.599.214-.214-.08-.401-.324-.517-.54-.115-.214-.126-.48-.182-.725l-.184-.076"/></g><g clip-path="url(#clip-C5F4B22E-EBBE-4285-B5D2-8BC5AB8064BE)"><path d="M21.984 47.75c-.436-.099-.881-.17-1.306-.305a19.36 19.36 0 0 1-1.808-.671c-.185-.08-.35-.287-.447-.475-.133-.256-.347-.664-.248-.803.189-.263.558-.43.886-.542.256-.088.561-.033.992-.045-.216-.216-.348-.332-.463-.464-.269-.31-.565-.603-.787-.945-.32-.493-.152-1.092.502-1.09.665 0 .665-.058.557-.792-.064-.434-.297-.975.186-1.22.433-.218.784.227 1.093.516.303.283.525.444.95.116.584-.448 1.157-.11 1.243.692.042.392-.009.792-.007 1.189.001.18.028.359.054.661.227-.184.38-.278.495-.407.17-.192.277-.451.471-.606.235-.189.6-.474.788-.4.272.108.527.47.628.776.24.73.072 1.418-.388 2.037-.268.36-.499.748-.747 1.123l.13.13c.192-.112.372-.265.58-.325.231-.066.585-.156.71-.042.159.147.241.518.178.739-.124.44-.364.848-.57 1.261-.169.338-.126.601.159.876.136.132.23.39.218.582-.05.894.048 1.709.796 2.342.122.104.17.513.075.62-.25.276-.466.01-.608-.203-.499-.748-1.078-1.331-2.062-1.342-.156-.003-.39-.272-.45-.46-.144-.453-.352-.635-.856-.595-.497.04-1.016-.043-1.506-.154-.172-.039-.406-.323-.404-.49.003-.23.169-.487.334-.67.162-.179.41-.28.622-.415l.01-.198"/></g><g clip-path="url(#clip-58E94E4B-DEEC-482B-9CBF-93942EE66975)"><path d="M47.123 20.656c.023.446.076.892.062 1.337-.02.64-.066 1.284-.151 1.92-.027.199-.18.414-.335.56-.21.196-.545.513-.706.456-.305-.109-.567-.418-.765-.701-.155-.222-.185-.53-.315-.94-.149.267-.225.425-.32.571-.225.343-.427.708-.695 1.014-.388.443-1.011.445-1.19-.182-.18-.639-.237-.624-.914-.318-.4.18-.858.552-1.226.155-.33-.356.003-.815.197-1.19.19-.369.284-.626-.148-.944-.592-.438-.423-1.08.326-1.383.366-.147.766-.208 1.148-.318.172-.05.338-.126.622-.233-.24-.168-.372-.29-.528-.364-.232-.11-.51-.143-.713-.286-.246-.174-.621-.447-.601-.647.03-.29.308-.635.576-.815.637-.43 1.347-.458 2.07-.186.42.159.856.274 1.286.41l.089-.16c-.16-.154-.357-.285-.471-.468-.128-.204-.312-.52-.235-.67.098-.193.432-.374.663-.374.458 0 .916.117 1.371.202.372.07.614-.043.8-.393a.84.84 0 0 1 .502-.368c.875-.197 1.633-.514 2.039-1.406.066-.145.448-.304.576-.24.335.162.138.443-.028.637-.585.684-.988 1.4-.73 2.348.041.15-.154.449-.32.558-.396.261-.514.51-.337.984.174.466.236.987.263 1.488.01.175-.2.478-.362.522-.22.06-.515-.029-.736-.137-.217-.107-.382-.318-.57-.483l-.194.044"/></g><g clip-path="url(#clip-69F84527-91AA-4C1C-A8E8-6E8FD284735F)"><path d="M15.982 1.294c.263.362.55.708.78 1.089.332.549.643 1.114.918 1.694.086.181.074.445.023.65-.07.28-.178.728-.344.767-.315.074-.704-.043-1.024-.174-.25-.103-.444-.345-.776-.619.02.305.042.48.042.654-.002.41.027.825-.032 1.228-.085.581-.607.922-1.098.49-.5-.437-.538-.394-.94.23-.24.368-.421.929-.946.795-.47-.12-.44-.686-.482-1.107-.04-.412-.102-.678-.638-.712-.735-.046-.943-.678-.479-1.337.228-.323.53-.59.79-.89.118-.136.217-.289.397-.533-.292-.011-.47-.042-.642-.02-.254.034-.506.158-.754.147-.301-.013-.765-.039-.856-.217-.134-.26-.088-.7.04-.997.3-.706.881-1.114 1.636-1.278.439-.094.869-.234 1.303-.353l-.013-.183c-.218-.042-.454-.046-.649-.137-.219-.102-.545-.267-.562-.436-.023-.215.16-.548.353-.673.384-.249.833-.398 1.261-.573.35-.144.492-.37.46-.764a.837.837 0 0 1 .219-.581c.628-.64 1.092-1.317.947-2.285-.023-.159.212-.498.353-.515.37-.044.357.298.324.551-.119.891-.068 1.71.665 2.366.116.104.114.461.035.643-.19.434-.154.708.252 1.009.4.297.735.7 1.03 1.107.104.141.093.51-.02.634-.153.17-.447.255-.692.284-.24.028-.494-.06-.742-.096l-.139.142"/></g><g><path d="M7.172 35.942c-.033-.446-.095-.89-.09-1.336.006-.64.038-1.284.109-1.922.022-.2.171-.418.323-.567.206-.2.534-.525.696-.472.307.102.576.406.78.685.159.219.196.526.335.933.143-.27.216-.43.308-.578.217-.348.41-.717.672-1.029.378-.45 1.002-.467 1.193.157.195.635.251.618.921.298.397-.188.847-.57 1.223-.181.337.348.015.814-.171 1.194-.182.372-.27.631.168.94.602.425.446 1.071-.296 1.39-.363.155-.761.224-1.14.343-.172.054-.336.132-.618.246.243.163.378.282.536.352.234.105.514.132.72.271.249.17.63.433.614.634-.023.291-.294.641-.558.827-.627.444-1.337.487-2.065.23-.423-.149-.863-.255-1.295-.381l-.086.162c.164.15.363.277.481.457.133.201.323.513.25.665-.094.195-.425.383-.655.388-.458.01-.919-.097-1.375-.172-.374-.062-.613.056-.793.41a.84.84 0 0 1-.492.379c-.87.215-1.622.548-2.008 1.449-.064.147-.442.313-.571.253-.338-.156-.148-.44.014-.638.57-.697.957-1.421.678-2.363-.044-.15.145-.452.309-.565.39-.27.503-.522.316-.991-.184-.462-.257-.981-.296-1.482-.013-.175.19-.482.35-.53.22-.064.516.018.74.122.22.102.389.309.58.47l.193-.048"/></g></g></svg>