<svg xmlns="http://www.w3.org/2000/svg" width="44" height="44" viewBox="0 0 44 44"><g><g clip-path="url(#clip-390B928F-659B-440C-9EAD-E31423300648)"><path d="M40.275 39.962c-.329.834-.485 1.734-.947 2.519-.363.616-.54 1.33-1.043 1.88-.494.541-1.017 1.03-1.68 1.428.4-.832.44-1.694.494-2.447-1.698 3.404-4.635 4.45-8.188 4.31.31-.152.624-.296.93-.456.167-.087.379-.215.33-.412-.052-.205-.287-.129-.46-.127-.638.004-1.275.004-1.913-.007-.781-.015-1.243-.7-1.91-.974-.352-.144-.612-.518-.913-.788l.055-.1c.475.177.944.373 1.426.527.774.247 1.55.266 2.306-.094.079-.038.182-.068.171-.178-.01-.11-.126-.108-.195-.107-1.11.016-1.973-.597-2.888-1.113-.521-.294-1.096-.522-1.775-.514.282-.607.66-1.065 1.195-1.414.853-.555 1.83-.612 2.775-.816.22-.047.46-.08.66-.313-.975-.08-1.892-.087-2.839.12.165-.237.374-.206.572-.24.194-.034.377-.131.565-.201.792-.295 1.593-.567 2.373-.892.611-.256 1.41-1.993 1.26-2.652-.016-.074-.011-.194-.12-.183-.041.004-.09.11-.107.176-.236.95-.804 1.575-1.646 2.063-.739.428-1.458.468-2.263.435-.583-.024-.986.468-1.336.93-.218.289-.46.558-.675.849-.41.559-.937.213-1.42.215-.018 0-.038-.011-.055-.007-.893.186-1.128-.524-1.332-1.125-.131-.389.19-.801.328-1.192.31-.88.986-1.567 1.292-2.452.192-.557.397-1.113.477-1.702.029-.21-.197-.308-.228-.49a4.246 4.246 0 0 1 .032-1.65c.56.275.916-.008 1.202-.422.35-.505.353-1.054.104-1.6-.146-.317-.41-.599-.477-.928-.112-.55.26-1.04.851-1.246-.175.357-.408.676-.328 1.082.022.115.02.271.178.274.149.003.143-.149.177-.256.128-.398.284-.771.833-.889-.174.262-.347.432-.397.674-.04.185-.058.365.002.548.045.14.132.238.278.25.143.013.178-.11.227-.216.094-.205.187-.415.493-.493-.244.299-.378.567-.1.86.309.325.851.084 1.102-.508.388-.917.749-1.85 1.48-2.556.153-.148.338-.263.516-.38.117-.079.21-.047.257.102.283.906-.192 1.497-.283 1.631l1.52-1.134c.37 1.277.085 2.393-.759 3.303 1.028.948 1.983.031 2.956.027 1.133-.005 2.268-.116 3.383.202a8.225 8.225 0 0 0-3.024.38c1.18.214 2.302.128 3.286.648.93.493 1.906.944 2.515 1.992-.436-.3-.795-.58-1.185-.808-.388-.227-.806-.4-1.252-.616.461.8 2.025.714 3.077 4.027zm-17.35.572c-.11-.27-.39-.42-.643-.542-.115-.055-.138.116-.133.216.014.3.158.487.48.522zm2.483-6.97c-.476.576-1 .885-1.7.283-.035.42.156.65.457.792.448.212.813.072 1.102-.32zm1.651 2.539c-.05.021-.097.044-.145.068zm-.145.068l-1.132.536c.433-.084.751-.342 1.132-.536zm.23.328c-.24.063-.562.049-.653.323-.051.155.188.236.39.244.239-.003.368-.164.407-.419zm.597 6.717c.005-.136-.082-.207-.21-.21-.122-.003-.168.087-.188.202.029.093.034.22.176.216zm.906-.292c.012-.24-.165-.356-.373-.374-.21-.019-.355.108-.366.326-.01.232.133.357.315.402zm7.366-5.613c-.124.037-.126.115-.105.222.05.255.096.511.139.768.017.103.02.21.164.21.109-.001.15-.058.168-.135.016-.062-.107-.686-.164-.937zm-.65-1.374l.458 1.084c.025.06.1.086.155.048.05-.035.076-.087.055-.165zm-.782 2.374c-.149.012-.27-.039-.295.165-.025.203-.02.41-.022.631 0 .082.074.144.153.126.377-.088.401-.389.334-.745zm-.357-1.708c0 .16.103.934.135 1.325.01.118.168.135.204.023zm-.092 3.82c.475.019.57-.294.568-.626-.001-.34-.36-.184-.442-.164-.29.075-.227.414-.304.643zm-.698 1.022c.06.175.482.283.773-.203.057-.096.173-.364-.042-.523-.222-.164-.382.076-.44.17zm-.535.553c-.107.142-.183.368-.06.495.123.13.304.085.516-.1.209-.179.328-.397.13-.588zm-.768-1.4c.141.08.264.113.37.004.135-.14.383-.437.19-.59-.395-.312-.437.079-.615.302zm.322-4.9c.086.05.187-.084.282-.204a.106.106 0 0 0-.025-.154c-.297-.2-.853-.379-1.103-.306zm.333 3.856c.117.059.207-.103.235-.179.14-.368.149-.76.22-1.3-.231.476-.252.678-.495 1.185zm.524-5.536c-.208-.02-.404-.039-.6-.05-.25-.016-.952-.119-.987.026-.032.126.088.172.178.212.333.149.685.192 1.046.237.273.035.376-.075.459-.257zm-1.777-.772c.58.015 1.137-.122 1.711-.072.099.009.154-.118.08-.185-.4-.363-1.341-.315-1.837.12zm-.32 8.167c.317.39.583.156.987-.282.075-.082.027-.207-.05-.287-.302-.32-.416-.135-.736.09zm-1.208 2.817c.007-.12-.073-.192-.184-.2-.109-.006-.201.042-.212.169-.01.136.08.172.214.178zm.166-2.108c-.116-.157-.715.073-1.129.556.29.046.677-.066.95-.155zm.54 1.744c.003-.188-.057-.358-.268-.364-.198-.006-.306.14-.314.332-.007.181.102.276.28.287zm.43-2.273c-.173-.26-.314-.112-.465-.03-.183.099-.456.22-.244.488.22.28.417.053.542-.04zm-.056 1.777a2.74 2.74 0 0 0 1.493-.404.124.124 0 0 0 .014-.2c-.107-.088-.169-.213-.294-.125zm.724 1.586c-.003-.117-.049-.204-.178-.2-.094.002-.156.055-.158.154-.003.126.073.185.189.206zm1.133-.626c-.06-.071-.324.032-.37.05-.292.117-.346.157-.483.246.228.168.639.117.86-.043zm.969-.36c-.159-.216-.241-.13-.536.026-.167.09-.212.195-.16.294.076.147.116.19.494.021zm1.026-.912c-.259-.297-.447.012-.672.168-.383.265-.313.495-.248.568.24.273.584-.105.818-.36zm.835-1.164l-.133-.065a.144.144 0 0 0-.187.058l-.374.632c-.062.106-.01.248.11.274.24.051.482-.183.676-.667zm.603-1.513c.005-.087-.03-.148-.182-.183-.262-.062-.231.168-.397.618-.043.116-.229.548-.019.637.197.083.355.056.416-.162zm.057-1.402c-.002-.1.017-.205-.121-.205-.123 0-.204.041-.21.2-.01.261-.042.521-.064.782-.008.106.03.179.14.181.096.002.221.054.246-.113zm-12.688-7.317c.48-.29.132-1.123.478-1.214.182-.05.243.142.317.27.247.433.091 1.227-.293 1.541-.238.195-.439.117-.605-.086zm-.83-1.079c.146-.224-.042-.56.278-.522.345.041.465.28.429.62-.036.265-.04.546-.36.659-.362.128-.433-.112-.628-.355zm-2.31 2.45c-.049-.156-.023-.67.244-.637.494.138.964.334 1.54.63.036.019.023.074-.017.074zm1.424 1.105c-.325.11-.652.217-.973.34-.18.069-.47-.48-.179-.527a12.042 12.042 0 0 1 1.149-.089c.105.006.172.005.18.105zm-.05-3.8c.191-.143.288-.266.29-.51-.01-.172.197-.149.316.029.158.283-.023.582-.238.757-.141.114-.25-.003-.373-.11zm-.771-.427a.13.13 0 0 1 .009-.178c.255-.24.192-.434.317-.452.178-.025.412.144.412.359 0 .084 0 .147-.046.217-.111.173-.187.229-.365.223zm1.094 4.842l-.632.745c-.053.063-.122.16-.195.096a1.08 1.08 0 0 1-.234-.328c-.043-.082.05-.12.11-.146.29-.133.58-.26.919-.41zm-1.714-5.344a.121.121 0 0 1-.012-.16.57.57 0 0 0 .099-.285.116.116 0 0 1 .17-.09c.139.075.266.136.286.323.018.174-.058.313-.214.369zm-.884-1.136c.026.017.03.118.006.152a.253.253 0 0 1-.16.103c-.181.018-.69-.497-.758-.786-.006-.024.021-.042.041-.029zm.651.758c-.226.13-.306-.011-.47-.122-.058-.039-.173-.138-.02-.234.158-.099.093-.34.35-.132z"/></g><g clip-path="url(#clip-6E9A61E7-17C3-4EB0-BA3D-67229A9ADE48)"><path d="M3.716 4.801c.55-.706.947-1.52 1.614-2.144.523-.49.891-1.123 1.533-1.514C7.494.758 8.14.43 8.898.223c-.619.687-.893 1.493-1.15 2.195C10.338-.372 13.5-.605 16.943.45c-.346.063-.692.119-1.036.191-.187.04-.429.106-.434.305-.006.208.246.197.416.24.626.161 1.25.326 1.871.503.762.216 1.028.986 1.608 1.419.304.227.457.65.679.983l-.082.081c-.417-.29-.823-.599-1.253-.87-.691-.434-1.445-.653-2.285-.507-.087.015-.196.017-.216.124-.02.108.094.135.162.152 1.091.272 1.771 1.077 2.527 1.804.43.414.931.78 1.6.947-.443.504-.937.84-1.557 1.032-.986.306-1.96.107-2.94.055-.229-.012-.473-.043-.733.127.933.328 1.83.572 2.815.62-.226.183-.423.1-.626.081-.2-.018-.406.027-.609.044-.856.075-1.715.125-2.567.232-.669.084-1.924 1.525-1.957 2.19-.004.074-.042.187.068.204.042.007.118-.08.153-.14.49-.839 1.216-1.286 2.174-1.53.84-.215 1.555-.066 2.335.174.565.174 1.094-.189 1.563-.537.292-.217.603-.41.891-.63.554-.425.977.04 1.45.164.018.005.035.02.053.02.926.055.962.79.998 1.413.023.402-.404.71-.645 1.046-.544.754-1.393 1.231-1.934 1.991-.34.478-.692.953-.93 1.492-.085.19.109.343.09.523a4.09 4.09 0 0 1-.481 1.557c-.473-.405-.899-.23-1.293.089-.48.388-.632.909-.536 1.49.055.34.238.676.214 1.005-.04.55-.538.92-1.173.962.269-.293.583-.535.616-.941.01-.116.055-.263-.1-.307-.145-.04-.18.105-.243.197-.234.345-.488.659-1.058.628.241-.203.457-.32.572-.536.089-.166.157-.332.148-.521-.007-.145-.065-.26-.204-.31-.137-.049-.205.06-.282.147-.148.17-.296.346-.617.34.32-.22.525-.44.332-.79-.214-.389-.811-.3-1.218.197-.63.769-1.237 1.56-2.146 2.041-.19.1-.402.162-.609.228-.136.043-.219-.01-.224-.164-.03-.933.596-1.371.722-1.475l-1.798.683c-.016-1.308.568-2.293 1.642-2.938-.748-1.165-1.934-.543-2.888-.79-1.112-.29-2.254-.478-3.26-1.068a8.604 8.604 0 0 0 3.066.422c-1.098-.509-2.22-.717-3.042-1.466-.778-.709-1.61-1.39-1.922-2.542.345.399.62.758.94 1.074.32.316.682.589 1.06.909-.234-.88-1.79-1.202-1.919-4.618zm17.155 3.954c.033.288.266.505.482.689.097.082.166-.076.189-.172.067-.293-.023-.51-.329-.628zm-4.33 5.976c.621-.422 1.217-.578 1.74.176.148-.39.023-.658-.234-.872-.381-.318-.776-.28-1.166.017zm-.928-2.844c.055-.008.108-.017.162-.027zm.162-.027l1.262-.207c-.451-.033-.834.125-1.262.207zm-.138-.371c.254.003.565.1.727-.133.092-.13-.121-.268-.317-.328-.234-.059-.404.058-.51.285zm1.247-6.533c-.043.131.022.223.146.259.119.034.19-.041.241-.148-.002-.097.028-.222-.112-.255zm-.97.044c-.076.222.065.376.265.446s.377-.011.446-.212c.074-.214-.033-.368-.199-.457zM7.17 8.42c.132-.003.155-.076.163-.183.02-.255.046-.51.074-.764.01-.103.036-.205-.104-.241-.107-.028-.162.015-.202.083-.032.055-.081.678-.094.931zm.262 1.463l-.146-1.136a.104.104 0 0 0-.136-.085c-.058.02-.098.063-.099.141zm1.414-2.04c.148.026.253.106.333-.08.08-.187.132-.385.193-.593a.124.124 0 0 0-.115-.16c-.393-.014-.499.265-.53.62zM8.73 9.556c.044-.15.151-.907.226-1.283.022-.114-.128-.172-.193-.075zm1.13-3.602c-.46-.138-.638.13-.727.442-.091.318.303.264.388.266.306.004.336-.33.473-.524zm.962-.785c-.01-.183-.395-.398-.812-.007-.083.077-.269.303-.101.513.172.216.395.027.477-.048zm.675-.38c.143-.109.28-.307.194-.461-.086-.157-.275-.16-.534-.04-.253.118-.429.296-.288.532zm.382 1.511c-.12-.116-.234-.18-.371-.101-.174.099-.507.323-.356.524.31.408.462.039.703-.131zm-1.656 4.573c-.072-.07-.21.031-.335.12a.102.102 0 0 0-.018.153c.239.267.74.58 1.007.576zm.717-3.736c-.099-.084-.231.045-.28.108-.236.311-.35.678-.567 1.169.356-.389.432-.574.806-.988zM8.92 12.245c.198.072.383.142.572.204.238.078.894.358.968.23.064-.112-.04-.186-.116-.247-.285-.228-.616-.36-.955-.497-.257-.103-.386-.026-.517.126zm1.541 1.187c-.567-.162-1.153-.176-1.705-.37-.095-.033-.183.072-.13.153.295.441 1.236.636 1.844.356zM13 5.772c-.203-.452-.528-.297-1.044.015-.096.058-.083.19-.03.285.208.38.37.234.745.103zm1.94-2.36c-.039.112.018.201.123.237.102.035.203.013.246-.104.047-.126-.03-.184-.156-.225zm-.737 1.957c.071.179.721.116 1.257-.235-.272-.119-.68-.112-.972-.099zm-.054-1.791c-.054.18-.042.36.163.422.193.058.338-.055.398-.238.057-.173-.025-.293-.195-.35zm-1.04 2.042c.099.29.277.188.447.15.206-.047.507-.091.372-.4-.14-.323-.394-.159-.542-.104zm.549-1.671a2.912 2.912 0 0 0-1.583-.004.12.12 0 0 0-.068.187c.081.11.108.245.256.194zm-.29-1.687c-.027.109-.006.2.121.231.093.022.168-.01.196-.102.036-.115-.022-.19-.13-.239zm-1.278.296c.04.081.325.054.374.049.318-.032.382-.055.54-.102-.179-.215-.595-.275-.854-.184zm-1.048.09c.097.246.2.186.532.113.188-.041.26-.13.237-.237-.035-.159-.062-.21-.478-.148zm-1.253.6c.173.346.44.104.703.016.446-.15.44-.384.397-.469-.163-.317-.601-.052-.9.127zm-1.127.89l.112.095a.148.148 0 0 0 .196-.007l.534-.504c.09-.084.077-.233-.03-.288-.22-.11-.518.05-.837.46zM7.65 5.413c-.029.081-.01.148.129.221.24.127.272-.1.557-.483.074-.1.373-.462.192-.6-.17-.13-.332-.145-.452.046zM7.205 6.73c-.027.094-.075.188.067.225.125.033.219.015.269-.132.082-.244.185-.48.278-.72.038-.097.019-.175-.092-.207-.098-.027-.21-.11-.282.041zm10.449 10.234c-.544.152-.433 1.038-.794 1.035-.19.001-.198-.198-.234-.34-.123-.477.245-1.194.703-1.395.284-.124.458.003.564.239zm.518 1.227c-.204.173-.112.538-.415.42-.327-.127-.379-.382-.251-.693.107-.24.188-.504.532-.528.389-.028.393.216.519.495zm2.93-1.72c.005.161-.16.643-.412.542-.443-.258-.848-.565-1.328-.995-.03-.026-.003-.075.037-.065zm-1.093-1.417c.351-.02.703-.036 1.053-.07.196-.019.332.577.032.546-.285-.03-1.055-.18-1.158-.213-.102-.032-.168-.05-.148-.146zm-.988 3.618c-.228.086-.358.177-.427.408-.036.166-.236.09-.306-.11-.08-.31.181-.546.443-.656.171-.072.247.068.34.202zm.64.606a.124.124 0 0 1-.057.166c-.32.161-.31.362-.438.345-.184-.022-.37-.244-.311-.448.023-.08.04-.14.104-.194.158-.135.249-.168.423-.116zm.247-4.878l.817-.55c.068-.047.162-.122.216-.043.072.108.111.245.138.375.018.09-.083.102-.147.113-.318.051-.636.099-1.005.154zm.224 5.514a.117.117 0 0 1-.032.156.564.564 0 0 0-.174.244.12.12 0 0 1-.191.042c-.116-.108-.225-.199-.193-.381.03-.17.142-.282.31-.295zm.557 1.308c-.02-.024.003-.12.036-.147a.265.265 0 0 1 .183-.056c.183.03.542.65.53.943-.001.023-.033.033-.049.016zm-.438-.891c.264-.062.306.09.441.236.048.05.137.173-.044.223-.187.052-.189.294-.391.033z"/></g><g clip-path="url(#clip-95F983E3-1382-4B5D-8118-7A085A0EE310)"><path d="M36.28 23.896c-.87-.22-1.785-.258-2.624-.614-.659-.28-1.392-.364-2.003-.79-.6-.42-1.153-.875-1.634-1.48.878.29 1.74.218 2.495.174-3.601-1.243-5.018-4.015-5.334-7.549.19.288.374.58.572.862.108.154.262.347.452.273.197-.077.09-.3.067-.472a74.14 74.14 0 0 1-.238-1.893c-.086-.775.535-1.321.722-2.017.098-.365.436-.67.665-1.004l.107.042c-.115.493-.25.982-.34 1.479-.147.798-.066 1.567.39 2.27.047.073.09.171.198.147.108-.025.09-.139.08-.207-.158-1.096.34-2.03.736-3.001.225-.554.378-1.152.283-1.823.64.201 1.142.516 1.558 1.001.661.772.844 1.733 1.167 2.641.076.212.139.445.397.614-.046-.975-.157-1.884-.485-2.795.257.133.253.344.313.535.058.188.179.357.272.534.395.746.768 1.504 1.191 2.233.333.573 2.162 1.14 2.798.908.07-.026.19-.037.166-.143-.01-.04-.12-.076-.189-.083-.974-.112-1.669-.594-2.262-1.364-.52-.676-.652-1.383-.722-2.184-.051-.58-.592-.916-1.096-1.203-.315-.179-.613-.384-.93-.558-.608-.334-.333-.9-.396-1.378-.002-.018.006-.04 0-.056-.3-.86.375-1.183.946-1.462.37-.18.82.085 1.227.171.914.194 1.684.775 2.602.964.578.119 1.157.25 1.753.253.211.002.28-.234.458-.288a4.273 4.273 0 0 1 1.643-.18c-.201.588.125.904.574 1.135.546.282 1.092.214 1.602-.103.297-.185.544-.483.862-.591.532-.181 1.066.124 1.347.682-.377-.128-.723-.317-1.117-.186-.112.037-.267.054-.25.212.017.147.167.122.277.142.413.075.804.182.991.71-.282-.138-.473-.287-.72-.306-.19-.015-.37-.01-.545.072-.133.063-.22.161-.213.307.005.144.133.162.244.197.216.068.437.132.554.425-.329-.203-.612-.301-.868.011-.284.348.026.854.647 1.026.96.266 1.934.503 2.73 1.136.166.133.304.3.444.462.093.106.073.202-.069.267-.863.396-1.513.003-1.657-.07l1.322 1.358c-1.222.531-2.367.392-3.38-.326-.81 1.138.224 1.966.353 2.928.15 1.12.407 2.23.234 3.374a8.178 8.178 0 0 0-.766-2.944c-.06 1.196.169 2.295-.222 3.336-.37.984-.693 2.007-1.657 2.744.243-.47.476-.861.652-1.276.175-.413.293-.85.45-1.318-.736.56-.45 2.096-3.606 3.562zM33.488 6.788c.258-.14.373-.433.463-.697.04-.119-.135-.12-.235-.102-.301.052-.47.216-.464.536zm7.242 1.564c-.629-.395-1-.872-.498-1.637-.418.02-.62.236-.721.55-.152.468.034.81.458 1.045zm-2.31 1.962a2.7 2.7 0 0 0-.086-.135zm-.086-.135l-.67-1.044c.139.415.431.695.67 1.044zm-.287.272c-.095-.228-.123-.544-.407-.598-.16-.031-.209.213-.19.411.034.233.21.34.468.346zm-6.614 1.452c.139-.013.2-.106.187-.23-.013-.117-.11-.151-.23-.155-.09.04-.22.06-.197.197zm.412.86c.24-.02.333-.207.324-.413-.01-.207-.154-.333-.372-.315-.231.018-.337.175-.358.358zm6.524 6.58c-.054-.116-.13-.108-.234-.074-.247.081-.496.157-.746.232-.1.03-.206.047-.187.186.014.106.076.138.155.147.064.007.668-.191.91-.278zm1.282-.818l-1.02.577c-.057.033-.073.109-.028.156.041.044.096.062.17.033zm-2.47-.475c-.031-.143.004-.267-.2-.266-.203.002-.406.032-.623.059-.08.01-.132.09-.104.163.134.356.433.342.775.232zm1.652-.568c-.157.02-.903.217-1.281.297a.101.101 0 0 0 .003.2zm-3.799.397c.042.466.366.519.695.475.338-.044.137-.375.106-.452-.111-.274-.44-.169-.677-.215zm-1.105-.557c-.166.08-.22.507.301.73.103.044.384.123.514-.108.135-.238-.124-.364-.225-.409zm-.624-.46c-.153-.086-.385-.132-.495.004-.11.137-.044.308.164.493.203.18.432.27.595.052zm1.288-.938c-.06.15-.077.275.045.366.155.116.484.323.61.112.26-.43-.134-.422-.379-.57zm4.92-.32c-.037.091.109.174.24.25.053.032.122.012.15-.043.16-.317.266-.886.162-1.122zm-3.779.832c-.042.123.129.192.206.21.379.092.764.05 1.303.052-.496-.168-.697-.163-1.225-.34zm5.56-.2c-.008-.208-.014-.403-.027-.598-.017-.248-.005-.952-.153-.968-.13-.015-.16.11-.188.202-.105.347-.103.7-.102 1.06 0 .274.123.361.315.42zm.538-1.85c.06.57.268 1.098.292 1.667.004.097.137.135.194.054.31-.437.14-1.354-.356-1.784zm-8.158.732c-.344.361-.08.592.402.932.09.063.207 0 .276-.085.276-.338.08-.426-.182-.71zm-2.953-.844c.12-.008.182-.093.175-.202-.007-.106-.067-.189-.194-.183-.137.006-.162.098-.15.228zm2.116-.115c.141-.132-.164-.686-.698-1.027-.008.288.154.65.277.904zm-1.664.768c.188-.021.35-.1.329-.307-.02-.193-.18-.28-.371-.263-.181.015-.261.134-.25.308zm2.324.135c.238-.203.071-.322-.03-.46-.124-.166-.282-.417-.524-.176-.253.252.001.415.11.526zm-1.782.182c.073.561.256.995.593 1.416a.125.125 0 0 0 .2-.011c.074-.117.19-.194.086-.306zm-1.478.91c.113-.018.191-.072.172-.196-.015-.09-.074-.143-.17-.133-.122.013-.17.093-.175.207zm.773 1.042c.063-.067-.074-.312-.098-.355-.154-.272-.2-.32-.307-.443-.137.244-.033.64.155.836zm.48.923c.197-.185.1-.256-.097-.527-.112-.154-.224-.185-.317-.121-.138.094-.176.14.043.492zm1.03.889c.26-.29-.069-.436-.251-.637-.31-.342-.527-.244-.59-.172-.237.27.178.56.46.757zm1.272.67l.047-.137a.138.138 0 0 0-.081-.173l-.682-.28c-.114-.048-.25.022-.261.14-.02.238.246.442.755.567zm1.564.41c.086-.006.141-.049.157-.201.028-.263-.196-.204-.66-.309-.12-.027-.57-.153-.63.063-.057.202-.011.352.212.385zm1.412-.12c.098-.014.204-.008.186-.143-.016-.118-.068-.192-.225-.179-.258.022-.52.023-.779.034-.106.005-.172.05-.16.157.011.094-.024.221.144.225zm5.638-13.501c.348.428 1.132-.016 1.267.31.073.17-.11.254-.229.342-.398.295-1.207.245-1.568-.088-.224-.207-.172-.412.009-.6zm.965-.96c.241.115.552-.112.555.206.003.344-.218.49-.56.499-.269-.002-.549.03-.702-.27-.174-.337.055-.437.272-.66zm-2.732-1.97c.147-.068.655-.108.655.158-.073.5-.205.986-.423 1.588-.014.037-.07.032-.075-.007zm-.914 1.543c-.151-.306-.3-.613-.463-.913-.091-.168.417-.523.5-.243.08.267.23 1.013.237 1.118.008.104.017.17-.082.19zm3.773-.528c.168.17.305.25.55.223.171-.033.176.175.013.315-.264.192-.587.051-.791-.14-.134-.125-.031-.247.06-.382zm.322-.82a.13.13 0 0 1 .178-.013c.272.222.457.135.49.257.048.173-.089.426-.302.452-.085.01-.146.02-.222-.017-.187-.088-.252-.156-.27-.333zm-4.672 1.696l-.829-.523c-.07-.044-.176-.1-.122-.179.074-.108.187-.197.3-.272.077-.052.127.035.161.09.17.266.336.535.53.848zm5.09-2.374a.122.122 0 0 1 .159-.032.573.573 0 0 0 .295.061c.083 0 .141.08.112.157-.057.147-.1.282-.285.325-.17.04-.318-.017-.393-.164zm1.017-1.03c-.014.027-.114.044-.151.025a.25.25 0 0 1-.123-.143c-.041-.176.405-.74.684-.844.023-.009.044.016.034.037zm-.67.751c-.157-.208-.028-.304.061-.481.031-.062.115-.189.23-.05.119.145.35.05.177.33z"/></g><g clip-path="url(#clip-8DB7409D-80CF-4654-B4C9-3F9A76946438)"><path d="M12.767 27.279c.458.77 1.074 1.446 1.411 2.291.265.665.722 1.243.849 1.976.124.721.19 1.433.098 2.2-.413-.826-1.07-1.386-1.633-1.89 1.652 3.427.678 6.383-1.614 9.096.071-.337.149-.673.21-1.012.034-.185.062-.43-.124-.512-.193-.086-.277.147-.383.284a74.254 74.254 0 0 1-1.178 1.503c-.491.606-1.318.55-1.944.908-.33.188-.784.164-1.183.236l-.045-.105c.431-.266.874-.515 1.292-.8.67-.459 1.161-1.058 1.34-1.876.019-.085.058-.184-.035-.244-.094-.06-.163.034-.205.089-.667.884-1.683 1.189-2.652 1.593-.553.23-1.086.543-1.496 1.084-.308-.596-.438-1.174-.385-1.81.083-1.012.638-1.818 1.056-2.687.098-.203.22-.412.158-.713-.662.72-1.23 1.438-1.647 2.312-.086-.276.066-.422.16-.599.093-.173.128-.378.188-.569.253-.805.53-1.603.75-2.417.173-.639-.711-2.334-1.324-2.62-.069-.033-.161-.11-.22-.018-.021.035.032.138.074.192.607.77.754 1.6.623 2.563-.114.845-.524 1.436-1.044 2.05-.378.445-.235 1.065-.084 1.624.094.35.158.706.258 1.053.19.665-.407.87-.702 1.25-.011.015-.032.024-.04.04-.4.818-1.106.567-1.706.36-.389-.135-.518-.642-.743-.99-.505-.785-.634-1.74-1.147-2.523-.322-.493-.636-.996-1.054-1.42-.148-.15-.365-.034-.527-.121a4.263 4.263 0 0 1-1.286-1.038c.56-.272.555-.726.404-1.206-.185-.586-.618-.925-1.202-1.063-.34-.08-.727-.044-1.028-.194-.503-.25-.662-.843-.463-1.435.174.357.284.736.654.922.105.053.227.152.326.028.094-.116-.03-.204-.093-.296-.237-.345-.436-.698-.193-1.202.1.297.13.538.29.726.122.144.253.27.435.335.138.05.269.042.368-.065.099-.105.022-.209-.032-.312-.104-.2-.214-.403-.088-.692.088.376.217.646.62.607.447-.044.589-.62.274-1.18-.487-.868-1.004-1.725-1.114-2.735-.023-.211-.001-.427.015-.64.01-.14.093-.194.239-.14.89.333 1.067 1.07 1.117 1.225l.035-1.894c1.238.491 1.946 1.401 2.148 2.624C.925 29.204.787 27.89 1.38 27.12c.691-.896 1.3-1.86 2.235-2.543a8.19 8.19 0 0 0-1.554 2.616c.894-.798 1.513-1.735 2.53-2.191.96-.431 1.915-.923 3.118-.76-.505.159-.947.27-1.366.438-.418.167-.811.39-1.256.608.917.128 1.808-1.157 5.074.047zM2.583 41.304c-.284-.08-.578.048-.833.173-.114.057.008.18.09.237.25.173.488.175.716-.058zm-4.001-6.234c.16.725.08 1.326-.82 1.511.308.283.605.272.901.122.441-.224.555-.597.424-1.064zm3.022.255a2.71 2.71 0 0 0-.036.157zm-.036.157l-.277 1.216c.2-.393.194-.8.277-1.216zm.402.02c-.099.228-.307.473-.15.71.09.133.298-.007.429-.161.144-.19.098-.39-.076-.573zm5.685 3.655c-.108-.09-.219-.066-.3.033-.076.094-.032.187.049.275.093.036.199.111.283-.003zm.32-.898c-.182-.155-.383-.088-.525.065-.143.155-.131.347.034.489.177.15.364.114.511-.002zm.079-9.249c-.047.122.013.17.111.22.233.116.463.238.693.362.092.05.179.112.266 0 .067-.087.047-.154-.003-.216-.04-.05-.608-.336-.841-.446zm-1.486-.33l1.125.31c.063.018.128-.026.131-.09.002-.061-.023-.113-.096-.145zm1.398 2.073c-.081.125-.196.189-.05.334.146.144.312.268.486.404.064.05.16.03.193-.043.162-.35-.061-.554-.384-.72zm-1.57-.767c.124.1.791.495 1.115.711.098.065.208-.05.142-.149zm2.966 2.417c.306-.363.117-.63-.147-.832-.27-.207-.367.171-.4.248-.12.275.188.433.322.634zm.38 1.177c.175.06.52-.206.314-.733-.04-.105-.182-.36-.44-.288-.266.074-.174.347-.135.451zm.11.755c.046.17.179.366.354.348.178-.018.254-.186.239-.464-.015-.271-.114-.497-.386-.459zm-1.564-.233c.154-.064.258-.143.236-.297-.028-.197-.114-.585-.36-.525-.503.123-.212.403-.143.687zm-3.695-3.275c.092-.037.049-.2.012-.347a.107.107 0 0 0-.137-.075c-.34.111-.823.44-.92.681zm3.239 2.098c.116-.057.044-.227.003-.295-.201-.335-.5-.58-.877-.966.23.473.374.613.62 1.113zm-4.05-3.804c-.142.152-.277.294-.405.442-.164.187-.672.677-.58.794.08.102.189.036.275-.01.32-.172.568-.422.823-.679.193-.194.17-.342.077-.52zm-1.693.916c.367-.444.601-.964.993-1.383.067-.072 0-.193-.097-.176-.533.092-1.073.86-1.033 1.513zm6.265 5.274c.502-.007.477-.36.376-.943-.019-.11-.147-.149-.256-.138-.437.04-.36.243-.376.63zm1.488 2.68c-.09-.079-.196-.06-.27.023-.073.081-.091.184.002.27.101.092.185.043.273-.059zm-1.566-1.424c-.195-.005-.38.608-.252 1.23.214-.2.362-.574.46-.843zm1.712.643c-.148-.116-.32-.173-.454-.013-.126.15-.076.322.07.444.14.116.282.088.4-.043zm-1.53-1.733c-.316-.022-.286.18-.314.349-.035.205-.108.494.24.492.364-.003.303-.297.308-.452zm1.366 1.135c.35-.45.532-.887.597-1.424a.124.124 0 0 0-.15-.134c-.135.03-.272.002-.28.155zm1.687.399c-.09-.067-.182-.083-.257.02-.054.076-.051.157.022.218.092.077.182.052.267-.026zm.211-1.273c-.091.004-.173.273-.187.32-.09.301-.092.367-.107.529.27-.08.482-.433.494-.703zm.311-.984c-.269-.008-.251.11-.308.438-.032.186.024.286.134.306.163.03.221.025.32-.377zm-.093-1.37c-.391.024-.265.363-.28.638-.028.466.195.551.292.545.36-.024.276-.53.22-.872zm-.413-1.365l-.132.065a.141.141 0 0 0-.067.18l.273.68c.045.113.19.16.283.083.186-.156.147-.489-.118-.936zm-.822-1.41c-.065-.057-.136-.066-.257.031-.21.17-.008.286.245.693.066.105.294.516.493.405.187-.104.262-.245.127-.427zm-1.07-.912c-.08-.06-.15-.14-.237-.028-.077.1-.096.192.025.295.198.169.383.355.574.532.078.073.159.086.23-.002.062-.078.181-.147.066-.27zm-13.58 5.518c.063-.551-.809-.791-.67-1.118.07-.173.26-.103.407-.081.493.072 1.026.68 1.041 1.174.01.305-.175.414-.436.419zm-1.361-.01c-.088-.251-.47-.31-.243-.538.244-.247.506-.195.753.041.188.192.408.368.3.69-.12.362-.353.271-.665.276zm.519 3.325c-.153-.058-.542-.394-.354-.583.408-.302.847-.55 1.43-.82.036-.016.071.028.047.06zm1.75-.444c-.113.324-.229.646-.328.975-.056.184-.669.075-.527-.183.135-.245.565-.88.634-.96.07-.079.11-.133.194-.076zm-3.041-2.293c.006-.24-.031-.394-.22-.545-.14-.097.005-.25.216-.235.318.048.44.375.445.655.003.183-.155.198-.314.23zm-.808.346a.128.128 0 0 1-.135-.117c-.031-.351-.224-.42-.16-.53.09-.158.37-.241.54-.109.066.053.116.09.143.17.068.195.065.29-.05.428zm4.503 2.11l.208.95c.018.081.053.194-.042.213-.13.024-.274.007-.407-.019-.092-.018-.064-.114-.05-.176.073-.308.15-.614.237-.97zm-5.28-1.929a.121.121 0 0 1-.134-.09.573.573 0 0 0-.165-.252.116.116 0 0 1 .033-.19c.145-.062.271-.126.431-.026.149.092.212.237.16.394zm-1.442 0c.03-.01.112.048.124.088a.252.252 0 0 1-.016.188c-.097.155-.816.24-1.088.116-.022-.01-.02-.042.003-.05zm1.005-.056c-.038.26-.2.238-.39.302-.066.022-.217.053-.197-.128.02-.187-.211-.283.114-.362z"/></g></g></svg>