<svg xmlns="http://www.w3.org/2000/svg" width="44" height="44" viewBox="0 0 44 44"><g><g clip-path="url(#clip-6F7F68A2-9F24-4C27-8612-56CC79051939)"><path d="M4.516 10.374c-.97.015-1.397-.475-1.73-1.272-.531-1.272-.352-2.39.572-3.393.177-.192.369-.259.65-.25 1.37.042 2.74.045 4.11.046 1.555 0 3.096.263 4.656.221 1.05-.028 2.076-.331 3.12-.274 1.256.069 2.293-.63 3.44-.936.126-.034.187-.14.246-.26.42-.854.852-1.7 1.269-2.555.144-.295-.11-1.195-.405-1.412-.51-.375-1.031-.73-1.553-1.087-.248-.17-.386-.902-.207-1.132.052-.068.083-.03.14-.017.468.097.943.119 1.42.132.277.008.54.07.696.404-.097-.532.287-.667.602-.82.47-.23.909-.464 1.024-1.06.044-.225.167-.21.27-.044.187.302.392.571.248 1.003-.204.608-.267 1.268-.652 1.808a.597.597 0 0 0-.093.5c.241 1.04.304 2.118.64 3.136a.467.467 0 0 1 .007.32c-.241.709-.455 1.428-.72 2.127-.132.35-.28.667-.016 1.01.12.154.066.255-.089.335-.067.034-.115.119-.183.139a2.057 2.057 0 0 0-1.338 1.132c-.123.255-.418.315-.641.45-1.131.682-2.248 1.392-3.477 1.878-.33.131-.657.269-1.03.342.182.227.447.229.66.335.123.061.272.072.388.144.16.1.323.269.304.45-.022.212-.27.166-.418.18-.442.042-.888.001-1.325.111-.147.037-.271-.065-.373-.143-.811-.623-1.729-.601-2.667-.519-2.33.206-4.629-.01-6.899-.585-.039-.01-.096.009-.098-.098 1.677-.026 3.356.146 5.032-.021.156-.001.843.226.936.068-.087-.206-.976-.355-1.613-.366-.22-.004-3.385-.05-4.903-.027"/></g><g clip-path="url(#clip-EC8F9643-6D04-4C29-B8B4-55E618ED6D73)"><path d="M1.832 20.026c-.288 0-.53-.006-.706-.01l.026.009-.063-.005a6.734 6.734 0 0 1-1.913-.901l-.054-.036c-.017-.012-.033-.025-.05-.036l-.05-.036-.05-.035c-.015-.013-.031-.024-.047-.036a1.867 1.867 0 0 1-.047-.035l-.046-.035a.753.753 0 0 1-.045-.036c-.015-.012-.03-.022-.045-.035a1.394 1.394 0 0 1-.042-.034l-.043-.035-.042-.035-.04-.033-.04-.035a1.002 1.002 0 0 1-.04-.034c-.014-.012-.026-.024-.04-.034a1.55 1.55 0 0 0-.074-.069c-.014-.01-.026-.022-.038-.034l-.037-.034-.035-.033a1.004 1.004 0 0 0-.035-.033l-.035-.034-.034-.034-.033-.033-.034-.034-.032-.033-.033-.033-.032-.033c-.01-.01-.02-.023-.031-.033l-.031-.033-.03-.034a.971.971 0 0 1-.031-.033l-.03-.032-.03-.033-.028-.033a.454.454 0 0 1-.028-.033.43.43 0 0 1-.029-.033.668.668 0 0 1-.056-.064l-.027-.033a.943.943 0 0 1-.028-.033l-.025-.032a.792.792 0 0 1-.026-.033 2.041 2.041 0 0 1-.052-.065c-.01-.01-.017-.02-.026-.03l-.025-.034-.024-.031-.025-.033c-.008-.01-.017-.021-.024-.032a7.472 7.472 0 0 0-.025-.032l-.023-.033-.023-.031c-.008-.01-.017-.021-.024-.032l-.023-.032-.022-.031a.626.626 0 0 1-.023-.032l-.022-.033-.022-.032-.022-.032-.021-.031-.021-.031-.022-.032a.53.53 0 0 1-.02-.032l-.021-.031-.02-.032c-.008-.01-.014-.021-.021-.032l-.02-.032a.331.331 0 0 1-.02-.03l-.02-.032-.018-.032-.02-.03-.019-.032-.018-.032-.02-.03a3.645 3.645 0 0 1-.018-.032l-.017-.031c-.006-.01-.013-.021-.018-.032l-.019-.03c-.006-.011-.01-.022-.017-.032a1.262 1.262 0 0 1-.017-.031l-.018-.032-.017-.03-.017-.031-.016-.032-.018-.03a.29.29 0 0 0-.016-.031l-.016-.032-.016-.03-.016-.032-.016-.03-.015-.032-.015-.03-.016-.031-.015-.031-.014-.03-.015-.032-.015-.03-.014-.03-.014-.032a.715.715 0 0 1-.014-.03l-.015-.031-.013-.03-.014-.031a.408.408 0 0 0-.013-.031l-.013-.03-.013-.031a.272.272 0 0 1-.013-.031l-.013-.03-.012-.03-.012-.031-.013-.03-.012-.03-.011-.031-.012-.03-.011-.03-.011-.031c-.005-.01-.008-.021-.012-.031l-.01-.03-.01-.03-.01-.03-.006-.018a4.197 4.197 0 0 1-.637-.216 4.202 4.202 0 0 1-.095-.041l-.086-.041a1.456 1.456 0 0 1-.08-.04 1.813 1.813 0 0 1-.074-.04l-.069-.038-.066-.038-.061-.037-.059-.037c-.018-.012-.037-.025-.056-.036-.017-.013-.035-.024-.053-.036a1.846 1.846 0 0 0-.05-.036 1.61 1.61 0 0 1-.095-.071l-.046-.035-.042-.035a1.232 1.232 0 0 1-.083-.069l-.038-.034-.038-.033a1.016 1.016 0 0 0-.036-.034l-.036-.034-.035-.034-.032-.033c-.011-.011-.023-.022-.033-.034l-.031-.033-.03-.032-.03-.033a.972.972 0 0 0-.03-.033.928.928 0 0 0-.027-.033c-.01-.01-.018-.022-.027-.033a.705.705 0 0 1-.027-.031l-.026-.033c-.008-.01-.018-.021-.026-.033l-.024-.032-.024-.032-.024-.031-.022-.033-.023-.032-.02-.032-.022-.031c-.007-.011-.013-.022-.02-.031-.008-.01-.014-.021-.021-.032l-.02-.032-.018-.031a.466.466 0 0 1-.036-.063l-.017-.03-.018-.031a.457.457 0 0 1-.016-.032.444.444 0 0 1-.031-.061c-.006-.01-.01-.022-.016-.031l-.014-.03a.904.904 0 0 1-.014-.031l-.013-.031-.014-.03a.304.304 0 0 1-.012-.032c-.005-.012-.009-.022-.01-.03-.005-.009-.006-.014-.006-.014a5.698 5.698 0 0 1 .053.05l.037.034c.013.01.026.022.04.035l.044.033c.015.012.031.025.049.036.017.012.035.025.054.036a1.646 1.646 0 0 0 .235.12c.043.017.089.033.137.048.163.048.36.082.6.083h.02a2.7 2.7 0 0 0 .29-.013l.114-.013.101-.015h.001l.11-.014a1.812 1.812 0 0 1 .168-.004 1.105 1.105 0 0 1 .555.163l.051.036.044.035.038.034c.012.011.022.023.032.034.012.011.02.022.029.032a.4.4 0 0 1 .035.048l.004-.014a.238.238 0 0 1 .009-.027.124.124 0 0 1 .009-.028l.01-.027.012-.027.014-.027a3.272 3.272 0 0 0 .035-.052.274.274 0 0 1 .022-.026l.025-.025c.009-.01.019-.017.029-.025a.264.264 0 0 1 .034-.024.35.35 0 0 1 .088-.045.598.598 0 0 1 .136-.038 1.396 1.396 0 0 1 .226-.019h.062c.178.007.374.035.57.062.16.024.321.046.472.056.058.005.114.007.17.007l.071-.001a1.219 1.219 0 0 0 .215-.028l.068-.019.055-.021.045-.022.17.023a.754.754 0 0 0-.02.055l-.01.026c-.004.01-.007.02-.012.028l-.012.027-.012.027a.21.21 0 0 1-.013.026c-.004.01-.01.018-.013.028a.3.3 0 0 0-.015.026l-.015.027a.601.601 0 0 1-.032.053c-.005.01-.01.018-.017.026-.006.009-.01.018-.017.027l-.018.026a2.494 2.494 0 0 0-.018.026l-.02.026-.02.027a.4.4 0 0 1-.02.025.402.402 0 0 0-.02.025c-.009.009-.016.018-.023.027l-.022.025-.023.026a.553.553 0 0 0-.023.025l-.025.025-.024.026c-.01.008-.017.017-.025.025l-.027.025a.614.614 0 0 1-.026.025l-.028.025-.027.025a.336.336 0 0 1-.029.024l-.028.025-.03.025-.03.024a.554.554 0 0 1-.03.024l-.032.025-.032.024-.033.024-.034.025-.033.023-.035.024-.035.024-.036.024-.036.023-.038.024-.038.023a.78.78 0 0 1-.038.023l-.039.024-.04.023a.542.542 0 0 1-.041.023l-.04.023c-.015.008-.03.015-.042.023l-.043.023-.044.022-.045.023-.044.023-.046.022-.046.022a1.854 1.854 0 0 0-.047.022l-.048.023-.05.02a1.932 1.932 0 0 0-.05.023l-.05.021-.053.021c-.019.009-.037.015-.053.022l-.055.02a4.118 4.118 0 0 1-.1.037l.001.008.006.029.005.03.007.03.006.029.007.03.007.029.008.03.008.03.008.03.01.03c.002.01.007.02.01.03l.01.03.01.03.012.031.012.03a.44.44 0 0 0 .013.03l.013.031.015.031.014.03a.657.657 0 0 0 .032.063c.006.01.01.02.017.03l.018.032.019.031.019.032.021.032.022.032A.66.66 0 0 0-2.79 16l.023.032.026.033.026.032.027.033.03.032.03.033.033.034.034.033.037.034a1.262 1.262 0 0 0 .123.104l.046.034c.016.013.033.025.05.036l.052.036.058.037.062.037.067.039.075.039.083.04c.03.015.062.028.094.042a4.261 4.261 0 0 0 .399.142c.08.023.16.044.24.063a5.254 5.254 0 0 0 1.133.129h.08l.12-.001c.07-.001.124-.005.16-.007.033 0 .05-.003.05-.003l.004-.018.008-.027.009-.028.01-.026a.213.213 0 0 1 .014-.028.31.31 0 0 1 .014-.026l.018-.027.018-.026.02-.026.024-.025.024-.026.027-.025a.61.61 0 0 1 .061-.049c.013-.008.024-.017.035-.023.013-.01.026-.017.038-.024.017-.01.031-.018.041-.022l.012-.007a.12.12 0 0 1 .016.01l.062.038.068.038a5.887 5.887 0 0 0 .165.08l.102.044.12.045a4.192 4.192 0 0 0 .364.108c.208.051.354.07.354.07h6.685l.007-.004.042-.023.043-.023.043-.022.045-.023a.642.642 0 0 0 .047-.022l.047-.023.048-.02.051-.023.053-.021c.018-.008.037-.014.055-.021a1.349 1.349 0 0 1 .203-.058.53.53 0 0 1 .158-.007c.026.003.054.006.081.012a1.75 1.75 0 0 1 .343.106c.035.013.069.028.101.042l.089.041.08.04c.032.017.058.03.073.04l.018.01h3.148c.106 0 .19.013.253.036a.34.34 0 0 1 .123.074.375.375 0 0 1 .046.065l.014.03.01.03.006.03c0 .01.003.02.004.03v.038h-.13l-.176.005-.168.005-.162.006-.159.007a47.534 47.534 0 0 1-.308.014l-.15.008-.147.008a233.637 233.637 0 0 1-.286.018l-.14.008-.137.01-.135.01-.13.01-.128.011-.123.012-.116.013a.65.65 0 0 0-.156.034l-.056.022c-.017.007-.034.013-.05.022a.428.428 0 0 0-.046.022l-.042.022-.04.024-.037.023-.037.024-.036.024-.034.024-.034.024-.032.024a.663.663 0 0 1-.032.024l-.031.024-.032.025-.031.024-.03.024-.031.025-.032.024-.03.025-.03.025c-.012.007-.022.016-.032.024a.712.712 0 0 0-.063.049l-.033.023c-.01.009-.022.017-.033.024l-.034.025-.035.023-.036.024-.038.024-.04.023-.042.022a.38.38 0 0 1-.047.022c-.016.009-.033.015-.05.023l-.06.02a.659.659 0 0 1-.175.027h-.04a13.107 13.107 0 0 0-.378.005c-.053 0-.108.003-.167.005l-.154.007-.145.009-.136.01c-.043.002-.086.007-.13.01l-.123.011-.117.013-.113.013c-.036.004-.072.008-.108.014-.034.004-.069.01-.104.013-.033.006-.067.01-.1.015l-.097.016-.092.015c-.03.005-.06.01-.09.017l-.087.016a2.374 2.374 0 0 1-.085.017l-.082.018-.079.017-.077.017-.075.019-.074.019-.07.019-.07.019-.067.019-.066.019a1.429 1.429 0 0 1-.064.02l-.062.02-.06.02-.06.02-.058.021-.057.022-.056.02a.877.877 0 0 1-.053.02l-.052.023-.052.021c-.017.008-.035.014-.05.022a23.158 23.158 0 0 0-.098.044l-.047.022a2.36 2.36 0 0 0-.047.022l-.045.023-.044.022a.85.85 0 0 0-.043.023l-.043.022-.04.024a.523.523 0 0 0-.041.023l-.04.023c-.004.002-.008.004-.01.007l-.03.015c-.013.009-.027.016-.04.024l-.04.023a1.836 1.836 0 0 1-.086.045l-.045.023-.045.022-.047.022-.048.022-.05.023a.736.736 0 0 1-.05.02 1.273 1.273 0 0 1-.052.023c-.018.006-.035.014-.053.021l-.055.021-.056.02-.058.022-.059.02-.06.02a1.474 1.474 0 0 1-.129.04l-.066.02-.069.018a7.73 7.73 0 0 1-.219.056l-.077.017a2.334 2.334 0 0 1-.08.018c-.828.177-1.688.21-2.327.21zm7.999-2.404c-.001 0-.004 0-.005-.002l-.006-.001-.007-.002h-.005l-.007-.004h-.008l-.007-.002-.008-.002h-.206l-.012.002-.01.001-.01.001-.01.003-.007.001-.01.002-.008.001-.008.001zm-.063-.014l-.012-.001-.014-.003-.017-.001a.981.981 0 0 0-.09 0l-.02.001-.018.003-.012.001-.013.001h-.076l-.007.001-.007.001-.008.002h-.007l-.006.003h-.007l-.006.002h-.007l-.005.002-.006.002-.007.001-.006.001-.006.001-.006.001-.005.002-.005.001-.006.001-.005.002h-.005l-.007.003h-.005l-.005.002h-.005l-.005.002-.005.002-.005.001-.004.001-.006.001-.005.001-.004.002-.005.001-.005.002h-.005l-.004.002-.004.002h-.006l-.004.002h-.005l-.004.002-.005.001-.004.002-.004.001-.004.001-.005.001-.004.001-.004.003h-.005l-.004.002h-.005l-.004.002-.004.002h-.004l-.008.003-.004.001-.004.002-.004.001-.004.001-.004.001-.004.002-.004.002h-.004l-.004.002h-.004l-.003.002-.004.002h-.004l-.005.002-.003.001-.004.001-.004.002-.004.001-.003.001-.004.001-.003.002-.004.002h-.004l-.003.002H9.12l-.004.002-.004.002-.004.001-.003.001-.004.001-.003.001-.004.001-.003.002-.004.001-.003.001-.003.002h-.005l-.003.003H9.07l-.003.002h-.003l-.004.002-.003.002-.004.001-.003.001-.003.001-.004.001-.003.002-.003.002h-.003l-.005.002h-.003l-.003.003H9.02l-.003.002-.003.001-.003.001-.003.002-.004.001-.003.001-.003.001-.003.001-.004.003h-.003l-.004.002H8.98l-.003.002-.003.002h-.003l-.004.002-.003.001-.003.001-.003.002-.003.001-.003.001-.003.001-.003.001-.004.002-.003.002h-.003l-.003.002H8.93l-.003.002-.003.002-.004.001-.002.001-.004.001-.003.001-.003.002-.003.001-.002.001-.003.001-.004.002-.003.002H8.89l-.003.002h-.003l-.003.002-.003.002-.003.001-.003.001-.003.001-.003.001-.003.002-.002.001-.003.001-.003.001-.003.002-.004.002h-.003l-.003.002H8.84l-.003.002-.003.002-.003.001-.003.001-.003.001-.002.001-.003.002-.003.002h-.003l-.003.002h-.003l-.003.002-.003.002H8.8l-.002.002-.003.001-.003.001-.003.002-.003.001-.002.001-.003.001-.003.001-.002.003h-.003l-.003.002h-.003l-.003.002-.003.002h-.003l-.002.002-.003.001-.003.001-.002.002-.003.001-.003.001-.002.001-.003.001-.003.003H8.73l-.003.002h-.003l-.002.002-.004.002-.002.001-.003.001-.003.001-.002.001-.003.002-.002.001-.003.001-.003.001-.002.001-.003.003h-.002l-.003.002h-.002l-.003.002-.002.001-.003.002-.003.001-.003.001-.003.001-.002.001-.003.002-.002.002H8.66l-.002.002h-.003l-.002.003H8.65l-.002.002h-.002l-.003.002-.002.002-.003.001-.002.001h.57v.008c0 .169.134.307.297.307a.302.302 0 0 0 .297-.307v-.008h.29v-.003l-.001-.001v-.008l-.001-.001v-.01l-.001-.001v-.009h-.001v-.005h-.001v-.006l-.001-.001v-.006h-.001v-.005h-.001v-.006l-.002-.001v-.008h-.001v-.004l-.002-.001v-.007l-.002-.001v-.007h-.002v-.006l-.002-.001v-.005l-.002-.002v-.005h-.002v-.006l-.002-.001v-.005h-.002v-.005h-.002v-.002h-.001v-.002l-.001-.002v-.001l-.001-.001v-.001l-.001-.001v-.002l-.001-.002h-.001v-.002h-.001v-.002l-.001-.002v-.001l-.001-.001-.001-.001v-.001l-.001-.002-.001-.001v-.001l-.001-.001-.001-.001v-.003h-.001l-.001-.002-.001-.002-.001-.002v-.001l-.001-.001-.001-.001-.002-.001v-.003l-.002-.001v-.001l-.002-.002v-.002l-.002-.002-.002-.002v-.003l-.002-.001v-.001l-.002-.001v-.002l-.002-.001v-.002h-.002v-.002l-.002-.002h-.001l-.001-.002h-.001l-.001-.002h-.001l-.001-.003v-.001l-.001-.001-.001-.001-.002-.001-.001-.002-.001-.002h-.001l-.001-.002h-.001l-.002-.003h-.001L10 17.694 10 17.694l-.002-.001v-.002l-.003-.001v-.001l-.002-.001-.002-.001v-.002l-.002-.002h-.002v-.002h-.003v-.003h-.002l-.002-.002v-.001l-.003-.001-.001-.002-.002-.001-.001-.001-.004-.002-.001-.003h-.002l-.002-.002h-.001l-.002-.002-.002-.002-.001-.001-.002-.001-.003-.001-.002-.001-.002-.001-.002-.002-.002-.001-.002-.001-.002-.002H9.94l-.002-.003h-.002l-.003-.002H9.93l-.003-.002-.002-.002-.003-.001-.002-.001-.002-.001-.003-.001-.002-.002-.004-.001-.003-.002h-.003l-.003-.002-.003-.002h-.003l-.003-.002h-.003c0-.002-.002-.002-.003-.002l-.004-.002-.004-.001-.003-.001-.004-.001-.003-.001-.005-.002-.005-.001-.004-.002h-.005l-.004-.002h-.077z"/></g><g><path d="M5.212 20.984l-.004.01-.009.022a3.915 3.915 0 0 0-.02.043l-.008.022c-.004.008-.008.015-.01.023-.004.006-.008.013-.01.02l-.01.023-.012.021-.01.023-.011.022-.012.02a.24.24 0 0 0-.01.023l-.013.022-.012.022-.012.022-.013.021-.012.022-.013.022-.013.022-.015.022-.013.022-.014.021-.015.022a.153.153 0 0 1-.014.022l-.016.022-.015.022-.016.021-.016.022-.017.023c-.006.007-.01.014-.017.02l-.017.023-.017.021-.02.022-.018.023a.18.18 0 0 1-.02.02c-.005.008-.013.016-.019.023l-.02.022-.02.022-.022.022a.448.448 0 0 0-.022.022.397.397 0 0 0-.022.021l-.024.022-.023.022-.025.022-.025.022a1.17 1.17 0 0 1-.026.021l-.028.022-.027.023-.03.02-.03.023c-.01.007-.02.015-.032.021-.01.009-.021.015-.032.022l-.035.023c-.012.007-.024.015-.035.02-.014.01-.027.016-.039.023l-.04.022-.044.022a.946.946 0 0 1-.047.022c-.02.008-.038.016-.053.02-.04.017-.063.023-.063.023.077-.005.155-.013.23-.022l.152-.021.122-.022a3.174 3.174 0 0 0 .196-.044l.084-.022.077-.021.071-.023.068-.022c.022-.006.044-.014.065-.021l.061-.022.058-.021.056-.023.054-.022.052-.021.05-.022a23.158 23.158 0 0 1 .095-.044l.046-.022.044-.021.043-.022.043-.022.04-.022.04-.022.04-.022.038-.021.037-.023c.012-.007.025-.014.036-.022a.657.657 0 0 0 .037-.02c.012-.008.023-.016.036-.023l.034-.021.034-.023.033-.022.033-.021a.944.944 0 0 1 .032-.022c.01-.008.02-.015.032-.022l.03-.022.03-.022a.558.558 0 0 1 .031-.021l.03-.022.028-.022.03-.022.027-.022.029-.022.027-.021a.63.63 0 0 1 .026-.022l.027-.022.026-.022.026-.022.025-.021.025-.022.025-.023a.428.428 0 0 0 .048-.043l.024-.021.023-.023.005-.004c2.001.027 3.592-.39 4.683-.918 1.235-.619 2.097-1.324 2.796-2.292.188-.262.04-.293-.248-.286-1.593.042-2.266.09-2.629.18-.338.086-.794.505-1.074.683-.364.266-1 .039-2.49.332-1.92.33-2.009.97-3.368 1.197a12.13 12.13 0 0 1-2.706.228c.712.23 1.262.36 1.982.518.553.12 1.088.207 1.6.265"/></g><g><path d="M4.516 31.864c-.97.015-1.397-.475-1.73-1.272-.531-1.272-.352-2.39.572-3.393.177-.192.369-.259.65-.25 1.37.042 2.74.045 4.11.046 1.555 0 3.096.263 4.656.221 1.05-.028 2.076-.331 3.12-.274 1.256.069 2.293-.63 3.44-.936.126-.034.187-.14.246-.26.42-.853.852-1.7 1.269-2.555.144-.295-.11-1.195-.405-1.412-.51-.375-1.031-.73-1.553-1.087-.248-.17-.386-.902-.207-1.132.052-.068.083-.03.14-.017.468.097.943.119 1.42.132.277.008.54.07.696.404-.097-.532.287-.667.602-.82.47-.23.909-.464 1.024-1.06.044-.225.167-.21.27-.044.187.302.392.571.248 1.003-.204.608-.267 1.268-.652 1.808a.598.598 0 0 0-.093.5c.241 1.04.304 2.118.64 3.136a.467.467 0 0 1 .007.32c-.241.709-.455 1.428-.72 2.127-.132.35-.28.667-.016 1.01.12.154.066.255-.089.335-.067.034-.115.119-.183.139a2.057 2.057 0 0 0-1.338 1.132c-.123.255-.418.315-.641.45-1.131.682-2.248 1.392-3.477 1.878-.33.131-.657.269-1.03.342.182.227.447.229.66.335.123.061.272.072.388.144.16.1.323.269.304.45-.022.212-.27.166-.418.18-.442.042-.888.001-1.325.111-.147.037-.271-.065-.373-.143-.811-.623-1.729-.601-2.667-.519-2.33.206-4.629-.01-6.899-.585-.039-.01-.096.009-.098-.098 1.677-.026 3.356.146 5.032-.021.156-.001.843.226.936.068-.087-.206-.976-.355-1.613-.366-.22-.004-3.385-.05-4.903-.027"/></g><g clip-path="url(#clip-A04CB338-D427-4637-A487-910F56286290)"><path d="M1.832 41.426c-.288 0-.53-.006-.706-.01l.026.009-.063-.005a6.739 6.739 0 0 1-1.913-.901l-.054-.036c-.017-.012-.033-.025-.05-.036l-.05-.036-.05-.035c-.015-.013-.031-.024-.047-.036a1.672 1.672 0 0 1-.138-.106c-.015-.012-.03-.022-.045-.035a1.164 1.164 0 0 1-.042-.034l-.043-.035-.042-.035-.04-.033-.04-.035-.04-.034c-.014-.012-.026-.024-.04-.034a1.044 1.044 0 0 1-.075-.069c-.013-.01-.025-.022-.037-.034l-.037-.034-.035-.032a.855.855 0 0 0-.035-.034l-.035-.034-.034-.034-.033-.033-.034-.034-.032-.033-.033-.033-.032-.033c-.01-.01-.02-.023-.031-.033l-.031-.033-.03-.034a1.06 1.06 0 0 1-.031-.033l-.03-.032-.03-.033-.028-.033a.456.456 0 0 1-.028-.033.414.414 0 0 1-.029-.033.667.667 0 0 1-.056-.064l-.027-.033a1.035 1.035 0 0 1-.028-.033l-.025-.032a.79.79 0 0 1-.026-.032l-.027-.032a2.553 2.553 0 0 1-.05-.065l-.026-.033-.024-.031-.025-.033c-.008-.01-.017-.021-.024-.032l-.025-.032-.023-.033-.023-.031c-.008-.01-.017-.021-.024-.032l-.023-.032c-.007-.01-.015-.02-.022-.032l-.023-.031-.022-.033-.022-.032-.022-.032-.021-.031a.746.746 0 0 0-.021-.031l-.022-.032a3.896 3.896 0 0 1-.042-.064l-.02-.031-.02-.032-.02-.032a.33.33 0 0 1-.02-.03l-.02-.032-.018-.032-.02-.03-.019-.032-.018-.032-.02-.03a3.645 3.645 0 0 1-.018-.033l-.017-.03c-.006-.01-.013-.021-.018-.032l-.019-.03c-.006-.011-.01-.022-.017-.032a1.26 1.26 0 0 1-.035-.063l-.017-.03-.017-.031-.016-.032-.018-.03c-.005-.011-.01-.022-.016-.031l-.016-.032-.016-.03-.016-.032-.016-.03-.015-.032-.015-.03-.016-.031-.015-.031-.014-.03-.015-.031-.015-.031a.675.675 0 0 1-.014-.03l-.014-.032-.014-.03-.015-.031-.013-.03-.014-.031a.404.404 0 0 0-.013-.031l-.013-.03-.013-.031a.27.27 0 0 1-.013-.031l-.013-.03-.012-.03-.012-.031-.013-.03-.012-.03-.011-.031-.012-.03-.011-.03-.011-.031c-.005-.01-.008-.021-.012-.031l-.01-.03-.01-.03-.01-.03-.006-.018a2.805 2.805 0 0 1-.27-.078 4.105 4.105 0 0 1-.368-.138 3.794 3.794 0 0 1-.094-.041l-.086-.041a1.395 1.395 0 0 1-.08-.04 1.813 1.813 0 0 1-.074-.04l-.069-.038-.066-.038-.061-.037a1.033 1.033 0 0 1-.059-.037l-.056-.036c-.017-.013-.035-.024-.053-.036a1.688 1.688 0 0 0-.05-.036c-.017-.012-.033-.023-.048-.036l-.047-.035-.046-.035a130.68 130.68 0 0 0-.125-.104 7.013 7.013 0 0 0-.038-.034l-.038-.033a1.212 1.212 0 0 0-.036-.034l-.036-.034-.035-.034-.032-.033c-.011-.011-.023-.022-.033-.034l-.031-.033-.03-.032-.03-.033-.03-.033a.852.852 0 0 0-.027-.033c-.01-.01-.018-.022-.027-.033a.703.703 0 0 1-.027-.031l-.026-.033c-.008-.01-.018-.021-.026-.033l-.024-.032-.024-.032a.607.607 0 0 0-.024-.031l-.022-.033-.023-.032-.02-.032-.022-.031c-.007-.011-.013-.022-.02-.031-.008-.01-.014-.021-.021-.032l-.02-.032-.018-.031a.467.467 0 0 1-.036-.063l-.017-.03a.968.968 0 0 1-.018-.031l-.016-.032a.446.446 0 0 1-.016-.03l-.015-.031-.016-.031a.664.664 0 0 1-.028-.061l-.013-.031-.014-.03a.313.313 0 0 1-.012-.031c-.005-.013-.009-.023-.01-.03l-.006-.015.017.016a80.637 80.637 0 0 1 .073.068c.013.01.026.022.04.035l.044.033c.015.012.031.025.049.036.017.012.035.025.054.036l.064.039.076.039a1.642 1.642 0 0 0 .232.09c.163.048.36.082.6.083h.02a2.623 2.623 0 0 0 .29-.013l.114-.013.101-.015h.001l.11-.014a1.866 1.866 0 0 1 .168-.004 1.11 1.11 0 0 1 .555.163l.051.036.044.035.038.034c.012.011.022.023.032.034.012.011.02.022.029.032a.4.4 0 0 1 .035.048l.004-.014a.233.233 0 0 1 .009-.027.125.125 0 0 1 .009-.028l.01-.027.012-.027.014-.027c.005-.009.01-.018.017-.027l.018-.025a.547.547 0 0 1 .047-.05c.009-.01.019-.018.029-.026a.264.264 0 0 1 .034-.023.306.306 0 0 1 .04-.024.485.485 0 0 1 .108-.042.87.87 0 0 1 .184-.032c.038-.003.077-.005.118-.005h.062c.178.007.374.035.57.062.16.024.321.046.472.056.058.005.114.007.17.007l.071-.001a1.218 1.218 0 0 0 .215-.028l.068-.019.055-.021.045-.022.17.023a.889.889 0 0 0-.02.055l-.01.026c-.004.01-.007.02-.012.028l-.012.028-.012.026a.208.208 0 0 1-.013.026c-.004.01-.01.019-.013.028a.314.314 0 0 0-.015.026l-.015.027a.596.596 0 0 1-.032.053c-.005.01-.01.018-.017.026-.006.009-.01.018-.017.027l-.018.026-.018.026-.02.026-.02.027a.425.425 0 0 1-.02.025c-.008.008-.015.017-.02.025-.009.009-.016.018-.023.027l-.022.025-.023.026a.511.511 0 0 0-.023.025l-.025.025-.024.026c-.01.008-.017.017-.025.025l-.027.025-.026.025-.028.025-.027.025a.335.335 0 0 1-.029.024l-.028.026-.03.024-.03.024a.551.551 0 0 1-.03.024l-.032.025-.032.024-.033.025-.034.024-.033.023-.035.025-.035.023-.036.024-.036.024-.038.023-.038.023a.72.72 0 0 1-.038.023l-.039.024-.04.023a.507.507 0 0 1-.041.023l-.04.023c-.015.008-.03.015-.042.023l-.043.023-.044.022-.045.023-.044.023-.046.022-.046.022a2.314 2.314 0 0 0-.047.022l-.048.023c-.018.007-.034.015-.05.02a2.306 2.306 0 0 0-.05.023l-.05.021-.053.021c-.019.009-.037.015-.053.022l-.055.02a2.514 2.514 0 0 1-.1.037l.001.008.006.029.005.03.007.03.006.029.007.03.007.029.008.03.008.03.008.03.01.03c.002.01.007.02.01.03l.01.03.01.03.012.031.012.03.013.03.013.031.015.031.014.03a.705.705 0 0 0 .032.063c.006.01.01.02.017.03l.018.032.019.031.019.032.021.032.022.032a.662.662 0 0 0 .046.063l.026.033.026.032.027.033.03.032.03.033.033.034.034.033a1.214 1.214 0 0 0 .076.068l.04.035.044.034.046.035c.016.013.033.025.05.036l.052.036.058.037.062.037.067.039.075.039.083.04c.03.015.062.028.094.042a4.261 4.261 0 0 0 .399.142c.08.023.16.044.24.063a5.243 5.243 0 0 0 1.133.129h.08a4 4 0 0 0 .28-.008c.033 0 .05-.003.05-.003l.004-.018.008-.027.009-.028.01-.026.014-.028a.298.298 0 0 1 .014-.026l.018-.027.018-.026.02-.026.024-.025.024-.025.027-.026a.666.666 0 0 1 .061-.049l.035-.023c.013-.01.026-.017.038-.024.017-.01.031-.018.041-.022l.012-.007.016.01.062.038.068.038a5.863 5.863 0 0 0 .165.08l.102.044.12.045a4.377 4.377 0 0 0 .364.108c.208.051.354.07.354.07h6.685l.007-.004.042-.023.043-.023.043-.022.045-.023a.575.575 0 0 0 .047-.022l.047-.023.048-.02.051-.023.053-.021c.018-.008.037-.014.055-.021a1.478 1.478 0 0 1 .203-.057.53.53 0 0 1 .158-.008c.026.003.054.006.081.012a1.736 1.736 0 0 1 .343.106c.035.013.069.028.101.042l.089.041.08.04c.032.017.058.03.073.04l.018.01h3.148a.74.74 0 0 1 .253.036.348.348 0 0 1 .123.074c.01.01.019.022.027.033l.02.032.013.03.01.03.006.03c0 .01.003.02.004.03v.038h-.13l-.176.005-.168.005c-.053.002-.106.003-.162.007-.052 0-.105.004-.159.006l-.155.006-.153.008-.15.008-.147.008-.144.008-.142.01-.14.008-.137.01-.135.01-.13.01-.128.011-.123.012-.116.013a.666.666 0 0 0-.156.034.991.991 0 0 0-.056.022c-.017.007-.034.013-.05.022a.428.428 0 0 0-.046.022l-.042.022-.04.024-.037.023-.037.024-.036.024-.034.024-.034.024-.032.024a.666.666 0 0 1-.032.024l-.031.024-.032.025-.031.024-.03.024-.031.025-.032.024-.03.025-.03.025c-.012.007-.022.016-.032.024a.712.712 0 0 0-.063.049l-.033.023c-.01.009-.022.017-.033.024l-.034.025-.035.023-.036.024-.038.024-.04.023-.042.022a.393.393 0 0 1-.047.022c-.016.009-.033.015-.05.023l-.06.02a.678.678 0 0 1-.175.027h-.04l-.198.001-.18.004c-.053 0-.108.003-.167.005l-.154.007a7.663 7.663 0 0 0-.145.009l-.136.01c-.043.002-.086.007-.13.01l-.123.011a39.953 39.953 0 0 1-.23.026c-.036.004-.072.008-.108.014-.034.004-.069.01-.104.013-.033.006-.067.01-.1.015l-.097.016a2.93 2.93 0 0 0-.183.032l-.086.016a2.395 2.395 0 0 1-.085.017l-.082.018-.079.017c-.026.006-.052.011-.077.018l-.075.018-.074.019-.07.019-.07.019-.067.019-.066.019a1.429 1.429 0 0 1-.064.02l-.062.02-.06.02-.06.02-.058.021-.057.022-.056.02a.877.877 0 0 1-.053.02l-.052.023-.052.021c-.017.008-.035.014-.05.022l-.05.022-.048.022-.047.022a2.36 2.36 0 0 0-.047.022l-.045.023-.044.022a.786.786 0 0 0-.043.023l-.043.022-.04.024a.523.523 0 0 0-.041.023l-.04.023c-.004.002-.008.004-.01.007a.525.525 0 0 0-.03.016l-.04.023-.04.023a1.836 1.836 0 0 1-.086.046l-.045.022-.045.022-.047.022-.048.022-.05.023a.736.736 0 0 1-.05.02 1.273 1.273 0 0 1-.052.023c-.018.006-.035.014-.053.021l-.055.022-.056.02-.058.02-.059.02a1.355 1.355 0 0 1-.124.04 2.115 2.115 0 0 0-.065.021l-.066.02-.069.018a15.957 15.957 0 0 0-.143.037l-.076.02-.077.016a2.336 2.336 0 0 1-.08.018c-.828.177-1.688.211-2.327.211zm7.999-2.405l-.005-.001-.006-.001-.007-.002-.005-.001-.007-.003c-.003 0-.005 0-.008-.002l-.007-.001-.008-.002-.01-.001c-.004-.002-.009-.002-.012-.002-.004 0-.008 0-.013-.002h-.129l-.017.002c-.004 0-.008 0-.012.002l-.014.001-.01.002-.01.001c-.004.002-.007.002-.011.002l-.01.003-.007.001-.01.002h-.008l-.008.002zm-.089-.018L9.725 39a.903.903 0 0 0-.09 0l-.02.002H9.49l-.007.002-.008.001-.007.001-.006.002-.007.001-.006.001-.007.001-.005.002-.006.002h-.007l-.006.002h-.006l-.006.002-.005.002-.005.001-.006.001-.005.001-.005.001-.007.003h-.005l-.005.002h-.005l-.005.002-.005.002-.005.001-.004.001-.006.001-.005.001-.004.002-.005.001-.005.002h-.005l-.004.002-.004.002-.006.001-.004.001-.005.001-.004.001-.005.001-.004.002-.004.002h-.004l-.005.002h-.004l-.004.003h-.005l-.004.002-.005.001-.004.001-.004.002-.004.001-.012.004-.004.002h-.004l-.004.002-.004.001-.004.001-.004.002-.004.001-.004.001-.004.001-.003.001-.004.003h-.004l-.005.002h-.003l-.004.002-.004.002-.004.001-.003.001-.004.001-.003.001-.004.003h-.004l-.003.002H9.12l-.004.002-.004.002-.004.001-.003.001-.004.001-.003.001-.004.001-.003.003h-.004l-.003.002h-.003l-.004.002-.004.002-.004.001-.003.001-.003.001-.004.001-.003.002-.004.001-.003.002h-.003l-.004.002-.003.002-.003.001-.003.001-.005.001-.003.001-.003.002-.004.001-.003.002h-.003l-.003.002-.003.002h-.004L9 39.15l-.003.001-.003.001-.004.002-.003.001-.004.001-.003.001-.003.002-.003.002h-.003l-.004.002h-.003l-.003.002-.003.002-.006.002-.003.001-.003.001-.004.001-.003.003h-.003l-.003.002H8.93l-.003.002-.003.002-.004.001-.002.001-.004.001-.003.001-.003.002-.003.002h-.002l-.003.002h-.004l-.003.003-.003.001-.003.001-.003.001-.003.001-.003.002-.003.001-.003.001-.003.002h-.003l-.003.003H8.86l-.003.002-.003.001-.003.001-.004.002-.003.001-.003.001-.002.002h-.003l-.003.003h-.003l-.003.002h-.003l-.002.002-.003.002-.003.001-.003.001-.003.001-.003.001-.003.002-.003.002H8.8l-.002.002h-.003l-.003.002-.003.002-.003.001-.002.001-.003.001-.003.001-.002.003h-.003l-.003.002h-.003l-.002.002-.004.002-.003.001-.002.001-.003.001-.003.001-.002.003h-.003l-.003.002H8.74l-.003.002-.003.002-.002.001-.003.001-.003.001-.002.001-.004.002-.002.001-.003.002h-.003l-.002.002-.003.002h-.002l-.003.002-.003.001-.002.001-.003.002-.002.001-.003.001-.002.001-.003.002H8.68l-.003.003h-.003l-.003.002-.003.001-.002.001-.003.002-.002.001-.003.001-.002.001-.003.002-.002.002H8.65l-.004.003h-.003l-.002.003-.003.001-.002.001h.57v.008c0 .172.134.311.297.311.164 0 .297-.14.297-.311v-.008h.29v-.003l-.001-.001V39.3h-.001v-.01l-.001-.001v-.01h-.001v-.004l-.001-.001v-.006l-.001-.001v-.005l-.001-.001v-.005h-.001v-.006l-.002-.001v-.008h-.001v-.004l-.002-.001v-.008h-.002v-.007l-.002-.001v-.006h-.002v-.006l-.002-.001V39.2h-.002v-.006l-.002-.001v-.004l-.002-.001v-.005h-.002v-.002h-.001v-.002l-.001-.002v-.001l-.001-.001v-.001l-.001-.001v-.003h-.001l-.001-.002-.001-.002v-.001l-.001-.002v-.001l-.001-.001-.001-.001v-.001l-.001-.003h-.001v-.002h-.001l-.001-.002v-.002l-.001-.001-.001-.001v-.001l-.001-.001-.001-.002v-.002h-.001l-.001-.002h-.002v-.003l-.002-.002v-.001l-.002-.001v-.003l-.002-.001v-.002h-.002v-.003l-.002-.002v-.001l-.002-.001v-.002l-.002-.001v-.001l-.002-.001v-.002l-.002-.002h-.001l-.001-.002h-.001l-.001-.002-.001-.001-.001-.002v-.001l-.001-.001-.001-.001-.002-.002-.001-.002h-.001l-.002-.003h-.001l-.002-.003-.001-.001L10 39.09 10 39.089l-.002-.001v-.003h-.003v-.002h-.002l-.002-.002v-.002l-.002-.001-.002-.001v-.001l-.003-.001v-.002l-.002-.001-.002-.002-.003-.002-.001-.002h-.002l-.001-.002-.004-.002-.001-.002-.002-.001-.002-.002h-.001l-.002-.002-.002-.002h-.001l-.002-.002-.003-.001-.002-.001-.002-.001-.002-.002-.004-.002-.002-.002H9.94l-.002-.003h-.002l-.003-.002-.002-.001-.003-.001-.002-.002-.003-.001-.002-.001-.002-.001-.003-.002-.002-.002h-.004l-.003-.002h-.003l-.003-.002-.003-.002-.003-.001-.003-.001-.003-.001-.003-.001-.004-.003h-.004l-.003-.002H9.87c-.001-.002-.002-.002-.003-.002l-.005-.002-.005-.001-.004-.001-.005-.001-.004-.001H9.742z"/></g><g><path d="M5.212 42.384l-.004.01-.009.022a2.313 2.313 0 0 0-.02.043l-.008.022c-.004.008-.008.015-.01.023-.004.006-.008.013-.01.02l-.01.023-.012.021-.01.022-.011.023-.012.02a.23.23 0 0 0-.01.023l-.013.022-.012.022-.012.022-.013.021-.012.022-.013.022-.013.022-.015.022-.013.022-.014.021-.015.022a.153.153 0 0 1-.014.022l-.016.022-.015.022-.016.021-.016.022-.017.023-.017.02-.017.023-.017.021-.02.022-.018.023a.196.196 0 0 1-.02.02c-.005.008-.013.016-.019.023l-.02.022-.02.022-.022.022a.449.449 0 0 0-.022.022.397.397 0 0 0-.022.021l-.024.022-.023.022-.025.022a.49.49 0 0 0-.025.022l-.026.021-.028.022-.027.023-.03.02-.03.023c-.01.007-.02.015-.032.021-.01.009-.021.015-.032.022l-.035.023-.035.02c-.014.01-.027.016-.039.023l-.04.022-.044.021a.8.8 0 0 1-.047.023c-.02.008-.038.016-.053.02-.04.017-.063.023-.063.023.077-.005.155-.013.23-.022l.152-.021c.04-.008.082-.014.122-.023a3.227 3.227 0 0 0 .196-.043l.084-.022.077-.021.071-.023.068-.022c.022-.006.044-.014.065-.021l.061-.022.058-.021.056-.023.054-.022.052-.021.05-.022a23.158 23.158 0 0 1 .095-.044l.046-.022.044-.021.043-.022.043-.023.04-.02.04-.023.04-.022.038-.021.037-.023c.012-.007.025-.014.036-.022a.657.657 0 0 0 .037-.02c.012-.008.023-.016.036-.023.01-.008.022-.014.034-.021l.034-.023.033-.022.033-.021.032-.022c.01-.008.02-.015.032-.022l.03-.022.03-.022a.507.507 0 0 1 .031-.021l.03-.022.028-.022.03-.022.027-.022.029-.022.027-.021a.63.63 0 0 1 .026-.022l.027-.022.026-.022.026-.022.025-.021a.505.505 0 0 1 .025-.023l.025-.022a.432.432 0 0 0 .048-.043l.024-.021.023-.023.005-.004c2.001.027 3.592-.39 4.683-.919 1.235-.618 2.097-1.323 2.796-2.291.188-.262.04-.293-.248-.286-1.593.042-2.266.09-2.629.18-.338.086-.794.505-1.074.683-.364.266-1 .039-2.49.332-1.92.33-2.009.97-3.368 1.197-.78.154-1.574.247-2.706.228a19.3 19.3 0 0 0 1.982.518c.553.12 1.088.207 1.6.265"/></g><g clip-path="url(#clip-D7D1845C-A33B-42E2-9611-F641E2A36B34)"><path d="M29.536 8.804c-.97.015-1.397-.475-1.73-1.272-.531-1.272-.352-2.39.572-3.393.177-.192.369-.259.65-.25 1.37.042 2.74.045 4.11.046 1.555 0 3.096.263 4.656.22 1.05-.027 2.076-.33 3.12-.273 1.256.069 2.293-.63 3.44-.936.126-.034.187-.14.246-.26.42-.854.852-1.7 1.269-2.555.144-.295-.11-1.195-.405-1.412-.51-.375-1.031-.73-1.553-1.087-.248-.17-.386-.902-.208-1.132.053-.068.084-.03.142-.017.467.097.942.119 1.418.132.278.008.542.07.697.404-.097-.532.287-.667.602-.82.47-.23.909-.464 1.024-1.06.044-.225.167-.21.27-.044.187.302.392.571.248 1.003-.204.608-.267 1.268-.652 1.808a.598.598 0 0 0-.093.5c.241 1.04.304 2.118.64 3.136a.467.467 0 0 1 .007.32c-.241.709-.455 1.428-.72 2.127-.132.35-.28.667-.015 1.01.118.154.065.255-.09.335-.067.034-.115.119-.183.139a2.057 2.057 0 0 0-1.338 1.132c-.123.255-.418.315-.641.45-1.13.682-2.248 1.392-3.477 1.878-.33.131-.657.269-1.03.342.182.227.447.229.66.335.123.061.272.072.388.144.16.1.323.269.304.45-.022.212-.27.166-.419.18-.44.042-.887.001-1.324.111-.147.037-.271-.065-.373-.143-.811-.623-1.728-.601-2.666-.519-2.33.206-4.63-.01-6.9-.585-.039-.01-.096.009-.098-.098 1.677-.026 3.356.146 5.032-.021.156-.001.843.226.936.068-.087-.206-.976-.355-1.613-.366-.22-.004-3.385-.05-4.903-.027"/></g><g><path d="M30.872 19.466c-.288 0-.53-.006-.706-.01l.026.009-.063-.005a6.739 6.739 0 0 1-1.913-.901l-.054-.036c-.017-.012-.033-.025-.05-.036l-.05-.036-.05-.035c-.015-.013-.031-.024-.047-.036a1.81 1.81 0 0 1-.048-.035l-.045-.035a.718.718 0 0 1-.045-.036c-.015-.012-.03-.022-.045-.035-.014-.01-.028-.022-.042-.034l-.043-.035a1.585 1.585 0 0 1-.042-.035l-.04-.033-.041-.035-.04-.034c-.013-.012-.025-.024-.038-.034l-.039-.035a.954.954 0 0 1-.036-.034c-.014-.01-.026-.022-.038-.034l-.037-.034-.035-.032a1.084 1.084 0 0 0-.035-.034l-.035-.034-.034-.034-.033-.033-.034-.034a.953.953 0 0 1-.032-.033l-.033-.033-.033-.033-.03-.033-.031-.033-.031-.034-.03-.033-.03-.032-.03-.033-.028-.033a.435.435 0 0 1-.028-.033.415.415 0 0 1-.029-.033.776.776 0 0 1-.056-.064l-.027-.033c-.01-.01-.018-.021-.028-.033l-.025-.032a.94.94 0 0 1-.026-.032l-.027-.032a3.662 3.662 0 0 1-.05-.065l-.026-.033-.024-.031-.025-.033c-.008-.01-.017-.021-.024-.032l-.025-.032-.023-.033-.023-.031c-.008-.01-.017-.021-.024-.032l-.023-.032-.022-.031a.571.571 0 0 1-.023-.032l-.022-.033-.023-.032-.02-.032a3.895 3.895 0 0 1-.043-.062l-.022-.032a.531.531 0 0 1-.02-.032l-.022-.031-.02-.032-.02-.032-.02-.032a.314.314 0 0 1-.02-.03l-.02-.032-.018-.032-.02-.03-.02-.032-.017-.032-.02-.03-.018-.032-.017-.031c-.006-.01-.013-.021-.018-.032a.69.69 0 0 0-.019-.03l-.017-.032a.989.989 0 0 1-.035-.063l-.017-.03-.017-.031-.016-.032-.018-.03c-.005-.011-.01-.022-.016-.031a.517.517 0 0 0-.016-.032l-.016-.03-.016-.032-.016-.03a3.362 3.362 0 0 1-.015-.032l-.015-.03-.016-.031-.015-.031-.014-.03-.015-.031-.015-.031-.014-.03-.014-.032a.83.83 0 0 1-.014-.03l-.015-.031-.013-.03-.014-.031a.469.469 0 0 0-.013-.031l-.013-.03-.013-.031-.013-.031-.013-.03a.9.9 0 0 0-.012-.03l-.012-.031-.013-.03-.012-.03a.693.693 0 0 1-.011-.031l-.012-.03-.011-.03c-.004-.012-.007-.022-.012-.031l-.01-.031c-.004-.01-.008-.02-.01-.03l-.011-.03-.01-.03-.006-.018a3.187 3.187 0 0 1-.27-.078 4.179 4.179 0 0 1-.368-.138 3.955 3.955 0 0 1-.094-.041l-.086-.041a1.524 1.524 0 0 1-.08-.04 1.708 1.708 0 0 1-.074-.04l-.069-.038-.066-.038-.061-.037a1.033 1.033 0 0 1-.059-.037l-.056-.036c-.017-.013-.035-.024-.053-.036a1.518 1.518 0 0 0-.05-.036c-.017-.012-.033-.023-.048-.036a2.238 2.238 0 0 1-.047-.035l-.046-.035-.042-.035-.042-.035c-.014-.01-.027-.022-.04-.034a4.727 4.727 0 0 0-.04-.034l-.037-.033c-.012-.012-.024-.024-.037-.034-.012-.012-.023-.024-.035-.034l-.035-.034a.944.944 0 0 1-.032-.033c-.011-.011-.023-.022-.033-.034l-.031-.033-.03-.032-.03-.033-.03-.033-.027-.033c-.01-.01-.018-.022-.027-.033a.648.648 0 0 1-.027-.031l-.026-.033c-.008-.01-.018-.021-.026-.033a4.507 4.507 0 0 0-.024-.032l-.025-.032a.558.558 0 0 0-.023-.031l-.022-.033-.023-.032-.02-.032-.022-.031-.02-.031c-.008-.01-.014-.021-.021-.032l-.02-.032-.018-.031a.51.51 0 0 1-.036-.063l-.017-.03-.018-.031-.016-.032a1.055 1.055 0 0 0-.032-.061l-.015-.031a.617.617 0 0 1-.028-.061l-.013-.031-.014-.03a.314.314 0 0 1-.012-.031l-.011-.03a.08.08 0 0 1-.005-.015l.017.016a5.971 5.971 0 0 1 .073.068c.013.01.026.022.04.035l.044.033c.015.012.031.025.049.036.017.012.035.025.054.036l.064.039.076.039a1.616 1.616 0 0 0 .232.09c.163.048.36.082.6.083h.02a2.62 2.62 0 0 0 .29-.013l.114-.013.101-.015h.001l.11-.014a1.864 1.864 0 0 1 .168-.004 1.11 1.11 0 0 1 .555.163l.052.036.043.035.038.034c.012.011.022.023.032.034a.41.41 0 0 1 .029.032.419.419 0 0 1 .035.048l.004-.014a.228.228 0 0 1 .009-.027.121.121 0 0 1 .009-.028l.01-.027.012-.027.014-.027.016-.027.019-.025a.287.287 0 0 1 .022-.026l.025-.025c.009-.01.019-.017.029-.025a.272.272 0 0 1 .034-.024.322.322 0 0 1 .04-.023.49.49 0 0 1 .108-.042.87.87 0 0 1 .184-.032c.037-.003.077-.005.118-.005h.062c.178.007.374.035.57.062.16.024.321.046.472.056.058.005.114.007.17.007l.071-.001a1.196 1.196 0 0 0 .215-.028l.068-.019.055-.021.045-.022.17.023a.316.316 0 0 1-.01.028l-.01.027-.01.026c-.004.01-.007.02-.012.028l-.012.028-.012.026a.193.193 0 0 1-.013.026c-.004.01-.01.018-.013.028a.376.376 0 0 0-.015.026l-.015.027a.252.252 0 0 1-.016.026.499.499 0 0 1-.015.027l-.018.026c-.006.009-.01.018-.017.027l-.018.026a4.14 4.14 0 0 0-.018.026l-.02.026-.02.027a.467.467 0 0 1-.02.025c-.008.008-.015.017-.02.025-.009.009-.016.018-.023.027-.007.008-.014.017-.023.025l-.022.026a.509.509 0 0 0-.023.025l-.025.025a6.869 6.869 0 0 1-.05.051l-.026.025a.617.617 0 0 1-.026.025l-.028.025-.027.025a.31.31 0 0 1-.029.024l-.028.026-.03.024-.03.024-.03.024-.032.025-.032.024-.033.025-.034.024-.033.023-.035.025-.035.023-.036.024-.036.024-.038.023-.038.023a.687.687 0 0 1-.038.023l-.039.024a1.893 1.893 0 0 1-.081.046l-.04.023a1.625 1.625 0 0 0-.042.023l-.043.023-.044.022-.045.023-.044.023-.046.022-.046.022-.048.022-.047.023-.05.02a1.673 1.673 0 0 0-.05.023l-.05.021-.053.021c-.019.009-.037.015-.053.022l-.055.02c-.023.01-.04.017-.056.022l-.044.016.001.007.006.029.005.03.007.03.006.029.007.03.007.029.008.03.008.03.008.03.01.03c.002.01.007.02.01.03l.01.03.01.03.012.031.012.03.013.03.013.031.015.031.014.03.015.031a.47.47 0 0 1 .017.032c.006.01.01.02.017.03l.018.032.019.031.019.032.021.032a4.917 4.917 0 0 1 .045.063l.023.032.026.033.026.032a.848.848 0 0 0 .027.033l.03.032.03.033.033.034.034.033a1.03 1.03 0 0 0 .076.068l.04.035.044.034.046.035c.016.013.033.025.05.036l.052.036.058.037.062.037.067.039.075.039.083.04c.03.015.062.028.093.042a4.402 4.402 0 0 0 .237.09c.054.02.109.036.163.052.08.023.16.044.24.063a5.254 5.254 0 0 0 1.133.129h.08a3.99 3.99 0 0 0 .28-.008c.033 0 .05-.003.05-.003l.004-.018.007-.027.01-.028.01-.026.014-.028a.37.37 0 0 1 .014-.026l.018-.027.018-.026.02-.026.023-.025.025-.025.027-.026a.6.6 0 0 1 .061-.049l.035-.023c.013-.01.026-.017.038-.024.017-.01.031-.018.041-.022l.012-.007.016.01.062.038.068.038.077.04c.03.014.059.028.088.04l.102.044.12.045a4.374 4.374 0 0 0 .364.108c.208.051.354.07.354.07h6.685l.007-.004.042-.023a6.49 6.49 0 0 0 .043-.023l.043-.022.045-.023a1.978 1.978 0 0 1 .193-.088l.053-.021c.018-.008.037-.014.055-.021a1.389 1.389 0 0 1 .203-.057.523.523 0 0 1 .158-.008c.026.003.054.006.081.012a1.739 1.739 0 0 1 .343.106c.035.013.069.028.101.042l.089.041.08.04c.032.017.058.03.073.04l.018.01h3.148c.106 0 .19.013.253.036a.34.34 0 0 1 .123.074c.01.01.019.022.027.033l.02.032.013.03.01.03.006.03c0 .01.003.02.004.03v.038h-.13l-.176.005-.168.005-.162.006-.159.007-.155.006-.153.008-.15.008-.147.008a6.686 6.686 0 0 1-.144.008l-.142.01-.14.008-.137.01-.135.01-.13.01-.128.011-.123.012-.116.013a.664.664 0 0 0-.156.034.904.904 0 0 0-.056.022c-.017.007-.034.013-.05.022a.444.444 0 0 0-.046.022l-.042.022-.04.024-.037.023-.037.024-.036.024-.034.024-.034.024-.032.024a.668.668 0 0 1-.032.024l-.031.024-.032.025-.031.024-.03.024-.031.025-.032.024-.03.025-.03.025c-.012.007-.022.016-.032.024a.704.704 0 0 0-.063.049l-.033.023c-.01.009-.022.017-.033.024l-.034.025-.035.023-.036.024-.038.024-.04.023-.042.022a.38.38 0 0 1-.047.022c-.016.009-.033.015-.05.023l-.06.02a.688.688 0 0 1-.175.027h-.04a13.123 13.123 0 0 0-.545.01l-.154.007a7.637 7.637 0 0 0-.282.018c-.042.003-.085.008-.129.01-.04.005-.082.008-.123.012a43.66 43.66 0 0 1-.117.013l-.113.013c-.036.004-.072.008-.108.014-.035.004-.069.01-.104.013-.033.006-.067.01-.1.015a13.059 13.059 0 0 1-.19.03l-.09.018-.086.016a2.403 2.403 0 0 1-.085.017l-.082.018-.079.017c-.026.006-.052.011-.077.018l-.075.018-.074.019-.07.019-.07.019a14.59 14.59 0 0 0-.067.019l-.066.019a1.394 1.394 0 0 1-.064.02l-.062.02-.061.02-.059.02-.058.021-.057.022-.056.02a.834.834 0 0 1-.053.02l-.052.023a1.025 1.025 0 0 0-.052.021c-.017.008-.035.014-.051.022l-.049.022-.048.022-.047.022a1.963 1.963 0 0 0-.047.022l-.045.023-.044.022a.788.788 0 0 0-.043.023l-.043.022-.04.024a.54.54 0 0 0-.041.023l-.04.023a.562.562 0 0 0-.04.022c-.013.009-.027.016-.04.024l-.04.023-.043.023a1.829 1.829 0 0 1-.044.023l-.044.022-.045.022-.047.022-.048.023-.05.022a.802.802 0 0 1-.05.021 1.276 1.276 0 0 1-.052.022c-.018.006-.035.014-.053.021l-.055.021-.056.02-.058.022-.059.02-.06.02a1.393 1.393 0 0 1-.064.02 2.182 2.182 0 0 0-.065.02l-.066.02-.07.018a27.825 27.825 0 0 0-.142.037l-.076.02-.077.016a2.57 2.57 0 0 1-.08.018c-.828.177-1.688.211-2.327.211zm7.997-2.405h-.005l-.006-.002-.006-.002h-.005l-.007-.003c-.003 0-.005 0-.008-.002l-.007-.001-.008-.001H38.607l-.01.002c-.004.002-.007.002-.01.002l-.01.002-.007.001-.01.002-.007.001-.008.001zm-.062-.013l-.01-.001c-.005-.001-.01-.001-.014-.003l-.017-.001a.922.922 0 0 0-.088 0l-.019.001c-.005.002-.011.002-.017.003l-.012.001-.013.001h-.079l-.007.001-.007.001-.008.002h-.007l-.006.003h-.007l-.006.002h-.007l-.005.002-.006.002-.006.001-.006.001-.006.001-.007.001-.005.002-.005.001-.006.002h-.005l-.005.002-.006.002h-.005l-.005.002-.005.001-.005.001-.005.002-.005.001-.005.001-.005.001-.005.001-.004.002-.005.001-.005.002h-.005l-.004.002-.004.002h-.005l-.004.002-.005.001-.004.001-.006.001-.004.002-.004.001-.004.001-.005.001-.004.002-.004.002-.008.002h-.005l-.004.002-.004.002h-.004l-.004.002-.005.001-.003.001-.005.002-.004.001-.003.001-.004.001-.004.002-.004.002h-.004l-.004.002h-.004l-.003.002-.004.002-.004.001-.004.001-.003.001-.005.001-.003.002-.005.001-.003.001-.004.001-.003.002-.004.002h-.004l-.003.002h-.004l-.003.002-.004.002-.004.001-.003.001-.004.001-.003.001-.004.001-.003.002-.005.001-.003.002h-.003l-.004.002-.003.002h-.004l-.003.002-.003.001-.004.001-.003.002-.004.001-.003.001-.003.001-.004.001-.003.003h-.003l-.003.002h-.004l-.004.002-.003.002h-.004l-.003.002-.003.001-.003.001-.003.002-.004.001-.003.001-.003.001-.003.001-.004.003h-.003l-.003.002h-.003l-.003.002-.003.002h-.003l-.004.002-.003.001-.004.001-.003.002-.003.001-.003.001-.003.001-.003.001-.003.002-.003.002h-.003l-.003.002h-.003l-.003.002-.003.002-.004.001-.002.001-.004.001-.003.001-.003.002-.003.001-.002.002h-.003l-.004.002-.003.002h-.003l-.003.002h-.003l-.003.002-.003.002-.003.001-.003.001-.003.001-.003.001-.003.002-.002.001-.003.002H37.9l-.003.002-.003.002h-.003l-.003.002-.002.001-.003.001-.004.002-.003.001-.003.001-.003.001-.002.001-.003.002-.003.002h-.003l-.003.002h-.002l-.003.002-.003.002h-.003l-.002.002-.003.001-.003.001-.003.002-.003.001-.002.001-.003.001-.003.001-.003.003h-.003l-.003.002h-.003l-.002.002-.003.002-.003.001-.002.001-.003.001-.003.001-.002.002-.003.001-.003.001-.002.001-.003.001-.003.003h-.002l-.003.002h-.003l-.002.002-.003.002-.002.001-.003.001-.003.001-.003.001-.003.002-.002.001-.003.001-.003.002h-.002l-.003.003h-.002l-.003.002h-.002l-.003.002-.002.001-.003.002-.003.001-.002.001-.003.001-.002.001-.003.002-.002.002h-.003l-.002.002h-.003l-.002.003h-.003l-.003.002-.001.001-.004.001-.002.002-.003.001-.002.001h.568v.008c0 .17.132.307.294.307a.301.301 0 0 0 .295-.307v-.008h.288v-.012l-.002-.001V17.322h-.002v-.005h-.001v-.006l-.001-.001v-.006h-.001v-.005h-.001v-.006l-.001-.001v-.003l-.001-.003v-.002h-.001v-.004l-.001-.001v-.002l-.001-.001v-.004l-.001-.001v-.003l-.001-.002v-.002h-.001v-.004l-.001-.001v-.001l-.001-.001v-.003l-.001-.001v-.001l-.001-.002v-.003h-.001v-.002h-.001v-.004l-.001-.001v-.001l-.001-.001v-.001l-.001-.002v-.002H39.1v-.002H39.1v-.003h-.001v-.002h-.001v-.002l-.001-.002v-.001l-.001-.001v-.001l-.001-.001v-.002l-.001-.002h-.001v-.002h-.001v-.002l-.001-.002v-.001l-.002-.001v-.002l-.001-.002-.002-.001v-.002l-.002-.001v-.003l-.002-.002v-.002l-.002-.002v-.002l-.002-.001v-.003l-.002-.001v-.001l-.002-.001v-.004h-.002l-.002-.003-.002-.003v-.002l-.002-.001v-.001l-.002-.002-.001-.001v-.001l-.002-.002h-.001l-.001-.003h-.001l-.001-.002h-.001l-.001-.002h-.001l-.001-.003v-.001l-.001-.001-.001-.001-.002-.001-.001-.002-.001-.002h-.001l-.001-.002h-.001l-.002-.003h-.001l-.001-.002-.001-.001-.001-.001-.001-.002-.002-.001-.001-.001-.001-.001-.002-.001-.001-.002-.001-.002h-.003v-.002h-.003v-.003h-.002l-.002-.002v-.001l-.003-.001v-.002l-.003-.001v-.001l-.003-.001-.002-.001v-.002l-.005-.003L39 17.1l-.002-.002h-.001l-.002-.002-.002-.001-.002-.001-.002-.001-.002-.002-.002-.001-.002-.001-.002-.002h-.002l-.002-.003h-.002l-.003-.002h-.002l-.004-.002-.002-.002-.003-.001-.002-.001-.002-.001-.003-.001-.002-.002-.003-.001-.003-.001-.003-.002h-.003l-.003-.003h-.003l-.003-.002h-.003c-.001-.002-.002-.002-.003-.002l-.004-.002-.004-.001-.003-.001-.004-.001-.003-.001-.005-.002-.005-.001-.004-.002h-.005l-.004-.002h-.076z"/></g><g><path d="M34.262 20.424l-.004.01a2.313 2.313 0 0 0-.009.022l-.01.022a.193.193 0 0 0-.01.021l-.008.022c-.003.008-.008.015-.01.023-.004.006-.008.013-.01.02l-.01.023-.012.021-.01.022-.011.023c-.004.007-.007.015-.012.02l-.01.023a3.054 3.054 0 0 0-.013.022l-.012.022-.012.022a.364.364 0 0 1-.013.02l-.012.023a.267.267 0 0 0-.013.022l-.013.022-.014.022-.014.022-.014.021-.015.022a.139.139 0 0 1-.014.022l-.016.022-.015.022-.016.021-.016.022-.017.023-.017.02-.017.023-.017.021-.02.022a3.993 3.993 0 0 1-.037.044l-.02.022-.02.022-.02.021-.022.023-.022.022a.394.394 0 0 0-.022.021l-.024.022-.023.022-.024.022a1.207 1.207 0 0 1-.052.043l-.028.022-.027.023-.03.02-.03.023a.32.32 0 0 1-.032.021c-.01.009-.021.015-.032.022l-.035.023-.035.02c-.014.01-.027.016-.039.023l-.04.022-.044.021a.804.804 0 0 1-.047.023c-.02.008-.038.016-.053.02a.827.827 0 0 1-.063.023c.077-.005.155-.013.23-.022l.152-.021c.04-.008.082-.014.122-.023l.104-.02.092-.023.084-.022.077-.021.071-.023.068-.022c.023-.006.044-.014.065-.021l.061-.022.058-.021.056-.023.054-.022.052-.021.05-.022.048-.022a.952.952 0 0 0 .047-.022l.046-.022.044-.021a9.83 9.83 0 0 0 .043-.022l.043-.023.04-.02.04-.023.04-.022.038-.021.037-.023.037-.022.036-.02c.012-.008.023-.016.036-.023.01-.008.022-.014.034-.021l.034-.023.033-.022.033-.021.032-.022c.01-.008.02-.015.032-.022l.03-.022.03-.022a.505.505 0 0 1 .031-.021l.03-.022a.669.669 0 0 0 .028-.022l.03-.022.027-.022.029-.022.027-.021.026-.022.027-.022.026-.022.026-.022.025-.021a.548.548 0 0 1 .025-.023l.025-.022.024-.021a.518.518 0 0 0 .024-.022l.024-.021.023-.023.004-.004c2.003.027 3.593-.39 4.684-.919 1.235-.618 2.097-1.323 2.796-2.291.188-.262.04-.293-.248-.286-1.593.042-2.266.09-2.629.18-.338.086-.794.505-1.074.683-.364.266-1 .039-2.49.332-1.92.33-2.01.97-3.368 1.197-.78.154-1.574.247-2.706.228.712.23 1.262.36 1.982.518.553.12 1.088.207 1.6.265"/></g><g clip-path="url(#clip-17604126-3E1E-4F01-B9A8-8881CCEAF093)"><path d="M29.396 31.864c-.97.015-1.397-.475-1.73-1.272-.531-1.272-.352-2.39.572-3.393.177-.192.369-.259.65-.25 1.37.042 2.74.045 4.11.046 1.555 0 3.096.263 4.656.221 1.05-.028 2.076-.331 3.12-.274 1.256.069 2.293-.63 3.44-.936.126-.034.187-.14.246-.26.42-.853.852-1.7 1.27-2.555.143-.295-.11-1.195-.406-1.412-.51-.375-1.031-.73-1.553-1.087-.248-.17-.386-.902-.208-1.132.053-.068.084-.03.142-.017.468.097.942.119 1.418.132.278.008.542.07.697.404-.097-.532.287-.667.602-.82.47-.23.909-.464 1.024-1.06.044-.225.167-.21.27-.044.187.302.392.571.248 1.003-.204.608-.267 1.268-.652 1.808a.598.598 0 0 0-.093.5c.242 1.04.304 2.118.64 3.136a.468.468 0 0 1 .007.32c-.241.709-.455 1.428-.72 2.127-.132.35-.28.667-.015 1.01.118.154.065.255-.09.335-.067.034-.115.119-.183.139a2.057 2.057 0 0 0-1.338 1.132c-.123.255-.418.315-.641.45-1.13.682-2.248 1.392-3.477 1.878-.33.131-.657.269-1.03.342.182.227.447.229.66.335.124.061.272.072.388.144.16.1.323.269.304.45-.022.212-.27.166-.418.18-.441.042-.888.001-1.325.111-.147.037-.271-.065-.373-.143-.811-.623-1.728-.601-2.666-.519-2.33.206-4.63-.01-6.9-.585-.039-.01-.096.009-.098-.098 1.677-.026 3.356.146 5.032-.021.156-.001.843.226.936.068-.087-.206-.976-.355-1.613-.366-.22-.004-3.385-.05-4.903-.027"/></g><g><path d="M28.162 41.686c-.288 0-.53-.006-.706-.01l.026.009-.063-.005a6.737 6.737 0 0 1-1.913-.901l-.054-.036c-.017-.012-.033-.025-.05-.036l-.05-.036-.05-.035c-.015-.013-.031-.024-.047-.036a2.039 2.039 0 0 1-.048-.035l-.045-.035a.754.754 0 0 1-.045-.036c-.015-.012-.03-.022-.045-.035-.014-.01-.028-.022-.042-.034l-.043-.035a1.585 1.585 0 0 1-.042-.035l-.04-.033-.041-.035-.04-.034c-.013-.012-.025-.024-.038-.034l-.039-.035a1.032 1.032 0 0 1-.036-.034c-.014-.01-.026-.022-.038-.034l-.037-.034-.035-.033a1.197 1.197 0 0 0-.07-.067l-.034-.034-.033-.033-.034-.034a.877.877 0 0 1-.032-.033l-.033-.033-.033-.033-.03-.033-.031-.033-.031-.034-.03-.033-.03-.032-.03-.033-.028-.033a.433.433 0 0 1-.028-.033.415.415 0 0 1-.029-.033.776.776 0 0 1-.056-.064l-.027-.033c-.01-.01-.018-.021-.028-.033l-.025-.032a.864.864 0 0 1-.026-.033 3.662 3.662 0 0 1-.077-.096l-.026-.033-.024-.031-.025-.033c-.008-.01-.017-.021-.024-.032l-.025-.032L23.68 39l-.023-.031c-.008-.01-.017-.021-.024-.032l-.023-.032-.022-.031a.571.571 0 0 1-.023-.032l-.022-.033-.023-.032-.02-.032a3.895 3.895 0 0 1-.043-.062l-.022-.032a.53.53 0 0 1-.02-.032l-.022-.031a.549.549 0 0 0-.02-.032l-.02-.032-.02-.032a.316.316 0 0 1-.02-.03l-.02-.032-.018-.032-.02-.03-.02-.032-.017-.032-.02-.03-.018-.032-.017-.031-.019-.032a.79.79 0 0 0-.018-.03l-.017-.032a.884.884 0 0 1-.017-.031l-.018-.032-.017-.03-.017-.031-.016-.032-.018-.03c-.005-.011-.01-.022-.016-.031l-.016-.032-.016-.03-.016-.032-.016-.03a9.761 9.761 0 0 1-.015-.032l-.015-.03-.016-.031-.015-.031-.014-.03-.015-.032-.015-.03-.014-.03-.014-.032a.83.83 0 0 1-.014-.03l-.015-.031-.013-.03-.014-.031a.449.449 0 0 0-.013-.031l-.014-.03c-.003-.011-.008-.02-.012-.031l-.013-.031-.013-.03a.9.9 0 0 0-.012-.03l-.012-.031-.013-.03-.012-.03-.011-.031-.012-.03-.011-.03c-.004-.012-.007-.022-.012-.031l-.01-.031a1.25 1.25 0 0 1-.02-.06c-.005-.013-.01-.023-.011-.03l-.006-.018a2.924 2.924 0 0 1-.27-.078 4.391 4.391 0 0 1-.462-.18l-.086-.04a1.456 1.456 0 0 1-.08-.04 1.708 1.708 0 0 1-.074-.04l-.069-.038-.066-.038-.061-.037-.059-.037-.056-.036c-.017-.013-.035-.024-.053-.036a1.656 1.656 0 0 0-.05-.036c-.017-.012-.033-.023-.048-.036a2.238 2.238 0 0 1-.047-.035l-.046-.035-.042-.035-.042-.035a7.286 7.286 0 0 0-.08-.068l-.037-.033c-.012-.012-.024-.024-.037-.034-.012-.012-.023-.024-.035-.034l-.035-.034a.813.813 0 0 1-.032-.033c-.011-.011-.023-.022-.033-.034l-.031-.033-.03-.032-.03-.033-.03-.033-.027-.033c-.01-.01-.018-.022-.027-.033a.693.693 0 0 1-.027-.031l-.026-.033c-.008-.01-.018-.021-.026-.033l-.024-.032a4.237 4.237 0 0 1-.025-.032l-.023-.031-.022-.033-.023-.032-.021-.032-.021-.031-.02-.031c-.008-.01-.014-.021-.021-.032l-.02-.032-.018-.031a.54.54 0 0 1-.036-.063l-.017-.03-.018-.031-.016-.032a1.193 1.193 0 0 0-.032-.061l-.015-.031a.705.705 0 0 1-.028-.061l-.013-.031-.014-.03a.314.314 0 0 1-.012-.031l-.011-.03a.08.08 0 0 1-.005-.015l.017.016.036.034.037.034c.013.01.026.022.04.035l.044.033c.015.012.031.025.049.036.017.012.035.025.054.036l.064.039.076.039a1.616 1.616 0 0 0 .232.09c.163.048.36.082.6.083h.02a2.698 2.698 0 0 0 .29-.014l.114-.012.101-.015h.001l.11-.014a1.864 1.864 0 0 1 .168-.004 1.11 1.11 0 0 1 .492.126.709.709 0 0 1 .063.037l.052.036.043.035.038.034c.012.011.022.023.032.034a.41.41 0 0 1 .029.032.402.402 0 0 1 .035.048l.004-.014a.213.213 0 0 1 .009-.027.121.121 0 0 1 .009-.028l.01-.027.012-.027.014-.027.016-.027.019-.025a.287.287 0 0 1 .022-.026l.025-.025c.009-.01.019-.017.029-.025a.272.272 0 0 1 .034-.024.322.322 0 0 1 .04-.023.485.485 0 0 1 .108-.042.87.87 0 0 1 .184-.032c.037-.003.077-.005.118-.005h.062c.178.007.374.035.57.062.16.024.321.046.472.056.058.005.114.007.17.007l.071-.001a1.196 1.196 0 0 0 .215-.028l.068-.019.055-.021.045-.022.17.023a.297.297 0 0 1-.01.028l-.01.027-.01.026c-.004.01-.007.02-.012.028l-.012.027-.012.027a.193.193 0 0 1-.013.026c-.004.01-.01.018-.013.028a.357.357 0 0 0-.015.026l-.015.027a.244.244 0 0 1-.016.026.499.499 0 0 1-.015.027l-.018.026c-.006.009-.01.018-.017.027l-.018.026-.018.026-.02.026-.02.026a.4.4 0 0 1-.02.026c-.008.008-.015.017-.02.025-.009.009-.016.018-.023.027-.007.008-.014.017-.023.025l-.022.026a.509.509 0 0 0-.023.025l-.025.025a6.869 6.869 0 0 1-.05.051l-.026.025a.617.617 0 0 1-.054.05l-.027.025c-.01.008-.018.017-.029.024l-.028.025-.03.025-.03.024-.03.024-.032.025-.032.024-.033.025-.034.024-.033.023-.035.024-.035.024-.036.024-.036.023-.038.024-.038.023a.72.72 0 0 1-.038.023l-.039.024a1.893 1.893 0 0 1-.081.046l-.04.023a1.8 1.8 0 0 0-.042.023l-.043.023-.044.022-.045.023-.044.023-.046.022-.046.022-.048.022a2.047 2.047 0 0 0-.047.023l-.05.02a1.649 1.649 0 0 1-.1.043c-.019.009-.036.016-.053.022-.019.009-.037.015-.053.022l-.055.02c-.023.01-.04.017-.056.022l-.044.016.001.007.006.029.005.03a1.012 1.012 0 0 0 .02.088l.007.03.008.03.008.03.008.03.01.03c.002.01.007.02.01.03l.01.03.01.03.012.031.012.03.013.03.013.031.015.031.014.03.015.031a.47.47 0 0 1 .017.032c.006.01.01.02.017.03l.018.032.019.031.019.032.021.032.021.032.024.031.023.032.026.033.026.032a.848.848 0 0 0 .027.033l.03.032.03.033.033.034.034.033a1.019 1.019 0 0 0 .076.068l.04.035.044.034.046.035c.016.013.033.025.05.036l.052.036.058.037.062.037.067.039.075.039.083.04c.03.015.062.028.093.042a4.402 4.402 0 0 0 .237.09c.054.02.109.036.163.052.08.023.16.044.24.063a5.254 5.254 0 0 0 1.133.129h.08l.12-.001c.07-.001.124-.005.16-.007.033 0 .05-.003.05-.003l.004-.018.007-.027.01-.028.01-.026.014-.028a.37.37 0 0 1 .014-.026l.018-.027.018-.026.02-.026.023-.025.025-.026.027-.025a.604.604 0 0 1 .029-.024l.032-.025c.013-.008.024-.017.035-.023.013-.01.026-.017.038-.024.017-.01.031-.018.041-.022l.012-.007.016.01.062.038.068.038.077.04c.03.014.059.028.088.04l.102.044.12.045a4.02 4.02 0 0 0 .364.108c.208.051.354.07.354.07h6.685l.007-.004.042-.023a6.49 6.49 0 0 0 .043-.023l.043-.022.045-.023a2.173 2.173 0 0 1 .193-.088l.053-.021c.018-.008.037-.014.055-.021a1.349 1.349 0 0 1 .203-.058.53.53 0 0 1 .096-.009l.062.002c.026.003.054.006.08.012a1.753 1.753 0 0 1 .344.106c.035.013.069.028.101.042l.089.041.08.04c.032.017.058.03.073.04l.018.01h3.148c.106 0 .19.013.253.036a.337.337 0 0 1 .123.074c.01.01.019.022.027.033l.02.032.013.03.01.03.006.03c0 .01.003.02.004.03v.038h-.13l-.176.005-.168.005-.162.006-.159.007-.155.006-.153.008-.15.008-.147.008a6.686 6.686 0 0 1-.144.008l-.142.01-.14.008-.138.01-.134.01-.13.01-.128.011-.123.012-.116.013a.664.664 0 0 0-.156.034.904.904 0 0 0-.056.022c-.017.007-.034.013-.05.022a.444.444 0 0 0-.046.022l-.042.022-.04.024-.037.023-.037.024-.036.024-.034.024a.61.61 0 0 0-.034.024l-.032.024a.668.668 0 0 1-.032.024l-.031.024-.032.025-.031.024-.03.024-.031.025-.032.024-.03.025-.03.025a.643.643 0 0 0-.095.073l-.033.023c-.01.009-.022.017-.033.024l-.034.025-.035.023-.036.024-.038.024-.04.023-.042.022a.369.369 0 0 1-.047.022c-.016.009-.033.015-.05.023l-.06.02a.688.688 0 0 1-.175.027h-.04a13.123 13.123 0 0 0-.545.01l-.154.007a7.706 7.706 0 0 0-.282.018c-.042.003-.085.008-.129.01-.04.005-.082.008-.123.012l-.117.013-.113.013c-.036.004-.072.008-.108.014-.035.004-.069.01-.104.013-.033.006-.067.01-.1.015a13.059 13.059 0 0 1-.19.03l-.09.018-.086.016a2.403 2.403 0 0 1-.085.017l-.082.018-.079.017c-.026.006-.052.011-.077.018l-.075.018a22.52 22.52 0 0 0-.074.019l-.07.019-.07.019a14.59 14.59 0 0 0-.067.019l-.066.019-.064.02-.062.02-.061.02-.059.02-.058.021-.057.022-.056.02a.855.855 0 0 1-.053.02l-.052.023a.992.992 0 0 0-.052.021c-.017.008-.035.014-.051.022l-.049.022-.048.022-.047.022a1.959 1.959 0 0 0-.047.022l-.045.023-.044.022a17.88 17.88 0 0 1-.085.045l-.041.024a.523.523 0 0 0-.041.023l-.04.023c-.004.002-.008.004-.01.007a.642.642 0 0 0-.03.015c-.013.009-.027.016-.04.024l-.04.023-.043.023a1.826 1.826 0 0 1-.044.023l-.044.022-.045.022-.047.022-.048.023-.05.022a.753.753 0 0 1-.05.02 1.273 1.273 0 0 1-.052.023c-.018.006-.035.014-.053.021l-.055.021-.056.02-.058.022-.059.02-.06.02a1.393 1.393 0 0 1-.064.02 2.103 2.103 0 0 0-.065.02l-.066.02-.07.018-.07.02a7.1 7.1 0 0 1-.148.037l-.077.016a2.57 2.57 0 0 1-.08.018c-.828.177-1.688.211-2.327.211zm7.999-2.404c-.001 0-.004 0-.006-.002l-.006-.001-.006-.002h-.005l-.007-.003c-.003 0-.005 0-.008-.002l-.007-.001-.008-.002h-.206l-.012.002-.01.001c-.003.002-.006.002-.01.002l-.01.002-.007.001-.01.002-.008.001-.008.001zm-.063-.014l-.012-.001-.014-.003-.017-.001a.98.98 0 0 0-.09 0l-.02.001-.018.003-.012.001-.013.001h-.076l-.007.001-.007.001-.008.002h-.007l-.006.003h-.007l-.006.002h-.007l-.005.002-.006.002-.007.001-.006.001-.006.001-.006.001-.005.002-.005.001-.006.001-.01.003-.007.002h-.005l-.005.002h-.005l-.005.002-.005.002-.005.001-.005.001-.005.001-.005.001-.004.002-.005.001-.005.002h-.005l-.004.002-.004.002h-.006l-.004.002-.005.001-.004.001-.005.001-.004.002-.004.001-.004.001-.005.001-.004.001-.005.003-.008.002h-.005l-.004.002-.004.002h-.004l-.004.002-.004.001-.004.001-.005.002-.004.001-.003.001-.004.001-.004.002-.004.002h-.004l-.004.002h-.004l-.003.002-.004.002-.005.001-.004.001-.003.001-.004.001-.004.002-.004.001-.003.001-.004.001-.003.002-.004.002h-.004l-.003.002h-.005l-.003.002-.004.002-.004.001-.003.001-.004.001-.003.001-.004.001-.003.002-.004.001-.003.001-.003.002h-.005l-.003.003H35.4l-.003.002h-.003l-.004.002-.003.002-.004.001-.003.001-.003.001-.004.001-.003.003h-.003l-.004.002h-.004l-.003.002-.003.002h-.004l-.003.002-.003.001-.003.001-.003.002-.004.001-.003.001-.003.001-.003.001-.005.003h-.003l-.003.002h-.003l-.003.002-.003.002h-.003l-.004.002-.003.001-.003.001-.003.002-.003.001-.003.001-.003.001-.004.001-.003.002-.003.002h-.003l-.003.002h-.003l-.003.002-.003.002-.004.001-.002.001-.004.001-.003.001-.003.002-.003.001-.002.001-.003.001-.004.002-.003.002h-.003l-.003.002h-.003l-.003.002-.003.002-.003.001-.003.001-.003.001-.003.001-.003.002-.002.001-.003.002h-.003l-.004.002-.003.002h-.003l-.003.002-.002.001h-.003l-.003.003-.003.001-.003.001-.003.001-.002.001-.003.002-.003.002h-.003l-.004.002h-.002l-.003.002-.003.002h-.003l-.002.002-.003.001-.003.001-.003.002-.003.001-.002.001-.003.001-.003.001-.002.003h-.003l-.003.002h-.003l-.003.002-.003.002-.003.001-.002.001-.003.001-.003.001-.002.002-.003.001-.003.001-.002.001-.003.001-.003.003h-.002l-.003.002h-.003l-.002.002-.004.002-.002.001-.003.001-.003.001-.002.001-.003.002-.002.001-.003.001-.003.001-.002.001-.003.003h-.002l-.003.002h-.002l-.003.002-.002.001-.003.002-.003.001-.003.001-.003.001-.002.001-.003.002-.002.002h-.003l-.002.002h-.003l-.002.003h-.003l-.002.002-.002.001-.003.001-.002.002-.003.001-.002.001h.57v.008c0 .17.134.307.297.307a.302.302 0 0 0 .297-.307v-.008h.29v-.003l-.001-.001v-.008l-.001-.001v-.01l-.001-.001v-.009h-.001v-.005h-.001v-.006l-.001-.001v-.006h-.001v-.005h-.001v-.006l-.002-.001v-.008h-.002v-.007l-.002-.001v-.008l-.002-.002v-.006l-.002-.001v-.005l-.002-.001v-.006h-.002v-.006l-.002-.001v-.003l-.002-.002v-.004h-.002v-.005h-.002v-.002l-.001-.002v-.001l-.001-.001v-.001l-.001-.001v-.002l-.001-.002h-.001v-.002h-.001v-.002l-.001-.002v-.001l-.001-.001-.001-.001v-.001l-.001-.002-.001-.001v-.001l-.001-.001-.001-.001v-.003h-.001l-.001-.002-.001-.002-.001-.002v-.001l-.001-.001-.002-.001v-.003l-.002-.001V39.4l-.002-.001v-.004h-.002l-.002-.003-.002-.003v-.002l-.002-.001v-.001l-.002-.002v-.001l-.002-.002h-.001v-.002l-.002-.002h-.001l-.001-.002h-.001l-.001-.002h-.001l-.001-.003v-.001l-.001-.001-.001-.001-.002-.001-.001-.002-.001-.002h-.001l-.001-.002h-.001l-.002-.003h-.002v-.002l-.001-.001-.002-.001v-.002l-.003-.001v-.001l-.002-.001-.002-.001v-.002l-.002-.002h-.002v-.002h-.003v-.003h-.002l-.002-.002v-.001l-.003-.001-.001-.002-.002-.001-.001-.001-.002-.001-.002-.001-.001-.003h-.002l-.002-.002h-.001l-.002-.002-.002-.002h-.001l-.003-.002-.002-.001-.002-.001-.002-.001-.002-.002-.002-.001-.002-.001-.002-.002h-.002l-.002-.003h-.002l-.003-.002h-.002l-.003-.002-.002-.002-.003-.001-.002-.001-.002-.001-.003-.001-.002-.002-.004-.001-.003-.002h-.003l-.003-.002-.003-.002h-.003l-.003-.002h-.003c-.001-.002-.002-.002-.003-.002l-.004-.002-.004-.001-.003-.001-.004-.001-.003-.001-.005-.002-.005-.001-.004-.002h-.005l-.004-.002h-.077z"/></g><g><path d="M31.542 42.644l-.004.01-.009.022-.01.022a.193.193 0 0 0-.01.021l-.008.022c-.003.008-.008.015-.01.023-.004.006-.008.013-.01.02l-.01.023-.012.021-.01.022-.011.023c-.004.007-.007.015-.012.02l-.01.023-.013.022-.012.021-.012.023a.364.364 0 0 1-.013.02l-.012.023a.267.267 0 0 0-.013.022l-.013.022-.014.022-.014.022-.014.021-.015.022a.139.139 0 0 1-.014.022l-.016.022-.015.022-.016.021-.016.022-.017.023-.017.02-.017.023-.017.021-.02.022-.018.023a.18.18 0 0 1-.02.02c-.005.008-.013.016-.019.023l-.02.022-.02.021-.022.023-.022.022a.364.364 0 0 0-.022.021l-.024.022-.023.021a6 6 0 0 0-.024.023.998.998 0 0 1-.052.043l-.028.022-.027.023-.03.02-.03.023a.338.338 0 0 1-.032.021c-.01.009-.021.015-.032.022l-.035.023-.035.02c-.014.01-.027.016-.039.023l-.04.022-.044.021a.776.776 0 0 1-.047.023l-.053.02a.882.882 0 0 1-.063.023c.077-.005.155-.013.23-.022l.152-.021c.04-.008.082-.014.122-.023l.104-.02.092-.023.084-.022.077-.021.071-.023.068-.022c.023-.006.044-.014.065-.021l.061-.022.058-.021.056-.023.054-.022.052-.021.05-.022.048-.023a.875.875 0 0 0 .047-.02l.046-.023.044-.021a9.83 9.83 0 0 0 .043-.022l.043-.023.04-.02.04-.023.04-.022.038-.021.037-.023.037-.022.036-.02c.012-.008.023-.016.036-.023.01-.008.022-.014.034-.021l.034-.023.033-.022.033-.021.032-.022c.01-.008.02-.015.032-.022l.03-.022.03-.022a.505.505 0 0 1 .031-.021l.03-.022a.669.669 0 0 0 .028-.022l.03-.022.027-.022.029-.022.027-.021.026-.023.027-.02.026-.023.026-.022.025-.021a.548.548 0 0 1 .025-.023l.025-.022.024-.021a.472.472 0 0 0 .024-.022l.024-.021.023-.023.004-.004c2.003.027 3.593-.39 4.684-.919 1.235-.618 2.097-1.323 2.796-2.291.188-.262.04-.293-.248-.286-1.593.042-2.266.09-2.629.18-.338.086-.794.505-1.074.683-.364.266-1 .039-2.49.332-1.92.33-2.009.97-3.368 1.197a12.13 12.13 0 0 1-2.706.228 19.3 19.3 0 0 0 1.982.518c.553.12 1.088.207 1.6.265"/></g></g></svg>