<svg xmlns="http://www.w3.org/2000/svg" width="44" height="44" viewBox="0 0 44 44"><g><g clip-path="url(#clip-133DD7A2-2FEB-4195-BB91-B36986BAABF0)"><path d="M-.409 37.2l-.463-.997.364-.058c.112.36.278.715.327 1.085.077.589.423.927.908 1.183.515.273 1.04.52 1.613.649.059.013.123.034.167-.029.042-.06.019-.119-.014-.18-.057-.106-.143-.214-.153-.326-.04-.454-.394-.625-.712-.833-.26-.17-.517-.348-.784-.507-.2-.117-.27-.233-.041-.415.277.163.501.456.885.5-.155-.324-.448-.503-.658-.758a.362.362 0 0 1 .335-.194c.135.012.15.195.229.295.083.106.158.22.277.386.051-.343-.067-.576-.18-.825l.419-.142c.058.273-.006.544.153.85l.164-.864.374.067c-.12.232-.235.45-.347.669-.029.057-.065.128.004.172.066.042.107-.026.149-.069.192-.196.298-.464.528-.637.076.047.147.09.23.143l-.625.826c.414-.04.589-.395.878-.615l.154.161c-.399.427-.878.76-1.197 1.236-.132.197.02.435.096.637.146.386.695.558 1.186.416.447-.13.9-.236 1.362-.356-.099.256-.323.313-.538.38-.65.204-1.337.307-1.913.702-.26.178-.598.318-.677.644-.07.289-.022.606-.027.91-.002.111-.008.222-.01.333-.005.175-.13.162-.261.17l-.04-.92-.303.808c-.305-.02-.374-.14-.247-.4.078-.162.14-.33.168-.522l-.512.621-.28-.276c.142-.215.409-.286.544-.56l-.758.24-.12-.263.902-.28-.01-.075-.982.046-.021-.291c.338-.07.657.026.995-.042l-.865-.385c.043-.191.121-.31.264-.293.54.217.984.527 1.504.648.19.045.288-.188.435-.284.046-.03.129-.055.086-.166a4.769 4.769 0 0 1-1.086-.317c-.463-.21-.895-.473-1.325-.742-.136-.085-.262-.107-.371.042-.304.413-.61.824-.911 1.239-.046.063-.09.128-.172.12-.097-.01-.17-.064-.194-.178.188-.239.472-.407.613-.736-.358.115-.652.294-.97.474l-.179-.278c.306-.244.726-.258 1.042-.588-.442.022-.8.15-1.167.229-.084-.116-.06-.238-.06-.376l1.207-.081c-.365-.216-.754-.266-1.153-.275-.074-.174.056-.313.037-.48.42.073.779.306 1.252.336-.333-.324-.73-.432-1.041-.686l.184-.296c.314.239.627.455 1.025.664-.206-.407-.561-.607-.76-.95.152-.111.27-.36.465-.021.125.218.297.41.45.61.03.04.071.072.107.107z"/></g><g><path d="M20.44 19.225l1.1-.007-.098.354c-.375-.047-.767-.044-1.125-.153-.569-.173-1.02 0-1.455.335-.462.355-.905.73-1.26 1.196-.036.048-.083.098-.043.164.038.063.1.067.17.062.12-.008.254-.041.361-.004.43.152.733-.099 1.054-.302.263-.166.532-.324.787-.502.19-.132.324-.148.396.135-.263.184-.624.267-.823.597.36-.006.644-.198.964-.284.092.125.1.28.039.385-.068.117-.24.055-.365.086-.131.031-.265.052-.467.091.292.19.554.178.828.179l-.045.439c-.272-.06-.493-.23-.838-.214l.72.508-.217.312c-.16-.205-.312-.4-.465-.592-.04-.05-.09-.113-.16-.068-.065.042-.02.107.002.164.1.255.3.463.362.744l-.225.15-.495-.911c-.135.392.117.698.197 1.052l-.21.073c-.224-.538-.329-1.112-.631-1.598-.126-.203-.405-.162-.621-.177-.413-.028-.797.4-.87.905-.068.459-.158.915-.24 1.384-.193-.196-.152-.423-.124-.646.083-.674.273-1.342.152-2.029-.054-.31-.042-.675-.306-.882-.234-.183-.544-.27-.82-.401-.1-.048-.198-.1-.299-.148-.157-.076-.094-.184-.046-.307l.855.345-.612-.61c.145-.268.283-.282.468-.058.115.137.243.263.406.368l-.354-.722c.124-.047.244-.092.367-.14.138.218.092.49.287.727l.094-.788.29-.001-.12.936.074.022.365-.911.274.101c-.077.336-.296.587-.374.922l.709-.627c.157.118.233.239.159.361-.423.401-.89.676-1.215 1.098-.12.155.052.34.08.513.007.054-.005.14.115.146.212-.3.448-.601.738-.854.383-.334.803-.617 1.226-.897.134-.088.206-.193.115-.354-.25-.447-.499-.896-.752-1.341-.038-.068-.08-.134-.037-.206.05-.083.128-.128.242-.102.14.27.175.597.417.861.043-.372.002-.713-.03-1.077l.327-.047c.096.378-.065.766.105 1.19.163-.411.194-.789.275-1.155.14-.028.241.044.367.101l-.426 1.13c.348-.242.555-.574.729-.933.19.005.262.18.422.233-.241.35-.602.58-.825.997.433-.168.696-.484 1.057-.661l.194.29a6.99 6.99 0 0 0-1.031.656c.457-.019.786-.259 1.18-.297.04.184.217.395-.172.43-.25.024-.496.1-.744.157-.048.01-.094.035-.14.053z"/></g><g><path d="M41.628 41.104c-.207-1-.876-1.395-1.69-1.572-.47-.103-.965-.164-1.524.048.433.12.83.082 1.208.345-1.926.373-3.865.182-5.813.774.492.147.895.064 1.291.143-.842.825-4.274.58-6.373-.36.2.436.617.58.93.883-1.019-.026-1.847-.426-2.624-.987-.858-.619-1.05-1.511-1.037-2.49-.313.073-.358.217-.477 1.394-.75-.562-.822-1.68-.186-3.155-.273.224-.483.45-.594.768-.118-.45-.012-.854.206-1.235.224-.39.555-.686.907-.958.318-.246.46-.581.558-1.048-.254.338-.454.609-.854.743.484-.977.606-2.031 1.263-2.862-.567.335-.84.876-1.088 1.445-.066-.683-.09-1.355.328-1.945.405-.57 1.168-.607 1.705-1.106-.539.087-1.027.1-1.538.45.424-.587.839-1.002 1.402-1.263.427-.198.889-.259 1.337-.375.209-.053.387-.162.62-.383-.72.214-1.385.124-2.078.416.348-.416.793-.458 1.15-.657 1.252-.7 2.655-1.045 3.944-1.659 1.061-.506 2.16-.974 2.72-2.125.043-.089.08-.18.129-.291-.388-.182-.77-.142-1.144-.064-.803.166-1.51.56-2.136 1.06-.989.792-2.07 1.022-3.296.765-.802-.168-1.64-.157-2.405-.508-.482-.22-.932-.473-1.129-1.01-.175-.479.019-.746.517-.7.174.016.355.036.517.16-.1.218-.168.442-.164.681.006.357.357.626.67.46.92-.49 1.84-.992 2.5-1.836.361-.464.413-1.057.614-1.587.236-.62.698-.928 1.245-1.187.21-.1.458-.14.652-.348-.24-.076-.445-.092-.638-.005-.419.189-.58-.078-.595-.426a3.056 3.056 0 0 0-.474-1.535c-.166-.264-.463-.334-.697-.502.489-.506 2.422.32 3.366 1.42.902-.645 1.1-1.498.666-2.55.464.109.717.396.986.648.77.723 1.238 1.583 1.237 2.673 0 .599.168.77.758.934.72.201 1.134.422 1.482.8-.312-.033-.604-.175-1.018-.006.804.29 1.511.586 1.802 1.386a3.553 3.553 0 0 0-.947-.647c-.35-.157-.708-.298-1.126-.236.986.421 1.877.939 2.254 2.027-.584-.611-1.541-.507-2.106-1.147.121.54.52.841.965 1.005.747.276.896.89.985 1.535.127.924.228 1.853.288 2.784.046.71.005 1.424.015 2.136.022 1.553-.035 3.108.132 4.655.032.296.11.59.195.875.103.342.44.275.688.324.152.03.313-.008.333.196.02.19-.088.335-.252.41-.714.324-1.345-.005-1.46-.779-.147-.998-.462-1.952-.736-2.917-.026-.091-.078-.175-.17-.377-.057.594-.098 1.066-.149 1.536-.056.516-.11 1.033-.184 1.547-.062.442.064.608.504.633.202.012.5-.063.512.238.012.279-.242.354-.498.384-.725.085-1.066-.25-1.255-1.06-.235-1.012-.264-2.046-.424-3.065-.093-.586-.44-1.038-.81-1.479-.886-1.052-2.03-1.157-3.276-.906a.333.333 0 0 0-.098.042c-.016.01-.026.03-.042.05.069.092.16.054.234.036 1.883-.438 4.02 1.615 3.22 3.766-.282.754-.861 1.27-1.446 1.778-.11.096-.228.172-.19.293.464-.033.907-.076 1.35-.091.268-.01.546-.008.758.21.094.097.126.206.087.333-.037.12-.143.17-.25.17-1.059.002-2.079.362-3.148.308-.454-.022-.916.104-1.374.156-.702.079-1.362-.008-1.92-.493-.068-.059-.15-.102-.278-.19.21.527.62.731 1.033.912.622.273 1.297.268 1.959.326.613.053 1.222-.07 1.914-.057-.374.295-.783.268-1.127.428.275.128 1.87-.159 2.358-.418.37-.196 2.04-.493 2.385-.409l-.65.43c.352.053.577-.187.857-.235 1.134-.195 2.23-.124 3.16.624.437.352.47.947.597 1.457zm-3.754-14.956c.051.074.116.131.21.127.104-.004.152-.09.168-.17.082-.41.01-.79-.223-1.15zm-.982-.088c.03.103.08.188.202.184.124-.004.201-.082.218-.198.052-.356.01-.7-.151-1.047zm-.89.173c.13.057.197-.052.25-.142.211-.35.126-.71-.028-1.086-.126.303-.264.603-.374.911zm-3.347-4.792c-.89.055-1.919 1.548-2.038 2.3.406.1.795.142 1.198.053.89-.195 1.513-.78 1.62-1.546zm2.585-1.218c-.017-.067-.014-.14-.016-.21-.022-.935-.304-1.761-1.072-2.468.205.81-.359 1.19-.78 1.65-.168.182-.268.406-.198.708.172-.086.322-.149.459-.233.126-.077.205-.064.277.067.23.422.601.653 1.066.744zm-.219 5.653c.094.078.198.028.269-.046.276-.289.364-.635.307-1.084-.261.27-.501.474-.639.765zm-3.465 9.802c1.27.468 2.854-.358 3.215-1.654.294-1.052-.27-2.381-1.102-2.544.754.846.945 1.781.406 2.773zm-5.121.234c-.332.33-.39.65-.34 1.001a.14.14 0 0 0 .132.122c.092.01.152-.042.19-.112zm1.329 3.577c-.135-.33-.423-.489-.727-.671-.072.3.179.867.403.973.093.044.179.027.256-.04zm-.02-1.619c-.064-.344-.185-.66-.482-.92-.19.49-.123.939.142 1.102.072.044.144.073.223.028zm.908-.185c.14.357.293.596.522.775.095.074.236.045.336-.042.066-.058.083-.138.031-.209zm.942 1.985a2.287 2.287 0 0 0-.818-.33c.144.313.333.5.534.677.12.106.24.088.334-.03zm2.098.426c-.22-.247-.517-.203-.873-.231.2.317.45.446.74.507.05.01.13-.049.173-.096zm-.298-1.547a1.634 1.634 0 0 0-.807.132c.24.202.482.285.737.345.173.04.325.035.356-.176zm2.178 1.147c-.218-.256-.689-.328-1.038-.148zm1.682-.86a.168.168 0 0 0-.192-.135c-.275.036-.548.09-.807.312.319.145.59.18.87.043zm1.255.602a.21.21 0 0 0-.234-.142 1.333 1.333 0 0 0-.679.31c.3.11.56.105.817.018zm.917-.958c-.282-.151-.542-.029-.863.04zm.678.7c-.233-.123-.385.059-.564.153.206.06.41.18.6.007zm1.105-.838c-.225-.046-.433.029-.717.09.265.117.461.223.695.226.102 0 .188-.026.193-.143zm1.634.85c-.13-.226-.33-.308-.605-.225.196.12.221.442.524.411zM27.227 23.86l-.24-.61.432.018zm-1.76 1.734l.613-.201-.39.516zm.577.621l.324-.531c.041.268.076.441.014.617zm1.627-2.343l.074-.548a.44.44 0 0 1 .315.142zm5.174-1.077c-.223.43-1.128.806-1.569.52.775-.193 1.27-.644 1.502-1.367z"/></g><g clip-path="url(#clip-F8C3C1E3-78EA-47EE-B4BC-28C31F81F3E4)"><path d="M-12.65 20.024c.856.562 1.608.368 2.31-.08.404-.259.797-.566 1.043-1.11-.392.221-.645.528-1.099.608 1.098-1.622 2.604-2.856 3.562-4.65-.452.244-.678.587-1.014.811.01-1.177 2.61-3.426 4.762-4.242-.45-.168-.847.025-1.283.03.738-.7 1.607-1.001 2.554-1.153 1.045-.168 1.813.328 2.498 1.03.17-.273.099-.407-.65-1.323.927-.132 1.77.608 2.366 2.1.035-.351.023-.66-.124-.963.402.235.614.596.73 1.018.118.435.093.878.037 1.318-.05.398.087.735.348 1.135-.06-.418-.11-.75.077-1.128.35 1.033 1.01 1.864 1.135 2.915.163-.636-.027-1.212-.255-1.79.531.437 1.025.895 1.147 1.607.117.69-.396 1.254-.423 1.985.32-.44.656-.795.77-1.402.115.713.116 1.3-.097 1.882-.162.442-.445.81-.68 1.208-.11.185-.159.388-.167.71.357-.66.891-1.067 1.175-1.762.048.54-.237.883-.348 1.276-.39 1.379-1.137 2.613-1.613 3.956-.393 1.107-.838 2.214-.418 3.423.032.092.07.183.115.297.403-.146.644-.443.854-.763.45-.684.67-1.461.758-2.257.14-1.258.741-2.183 1.79-2.867.686-.446 1.271-1.046 2.06-1.338.498-.184.995-.322 1.514-.082.463.214.516.54.13.86-.134.111-.276.225-.479.251a1.565 1.565 0 0 0-.366-.597c-.257-.248-.696-.19-.799.147-.304.996-.599 2-.467 3.063.073.583.457 1.04.69 1.556.272.604.164 1.148-.039 1.717-.078.22-.225.423-.215.707.224-.115.38-.249.455-.447.162-.43.465-.354.722-.12a3.07 3.07 0 0 0 1.423.752c.304.07.564-.09.848-.136.014.702-1.94 1.482-3.385 1.371-.181 1.092.284 1.835 1.335 2.273-.405.25-.787.226-1.156.238-1.057.032-1.998-.246-2.77-1.018-.423-.423-.663-.425-1.197-.125-.651.365-1.1.501-1.614.48.244-.197.551-.302.724-.714-.774.362-1.484.652-2.256.292a3.56 3.56 0 0 0 1.128-.211c.359-.136.712-.29.963-.628-.996.398-1.992.66-3.03.157.846.02 1.45-.729 2.302-.675-.469-.297-.964-.227-1.394-.03-.724.332-1.265.004-1.785-.39a39.142 39.142 0 0 1-2.176-1.765c-.535-.469-1.012-1.004-1.524-1.5-1.115-1.083-2.177-2.222-3.392-3.199a4.927 4.927 0 0 0-.758-.48c-.315-.17-.505.116-.715.256-.128.086-.216.226-.375.096-.148-.12-.175-.299-.112-.467.276-.733.955-.946 1.584-.48.812.602 1.71 1.054 2.588 1.543.083.047.179.07.387.147-.38-.46-.686-.823-.983-1.191-.326-.405-.653-.809-.966-1.224-.269-.356-.476-.385-.804-.092-.151.134-.31.397-.531.193-.206-.189-.08-.421.08-.623.453-.572.93-.576 1.638-.136.884.55 1.636 1.26 2.472 1.868.48.349 1.046.424 1.62.474 1.372.118 2.256-.615 2.959-1.67a.33.33 0 0 0 .04-.1c.004-.018-.003-.04-.006-.065-.114-.016-.152.075-.192.14-1.02 1.638-3.987 1.696-4.944-.391-.336-.732-.29-1.505-.238-2.277.01-.146.04-.283-.073-.342-.305.35-.587.694-.89 1.018-.183.195-.38.39-.685.386-.136-.002-.235-.057-.297-.175-.06-.111-.02-.22.056-.297.747-.748 1.213-1.722 2.007-2.439.338-.304.574-.719.862-1.08.44-.55.968-.955 1.707-1.006.09-.006.178-.033.33-.062-.521-.224-.955-.08-1.376.084-.633.247-1.107.726-1.616 1.153-.471.394-.814.912-1.313 1.39.055-.472.363-.741.493-1.097-.285.104-1.21 1.432-1.37 1.959-.123.4-1.094 1.789-1.397 1.973l.154-.763c-.286.21-.275.54-.439.77-.663.94-1.488 1.662-2.676 1.79-.559.059-1.004-.338-1.455-.61zM.598 27.947c-.089-.016-.176-.011-.24.058-.07.076-.042.172.003.24.235.349.557.57.979.661zm.753-.63c-.094-.052-.188-.078-.27.011-.085.09-.084.2-.014.295.215.29.489.506.846.64zm.51-.751c-.133.052-.102.177-.076.28.101.402.419.6.795.76-.127-.307-.243-.62-.386-.921zm5.768 1.031c.59-.667.255-2.452-.196-3.07-.357.216-.662.46-.885.807-.49.767-.514 1.623-.045 2.241zm-.972 2.675c.06.035.11.088.16.137.68.644 1.466 1.03 2.512.989-.72-.429-.591-1.092-.62-1.714-.011-.247-.1-.475-.364-.639-.06.182-.122.332-.16.487-.033.143-.098.19-.242.148-.464-.136-.89-.039-1.283.224zm-3.85-4.146c-.122.01-.16.12-.157.224.012.404.196.716.557.998-.008-.38.016-.698-.095-1.005zm-4.492-9.375c-1.23.566-1.763 2.268-1.1 3.442.54.953 1.882 1.497 2.586 1.024-1.133-.067-1.933-.595-2.255-1.678zm3.463-3.772c0-.468-.185-.735-.47-.947a.14.14 0 0 0-.178.007c-.073.058-.079.137-.056.213zM-1.7 11.393c.332.143.648.051.994-.034-.163-.27-.746-.502-.98-.419-.099.035-.147.11-.154.214zm1.167 1.113c.29.201.6.344.993.323-.219-.48-.586-.755-.887-.687-.081.018-.152.047-.176.134zm-.523.785c-.355-.16-.634-.225-.922-.193-.12.013-.198.134-.206.268-.005.088.041.158.128.173zm-2.065-.74c.27-.052.524-.157.815-.342-.326-.122-.594-.123-.863-.109-.16.01-.233.108-.215.257zm-1.788 1.175c.336.026.515-.216.787-.446a1.066 1.066 0 0 0-.895.15c-.043.027-.057.127-.054.192zm1.308.895c.2-.169.363-.376.482-.668-.314.027-.546.141-.77.28-.153.095-.258.207-.13.379zm-2.351.717c.343.03.732-.25.85-.626zm-.573 1.789c.083.056.18.034.233-.036.167-.219.318-.448.339-.79-.328.118-.544.282-.64.577zm-1.321.467c.1.047.206.024.27-.062.141-.194.23-.412.254-.703a1.14 1.14 0 0 0-.591.563zm.038 1.318c.308-.086.4-.357.574-.63zm-.982.002c.255-.076.23-.321.287-.52-.19.103-.421.16-.43.427zm-.182 1.371c.195-.127.29-.332.447-.58-.276.103-.496.166-.665.332-.074.071-.116.153-.033.244zm-1.765.54c.255.072.456-.01.59-.265-.225.052-.476-.162-.669.073zM9.747 22.05l.598.27-.313.291zm.017-2.466l-.285.58-.104-.653zm-.842-.032l.164.613c-.226-.166-.379-.268-.465-.44zm.503 2.803l.351.44a.461.461 0 0 1-.334.117zM6.52 26.773c-.149-.467.221-1.378.733-1.486-.407.689-.435 1.363-.086 2.046z"/></g><g clip-path="url(#clip-6F73E9EB-B9F0-49A7-8311-84316801CF3C)"><path d="M27.33-12.88c-.563.854-.369 1.605.08 2.305.26.404.567.796 1.113 1.04-.222-.39-.529-.642-.61-1.095 1.626 1.095 2.862 2.599 4.659 3.555-.244-.452-.588-.677-.812-1.013 1.18.011 3.433 2.606 4.25 4.753.169-.45-.025-.845-.03-1.28.701.737 1.003 1.604 1.156 2.548.168 1.044-.33 1.81-1.032 2.494.273.168.407.098 1.325-.65.133.926-.609 1.768-2.103 2.362.351.035.66.023.964-.124-.235.401-.597.613-1.02.728-.436.118-.88.094-1.32.038-.4-.051-.737.086-1.138.347.42-.06.752-.11 1.13.077-1.034.35-1.867 1.009-2.92 1.132.637.164 1.214-.026 1.792-.254-.437.53-.896 1.023-1.61 1.144-.69.118-1.256-.395-1.988-.421.441.319.796.655 1.405.768-.715.115-1.303.116-1.886-.097-.442-.161-.812-.444-1.21-.679-.186-.109-.39-.158-.711-.166.66.356 1.068.89 1.765 1.173-.54.048-.885-.237-1.28-.347-1.38-.39-2.617-1.136-3.963-1.61-1.11-.392-2.218-.837-3.43-.417-.092.032-.183.07-.297.114.146.403.444.643.764.853.685.449 1.464.669 2.262.757 1.26.138 2.187.739 2.872 1.786.448.684 1.048 1.268 1.34 2.055.185.497.324.993.083 1.511-.215.463-.541.515-.861.13-.112-.134-.226-.275-.252-.478.225-.083.431-.193.598-.365.25-.257.191-.695-.147-.798-.998-.303-2.004-.597-3.07-.466-.584.073-1.04.456-1.558.688-.606.272-1.15.165-1.721-.038-.22-.078-.424-.225-.708-.215.116.224.25.38.447.454.43.162.356.465.12.721a3.06 3.06 0 0 0-.753 1.42c-.07.304.09.564.137.847-.704.013-1.486-1.936-1.374-3.379-1.094-.18-1.838.283-2.277 1.333-.251-.404-.227-.786-.238-1.154-.033-1.055.246-1.994 1.019-2.764.424-.423.426-.662.125-1.195-.366-.65-.502-1.098-.48-1.611.197.243.302.55.714.722-.362-.772-.652-1.48-.291-2.25.015.386.074.765.21 1.125.137.358.29.71.63.961-.399-.994-.662-1.988-.157-3.024-.02.844.73 1.447.676 2.297.298-.468.228-.962.03-1.391-.333-.722-.004-1.262.39-1.78a39.062 39.062 0 0 1 1.769-2.173c.47-.534 1.006-1.01 1.504-1.52 1.084-1.114 2.226-2.174 3.204-3.386.187-.231.34-.494.482-.756.17-.315-.116-.505-.257-.714-.086-.128-.226-.215-.096-.374.12-.149.3-.175.468-.112.735.275.948.953.48 1.58-.602.81-1.055 1.708-1.546 2.584-.046.082-.069.178-.147.385.462-.38.825-.684 1.194-.98.405-.326.81-.652 1.226-.965.357-.268.386-.474.092-.802-.134-.151-.397-.309-.193-.53.19-.206.422-.08.624.08.573.452.578.929.136 1.635-.55.882-1.263 1.633-1.87 2.466-.35.48-.426 1.045-.476 1.618-.119 1.37.616 2.25 1.674 2.952.03.02.065.031.099.04.019.005.04-.003.065-.005.017-.114-.075-.152-.14-.192-1.64-1.019-1.699-3.979.392-4.934.734-.335 1.508-.29 2.282-.237.146.01.284.04.343-.073-.352-.305-.696-.587-1.02-.889-.196-.183-.391-.38-.387-.684.002-.135.057-.234.174-.296.112-.059.222-.02.298.056.75.745 1.726 1.211 2.444 2.003.305.337.72.573 1.082.86.552.44.958.967 1.009 1.704.006.09.032.177.061.33.225-.52.08-.954-.084-1.374-.247-.632-.727-1.105-1.155-1.613-.395-.47-.913-.812-1.393-1.31.473.055.743.363 1.1.492-.104-.284-1.435-1.207-1.963-1.368-.401-.122-1.793-1.091-1.977-1.394l.765.155c-.212-.286-.541-.275-.773-.439-.94-.662-1.664-1.485-1.792-2.67-.06-.558.338-1.002.61-1.453zM19.39.339c.017-.09.012-.177-.056-.241-.077-.071-.173-.043-.24.003a1.53 1.53 0 0 0-.664.986zm.633.756c.051-.096.078-.192-.012-.276-.09-.086-.2-.085-.295-.014-.29.22-.507.499-.64.863zm.763.502c-.053-.134-.179-.102-.282-.076-.403.102-.601.423-.762.803.309-.128.623-.246.924-.39zM19.742 7.35c.668.59 2.457.255 3.076-.195-.216-.356-.461-.66-.809-.882-.768-.49-1.626-.513-2.245-.046zm-2.685-.969c-.036.06-.09.111-.138.162-.648.683-1.037 1.473-.995 2.524.43-.725 1.099-.595 1.724-.623.248-.012.478-.1.643-.366-.183-.06-.334-.123-.49-.16-.144-.034-.191-.1-.148-.244.136-.466.038-.894-.226-1.289zm4.16-3.838c-.011-.123-.12-.162-.223-.16-.402.012-.712.2-.992.566.377-.008.693.016.998-.096zm9.392-4.479c-.567-1.232-2.272-1.766-3.448-1.1-.955.54-1.5 1.883-1.027 2.588.067-1.135.597-1.935 1.682-2.258zm3.78 3.46c.469 0 .737-.187.949-.476a.143.143 0 0 0-.007-.18c-.058-.073-.137-.08-.214-.057zm1.598-3.479c-.14.334-.05.653.034 1 .265-.164.493-.75.411-.987-.034-.098-.108-.146-.21-.154zM34.863-.79c-.202.292-.344.604-.324 1 .482-.22.757-.59.69-.893-.02-.082-.049-.154-.135-.177zm-.781-.502c.164-.361.23-.645.198-.937-.014-.122-.137-.201-.275-.209-.09-.005-.162.042-.176.13zm.737-2.078c.053.272.16.528.35.82.125-.328.126-.598.11-.869-.008-.162-.11-.234-.263-.216zm-1.178-1.785c-.027.34.216.52.447.794a1.08 1.08 0 0 0-.15-.903c-.027-.043-.128-.057-.193-.054zm-.898 1.303c.166.2.371.362.66.481-.026-.313-.14-.544-.277-.769-.093-.151-.204-.256-.374-.128zm-.717-2.345c-.031.342.25.73.626.848zm-1.793-.57a.17.17 0 0 0 .036.236c.219.168.448.322.791.343-.118-.332-.282-.551-.578-.648zm-.468-1.318c-.047.102-.024.21.062.273.195.144.413.235.705.258a1.15 1.15 0 0 0-.564-.599zm-1.32.038c.087.311.363.405.641.581zm.008-.978c.073.26.31.235.5.293-.099-.193-.154-.43-.411-.438zm-1.375-.181c.125.198.327.293.572.453-.102-.28-.164-.502-.327-.673-.07-.075-.152-.117-.24-.033zm-.55-1.763c-.072.258.01.461.265.597-.052-.228.163-.482-.073-.677zM25.3 9.463l-.27.617-.292-.323zm2.471.028l-.581-.292.654-.107zm.023-.85l-.595.163c.16-.226.26-.378.427-.463zm-2.81.501c-.187.15-.312.25-.44.35a.459.459 0 0 1-.118-.333zm-4.417-2.897c.468-.152 1.382.227 1.49.75-.69-.416-1.366-.445-2.05-.087z"/></g><g clip-path="url(#clip-9C3BD6F2-802B-4441-9BC9-69D77D0B2DEB)"><path d="M4.66 4.342c.393.115.711.385 1.238.388l-1.094-.708.354-.355c.647.752 1.342 1.362 2.385.78-.277-.375-.636-.748-.99-1.13-.44-.472-1.009-.615-1.595-.68-.501-.056-.675.458-.992.72-.152.127-.279.284-.426.436-.177.017-.255-.123-.362-.267l.784-.622-1.038.17c-.149-.16-.18-.342-.167-.564.37.09.732.044 1.164-.054-.416-.151-.773-.262-1.181-.282l.228-.64c.374.2.634.582 1.149.666-.253-.447-.648-.65-.958-.972l.453-.402c.27.35.377.789.77 1.1-.057-.5-.248-.899-.425-1.32l.3-.082c.449.674.09 1.91 1.447 1.93a3.945 3.945 0 0 1-.417-1.406c-.058-.55-.124-1.099-.185-1.649-.044-.405-.386-.364-.646-.406-.405-.065-.82-.068-1.225-.137-.233-.04-.066-.205-.05-.33l.844.132.029-.099-.797-.352.135-.344c.302.212.59.417 1.077.54l-.94-.746.32-.285c.293.274.456.652.868.866-.104-.453-.437-.716-.603-1.105l.398-.199.454 1.208.08-.013-.094-1.279.36.03c.019.434-.12.854-.001 1.426l.374-1.446.343.064c-.136.397-.313.76-.287 1.288l.61-1.106.372.23C4.963-1.093 5.128.64 6.168 2.53 6.65 1.51 6.722.577 6.314-.32c.07-.146.07-.146.227-.184L6.853.728 6.96-.616l.306.009c-.088.434-.19.851-.158 1.393.288-.463.312-.906.491-1.325.135.06.264.12.397.18l-.526.956.073.052.677-.793c.127.212.382.385-.015.566-.208.095-.384.26-.532.474L8.516.52c.098.111.096.242.09.375l-.836.224c.328.178.607.014.876.091-.037.144-.059.246-.268.22a11.62 11.62 0 0 0-1.337-.082c-.27-.001-.548.792-.408 1.198.257.743.882 1.208 1.388 1.76.218.238.465.448.69.661.403-.965-.266-1.553-.79-2.212l.282-.196c.129.336.404.532.62.85.022-.388-.229-.618-.318-.92l.303-.07.23.89.083-.01.028-.942.381.103-.181.957.08.029.423-.844.244.232c-.166.27-.434.47-.51.883l.764-.596.186.283c-.246.157-.523.25-.735.544l.748-.173c.033.313-.097.417-.534.415-.296-.002-.593-.04-.856.042-.295.774-.036 1.45.318 2.108.104.193.04.38.001.568-.005.025-.08.063-.087.056a.343.343 0 0 1-.094-.128c-.244-.715-.564-1.378-1.225-1.81-.457-.3-1.355-.238-1.496.118-.13.327.11.642.102.976-.005.196.044.394.068.586a.436.436 0 0 1-.362.056c-.036-.356-.033-.721-.19-1.164l-.206 1.097-.477-.113c.061-.33.352-.567.371-.955l-.91.73-.238-.336c.261-.25.657-.278.916-.63l-1.152.121-.024-.463c.36.072.693.114 1.122 0l-1.048-.402.112-.305"/></g><g clip-path="url(#clip-13EB362D-CECB-4268-AFCB-BE90D56FDA61)"><path d="M11.222 40.027c-.05.405-.263.763-.18 1.282l.52-1.192.409.29c-.637.76-1.126 1.544-.379 2.475.325-.334.635-.749.953-1.16.395-.51.443-1.094.41-1.682-.027-.502-.563-.589-.874-.858-.15-.129-.326-.228-.501-.348-.046-.171.08-.271.205-.4l.744.67-.34-.994c.135-.173.309-.234.531-.258-.027.38.077.728.244 1.137.081-.434.132-.803.085-1.209l.67.12c-.136.401-.47.72-.469 1.24.4-.322.536-.745.803-1.102l.472.38c-.303.322-.718.5-.96.939.484-.14.847-.393 1.234-.636l.13.281c-.592.553-1.873.403-1.67 1.742.407-.3.845-.51 1.322-.642.534-.146 1.065-.302 1.598-.452.394-.11.297-.44.296-.703-.002-.41-.067-.819-.066-1.228.001-.236.192-.099.319-.104l.007.853.103.012.217-.842.362.076c-.16.332-.315.65-.357 1.15l.584-1.05.334.269c-.223.333-.57.556-.714.997.43-.176.636-.548.993-.775l.262.359-1.119.646.026.076 1.249-.303.029.36c-.426.09-.864.022-1.41.233l1.49.13-.006.349c-.415-.069-.803-.184-1.32-.071l1.193.419-.166.404c-1.841-1.475-3.526-1.028-5.224.307 1.085.306 2.02.224 2.839-.324.156.044.156.044.219.192l-1.165.51 1.346-.116.041.303c-.443-.017-.872-.047-1.403.073.505.207.948.158 1.391.265l-.113.42-1.032-.36-.038.08.894.536c-.188.16-.317.44-.561.079a1.34 1.34 0 0 0-.557-.447l.511.77c-.094.115-.223.134-.356.15l-.359-.786c-.122.352.086.6.054.878-.148-.014-.252-.018-.262-.229-.02-.444-.067-.89-.138-1.329-.043-.266-.872-.41-1.25-.205-.693.375-1.05 1.067-1.513 1.656-.199.253-.365.531-.54.787 1.02.239 1.492-.516 2.057-1.14l.24.245c-.31.181-.46.485-.739.75.388-.043.574-.327.859-.465l.118.287-.842.372.023.08.936-.126-.039.392-.976-.021-.015.083.904.278-.19.279c-.293-.12-.536-.35-.956-.357l.714.654-.249.23c-.195-.217-.332-.475-.658-.635l.294.708c-.304.084-.428-.027-.498-.457-.047-.292-.059-.591-.182-.836-.814-.164-1.44.202-2.031.66-.175.134-.37.1-.562.094-.026-.001-.075-.07-.07-.077A.344.344 0 0 1 9.52 45c.666-.357 1.27-.781 1.588-1.503.22-.5.012-1.373-.363-1.453-.344-.075-.617.215-.948.26-.194.028-.382.109-.568.164a.434.434 0 0 1-.115-.348c.346-.094.707-.15 1.12-.378l-1.12-.022.034-.489c.336.006.619.254 1.006.21l-.871-.777.292-.289c.29.216.383.6.774.798l-.31-1.114.454-.1c-.012.367.001.7.184 1.104l.226-1.097.32.06"/></g><g clip-path="url(#clip-4C6BE4D7-2096-4683-A50F-36669D8685F5)"><path d="M44.501 8.899c-.195-.358-.23-.774-.6-1.148l.272 1.272-.501.002c.075-.988.016-1.91-1.135-2.234-.07.46-.08.977-.1 1.497-.023.644.278 1.147.646 1.606.315.393.802.153 1.212.19.197.019.398-.003.61-.007.137.113.093.268.066.445l-.994-.113.854.611c-.008.219-.114.37-.281.518-.2-.325-.487-.548-.861-.784.187.4.36.73.635 1.033l-.614.291c-.124-.405-.037-.859-.342-1.28-.137.493-.002.916-.011 1.362l-.606-.035c.059-.438.293-.824.235-1.322-.313.394-.46.811-.634 1.234l-.27-.154c.16-.793 1.29-1.414.345-2.386-.156.481-.39.906-.702 1.29-.35.428-.691.863-1.038 1.295-.255.318.016.53.17.743.24.332.531.628.768.961.137.193-.098.192-.198.27l-.503-.69-.09.05c.102.264.204.53.314.811l-.34.148c-.063-.362-.122-.712-.378-1.142l.135 1.192-.428-.025c-.013-.4.14-.783 0-1.225-.247.393-.198.814-.356 1.207l-.423-.14.535-1.175-.065-.047-.84.97-.234-.275c.294-.32.69-.519 1.012-1.007l-1.29.758-.197-.287c.377-.185.76-.317 1.116-.708l-1.215.351-.1-.425c2.356.131 3.467-1.21 4.071-3.281-1.061.38-1.774.99-2.121 1.91-.152.056-.152.056-.29-.029l.65-1.09-1.027.875-.21-.222c.37-.245.738-.468 1.1-.874-.532.125-.864.421-1.287.591l-.153-.407a2951 2951 0 0 1 1.05-.305l-.016-.088-1.04.082c.06-.24.003-.541.411-.39.215.08.456.088.713.041l-.864-.33c.01-.148.104-.238.203-.328l.75.431c-.107-.358-.42-.438-.556-.683.129-.075.216-.132.346.034.275.35.573.685.887 1.001.19.192.948-.172 1.137-.558.345-.707.232-1.477.266-2.225.014-.321-.012-.644-.02-.954-.968.398-.912 1.286-1.009 2.121l-.337-.06c.146-.328.091-.661.163-1.039-.29.26-.276.6-.427.876l-.264-.164.47-.792-.067-.052-.687.646-.197-.341.806-.55-.036-.075-.897.297-.009-.336c.309-.073.641-.026.987-.265l-.963-.117.07-.331c.284.062.546.192.905.134l-.652-.406c.199-.244.364-.226.671.083.209.21.392.447.636.575.757-.34 1.053-1 1.268-1.715.064-.21.241-.297.402-.403.021-.014.101.013.102.022a.343.343 0 0 1-.025.157c-.334.677-.578 1.373-.417 2.144.112.535.79 1.125 1.142.973.324-.14.377-.533.62-.763.142-.135.248-.309.367-.462.137.035.23.1.296.216-.227.278-.488.533-.69.958l.922-.632.258.417c-.277.19-.65.153-.94.414l1.16.126-.069.405c-.362-.007-.662-.267-1.094-.2l.9.727c-.104.116-.2.22-.31.344-.204-.305-.41-.57-.793-.792l.455 1.024-.296.137"/></g></g></svg>