<svg xmlns="http://www.w3.org/2000/svg" width="45" height="44" viewBox="0 0 45 44"><g><g clip-path="url(#clip-9E46D00D-04FA-497A-B38D-F593200D2735)"><path d="M28.982 42.89c-.277-.388-.553-.776-.898-1.111a19.274 19.274 0 0 1-1.95-2.212c-.548-.73-.989-1.554-1.457-2.337-.57-.957-1.274-1.81-1.812-2.788-.879-1.6-1.637-3.537-1.895-5.355-.004-.027.036-.038.047-.013.785 1.898 1.519 3.728 2.675 5.44.59.877 1.306 1.632 1.884 2.526.497.766.99 1.528 1.574 2.232.58.699 1.318 1.293 1.943 1.952.566.595.955 1.293 1.414 1.968.425.627.746 1.296 1.062 1.968.262-.069.546-.11.839-.154.879-.134 1.618-.53 2.534-.593 1.797-.125 3.555-.515 5.341-.732.98-.118 1.982-.273 2.943-.501 1.073-.254 2.5-.235 3.479-.803.763-.444 1.769-.414 2.533-.891.429-.267.912-.354 1.354-.653.253-.171.96-.73 1.077-1.046.007-.02.04-.012.037.01-.073.548-.81 1.137-1.243 1.465-.758.574-1.715.775-2.53 1.215-1.76.949-3.966 1.44-5.926 1.744-1.096.17-2.18.503-3.278.68-1.04.167-2.158.454-3.082.965-.103.057-.21.113-.315.17-.286.474-.472 1.001-.053 1.475.648.734 2.292.586 2.325 1.874.001.073-.073.13-.14.081-.223-.163-.43-.33-.65-.484.073.135.152.272.21.393.091.187-.148.35-.305.239-.33-.237-.671-.536-1.022-.784.183.283.403.554.523.87.056.146-.145.28-.243.143-.124-.172-.376-.564-.625-.828.129.27.3.52.353.83.025.144-.169.274-.284.166-.314-.292-.52-.691-.785-1.03a.51.51 0 0 1-.065.08c.02.048.035.093.04.125.027.185.07.42.024.609-.042.172-.322.268-.39.054a2.62 2.62 0 0 0-.367-.721l-.016-.007.009.03c.079.203.129.421.178.635.066.275-.4.35-.443.061l-.02-.133c-.031.155-.236.203-.337.108a4.259 4.259 0 0 1-.045.19c-.019.072-.101.083-.139.019-.246-.415-.502-.812-.763-1.217-.164-.256-.958-.187-1.248-.279-.443-.14-.765-.527-.932-.97-.716.101-1.584-.14-1.831-.777-.221-.085-.495-.193-.567-.38-.025-.008-.05-.014-.075-.024-.012-.005-.011-.021 0-.027.184-.089.385-.128.587-.163.074-.453.396-1.062.91-1.113.151-.015.313-.027.474-.024-.01-.317-.089-.612-.198-.958-.114-.361-.325-.791-.44-1.208"/></g><g clip-path="url(#clip-102C9804-E659-4809-BB9B-FC93BE87D3FE)"><path d="M3.862 15.66c-.277-.388-.553-.776-.898-1.111a19.282 19.282 0 0 1-1.95-2.212C.467 11.607.026 10.783-.442 10c-.57-.957-1.274-1.809-1.812-2.788-.879-1.6-1.637-3.538-1.895-5.355-.004-.027.036-.038.047-.013.785 1.898 1.519 3.728 2.675 5.44.59.876 1.306 1.632 1.884 2.526.497.766.99 1.528 1.574 2.231.58.7 1.318 1.294 1.943 1.952.566.596.955 1.294 1.414 1.97.425.626.746 1.295 1.062 1.967.262-.069.546-.11.839-.154.879-.134 1.618-.53 2.534-.593 1.797-.125 3.555-.515 5.341-.732.98-.118 1.982-.273 2.943-.501 1.073-.254 2.5-.235 3.478-.803.764-.444 1.77-.414 2.534-.891.429-.267.912-.354 1.354-.653.253-.17.96-.73 1.077-1.046.007-.02.04-.012.037.01-.073.548-.81 1.137-1.243 1.465-.758.574-1.715.775-2.53 1.215-1.76.948-3.966 1.44-5.926 1.744-1.096.17-2.18.503-3.278.68-1.04.167-2.158.454-3.082.965-.103.057-.21.113-.315.17-.286.474-.472 1.001-.053 1.475.648.734 2.292.586 2.325 1.873.001.074-.073.13-.14.082-.223-.163-.43-.33-.65-.484.073.135.152.272.21.393.091.187-.148.35-.305.239-.33-.237-.671-.536-1.022-.784.183.283.403.554.523.87.056.146-.145.28-.243.143-.124-.172-.376-.564-.625-.828.129.27.3.52.353.83.025.144-.169.274-.284.166-.314-.292-.52-.691-.785-1.03a.513.513 0 0 1-.065.08c.02.048.035.093.04.125.027.185.07.42.024.609-.042.172-.322.268-.39.054a2.62 2.62 0 0 0-.367-.722c-.006-.002-.011-.003-.016-.006l.009.03c.079.203.129.421.178.635.066.275-.4.35-.443.06l-.02-.132c-.031.155-.236.203-.337.108a4.264 4.264 0 0 1-.045.19c-.018.072-.101.083-.139.019-.246-.415-.502-.812-.763-1.217-.164-.256-.958-.187-1.248-.28-.443-.14-.765-.526-.932-.97-.716.102-1.584-.139-1.831-.776-.221-.085-.495-.193-.567-.38l-.075-.024c-.012-.005-.011-.021 0-.027.184-.089.385-.128.587-.164.074-.452.396-1.06.91-1.112.151-.015.313-.027.474-.024-.01-.317-.089-.612-.198-.958-.114-.361-.325-.792-.44-1.208"/></g><g clip-path="url(#clip-6A5C54DD-4F94-453F-8375-9A9F3D650F47)"><path d="M35.972 4.28c-.277-.388-.553-.776-.898-1.111a19.29 19.29 0 0 1-1.95-2.212c-.548-.73-.989-1.554-1.457-2.337-.57-.957-1.274-1.81-1.812-2.788-.879-1.6-1.637-3.537-1.895-5.355-.004-.027.036-.038.047-.013.785 1.898 1.519 3.728 2.675 5.44.59.877 1.306 1.632 1.884 2.526.497.766.99 1.528 1.574 2.232.58.699 1.318 1.293 1.943 1.951.566.596.955 1.294 1.414 1.97.425.626.746 1.295 1.062 1.967.262-.069.546-.11.839-.154.879-.134 1.618-.53 2.534-.593 1.797-.125 3.555-.515 5.341-.731.98-.119 1.982-.274 2.943-.502 1.073-.254 2.5-.235 3.479-.803.763-.444 1.769-.414 2.533-.891.429-.267.912-.355 1.354-.653.253-.17.96-.73 1.077-1.046.007-.02.04-.012.037.01-.073.548-.81 1.137-1.243 1.465-.758.574-1.715.775-2.53 1.215-1.76.949-3.966 1.44-5.926 1.744-1.096.17-2.18.503-3.278.68-1.04.167-2.158.454-3.082.965-.103.057-.21.113-.315.17-.286.474-.472 1.001-.053 1.475.648.734 2.292.586 2.325 1.873.001.074-.073.13-.14.082-.223-.163-.43-.33-.65-.484.073.135.152.272.21.393.091.187-.148.35-.305.239-.33-.237-.671-.536-1.022-.784.183.283.403.553.523.87.056.145-.145.28-.243.143-.124-.172-.376-.564-.625-.828.129.27.3.52.353.83.025.144-.169.274-.284.166-.314-.292-.52-.691-.785-1.03a.512.512 0 0 1-.065.08c.02.048.035.093.04.125.027.185.07.42.024.609-.042.172-.322.268-.39.054a2.62 2.62 0 0 0-.367-.721l-.016-.007.009.03c.079.203.129.421.178.635.066.275-.4.35-.443.061-.005-.045-.013-.089-.02-.133-.031.155-.236.203-.337.108a4.26 4.26 0 0 1-.045.19c-.018.072-.101.083-.139.019-.246-.415-.502-.812-.763-1.217-.164-.256-.958-.187-1.248-.279-.443-.14-.765-.527-.932-.97-.716.101-1.584-.14-1.831-.777-.221-.085-.495-.193-.567-.38l-.075-.024c-.012-.005-.011-.021 0-.027.184-.089.385-.128.587-.164.074-.452.396-1.06.91-1.112.151-.015.313-.026.474-.024-.01-.317-.089-.612-.198-.958-.114-.361-.325-.791-.44-1.208"/></g><g clip-path="url(#clip-1923156D-2409-4544-B037-B130DC54185B)"><path d="M26.452 24.414c-.056-.053.003-.144.073-.125l.235.065c.14.004.286.037.42.094 1.205.228 4.629 1.9 5.262 2.092.789.24 1.736.82 2.237 1.471.292.38.664.72.967 1.099.085.106.172.223.26.344.368-2.604 2.035-5.136 4.132-6.664 1.352-.985 2.895-1.407 4.373-2.138.695-.344 1.318-.8 1.984-1.191.301-.177.62-.664.99-.653.035-.044.11 0 .077.05l-.024.037c-.071.221-.2.502-.336.708-.358.813-.986 1.509-1.585 2.15-.24.26-.613.393-.951.55-.562.855-1.031 1.611-1.928 2.162-.15.092-.31.17-.473.243.027.23.095.795.097.859.013.388-.14.732-.47.957-.158.107-.321.199-.487.286-.254.203-.545.379-.845.549.168.231.243.427-.046.843-.386.557-.865.91-1.096 1.581-.162.47-.365.917-.55 1.376.72.268 1.407.534 2.2.397.507-.087 1.239-.138 1.623.257.04.043.009.11-.048.112-.197.005-.395.003-.593 0 .195.098.38.209.576.33.007.004.005.016-.004.015-.294-.032-.582-.167-.87-.24a3.021 3.021 0 0 1-.22-.066c.237.131.457.29.644.44.01.008.003.024-.007.027-.272.087-.486-.07-.756-.117a7.824 7.824 0 0 0-.246-.037c.136.087.41.266.358.416-.003.01-.013.012-.02.005-.066-.059-.292-.026-.382-.066a6.704 6.704 0 0 0-.645-.243l.116.084c.113.08.454.304.39.471-.01.023-.027.039-.053.04-.18.001-.355-.117-.513-.21l.019.017c.099.1.177.266.29.348.027.02.033.046.02.075l-.01.022c-.006.012-.024.013-.033.004l-.008-.009c-.004-.003-.004-.008 0-.011-.045.043-.17-.008-.307-.084.08.052.156.1.224.14.09.053.046.189-.054.19-.828.016-1.205-.514-2.118-.186-.625.224-1.379.047-2.024-.048-.668-.098-2.022-.308-2.372-1.072a6.471 6.471 0 0 1-.156-.038c-.389-.1-.78-.2-1.043-.508a3.083 3.083 0 0 0-.183-.014 2.05 2.05 0 0 1-.497-.077 7.325 7.325 0 0 0-.256-.008c-.196-.001-.23-.287-.043-.337.242-.067.462-.135.713-.173a2.37 2.37 0 0 0 .155-.03.92.92 0 0 1 .239-.407c.183-.17.443-.272.696-.273a1.987 1.987 0 0 0-.105-.122c-.271-.288-.72-.64-1.041-.882-.337-.254-.547-.593-.96-.755-.22-.086-.597-.271-.789-.44-.4-.348-.918-.596-1.345-.915-.508-.38-.982-.806-1.49-1.185-.346-.257-.778-.722-1-1.147l-.015-.014a.94.94 0 0 1-.119-.123c-.01-.01-.022-.018-.033-.027-.072-.061-.126-.144-.196-.208l.002-.003a.085.085 0 0 1-.02-.055l-.007-.005"/></g><g clip-path="url(#clip-44DC29FB-AE4B-440C-B506-5FF7F2FB9099)"><path d="M-3.003 25.45c.37.006.666.507.958.697.647.422 1.25.906 1.928 1.281 1.442.798 2.965 1.29 4.27 2.336 2.025 1.622 3.573 4.227 3.82 6.846.095-.117.187-.23.277-.332.32-.364.707-.688 1.016-1.053.531-.627 1.503-1.163 2.303-1.367.64-.163 4.138-1.676 5.352-1.849.137-.051.284-.077.424-.074l.237-.055c.071-.016.126.078.068.128l-.007.005c0 .02-.008.038-.023.054l.002.003c-.073.061-.13.14-.205.199l-.035.025a.938.938 0 0 1-.124.118l-.016.013c-.241.414-.694.859-1.052 1.1-.525.355-1.018.76-1.542 1.116-.441.298-.97.523-1.386.853-.2.159-.585.327-.807.403-.42.143-.647.472-.995.71-.331.227-.796.557-1.08.833a2.097 2.097 0 0 0-.111.117c.253.013.507.127.683.305.1.102.18.255.22.417.052.014.104.027.153.037.249.05.466.128.705.205.184.06.137.343-.058.335-.086-.003-.172-.003-.257-.003a2.055 2.055 0 0 1-.5.054c-.062 0-.123.002-.183.005-.278.296-.673.379-1.065.46-.05.01-.103.021-.158.03-.385.749-1.747.896-2.42.964-.648.065-1.41.207-2.023-.046-.898-.369-1.298.143-2.124.09-.1-.006-.138-.144-.045-.193.069-.036.147-.081.23-.13-.14.07-.268.115-.31.07.003.003.002.009-.001.011l-.01.009c-.008.008-.026.007-.031-.006l-.01-.022c-.011-.03-.004-.056.023-.074.117-.077.203-.238.307-.335l.02-.016c-.163.086-.343.197-.523.186-.026-.002-.043-.018-.05-.04-.058-.171.293-.38.41-.455l.12-.078c-.22.06-.445.133-.655.214-.092.035-.317-.008-.384.048-.008.006-.018.003-.02-.006-.047-.152.236-.318.376-.399a7.403 7.403 0 0 0-.248.026c-.271.034-.493.181-.76.082-.01-.004-.017-.02-.006-.027.194-.142.42-.29.663-.41a2.99 2.99 0 0 1-.222.055c-.291.06-.586.182-.88.2-.009 0-.01-.011-.004-.015.202-.112.391-.214.591-.303a15.629 15.629 0 0 1-.592-.027c-.057-.004-.086-.074-.043-.114.402-.378 1.13-.293 1.632-.183.787.173 1.485-.061 2.217-.296-.163-.467-.346-.923-.486-1.4-.2-.68-.663-1.055-1.023-1.629-.269-.429-.185-.621-.007-.844a6.495 6.495 0 0 1-.819-.588 4.896 4.896 0 0 1-.473-.308c-.32-.24-.456-.59-.425-.977.005-.063.098-.625.135-.854a4.096 4.096 0 0 1-.46-.264C.607 30.727.173 29.95-.349 29.069c-.33-.171-.696-.322-.925-.59-.568-.67-1.164-1.394-1.484-2.222a3.188 3.188 0 0 1-.303-.723l-.023-.037c-.03-.051.047-.093.08-.047"/></g><g clip-path="url(#clip-FCAC33BB-9A36-466B-B64A-FE451A01AE36)"><path d="M6.597-7.35c.37.006.666.507.958.697.647.422 1.25.906 1.928 1.281 1.442.798 2.965 1.29 4.27 2.336 2.025 1.622 3.573 4.228 3.821 6.846.094-.117.186-.23.276-.332.32-.364.707-.688 1.016-1.053.53-.627 1.503-1.163 2.303-1.367.64-.163 4.138-1.676 5.352-1.85.137-.05.284-.076.424-.073l.237-.055c.071-.016.126.078.068.128l-.007.005c0 .02-.008.038-.023.054l.002.003c-.073.061-.13.14-.206.199l-.034.025a.942.942 0 0 1-.124.118l-.016.013c-.241.414-.694.859-1.052 1.1-.525.355-1.018.76-1.542 1.116-.441.299-.97.523-1.386.853-.2.159-.585.327-.807.403-.42.143-.647.472-.995.71-.331.227-.796.557-1.08.833a2.095 2.095 0 0 0-.111.117c.253.013.508.127.683.305.1.102.18.255.22.417.052.014.104.027.153.037.249.05.466.128.705.205.184.06.137.343-.058.335-.086-.003-.172-.003-.257-.003a2.051 2.051 0 0 1-.5.054c-.062 0-.123.002-.183.005-.278.296-.673.379-1.065.46-.05.01-.103.021-.158.03-.385.749-1.747.896-2.42.964-.648.065-1.41.207-2.024-.046-.897-.369-1.297.143-2.123.09-.1-.006-.138-.144-.045-.193.069-.036.147-.081.23-.13-.14.07-.268.115-.31.07.003.003.002.009-.001.011l-.01.009c-.008.008-.026.007-.031-.006l-.01-.022c-.011-.03-.004-.056.023-.074.117-.077.203-.238.307-.335l.02-.016c-.162.086-.343.196-.523.186-.026-.002-.043-.018-.05-.04-.058-.171.293-.38.41-.455l.12-.078a6.77 6.77 0 0 0-.655.214c-.092.035-.316-.008-.384.048-.008.006-.018.003-.02-.006-.047-.152.236-.318.376-.399a7.677 7.677 0 0 0-.248.026c-.271.034-.493.181-.76.082-.01-.004-.017-.02-.006-.027a4.64 4.64 0 0 1 .663-.41c-.074.02-.147.04-.222.055-.291.06-.586.182-.88.2-.009 0-.01-.011-.004-.015.202-.112.391-.214.591-.303a15.82 15.82 0 0 1-.592-.027c-.057-.004-.085-.074-.043-.114.402-.378 1.13-.293 1.632-.183.787.173 1.485-.061 2.217-.296-.163-.466-.346-.923-.486-1.4-.2-.68-.663-1.055-1.023-1.629-.269-.429-.185-.621-.007-.844a6.526 6.526 0 0 1-.819-.588 4.894 4.894 0 0 1-.472-.308c-.32-.24-.457-.59-.426-.977.005-.063.098-.625.135-.854a4.097 4.097 0 0 1-.46-.264c-.871-.591-1.305-1.368-1.827-2.249-.33-.171-.696-.322-.925-.59-.568-.67-1.164-1.394-1.484-2.222a3.187 3.187 0 0 1-.303-.723l-.023-.037c-.03-.051.047-.093.08-.047"/></g></g></svg>