<svg xmlns="http://www.w3.org/2000/svg" width="45" height="44" viewBox="0 0 45 44"><g><g clip-path="url(#clip-20848794-3920-4A36-9D50-28D536CE27B7)"><path d="M36.279 50.645c-.179.043-.296.11-.316.31-.017.158-.097.257-.279.269-.335.02-.668.073-1.003.09-.227.011-.301-.11-.188-.312.177-.315.35-.639.573-.92.274-.344.379-.698.288-1.13-.157-.749-.29-1.502-.442-2.252a13.06 13.06 0 0 0-.239-.97c-.03-.107-.088-.229-.173-.292-.348-.258-.712-.496-1.07-.742-.009.017-.026.041-.022.046.307.326.169.713.138 1.08-.086 1.036-.19 2.071-.272 3.109-.033.422-.022.847-.038 1.271-.002.056-.03.142-.07.16-.36.16-.65.391-.774.747l-1.468-.185c.17-.212.27-.442.445-.536.495-.264.655-.74.894-1.186.585-1.093.367-2.224.189-3.347-.113-.71-.573-1.26-1.093-1.707-.623-.537-1.098-1.178-1.536-1.853-.249-.384-.258-.418-.682-.303a4.978 4.978 0 0 1-2.313.088c-.737-.145-1.493-.196-2.242-.286-.575-.07-1.15-.14-1.727-.197-.045-.004-.144.1-.148.159-.066 1.02-.067 2.047-.193 3.06-.134 1.08-.305 2.152-.274 3.245.017.578.012 1.157.025 1.736.005.248-.056.393-.35.392-.11 0-.27.104-.32.204-.169.331-.446.331-.745.302-.257-.026-.514-.056-.784-.086l.043-.187-1.033-.051c.191-.276.329-.517.508-.723.5-.578.512-1.26.445-1.959-.08-.82-.18-1.638-.264-2.457-.069-.657-.17-1.288-.458-1.909-.165-.357-.292-.757-.448-1.133a14.566 14.566 0 0 0-.295-.668 1.157 1.157 0 0 0-.076-.135c-.835.04-2.276-1.57-2.48-1.774-.204-.203-.57-.997-1.042-1.76a5.785 5.785 0 0 1-.76-1.965c-.007-.026-.022-.054-.034-.082h.019c-.004 0 .02-.21.028-.269.11-.841.217-1.721.325-2.563.017-.134.036-.269.046-.404.026-.362-.266-.408-.507-.483-.607-.187-1.219-.358-1.828-.54a2.547 2.547 0 0 1-.459-.172c-.235-.125-.427-.285-.342-.603.013-.05-.018-.12-.043-.175-.137-.3-.06-.545.263-.633.707-.194 1.422-.357 2.136-.524.2-.047.397-.062.404-.345.002-.05.16-.134.247-.137.492-.019.985-.005 1.477-.031.129-.007.315-.084.365-.184.1-.2-.104-.28-.247-.344a6.565 6.565 0 0 0-.779-.312c-.47-.145-.69-.54-.924-.908-.149-.235-.222-.518-.329-.779l.071-.045.918 1.054.095-.039c-.211-.5-.335-1.006-.162-1.553.204.36.383.698.586 1.023.242.386.594.662.998.863.077.038.235.016.298-.041.15-.135.213-.314.093-.515-.135-.228-.28-.453-.397-.691-.252-.518-.01-.965.23-1.408.012-.022.039-.038.062-.05.014-.008.035-.003.115-.004-.017.184-.017.368-.054.545-.053.257-.15.505-.028.77.132.286.486.382.691.144.203-.236.35-.52.517-.784.103-.163.198-.33.337-.48.242.457-.095.872-.055 1.304.212-.161.431-.307.627-.48.428-.378.581-.872.6-1.432.01-.315.07-.63.132-.941.018-.087.125-.156.19-.233.052.078.143.153.148.233.02.332.012.665.015.997l.004.31.068.04c.221-.22.452-.432.661-.663.248-.275.51-.547.707-.857.21-.334.367-.705.516-1.072.073-.18.06-.393.116-.582.078-.261.175-.518.281-.77.084-.196.193-.382.29-.573l.08.01c-.014.157-.009.318-.045.469-.088.36-.232.715-.11 1.087l.084.03.634-.992.105.045c-.054.189-.076.395-.17.562-.205.368-.445.716-.672 1.073-.364.572-.717 1.151-1.095 1.714-.678 1.01-1.468 1.915-2.5 2.588-.196.127-.377.277-.563.416.213.34.687.478 1.146.345.718-.21 1.363-.545 1.884-1.093.35-.366.59-.79.762-1.269.227-.633.44-1.28.893-1.805.016-.019.042-.029.114-.074-.004.098.009.163-.01.217-.141.385-.293.766-.43 1.152a1.853 1.853 0 0 0-.108.474c-.007.098.032.27.088.287.115.036.284.032.38-.031.465-.307.783-.743 1.012-1.245.229-.503.462-1.006.67-1.519.092-.224.13-.47.185-.708.028-.12.04-.244.058-.366l.075-.018c.037.077.093.152.106.233.083.557-.095 1.067-.304 1.57-.049.12-.084.244-.125.366l.076.037.69-.888c.062-.079.123-.16.199-.224.051-.042.127-.054.192-.08.013.073.054.155.034.218-.125.401-.287.779-.628 1.06a7.366 7.366 0 0 0-.73.696c-.514.559-1.006 1.137-1.519 1.696-.533.582-1.038 1.214-1.815 1.485-.563.197-1.149.329-1.725.486-.282.077-.564.148-.83.277l.945.172c-.243.266-.311.567-.638.677-.123.042-.214.187-.311.293-.104.114-.176.27-.299.351-.324.213-.277.445-.108.725.44.73.895 1.449 1.523 2.038.273.255.525.539.827.752.188.133.449.182.684.223.222.038.454.022.682.019.53-.008 1.06-.022 1.591-.032.464-.008.928-.017 1.392-.02.973-.005 1.947-.016 2.92-.007.718.007 1.435.03 2.151.069.534.03 1.07.071 1.597.16.22.037.43.19.621.324.68.481 1.372.95 2.018 1.474.685.556.904 1.286.646 2.153-.011.092-.167.96-.227.98-.21.303-.283.335-.337.573-.144.645-.28 1.293-.422 1.939-.067.304-.036.592.096.877.126.271.217.56.357.823.063.118.207.196.318.288.3.248.599.499.904.74.231.183.255.447.232.691-.072.77.05 1.52.164 2.276.08.517.142 1.039.176 1.561.027.41.05.804.27 1.173zm-22.084-14.84zm-.039.001l-.001-.076a.2.2 0 0 0 .02.076zm-.001-.076zm7.155 9.891c-.078-.303-.172-.603-.259-.904l-.068.02-.135 4.178.16.042c.107-.196.286-.386.308-.591z"/></g><g clip-path="url(#clip-F072CDA9-9176-433D-B1CC-929456C378CE)"><path d="M65.509 54.935c-.179.043-.296.11-.316.309-.017.159-.097.258-.279.27-.335.02-.668.073-1.003.09-.227.011-.301-.11-.188-.312.177-.315.35-.639.573-.92.274-.344.379-.698.288-1.13-.157-.749-.29-1.502-.442-2.252a13.05 13.05 0 0 0-.239-.97.568.568 0 0 0-.173-.292c-.348-.258-.712-.496-1.07-.742-.009.017-.026.041-.022.046.307.326.169.713.138 1.079-.086 1.037-.19 2.072-.272 3.11-.033.422-.022.847-.038 1.271-.002.056-.03.141-.07.16-.36.16-.65.39-.774.746l-1.468-.184c.17-.212.27-.442.445-.536.495-.264.655-.74.894-1.186.585-1.093.367-2.224.189-3.348-.113-.71-.573-1.258-1.093-1.706-.623-.537-1.098-1.178-1.536-1.853-.249-.384-.258-.418-.682-.303a4.98 4.98 0 0 1-2.313.088c-.737-.145-1.493-.196-2.242-.286-.575-.07-1.15-.14-1.727-.197-.045-.004-.144.1-.148.159-.066 1.02-.067 2.047-.193 3.06-.134 1.08-.305 2.152-.274 3.245.017.578.012 1.157.025 1.736.005.247-.056.393-.35.392-.11 0-.27.104-.32.204-.169.331-.446.331-.745.302-.257-.026-.514-.056-.784-.086l.043-.187-1.033-.051c.191-.276.329-.517.508-.723.5-.578.512-1.26.445-1.959-.08-.82-.18-1.638-.264-2.457-.069-.657-.17-1.288-.458-1.909-.165-.357-.292-.757-.448-1.133a14.575 14.575 0 0 0-.295-.668 1.164 1.164 0 0 0-.076-.136c-.835.04-2.276-1.57-2.48-1.773-.204-.203-.57-.997-1.042-1.76a5.784 5.784 0 0 1-.76-1.965c-.007-.026-.022-.054-.034-.082h.019c-.004 0 .02-.21.028-.269.11-.841.217-1.721.325-2.563.017-.134.036-.27.046-.404.026-.362-.266-.408-.507-.483-.607-.187-1.219-.358-1.828-.54a2.541 2.541 0 0 1-.459-.173c-.235-.124-.427-.284-.342-.602.013-.05-.018-.12-.043-.175-.137-.3-.06-.545.263-.633.707-.194 1.422-.357 2.136-.524.2-.047.397-.062.404-.345.002-.05.16-.134.247-.137.492-.019.985-.005 1.477-.031.129-.007.315-.084.365-.184.1-.2-.104-.28-.247-.344a6.566 6.566 0 0 0-.779-.312c-.47-.145-.69-.54-.924-.908-.149-.235-.222-.518-.329-.779l.071-.045.918 1.053.095-.038c-.211-.5-.335-1.006-.162-1.553.204.36.383.698.586 1.023.242.386.594.662.998.862a.332.332 0 0 0 .298-.04c.15-.135.213-.315.093-.515-.135-.228-.28-.453-.397-.691-.252-.518-.01-.965.23-1.408.012-.022.039-.038.062-.05.014-.008.035-.003.115-.004-.017.184-.017.368-.054.545-.053.257-.15.505-.028.77.132.286.486.382.691.144.203-.236.35-.52.517-.784.103-.163.198-.33.337-.48.242.457-.095.872-.055 1.304.212-.161.431-.307.627-.48.428-.378.581-.872.6-1.432.01-.315.07-.63.132-.941.018-.087.125-.156.19-.233.052.078.143.153.148.233.02.332.012.665.015.997l.004.31.068.04c.221-.22.452-.432.661-.663.248-.275.51-.547.707-.857.21-.334.367-.705.516-1.072.073-.18.06-.393.116-.582a7.43 7.43 0 0 1 .281-.77c.084-.196.193-.382.29-.573l.08.01c-.014.157-.009.318-.045.469-.088.36-.232.715-.11 1.087l.084.03.634-.992.105.045c-.054.189-.076.395-.17.562-.205.368-.445.716-.672 1.073-.364.572-.717 1.151-1.095 1.714-.677 1.01-1.468 1.915-2.5 2.588-.196.127-.377.277-.563.416.213.34.687.478 1.146.344.718-.208 1.363-.544 1.884-1.092.35-.367.59-.79.762-1.269.227-.633.44-1.28.893-1.805.016-.019.042-.029.114-.074-.004.098.009.163-.01.217-.141.385-.293.766-.43 1.152a1.847 1.847 0 0 0-.108.474c-.007.098.032.27.088.287.116.036.284.032.38-.032.465-.306.783-.742 1.012-1.244.229-.503.462-1.006.67-1.519.092-.224.13-.47.185-.708.028-.12.04-.244.058-.367a6.94 6.94 0 0 0 .075-.018c.037.078.094.152.106.234.083.557-.095 1.067-.304 1.57-.049.12-.084.244-.125.366l.076.037.69-.888c.062-.079.123-.16.2-.224.05-.042.126-.054.191-.08.013.073.054.155.034.218-.125.401-.287.779-.628 1.06a7.368 7.368 0 0 0-.73.696c-.514.559-1.006 1.137-1.519 1.696-.533.582-1.038 1.214-1.815 1.485-.563.197-1.149.329-1.725.486-.282.077-.564.148-.83.277l.945.172c-.243.265-.311.567-.638.677-.123.042-.214.187-.311.293-.104.114-.176.27-.299.351-.324.213-.277.445-.108.725.44.73.895 1.449 1.523 2.038.273.255.525.539.827.752.188.133.449.182.684.223.222.038.454.021.682.019.53-.008 1.06-.022 1.591-.032.464-.008.928-.017 1.392-.02.973-.005 1.947-.016 2.92-.007.718.007 1.435.03 2.151.069.534.03 1.07.071 1.597.16.22.037.43.19.621.324.68.481 1.372.95 2.018 1.474.685.556.904 1.286.646 2.153-.011.092-.167.96-.227.98-.21.302-.283.335-.337.573-.144.645-.28 1.293-.422 1.939-.067.304-.036.592.096.877.126.271.217.56.357.823.063.118.207.196.318.288.3.248.599.498.904.74.231.183.255.446.232.691-.072.77.05 1.52.164 2.276.08.517.142 1.039.176 1.56.027.41.05.805.27 1.174zM43.386 40.096l-.001-.076a.2.2 0 0 0 .02.076zm7.154 9.809c-.078-.304-.172-.604-.259-.906l-.068.02-.135 4.187.16.042c.107-.197.286-.387.308-.593z"/></g><g clip-path="url(#clip-E2DEBBC5-B250-4F41-84F9-F40B6604AB73)"><path d="M4.628 16.035c.08-.687.439-1.242.82-1.793.381-.552.776-1.092 1.258-1.561.47-.458.95-.904 1.419-1.361.23-.225.447-.465.669-.699.03-.032.052-.072.093-.129-.208.073-.32.218-.423.366a.639.639 0 0 1-.36.248c-.2.063-.392.151-.587.229-.216.086-.29.046-.337-.177a1.024 1.024 0 0 1 .07-.657c.119-.257.243-.513.462-.694.141-.116.314-.196.478-.28.145-.075.301-.13.447-.204.034-.018.067-.08.065-.12-.017-.476-.03-.953-.068-1.428-.026-.335-.088-.667-.133-1-.07-.531-.024-1.058.079-1.578.076-.39.083-.767-.031-1.151-.086-.286-.144-.58-.207-.872-.018-.086-.015-.177-.015-.265.002-.459-.009-.918.012-1.377.038-.848.197-1.669.606-2.43.075-.138.045-.329.077-.492.054-.274.085-.56.187-.816.237-.598.32-1.23.48-1.845.137-.53.142-1.064.15-1.602a2.9 2.9 0 0 1 .052-.488c.112-.604.026-1.205-.024-1.806-.045-.55-.113-1.098-.171-1.646-.032-.3-.14-.572-.312-.818-.047-.067-.065-.125.004-.184.09-.076.19-.168.31-.113.05.023.061.134.098.222.016-.038.03-.061.036-.085.064-.225.079-.236.301-.182.212.05.35.194.451.375.024.042.016.11.006.162-.038.198-.083.394-.122.591-.012.063-.012.127-.017.19l.036.015.072-.132.021.003c-.013.056-.01.127-.044.167-.297.357-.246.771-.195 1.18.069.548.154 1.094.236 1.64a.62.62 0 0 0 .07.226c.123.202.147.425.147.65.001.299-.015.598-.028.897-.023.545.02 1.083.11 1.622.042.243.005.5.001.751-.001.089-.018.178-.011.266.015.197.1.307.243.336.196.04.384-.027.445-.207.066-.195.098-.406.114-.612.032-.405.034-.811.062-1.216.035-.48.1-.959.12-1.44.011-.254-.078-.512-.067-.765.019-.406.079-.81.131-1.212a3.268 3.268 0 0 0-.022-1.047c-.043-.224-.035-.456-.07-.682-.032-.191-.091-.38-.142-.568-.012-.048-.037-.092-.067-.164l.166.068c-.016-.077-.02-.137-.041-.191a.774.774 0 0 1 .027-.614c.068-.153.172-.27.344-.271.159-.002.21.133.251.3l.057-.133c.068-.167.217-.234.376-.15.047.025.094.11.089.163-.013.134-.058.264-.086.397-.046.22-.095.439-.129.66-.007.046.03.119.07.15.105.08.134.182.14.305.01.186.01.38.154.526.038.038.098.054.147.08l.038-.03c.013.213.026.427.037.64.037.692.067 1.383.113 2.074.011.17.058.343.115.506.173.49.186.999.186 1.51 0 .239.023.477.028.715.004.164-.005.327-.008.49v.17l.055.014c.07-.15.162-.292.206-.45.156-.556.158-1.127.126-1.698-.016-.29-.054-.58-.049-.868.004-.193.084-.385.098-.579.057-.752.096-1.503-.034-2.254-.045-.256-.056-.517-.086-.811l.114.088c.001-.155-.006-.302.006-.448.01-.127.017-.266.073-.376.095-.189.355-.184.468-.003.063-.037.114-.088.173-.099.153-.028.25.058.255.216a.442.442 0 0 1-.021.18c-.159.378-.175.783-.243 1.178-.065.378-.155.756-.17 1.136-.02.526-.017 1.057.112 1.577.03.121.046.249.048.374.005.318.009.636-.004.954-.023.548.131 1.055.344 1.55.175.406.305.82.32 1.27.007.19.08.375.106.564.05.366.102.732.124 1.1.019.308.059.606.13.91.112.479.084.974.034 1.464-.004.045-.044.087-.061.12.012.042.039.084.033.123-.068.478-.153.952-.375 1.388-.036.07-.087.133-.13.2-.064.096-.144.186-.187.292-.111.268-.185.556-.494.678l.029.038c-.01.005-.02.01-.028.017l-.054.021c-.036-.022-.084-.014-.153.059h.003l-.029.012c-.068.014-.111.02-.153.032-.196.051-.38.12-.597.114-.507-.014-.85.256-1.013.735-.069.202-.149.402-.204.607-.03.111-.02.232-.028.349-.02.326-.154.618-.296.9-.13.262-.078.525-.06.784.014.218.203.359.425.37.246.013.436.143.605.3.36.334.574.746.629 1.236a.544.544 0 0 1 .002.126c-.027.232-.1.288-.326.233-.162-.04-.32-.097-.498-.152.14.115.277.207.39.323.224.233.514.38.746.606.234.228.506.417.743.644.26.248.504.513.74.785.073.083.095.21.131.298l.023-.11c.077.132.14.229.192.33.241.47.355.978.398 1.498.045.549.06 1.101.087 1.652.002.032-.004.063-.006.095l-.037.013c-.026-.063-.062-.124-.074-.19-.06-.33-.113-.664-.173-.995-.018-.1-.05-.196-.076-.294l-.053-.002c-.01.076-.04.153-.03.226.043.363.082.726.147 1.084.13.717.036 1.388-.295 2.043-.29.575-.6 1.133-.99 1.646-.06.082-.13.16-.208.227-.05.043-.122.062-.185.092l-.028-.037c.022-.038.043-.078.067-.114.368-.551.681-1.133.92-1.749.208-.533.31-1.091.21-1.665a1.479 1.479 0 0 0-.163-.444c-.09-.166-.242-.197-.39-.078-.127.1-.245.222-.333.357-.204.313-.388.64-.581.96a.327.327 0 0 1-.07.088c-.024-.245-.02-.492.1-.706.204-.362.427-.714.652-1.063.228-.353.427-.717.518-1.13.147-.678-.062-1.265-.479-1.794-.353-.45-.783-.815-1.242-1.154-.36-.267-.7-.562-1.036-.834.059.146.134.317.196.492.214.602.388 1.212.413 1.856.007.176.005.354-.126.536l-.047-.148c-.142-.484-.263-.976-.431-1.452-.232-.653-.511-1.29-.933-1.849-.147-.195-.348-.35-.53-.517-.03-.027-.101-.03-.146-.018-.326.087-.652.132-.983.026-.092-.03-.153.014-.218.084-.447.472-.9.939-1.351 1.407a3.31 3.31 0 0 0-.672.996c-.194.45-.296.926-.365 1.41a.285.285 0 0 1-.067.15c-.026-.044-.068-.087-.074-.135-.026-.212-.063-.427-.057-.639.013-.399.076-.791.223-1.175-.122.16-.246.317-.366.478a3.83 3.83 0 0 0-.584 1.068c-.239.713-.107 1.381.24 2.03.257.48.66.819 1.062 1.165.391.336.778.677 1.041 1.13.036.064.063.131.103.215-.145.026-.23-.046-.312-.107-.255-.19-.506-.386-.758-.581-.34-.265-.673-.538-1.02-.793-.212-.156-.325-.1-.311.165.017.344.059.69.125 1.028.094.488.244.962.491 1.399.05.089.1.182.17.256a.102.102 0 0 0 .023.017c.019.026.039.051.06.076.024.031.049.062.075.092a.13.13 0 0 0 .037.028l.018.017c.032.043.065.085.1.127.06.071.2.252.336.346.093.104.187.206.283.306l.008.011-.075.068c-.222-.152-.425-.329-.647-.481a37.02 37.02 0 0 1-.545-.569 5.129 5.129 0 0 1-.772-1.29 3.1 3.1 0 0 1-.218-1.374 4.28 4.28 0 0 0-.11-1.35c-.126-.489-.255-.981-.122-1.52-.244.116-.405.28-.476.494a6.504 6.504 0 0 0-.279 1.068c-.058.382-.05.774-.072 1.161-.005.096-.015.193-.024.299-.133-.036-.146-.136-.167-.222zm7.889-22.868c.045.39.11.773.038 1.17-.06.335.093.639.213.984-.02-.972.085-1.913-.252-2.817z"/></g><g clip-path="url(#clip-7D82200A-AD08-4E4A-9308-AFD8435AD8BE)"><path d="M21.186-.9c.178-.043.296-.111.316-.31.016-.158.096-.257.279-.269.335-.021.668-.073 1.003-.09.227-.012.3.11.188.311-.177.315-.35.64-.573.92-.275.345-.379.699-.288 1.13.157.75.29 1.503.442 2.253.066.326.148.65.239.97.03.106.088.229.172.291.35.258.713.497 1.072.742.008-.016.025-.04.02-.045-.307-.327-.168-.713-.138-1.08.086-1.036.191-2.072.273-3.11.033-.421.022-.847.038-1.27.002-.056.03-.142.07-.16.36-.16.65-.391.774-.747l1.468.185c-.17.211-.27.442-.445.536-.495.264-.655.74-.894 1.186-.585 1.093-.368 2.224-.189 3.347.113.71.573 1.259 1.093 1.707.623.537 1.098 1.177 1.536 1.853.249.384.258.418.682.302a4.978 4.978 0 0 1 2.313-.087c.737.144 1.493.196 2.241.286.575.07 1.15.14 1.727.196.046.005.145-.1.149-.158.066-1.02.067-2.047.193-3.06.134-1.08.305-2.152.273-3.245-.017-.579-.01-1.158-.024-1.736-.005-.248.055-.393.349-.393.11 0 .27-.103.321-.204.169-.33.446-.33.745-.301.257.025.513.056.784.085l-.043.187 1.033.052c-.191.275-.33.517-.508.722-.501.578-.512 1.26-.445 1.96.08.82.18 1.637.264 2.457.068.656.17 1.287.457 1.908.166.358.293.757.449 1.133.092.225.191.449.295.669.023.049.05.094.076.135.834-.04 2.275 1.57 2.48 1.773.204.203.57.998 1.042 1.76.507.82.704 1.631.76 1.966.007.026.021.053.034.081h-.02c.005 0-.02.21-.028.27-.11.84-.216 1.72-.324 2.563-.017.134-.037.269-.046.404-.027.362.266.408.507.482.607.188 1.219.359 1.827.541.157.047.316.096.46.172.234.124.427.285.342.602-.014.051.018.12.043.175.137.3.06.545-.263.634-.707.194-1.422.357-2.136.524-.2.047-.397.061-.405.344 0 .05-.158.134-.246.138-.492.018-.986.005-1.477.03-.129.007-.315.085-.365.184-.101.2.104.28.247.345.254.115.512.23.779.312.47.144.69.54.924.908.148.235.222.517.328.778l-.07.045-.918-1.053-.096.038c.212.501.335 1.007.163 1.553-.205-.359-.383-.698-.586-1.022-.243-.386-.594-.663-.998-.863a.332.332 0 0 0-.298.041c-.15.135-.213.314-.094.514.136.229.28.454.397.692.253.517.01.965-.229 1.407-.012.023-.039.039-.063.051-.013.008-.034.002-.114.003.017-.183.017-.367.054-.544.053-.257.15-.506.028-.77-.132-.287-.487-.383-.691-.145-.203.236-.35.52-.518.785-.102.162-.198.329-.336.48-.243-.457.095-.872.055-1.304-.212.16-.431.307-.627.48-.428.378-.581.872-.6 1.431-.01.316-.07.631-.133.942-.017.087-.124.155-.19.233-.051-.078-.142-.153-.147-.234-.02-.331-.013-.664-.016-.997l-.003-.309a14.077 14.077 0 0 0-.068-.04c-.221.22-.452.432-.661.663-.248.275-.51.546-.707.857-.21.333-.367.704-.516 1.072-.073.18-.06.393-.116.582a7.448 7.448 0 0 1-.281.77c-.084.196-.193.382-.29.573l-.08-.011c.014-.156.009-.317.045-.468.088-.361.231-.716.109-1.088l-.083-.03-.634.993-.105-.046c.054-.188.076-.394.169-.561.205-.368.446-.717.673-1.073.364-.572.717-1.151 1.095-1.714.677-1.01 1.468-1.916 2.5-2.588.196-.127.377-.277.563-.416-.214-.34-.687-.479-1.147-.345-.718.209-1.362.544-1.883 1.092-.35.367-.59.79-.762 1.27-.227.633-.44 1.28-.893 1.805-.016.019-.042.028-.114.074.004-.098-.009-.163.01-.217.14-.385.293-.766.43-1.152.053-.152.096-.314.108-.474.007-.098-.033-.27-.089-.288-.115-.035-.283-.031-.38.032-.464.306-.783.742-1.01 1.244-.23.504-.463 1.007-.672 1.52-.09.224-.13.47-.185.708-.027.12-.039.244-.057.366l-.076.018c-.036-.077-.093-.152-.105-.233-.083-.558.095-1.068.303-1.571.05-.119.085-.243.126-.365l-.076-.038c-.23.297-.46.594-.691.889-.061.078-.123.16-.198.223-.051.043-.128.054-.192.08-.013-.073-.054-.154-.034-.217.125-.402.287-.78.628-1.061.259-.214.504-.448.73-.695.514-.559 1.006-1.137 1.518-1.697.533-.581 1.038-1.214 1.816-1.485.563-.196 1.149-.328 1.725-.486.281-.077.564-.148.83-.277l-.945-.171c.243-.266.311-.567.637-.678.124-.041.215-.186.312-.293.104-.113.176-.27.299-.35.324-.213.277-.446.108-.725-.44-.73-.895-1.45-1.524-2.038-.272-.256-.524-.54-.826-.752-.188-.133-.449-.183-.685-.223-.221-.039-.454-.022-.68-.019-.531.007-1.062.022-1.592.031-.464.009-.928.017-1.392.02-.974.006-1.947.017-2.92.008a47.056 47.056 0 0 1-2.151-.07c-.534-.029-1.07-.07-1.597-.16-.22-.037-.43-.19-.622-.324-.68-.48-1.372-.95-2.018-1.473-.685-.557-.903-1.286-.645-2.153.011-.093.166-.96.227-.98.209-.303.283-.335.336-.573.145-.646.28-1.293.423-1.94a1.334 1.334 0 0 0-.096-.876c-.126-.272-.217-.56-.357-.823-.063-.119-.207-.196-.318-.288-.3-.249-.599-.499-.904-.74-.231-.183-.256-.447-.233-.692.073-.77-.049-1.52-.164-2.275a18.355 18.355 0 0 1-.176-1.561c-.026-.41-.05-.805-.27-1.173zM43.27 13.938zm.039 0v.076a.2.2 0 0 0-.02-.077zm0 .076zM36.163 4.13c.077.304.17.604.255.905l.067-.019.132-4.188-.157-.041c-.105.197-.281.386-.302.592z"/></g><g clip-path="url(#clip-4BF91526-A982-4C16-89EB-82DDD6690DBA)"><path d="M-3.308 51.978c.08-.687.416-1.238.77-1.786.357-.549.725-1.085 1.172-1.55.436-.454.881-.896 1.316-1.35.214-.222.416-.46.621-.692.029-.032.05-.072.087-.129-.191.072-.295.216-.391.363a.589.589 0 0 1-.333.245c-.184.061-.362.148-.542.224-.199.084-.267.044-.307-.18-.041-.227-.021-.443.071-.656.111-.256.228-.511.432-.69.13-.116.29-.194.441-.277.134-.074.277-.127.412-.2.032-.017.062-.079.061-.119-.01-.476-.018-.954-.047-1.429-.021-.335-.075-.667-.112-1.001-.06-.531-.01-1.057.088-1.577.075-.389.085-.766-.016-1.151-.076-.287-.126-.581-.18-.874-.017-.086-.013-.176-.012-.265.007-.459.002-.918.025-1.376.044-.849.198-1.668.582-2.425.07-.138.044-.329.076-.492.052-.273.083-.559.18-.814.223-.596.306-1.228.459-1.841.132-.528.142-1.063.154-1.6a3.16 3.16 0 0 1 .054-.488c.108-.603.036-1.205-.004-1.806-.036-.55-.092-1.099-.14-1.648a1.812 1.812 0 0 0-.278-.82c-.042-.067-.058-.126.006-.184.084-.076.176-.166.286-.11.046.023.055.134.087.222.016-.038.028-.06.034-.085.061-.224.075-.234.279-.18.193.053.319.199.41.38.021.043.013.11.003.163-.036.197-.08.392-.118.59-.012.062-.012.126-.017.19l.033.014.067-.13.02.002c-.014.056-.012.127-.043.167-.276.354-.234.769-.191 1.179.057.548.13 1.095.2 1.641.01.078.026.16.062.227.11.203.13.426.128.65-.003.3-.02.599-.036.898a8.42 8.42 0 0 0 .085 1.622c.036.244-.001.5-.007.751-.002.09-.018.178-.013.266.012.198.088.308.22.338.18.041.352-.024.41-.203.063-.194.095-.405.112-.611.033-.404.038-.81.069-1.215.036-.48.102-.958.125-1.438.013-.255-.067-.513-.053-.767.02-.405.08-.808.132-1.21.046-.351.048-.697-.01-1.048-.036-.224-.027-.456-.057-.682-.027-.192-.08-.38-.123-.57-.012-.047-.034-.092-.06-.164l.15.07c-.013-.078-.016-.138-.035-.192a.838.838 0 0 1 .032-.614c.063-.152.16-.268.318-.268.146 0 .191.136.227.302l.054-.133c.064-.165.202-.231.346-.146.044.026.086.111.08.164-.013.134-.055.264-.082.396-.045.22-.092.438-.126.66-.007.045.027.118.064.15.094.08.12.182.125.306.007.186.004.38.135.527.035.038.09.055.135.081l.034-.03c.01.214.02.428.028.641.027.692.047 1.384.082 2.075.008.17.05.344.1.506.154.493.16 1.001.156 1.513-.003.238.016.476.018.715.001.163-.008.327-.013.49l-.002.169.051.015c.066-.149.152-.291.194-.448.148-.555.157-1.126.133-1.698-.012-.29-.044-.579-.036-.868.005-.193.08-.383.096-.578.06-.75.104-1.502-.008-2.254-.038-.256-.046-.517-.07-.812l.104.09c.002-.156-.003-.303.01-.448.01-.128.018-.266.07-.376.09-.188.328-.18.43.001.058-.037.106-.086.16-.097.14-.027.229.06.232.218 0 .06 0 .127-.022.18-.15.376-.169.781-.235 1.176-.064.377-.15.754-.167 1.134-.024.526-.027 1.057.086 1.578.026.121.04.25.04.375.001.317.001.636-.014.953-.027.548.11 1.056.3 1.552.156.408.272.825.28 1.274.005.19.07.375.092.565.042.366.086.733.102 1.1.015.31.048.608.11.911.098.48.067.976.017 1.465-.005.045-.042.087-.058.12.01.041.035.084.03.122-.068.477-.151.951-.36 1.386-.033.07-.08.132-.121.198-.06.096-.134.185-.175.29-.104.268-.175.555-.46.674l.026.038-.026.017a4.11 4.11 0 0 0-.05.02c-.032-.022-.076-.014-.14.058l.003.001-.027.012c-.063.013-.103.019-.142.03-.18.05-.35.116-.548.109-.465-.019-.784.249-.937.726-.066.202-.141.4-.195.606-.028.11-.02.232-.028.348-.022.325-.148.617-.281.898-.123.26-.077.524-.065.783.011.218.184.36.387.374.226.015.399.146.552.305.327.337.52.75.565 1.241a.597.597 0 0 1 0 .126c-.027.232-.094.287-.301.23-.148-.041-.292-.1-.455-.156.126.116.252.21.353.327.205.234.47.385.68.612.212.23.46.421.674.65.236.25.459.518.672.791.066.084.085.212.117.3l.022-.11c.07.133.126.23.173.332.217.472.316.98.35 1.5.036.55.044 1.102.063 1.654.001.031-.004.063-.007.094a1.994 1.994 0 0 0-.034.013c-.023-.063-.056-.124-.066-.19-.052-.332-.097-.665-.148-.997-.016-.1-.044-.197-.067-.295l-.048-.002c-.011.076-.038.153-.03.226.035.363.067.726.123 1.085a3.396 3.396 0 0 1-.292 2.04c-.272.573-.563 1.128-.925 1.638-.057.08-.122.159-.194.225-.047.043-.113.06-.17.09a3.83 3.83 0 0 1-.026-.037c.02-.038.04-.077.063-.114a9.384 9.384 0 0 0 .863-1.74c.196-.532.295-1.089.21-1.664a1.568 1.568 0 0 0-.145-.445c-.081-.167-.22-.2-.358-.082-.117.1-.227.22-.309.355-.19.311-.363.636-.544.956a.324.324 0 0 1-.064.086c-.02-.245-.014-.492.099-.705.19-.36.398-.71.61-1.057.212-.35.399-.714.486-1.126.142-.677-.044-1.265-.42-1.798-.32-.452-.71-.822-1.129-1.165-.328-.27-.637-.568-.942-.843.052.147.12.319.175.495.19.603.343 1.215.36 1.859.004.176 0 .354-.121.535l-.042-.148c-.126-.486-.232-.98-.381-1.456-.206-.656-.455-1.295-.837-1.857-.133-.196-.316-.354-.482-.522-.027-.028-.092-.031-.133-.02-.3.086-.6.128-.903.019-.083-.03-.14.013-.2.081-.416.469-.836.932-1.255 1.396-.263.29-.476.618-.627.99-.183.45-.281.924-.35 1.406a.299.299 0 0 1-.063.15c-.023-.044-.062-.088-.066-.135-.022-.213-.054-.427-.046-.64.015-.398.078-.79.217-1.172-.114.158-.23.315-.341.475a3.95 3.95 0 0 0-.547 1.062c-.227.711-.113 1.38.199 2.031.23.483.597.825.963 1.175.355.339.707.684.943 1.14.033.063.057.13.093.214-.133.026-.211-.048-.285-.108-.233-.192-.461-.39-.69-.588-.31-.268-.613-.544-.929-.803-.192-.157-.296-.103-.287.163.012.345.047.69.104 1.03.082.488.215.963.437 1.402.045.09.09.183.153.258a.094.094 0 0 0 .02.017l.055.077c.022.031.044.062.069.092.01.013.022.022.033.029l.016.017c.029.043.06.086.09.128.055.071.182.253.306.348.084.105.17.208.257.309l.006.011-.07.067c-.201-.154-.386-.332-.588-.487-.166-.189-.331-.38-.494-.573a5.233 5.233 0 0 1-.696-1.297 3.349 3.349 0 0 1-.186-1.376c.03-.456.016-.904-.086-1.35-.111-.49-.224-.983-.096-1.522-.226.115-.375.278-.443.49-.11.348-.212.705-.266 1.066-.058.382-.054.774-.079 1.16-.006.097-.016.193-.025.299-.122-.037-.133-.137-.15-.223zm7.478-22.8c.037.39.092.774.022 1.17-.058.335.08.64.186.987-.008-.973.098-1.912-.202-2.82z"/></g></g></svg>