<svg xmlns="http://www.w3.org/2000/svg" width="44" height="44" viewBox="0 0 44 44"><g><g><path d="M.02 23.17l.02.039 14.425.729L.02 21.19z"/></g><g><path d="M5.671 30.12l11.208-5.33L2.09 26.02l1.446 1.662z"/></g><g><path d="M.02 27.456v.102l2.73.025L1.52 26.17z"/></g><g clip-path="url(#clip-850A05C0-7FD8-43A0-B136-A7185F0D9CEA)"><path d="M1.399 25.576a.268.268 0 0 1 .12-.044l12.795-1.063-14.22-.719-.534 3.396 1.809-1.55a.122.122 0 0 1 .03-.02"/></g><g><path d="M42.338 41.147L26.74 38.18l1.173 2.238z"/></g><g clip-path="url(#clip-66C158F2-FF6D-4AE4-B310-5A91E72F1565)"><path d="M33.551 47.33L44.76 42 29.97 43.23l1.446 1.662z"/></g><g clip-path="url(#clip-19090603-C8D2-49B4-B241-BCC62904E6F8)"><path d="M27.78 44.767l2.847.026-1.229-1.413z"/></g><g clip-path="url(#clip-00007ACC-D9AA-4917-BEDF-2C5A30060ABA)"><path d="M29.279 42.786a.274.274 0 0 1 .12-.044l12.795-1.063-14.219-.719-.535 3.396 1.809-1.55a.127.127 0 0 1 .03-.02"/></g><g clip-path="url(#clip-ABFC71A4-994B-42C7-B279-028F71E97814)"><path d="M39.05 26.82l.472.69 5.912-1.8z"/></g><g clip-path="url(#clip-23F1BDDC-BF2B-4204-996C-7ADDA2ECDF53)"><path d="M37.08 28.908l6.433 3.7 4.76-7.108z"/></g><g><path d="M42.583 32.683l-6.16-3.543-5.063 3.543z"/></g><g><path d="M29.79 26.04l4.18 1.46.405-.534z"/></g><g><path d="M35.824 28.913L25.57 25.33l4.995 7.262z"/></g><g><path d="M38.917 27.74l-2.08-3.09-2.417 3.162 1.076.377.33.115.576.201.79-.24z"/></g><g clip-path="url(#clip-EF7B6E50-F280-45AD-A30E-1D4E3A3641C8)"><path d="M45.628 1.027L30.03-1.94 31.203.298z"/></g><g clip-path="url(#clip-62FBB3B3-1420-44CB-A6BE-3A606443AD81)"><path d="M36.841 7.2L48.05 1.87 33.26 3.1l1.446 1.662z"/></g><g clip-path="url(#clip-785FF76A-37A9-4740-83C7-5C7234CBD7FC)"><path d="M32.569 2.656a.28.28 0 0 1 .088-.036.136.136 0 0 1 .032-.008L45.484 1.55 31.265.83l-.535 3.396 1.809-1.55a.127.127 0 0 1 .03-.02"/></g><g><path d="M25.01 12.71l.472.69 5.912-1.8z"/></g><g><path d="M23.04 14.788l6.433 3.7 4.76-7.108z"/></g><g><path d="M28.543 18.573l-6.16-3.543-5.063 3.543z"/></g><g><path d="M15.75 11.93l4.18 1.46.405-.534z"/></g><g><path d="M21.784 14.793L11.53 11.21l4.995 7.262z"/></g><g clip-path="url(#clip-856D148B-94AE-4C35-A84E-3FAE35F566B7)"><path d="M9.36-.11l.472.69 5.912-1.8z"/></g><g clip-path="url(#clip-3DAE04BF-57BB-4FF8-97DA-65D0332E26CD)"><path d="M7.39 1.978l6.433 3.7 4.76-7.108z"/></g><g><path d="M12.883 5.753L6.723 2.21 1.66 5.753z"/></g><g clip-path="url(#clip-52FBF7E3-1544-4E0D-B470-43043E5CE856)"><path d="M.1-.89L4.28.57l.405-.534z"/></g><g clip-path="url(#clip-3D3881D0-E68E-4168-AF81-3EFE9810E4BC)"><path d="M6.124 1.983L-4.13-1.6.865 5.662z"/></g><g clip-path="url(#clip-7B9E257D-E59B-4628-B28E-B649D9675C98)"><path d="M9.227.81l-2.08-3.09L4.73.883l1.076.376.33.115.576.201.79-.24z"/></g><g><path d="M10.89 39.34l.472.69 5.912-1.8z"/></g><g clip-path="url(#clip-C3F0B7FF-79C7-4F0A-B941-0D239E66FF5D)"><path d="M8.92 41.418l6.433 3.7 4.76-7.108z"/></g><g clip-path="url(#clip-EE83EEC2-4E05-4BC1-9926-A4DDCF520EBF)"><path d="M14.413 45.203l-6.16-3.543-5.063 3.543z"/></g><g><path d="M1.63 38.56l4.18 1.46.405-.534z"/></g><g clip-path="url(#clip-E1D5FF4A-754E-4717-84CF-CA1A168C13A2)"><path d="M7.654 41.423L-2.6 37.84l4.995 7.262z"/></g><g><path d="M10.757 40.26l-2.08-3.09-2.417 3.162 1.076.377.33.115.576.201.79-.24z"/></g></g></svg>