<svg xmlns="http://www.w3.org/2000/svg" width="39" height="39" viewBox="0 0 39 39"><g><g><path fill="none" stroke="#323232" stroke-linecap="round" stroke-linejoin="round" stroke-miterlimit="20" stroke-width="2.5" d="M32.565 27.24v0l3.805 3.805c.84.84.84 2.201 0 3.043l-2.284 2.282c-.84.84-2.203.84-3.043 0l-3.806-3.804v0l-2.867 2.868a1.076 1.076 0 0 1-1.782-.42l-5.531-16.596c-.28-.841.52-1.64 1.36-1.361l16.595 5.533c.76.252.987 1.215.42 1.782l-2.867 2.867v0"/></g><g><path fill="none" stroke="#323232" stroke-linecap="round" stroke-linejoin="round" stroke-miterlimit="20" stroke-width="2.5" d="M6 17H2"/></g><g><path fill="none" stroke="#323232" stroke-linecap="round" stroke-linejoin="round" stroke-miterlimit="20" stroke-width="2.5" d="M10 10L7 7"/></g><g><path fill="none" stroke="#323232" stroke-linecap="round" stroke-linejoin="round" stroke-miterlimit="20" stroke-width="2.5" d="M9 25l-3 3"/></g><g><path fill="none" stroke="#323232" stroke-linecap="round" stroke-linejoin="round" stroke-miterlimit="20" stroke-width="2.5" d="M17 6V2"/></g><g><path fill="none" stroke="#323232" stroke-linecap="round" stroke-linejoin="round" stroke-miterlimit="20" stroke-width="2.5" d="M25 10l3-3"/></g></g></svg>