<svg xmlns="http://www.w3.org/2000/svg" width="19" height="21" viewBox="0 0 19 21"><g><g><path fill="none" stroke="#323232" stroke-linecap="round" stroke-linejoin="round" stroke-miterlimit="20" stroke-width="2" d="M4 4.5v0l-.77-3v0H1v0"/></g><g><path fill="none" stroke="#323232" stroke-linecap="round" stroke-linejoin="round" stroke-miterlimit="20" stroke-width="2" d="M5.732 13.927L3.97 5.17v0h12.658c.637 0 1.112.626.978 1.29l-1.502 7.467c-.1.492-.507.843-.978.843H6.711c-.472 0-.879-.35-.979-.843z"/></g><g><path fill="none" stroke="#323232" stroke-linecap="round" stroke-linejoin="round" stroke-miterlimit="20" stroke-width="2" d="M15.468 18.633c-.207 0-.375.18-.373.4 0 .221.168.4.375.4s.375-.179.375-.4c0-.22-.168-.4-.377-.4"/></g><g><path fill="none" stroke="#323232" stroke-linecap="round" stroke-linejoin="round" stroke-miterlimit="20" stroke-width="2" d="M6.859 18.633c-.207 0-.375.18-.374.4 0 .221.168.4.375.4s.375-.179.375-.4c0-.22-.168-.4-.376-.4"/></g></g></svg>