<svg xmlns="http://www.w3.org/2000/svg" width="29" height="35" viewBox="0 0 29 35"><g><g><path d="M21.618 26.42c-.747 0-1.319.556-1.319 1.28v4.356l5.713-5.636zM1.757 29.826c0 1.92 1.582 3.457 3.47 3.457H18.5v-5.59c0-1.622 1.405-2.987 3.075-2.987l5.667.001V5.164a3.447 3.447 0 0 0-3.471-3.456H5.228c-1.888 0-3.47 1.58-3.47 3.456v24.662zM28.956 5.165l.001 20.315v.255c-.044.041-.044.041-.044.085 0 .041-.045.041-.045.085 0 .041-.045.041-.045.085l-.087.085c-.045 0-.045.043-.045.043l-8.7 8.58-.132.129c0 .043-.045.043-.045.043-.043 0-.043.043-.088.043-.043.044-.043.044-.087.044-.043.043-.043.043-.088.043H5.228C2.329 35 0 32.696 0 29.878V5.165C0 2.305 2.329 0 5.228 0h18.544C26.671 0 29 2.304 29 5.165zM16.213 19.891l.398-.13c-.265-.298-.484-.64-.791-1.024-.792-1.067-1.319-1.92-1.978-3.03-.132.426-.264.938-.484 1.493-.484 1.366-.704 1.964-.791 2.263-.175.426-.175.426-.44 1.11l-.044.085c-.132.257-.22.512-.352.769a40.742 40.742 0 0 1 2.724-.939l.614-.213c.484-.17.836-.256 1.144-.384zm-3.076-11.61c-.22.683-.175 1.153.044 2.092 0 .085.043.213.088.341.263-1.239.263-1.537.087-2.476-.042-.128-.042-.213-.087-.256-.045.041-.088.17-.132.298zM7.68 25.44c.044-.087.087-.172.131-.302-.743.47-1.574.982-1.748 1.409-.306.769-.176.854-.132.897.132.087.35.172.524.043.263-.255.35-.427.788-1.237.131-.213.263-.512.437-.81zm12.84-4.695c-.133 0-.22 0-.397.044.746.603 1.098.733 1.318.82.132.041.571.041.879-.045.22-.042.264-.086.264-.086v-.302c0-.042-.132-.215-.572-.301-.614-.13-1.053-.13-1.493-.13zm.483 2.474c-.616-.17-1.186-.512-2.066-1.2-.397-.299-.704-.597-1.011-.854-.352.127-.704.213-1.144.383-.351.127-.702.214-1.186.384l-.614.213c-1.318.427-1.933.599-3.383 1.196-.395.17-.747.298-1.054.426-.043.044-.087.086-.087.129-.088.128-.527 1.024-1.231 2.347-.175.34-.307.597-.44.81-.439.811-.659 1.238-1.186 1.708a2.105 2.105 0 0 1-1.405.512 2.19 2.19 0 0 1-1.406-.512c-1.141-.897-.614-2.263-.395-2.818.395-1.023 1.493-1.664 3.076-2.56.748-.428 1.275-.683 1.802-.94.352-.64.879-1.622 1.186-2.432l.045-.085c.263-.64.263-.64.395-1.024.087-.34.307-.895.791-2.304.482-1.365.747-2.176.966-3.073-.659-1.152-1.055-2.09-1.23-2.86-.265-1.066-.308-1.835 0-2.859.439-1.493 1.493-1.664 1.757-1.664.483-.041 1.538.3 1.845 1.751.265 1.322.177 1.878-.175 3.5l-.132.597c-.09.513-.177.94-.264 1.324.13.213.262.47.395.683.923 1.58 1.493 2.476 2.416 3.757.484.64.792 1.067 1.23 1.494.133 0 .353-.042.528-.086.614-.085 1.01-.128 1.493-.128.484 0 1.011 0 1.802.128 1.713.299 2.11 1.41 2.065 2.05-.043.47-.087 1.58-1.625 1.964-.484.128-1.23.171-1.758.043z"/></g></g></svg>