<svg xmlns="http://www.w3.org/2000/svg" width="20" height="20" viewBox="0 0 20 20"><g><g><path fill="none" stroke="#fff" stroke-linecap="round" stroke-linejoin="round" stroke-miterlimit="20" stroke-width="1.5" d="M5.496 1h9.009A4.496 4.496 0 0 1 19 5.496v9.009A4.496 4.496 0 0 1 14.505 19H5.496A4.495 4.495 0 0 1 1 14.505V5.496A4.497 4.497 0 0 1 5.496 1z"/></g><g><path fill="none" stroke="#fff" stroke-linecap="round" stroke-linejoin="round" stroke-miterlimit="20" stroke-width="1.5" d="M14.949 4.713a.338.338 0 1 0 .001 0"/></g><g><path fill="none" stroke="#fff" stroke-linecap="round" stroke-linejoin="round" stroke-miterlimit="20" stroke-width="1.5" d="M6.4 10a3.6 3.6 0 1 1 7.2 0 3.6 3.6 0 0 1-7.2 0z"/></g></g></svg>