<svg xmlns="http://www.w3.org/2000/svg" width="134" height="39" viewBox="0 0 134 39"><g><g><path d="M43.318 9.983a6.54 6.54 0 0 1 2.034-.304c.796 0 1.594.12 2.375.297 1.424.322 2.823.967 4.306.915.986-.033 2.373.691 3.278 1.051 2.119.843 4.155 1.704 4.939 4.009.439 1.29-3.177-.319-3.511-.447-2.311-.881-4.536-1.976-6.688-3.194-2-1.133-4.163-1.863-6.5-1.944a1.729 1.729 0 0 1-.163-.013c-.127-.021-.308.01-.298-.188zm16.476 16.722c.018.101-.506.24-.626.288-2.335.924-3.416 1.575-5.356 2.956-1.578 1.123-3.972 3.485-5.496 3.257-1.175-.176-1.175-2.65-.966-3.454.019-.071-.077-.07-.11-.03-.718.894-.624 1.967-.454 3.005.012.069-.074.112-.121.061-.2-.213-.296-.54-.35-.819-.128-.663-.06-1.338.054-1.997.065-.372.385-1.064-.039-1.348a.541.541 0 0 0-.618.03c-1.487 1.1-3.592 1-4.074 3.134-.108.479-.188.986-.406 1.43-.057.116-.628.98-.614.452.008-.313.037-.687.093-1.083.003-.021-.027-.029-.034-.008-.166.533-.34 1.055-.584 1.536-.118.232-1.006.406-1.013-.112-.03-2.033.745-3.686 1.344-5.545a.16.16 0 0 0-.13-.208c-.235-.03-.452.484-.598.666-1.268 1.593-2.19 3.196-3.976 4.287-1.547.948-5.577 1.828-6.07-2.422-.057-.48.106-1.866-.5-2.021-.367-.094-.639.103-.773.42-1.374 3.25-4.265 6.243-5.705 5.282a1.124 1.124 0 0 1-.478-.86c-.398-5.607 1.85-11.3 2.594-13.928.521-1.838-.099-.98-.794.48-.629 1.323-1.365 3.242-1.745 4.737-1.47 5.782-1.055 8.5-.88 9.277.011.048-.044.08-.083.05a2.397 2.397 0 0 1-.848-1.376c-.112-.56-.052-1.14.022-1.708 1.085-8.38 4.927-16.044 8.433-23.617.174-.376-.055-.595-.493-.524-.569.091-.95.464-1.25.914-4.64 6.938-8.067 14.739-11.637 22.258a44.164 44.164 0 0 1-3.381 5.902c-.775 1.139-2.085 2.26-3.55 2.156-1.572-.112-2.487-1.44-2.728-2.852-.514-3.015-2.3-3.132-2.955-3.036-1.07.158-1.772.97-2.522 1.665-.08.074-.182.162-.276.088-.066-.052-.11-.185-.1-.274.218-1.706 2.422-2.666 3.95-2.37 2.47.48 2.515 3.607 3.52 4.088 1.723.826 5.071-4.672 5.702-5.856.048-.09.136-.218.184-.236.131-.047.05.239.006.35-.85 2.144-1.582 4.01-3.095 5.929-.087.11-.297.425-.17.552.181.182.774-.505 1.024-.805 2.741-3.29 4.146-7.497 5.777-11.396 1.807-4.316 6.895-13.68 8.933-16.256.612-.773 3.83-4.913 4.9-3.327.6.89.106 2.833-.278 3.842-2.538 6.654-5.627 13.525-6.38 20.674a4.12 4.12 0 0 0 .102 1.51c.56 2.063 1.98.312 2.089.113.73-1.336 1.253-2.554 1.317-4.017a.93.93 0 0 1 .06-.31c.123-.3.353-.33.603-.183.117.069.196.2.294.301 1.01 1.029 1.43-.055 1.744-1 .952-2.87 2.118-6.393 5.046-7.832 1.686-.828 4.108-.348 4.78 1.502 1.318 3.637-1.637 7.53-3.307 8.49-.07.04-.13-.066-.074-.122 2.013-1.96 2.917-5.006 2.345-6.393-.032-.076-.146-.069-.152.014-.159 2.477-.967 4.088-2.352 5.827-2.616 3.285-5.07 2.614-5.085 2.607a.96.96 0 0 0-.286.406c-.52 1.432.706 2.874 2.139 2.86 2.742-.029 5.286-4.01 6.686-5.86 1.113-1.469 2.153-3.346 3.13-4.912 1.051-1.686 1.424-3.543 3.645-3.846l.033-.004a.158.158 0 0 1 .12.275c-.254.23-.514.482-.75.734-.503.536-1.487 1.758-1.316 2.256.072.21 1.176-1.268 1.711-1.817.022-.021.058.004.045.032-.737 1.49-2.04 2.975-2.67 4.542-.463 1.156-.672 2.524-1.521 3.481-.194.219.007.329.261.596.619.651 2.185-.712 3.35-1.836a23.106 23.106 0 0 0 4.04-5.15c.596-1.041 1.05-1.341 2.13-1.23.287.03.387.112.185.39-.91 1.25-1.887 2.508-2.458 3.96-.045.116-.078.218-.066.317.014.118.168.156.246.066.564-.65 1.9-2.885 2.753-3.765.086-.09.19-.188.361-.107.044.021-.052.183-.099.27-1.23 2.295-2.366 4.498-3.249 6.961-.314.875-.73 1.737-.702 2.689.008.254.084.56.376.586a.487.487 0 0 0 .301-.082c2.225-1.408 6.565-4.893 9.336-4.682zm-27.553.415c1.778.792 3.616-1.471 4.564-3.044.706-1.17 1.237-2.678.954-4.386-.135-.813-.864-1.14-1.614-.813-1.218.53-2.274 1.69-2.855 2.713zm-20.904-1.942c-.087-.353-.047-.874.234-.882.339-.01.163.521.38.858.071.111-.056.265-.112.386-.04.086-.115.186-.197.216-.122.043-.17-.078-.2-.18zm24.465-9.61c-.55-.698-1.463-1.281-.901-2.407.106-.3.004-.834.348-.883.452-.063.489.505.681.813.443.709.732 1.446.357 2.291zm1.669.309c-.275-.055-.498-.172-.285-.433.561-.689.933-1.708 2.152-1.405.316.038.815-.178.936.147.159.428-.387.588-.646.843zm31.426 15.677c-.442.762-1.063 1.376-1.642 2.03-.749.845-1.497 1.69-2.27 2.514-.476.505-1.028.882-1.703 1.032-.985.218-1.769.697-2.282 1.588-.061.105-.155.276-.308.181-.043-.026.011-.26.062-.381.482-1.142.908-2.307 1.56-3.374.63-1.031 1.137-2.11 1.324-3.338.131-.862-.017-1.617-.462-2.333-.823-1.325-1.676-2.631-2.486-3.964-1.508-2.485-2.995-4.982-4.486-7.477-.07-.117-.173-.31-.127-.383.127-.203.317-.033.468.017 1.456.482 2.631 1.382 3.61 2.535 1.658 1.951 2.892 4.12 3.25 6.704.062.455.052.92.094 1.378.025.272-.078.773.125.765.335-.013.291-.481.367-.779.168-.658.22-1.327.207-2.004-.007-.355-.002-.71-.002-1.161.052-1.983-.228-4.003-1.032-5.938-.359-.864-.764-1.684-1.62-2.166-.303-.17-.321-.444-.322-.731-.004-1.443-.674-2.57-1.648-3.568a34.483 34.483 0 0 0-7.81-6.007c-1.58-.888-3.264-1.543-5.087-1.782-1.082-.142-2.125.068-3.147.345a22.707 22.707 0 0 1-4.282.712c-1.282.095-2.537-.123-3.806-.065-.13.006-.347-.03-.38-.107-.085-.198.123-.306.25-.417.303-.267.687-.364 1.068-.445a2304.89 2304.89 0 0 1 8.004-1.682c.349-.073.707-.077 1.056.008 2.613.639 5.026 1.7 7.14 3.393 1.054.845 2.26 1.462 3.374 2.22.087.059.185.115.285.137.093.02.232.032.289-.02.124-.114.052-.258-.03-.377-.209-.3-.514-.483-.811-.677-1.217-.795-2.404-1.628-3.534-2.548-.775-.63-1.477-1.33-2.149-2.057a8.115 8.115 0 0 0-2.626-1.888c-.656-.296-1.29-.64-1.933-.964-.06-.03-.145-.09-.146-.138-.005-.136.128-.127.219-.145.676-.135 1.344-.002 2.001.117 2.19.397 4.059 1.451 5.697 2.922 1.27 1.14 2.388 2.422 3.302 3.872 1.213 1.924 2.654 3.675 4.072 5.446 1.09 1.36 1.996 2.843 2.657 4.466.053.131.079.28.155.395.197.302.17.928.63.824.286-.064.121-.632.088-.978-.173-1.832-.4-3.666-.342-5.508.054-1.712-.477-3.204-1.412-4.593a225.58 225.58 0 0 1-1.585-2.392 4.826 4.826 0 0 1-.306-.557c-.025-.052-.02-.152.014-.194.08-.096.19-.06.275.007.112.086.218.181.319.28a36.722 36.722 0 0 1 3.362 3.832c1.583 2.067 2.095 4.721 2.286 7.262.19 2.517.305 5.129-1.459 7.16-.283.326-.372.7-.267 1.09.537 1.999.097 4.02.142 6.027.02.9-.526 1.679-.848 2.5-.052.13-.153.24-.215.367-.075.152-.223.347-.025.469.167.103.337-.067.45-.19.457-.493.938-.971 1.338-1.51 1.186-1.598 1.835-3.422 2.172-5.372.14-.806.232-1.612.223-2.432-.002-.28.058-.562.11-.84.017-.096.076-.228.151-.26.421-.174 1.298 3.76 1.35 4.193zM60.825 6.476c-.061-.014-.125-.105-.11-.164.014-.051.027-.122.074-.15.057-.032.157-.007.193.047.05.076.026.216-.053.265zm-16.678-.268c-.059-.018-.13-.079-.144-.134-.01-.04.051-.129.1-.15a4.762 4.762 0 0 1 2.357-.354c.052.005.1.057.15.087-.049.046-.09.113-.148.135-.587.22-1.164.483-1.847.526zm9.45 10.648c.08.013.116.11.064.173-.216.256-.445.442-.844.374-.077-.013-.112-.107-.065-.17zm-2.081.584a.12.12 0 0 1 .062.149c-.054.14-.15.175-.288.138-.058-.016-.094-.084-.077-.144z"/></g><g><path fill="#404040" d="M104.26 26.76c0 1.225-.004 2.087-.004 3.916 0 .512.08 1.22-.713 1.19-.65-.024-.624-.652-.624-1.125 0-.823-.013-1.42-.013-1.85 0-1.337.01-1.163-.6-.349-.794 1.063-1.118 1.488-1.96 2.649-.282.388-.594.804-1.141.67-.496-.122-.47-.682-.473-1.112-.01-1.51.023-4.745.023-4.853 0-.467.15-.79.633-.79.622 0 .646.365.646.759 0 1.196.017 1.828.017 2.79 0 .184-.066.767.233.466.182-.183 1.579-2.188 2.226-3.114.296-.424.473-.896 1.196-.896zm29.734-5.568c0 .483.023 1.011-.668 1.011-.717 0-.644-.572-.656-1.002a90.154 90.154 0 0 1-.03-2.588c0-.712-.03-.886-.495-.155-.664 1.045-1.37 2.062-2.07 3.083-.27.395-.261.699-.99.699-.616 0-.542-.73-.542-1.157 0-1.527.03-2.5.03-4.899 0-.386.04-.744.68-.744.62 0 .698.35.698 1.046 0 .916-.041 1.795-.041 2.472 0 1.794 1.145-.976 2.542-2.907.386-.533.29-.616 1.023-.616.535 0 .525.209.525 2.135zm-13.629-.673c0 1.15-.867 1.808-2.416 1.808-2.295 0-2.417.01-2.417-1.158 0-.378.02-3.837.004-4.54-.023-.97.234-1.319 1.974-1.319 1.715 0 2.414.763 2.414 1.494 0 .963-.454 1.105-.454 1.637zm-3.465-3.245c.013.523.101.899.782.91.64.012.935-.538.94-1.067.004-.6-.341-.857-1.148-.857zm2.1 3.062c0-.784-.378-1.238-1.186-1.231-.856.007-.935.5-.92 1.145.016.591-.053 1.136.838 1.137zm8.495-1.455c0 2.43-1.505 3.441-3.282 3.441-1.817 0-3.164-.858-3.164-3.394 0-2.193 1.19-3.605 3.232-3.605zm-1.362.08c0-2.165-.934-2.775-1.914-2.775-.87 0-1.823.75-1.823 2.652 0 1.931.717 2.63 1.869 2.63zm-41.638.03c-.024-2.31 1.221-3.672 3.358-3.67 1.942.003 3.152 1.364 3.124 3.513-.029 2.172-1.32 3.502-3.388 3.49zm3.183 2.472c1.1.016 1.944-1.166 1.93-2.704-.015-1.52-.772-2.572-1.853-2.579-1.083-.007-1.832 1.008-1.884 2.556zm23.55.86c-1.987-.012-3.07-1.178-3.093-3.332-.024-2.31 1.221-3.672 3.358-3.67 1.943.003 3.153 1.364 3.124 3.513zm2.02-3.564c-.015-1.52-.771-2.572-1.853-2.579-1.083-.007-1.831 1.008-1.884 2.556-.057 1.702.61 2.71 1.807 2.727zM80.374 9.738c.126-.934.242-1.87.39-2.8.065-.4.207-.78.699-.85.524-.075.818.184 1.042.639.282.57.315 1.62.791 1.631.523.012.613-1.088.929-1.674.24-.446.569-.676 1.082-.58.482.088.619.479.674.875.124.884.203 1.775.323 2.87-.013.174.084.67-.473.713-.454.036-.51-.408-.577-.739-.097-.485-.099-1.799-.33-1.803-.274-.006-.716 1.444-.933 2-.133.339-.311.6-.741.6-.88 0-.848-2.38-1.393-2.38-.271 0-.264 1.047-.401 1.73-.07.348-.258.705-.701.61zm5.455 20.843c0 .512.08 1.36-.671 1.36-.664 0-.67-.787-.668-1.298.004-1.154.004-3.334.004-3.658 0-1.106-.259-1.13-.727-1.13-.457 0-.826.267-.996 1.411-.088.587-.293 2.566-.452 3.302-.172.8-1.225 1.641-2.12 1.213-.424-.202-.083-.678.202-.797.95-.394 1.035-2.343 1.148-3.63.19-2.16 1.059-2.558 2.52-2.558.565 0 1.747-.012 1.747 1.412zm18.786-11.334c-.417.024-.388.672-.388 2.29 0 .339-.171.678-.564.678-.393 0-.655-.225-.655-.569 0-1.829.004-3.246.004-5.661 0-.35.17-.564.618-.564.537 0 .628.309.628 1.205 0 1.393.169 1.417.374 1.417.572 0 .918-.563 1.133-.91.357-.574.518-2.038 1.375-1.604.679.343.038 1.264-.23 1.764-.313.587-.47.93-.377 1.43.062.338.507 1.19.835 1.95.11.257.633 1.155.038 1.515-.626.379-.931-.54-1.088-.863zm.205-7.633c0-.803-.005-3.672-.005-4.65 0-.589.25-1.253.93-.767.317.226.681-.068 1.02-.108 1.435-.17 2.338.52 2.332 2.083-.005 1.723-.508 2.488-1.971 2.488-.856 0-1.166-.428-1.166 1.023 0 .334-.122.701-.613.701zm1.217-3.178c.018.698.19 1.423.993 1.388.783-.034.953-.71.95-1.475-.002-.817-.387-1.397-.916-1.397zm-13.736 22.28c.19.589.284 1.015-.188 1.18-.56.197-.717-.3-.97-.835-.463-.98-.527-1.034-1.556-1.034-1.517 0-1.264.26-1.968 1.64-.131.258-.426.318-.711.216-.332-.12-.35-.407-.26-.663.668-1.874 1.307-3.76 2.054-5.601.328-.809 1.274-.867 1.605-.095zm-2.427-3.441c-.234-.568-.502-.223-.604-.031-.235.44-.385.917-.514 1.4-.119.44.196.559.76.559zm7.88-.406c0 1.88-.872 2.425-2.224 2.506-.953.058-.956.187-.956 1.107 0 .947.003 1.404-.693 1.404-.393 0-.595-.316-.595-.647 0-1.9.026-3.489.026-5.512 0-.687.419-.76 1.879-.736zm-1.355.235c-.001-.678-.294-1.15-.985-1.15-.851 0-.834.47-.834 1.157 0 1.145.1 1.259.567 1.262zm-3.13-5.836c0 .608-.002.948-.649.948-.914 0-.673-.748-.673-4.414 0-2.48.187-2.573 2.198-2.573 1.427 0 2.321.75 2.321 2.262 0 1.2-.798 2.23-1.842 2.23zm.631-2.48c.719 0 1.216-.34 1.216-1.235 0-.75-.17-1.29-1.069-1.29-.78-.006-.742.713-.742 1.228zm5.772 3.527c-2.057.002-2.22-.148-2.24-1.935a115.36 115.36 0 0 1 .022-4.034c.01-.427-.03-1.117.62-1.117.872 0 .72.552.72 2.123 0 .596.31.88.9.88.268 0 2.646-.053 2.646 1.944zm.076-.838c.735 0 1.16-.377 1.16-1.16 0-.748-.34-1.135-1.213-1.135-.738 0-.907.614-.907 1.081zm16.394 8.371c0 1.076-.742 2.147-2.632 2.147-1.987.012-2.175-.277-2.175-1.921 0-1.353.022-2.706.022-4.06 0-.4.097-.907.686-.907.658 0 .64.513.64.951 0 1.702.018 1.895 1.577 1.895zm-1.361.128c0-.91-.523-1.172-1.26-1.172-.82 0-.82.44-.82 1.187.025.564.16 1.123.782 1.123zM123.326 9.5c.561-.659.62-.704.556-.86-.073-.184-.76-.268-.76-1.165 0-1.463 1.15-1.463 2.463-1.444.891.013 1.323 0 1.323.922 0 .64-.025 2.307-.025 3.139 0 .324-.242.525-.604.525-.99 0 .014-1.595-.992-1.595-.372 0-.528.33-1.08 1.139-.395.58-.712.536-.947.372zm1.082-2.058c-.023.411.251.613.628.652.413.043.631-.164.646-.585.004-.399-.148-.668-.581-.658zM86.934 9.572c-.125-.804.278-1.61 1.938-1.742.319-.025.586-.117.547-.525-.053-.557-1.07-.366-1.266-.341-.324.04-.775.23-.809-.303-.028-.43.417-.526.753-.567 2.001-.241 2.848.188 2.712 2.907 0 .11.003.41 0 .71-.008.675-.261 1.002-1.014.894-.478-.069-.985.094-1.477.084zm1.286-.196c.004.28.202.477.48.464.436-.02.752-.229.792-.668-.019-.35-.188-.521-.477-.494zm30.942 1.207c-.51-.168-.825-.576-.855-1.125-.034-.6.25-1.05.774-1.348.405-.23.854-.243 1.297-.299.263-.033.492-.151.441-.475-.043-.274-.243-.455-.509-.459-.292-.004-.584.078-.878.112-.288.033-.65.126-.701-.295-.045-.37.295-.508.582-.557 1.958-.34 2.859.085 2.888 1.961.004.209-.027 1.48-.027 1.88zm1.716-1.352c.017-.372-.145-.556-.43-.55-.423.007-.801.15-.84.654a.449.449 0 0 0 .444.502zm-21.19.365c-.477-.99-.336-1.982.292-2.834.564-.767 1.428-.85 2.3-.7.575.098 1.013.476 1.257 1.014.402.888.09 1.478-.878 1.522-.97.043-1.795-.12-1.843.462-.078.925 1.265.907 1.92.704.278-.086.634-.134.69.3.08.599-1.175.63-1.275.641zm1.207-2.08c-.001.372.406.315.839.324.395-.016.738.014.733-.412-.005-.36-.386-.566-.755-.565zm5.943 19.538c-.68 1.26-.26 3.185.645 3.693.388.218 1.346.309 2.059.044.253-.093.55-.197.676.141.108.293-.133.492-.342.666-.483.402-3.313 1.115-4.403-1.498-1.091-2.618.693-5.34 3.241-5.088.314.03.636.114.925.242.348.153.836.48.547.846-.221.28-.554.132-.855.033zm7.227-17.216c0-.258.012-2.517.041-3.014.022-.367.156-.69.612-.69 1.021 0 .168 1.461.932 1.461.394 0 .528-.39.71-.682.13-.211.508-1.028 1.08-.708.606.34-.065.95-.158 1.107-.175.297-.46.554-.44.823.027.348.22.548.596 1.207.278.487.58.887.176 1.238-.25.216-.62.114-.8-.15-.277-.409-.471-.873-.716-1.304-.1-.18-.275-.297-.488-.276-.263.026-.298.254-.298.449 0 .967.122 1.38-.693 1.38zm-32.261 9.276c0 2.763.041 3.01-.583 3.01-.87 0-.74-.67-.74-3.437 0-3.176-.172-3.437 2.073-3.437 1.702 0 2.08-.07 2.08.508 0 .42-.452.516-1.33.516zM91.906 9.62c-.422-.981-.29-2.123.243-2.835.566-.756 1.42-.864 2.297-.668.394.088.856.31.741.774-.155.628-.618.237-.933.105a.904.904 0 0 0-1.137.373c-.338.65-.33 1.532-.001 2.011.284.416.654.52 1.139.381.319-.091.779-.547.936.082.117.465-.389.67-.77.757zm17.906-.07c-.357-.666-.36-2.067.403-2.897.632-.69 1.487-.753 2.347-.48.334.106.684.342.576.753-.151.572-.559.24-.832.114-.471-.215-.98-.022-1.182.232-.493.617-.328 1.75-.046 2.135.273.372.615.502 1.151.34.302-.092.864-.521.928.018.095.798-1.072.934-1.56.934zm8.326 16.379c.023.86-.004 4.3-.004 5.16 0 .388-.139.77-.62.793-.491.023-.654-.355-.659-.743a203.93 203.93 0 0 1 .005-5.32c.005-.394.197-.762.685-.714zM95.763 6.374c.06-.37.453-.32.734-.325a56.179 56.179 0 0 1 1.783-.007c.331.003.912-.059.913.347 0 .423-.395.455-.701.455-.466 0-.459.593-.47.986-.02.699-.014 1.398-.04 2.097-.012.313-.124.63-.485.643-.378.014-.48-.309-.492-.62-.028-.748-.027-1.497-.04-2.246-.006-.422.078-.888-.586-.888zm34.652 7.886c-.403-.513-1.074-.942-.661-1.77.078-.22.003-.613.255-.648.332-.047.358.37.5.597.325.521.537 1.063.262 1.685zm1.012-.097c.412-.504.686-1.249 1.582-1.027.233.028.6-.13.688.107.117.313-.284.43-.475.617-.438.429-.92.753-1.586.62z"/></g></g></svg>