<svg xmlns="http://www.w3.org/2000/svg" width="20" height="20" viewBox="0 0 20 20"><g><g><path fill="none" stroke="#fff" stroke-linecap="round" stroke-linejoin="round" stroke-miterlimit="20" stroke-width="1.5" d="M12 14.017v4.487c0 .276.215.5.479.5h5.042a.49.49 0 0 0 .479-.5V13.99v0"/></g><g><path fill="none" stroke="#fff" stroke-linecap="round" stroke-linejoin="round" stroke-miterlimit="20" stroke-width="1.5" d="M11 14.666v0L15.082 12v0L19 14.666v0"/></g><g><path fill="none" stroke="#fff" stroke-linecap="round" stroke-linejoin="round" stroke-miterlimit="20" stroke-width="1.5" d="M10.937 8.383a2.483 2.483 0 1 1-4.966 0 2.483 2.483 0 0 1 4.966 0z"/></g><g><path fill="none" stroke="#fff" stroke-linecap="round" stroke-linejoin="round" stroke-miterlimit="20" stroke-width="1.5" d="M15.888 8.924a7.427 7.427 0 0 0-2.16-5.74A7.456 7.456 0 0 0 3.183 13.728L8.455 19v0"/></g></g></svg>