<svg xmlns="http://www.w3.org/2000/svg" width="20" height="22" viewBox="0 0 20 22"><g><g><path fill="none" stroke="#323232" stroke-linecap="round" stroke-linejoin="round" stroke-miterlimit="20" stroke-width="1.5" d="M1 15.044V6.961A2 2 0 0 1 2 5.23l7-4.04a1.996 1.996 0 0 1 2 0l7 4.04c.618.357 1 1.018 1 1.732v8.083c0 .714-.382 1.375-1 1.732l-7 4.041a1.996 1.996 0 0 1-2 0l-7-4.04a2 2 0 0 1-1-1.733z"/></g><g><path fill="none" stroke="#323232" stroke-linecap="round" stroke-linejoin="round" stroke-miterlimit="20" stroke-width="1.5" d="M14.49 11.864v0V8.4v0L5.5 3.21v0"/></g><g><path fill="none" stroke="#323232" stroke-linecap="round" stroke-linejoin="round" stroke-miterlimit="20" stroke-width="1.5" d="M7.044 15.997L4 14.24"/></g><g><path fill="none" stroke="#323232" stroke-linecap="round" stroke-linejoin="round" stroke-miterlimit="20" stroke-width="1.5" d="M10 11v10.083"/></g><g><path fill="none" stroke="#323232" stroke-linecap="round" stroke-linejoin="round" stroke-miterlimit="20" stroke-width="1.5" d="M1.27 5.96v0l8.732 5.042v0l8.732-5.042v0"/></g></g></svg>