<svg xmlns="http://www.w3.org/2000/svg" width="22" height="18" viewBox="0 0 22 18"><g><g><path fill="none" stroke="#323232" stroke-linecap="round" stroke-linejoin="round" stroke-miterlimit="20" stroke-width="1.5" d="M1.848 16.875h18.305c.467 0 .847-.38.847-.848v-1.179a.848.848 0 0 0-.847-.848H1.848a.847.847 0 0 0-.848.848v1.179c0 .468.379.848.848.848z"/></g><g><path fill="none" stroke="#323232" stroke-linecap="round" stroke-linejoin="round" stroke-miterlimit="20" stroke-width="1.5" d="M13.02 14v0-6a1 1 0 0 1 1-1h4.984a1 1 0 0 1 1 1v6"/></g><g><path fill="none" stroke="#323232" stroke-linecap="round" stroke-linejoin="round" stroke-miterlimit="20" stroke-width="1.5" d="M16 11h1"/></g><g><path fill="none" stroke="#323232" stroke-linecap="round" stroke-linejoin="round" stroke-miterlimit="20" stroke-width="1.5" d="M8.196 3.443a2.073 2.073 0 1 1-4.146 0 2.073 2.073 0 0 1 4.146 0z"/></g><g><path fill="none" stroke="#323232" stroke-linecap="round" stroke-linejoin="round" stroke-miterlimit="20" stroke-width="1.5" d="M2.18 14.004v0l.659-3.962A2 2 0 0 1 4.812 8.37h2.629c.969 0 1.8.696 1.968 1.65l.708 3.984v0"/></g></g></svg>