<svg xmlns="http://www.w3.org/2000/svg" width="20" height="20" viewBox="0 0 20 20"><g><g><path fill="none" stroke="#323232" stroke-linecap="round" stroke-linejoin="round" stroke-miterlimit="20" stroke-width="1.5" d="M11.75 12.75v4.129a1.871 1.871 0 0 1-1.871 1.871H2.621A1.871 1.871 0 0 1 .75 16.879V2.621C.75 1.588 1.588.75 2.621.75h7.258c1.033 0 1.871.838 1.871 1.871V4.75"/></g><g><path fill="none" stroke="#323232" stroke-linecap="round" stroke-linejoin="round" stroke-miterlimit="20" stroke-width="1.5" d="M4.05 16.25h4.4"/></g><g><path fill="none" stroke="#323232" stroke-linecap="round" stroke-linejoin="round" stroke-miterlimit="20" stroke-width="1.5" d="M8.084 4.75h9.333c.736 0 1.333.597 1.333 1.333v5.334c0 .736-.597 1.333-1.333 1.333H8.084a1.334 1.334 0 0 1-1.334-1.333V6.083c0-.736.598-1.333 1.334-1.333z"/></g><g><path fill="none" stroke="#323232" stroke-linecap="round" stroke-linejoin="round" stroke-miterlimit="20" stroke-width="1.5" d="M6.75 7.75h12"/></g></g></svg>