<svg xmlns="http://www.w3.org/2000/svg" width="20" height="20" viewBox="0 0 20 20"><g><g><path fill="none" stroke="#323232" stroke-linecap="round" stroke-linejoin="round" stroke-miterlimit="20" stroke-width="1.5" d="M11.5 11.48a.25.25 0 0 0-.25.251c0 .138.112.25.25.249a.25.25 0 1 0 0-.5"/></g><g><path fill="none" stroke="#323232" stroke-linecap="round" stroke-linejoin="round" stroke-miterlimit="20" stroke-width="1.5" d="M1 4.283v0V4a3 3 0 0 1 3-3h12a3 3 0 0 1 3 3v9a3 3 0 0 1-3 3h-1v0"/></g><g><path fill="none" stroke="#323232" stroke-linecap="round" stroke-linejoin="round" stroke-miterlimit="20" stroke-width="1.5" d="M19 7h-4"/></g><g><path fill="none" stroke="#323232" stroke-linecap="round" stroke-linejoin="round" stroke-miterlimit="20" stroke-width="1.5" d="M11.325 18.919A3 3 0 0 0 15 15.996V7.383a2.998 2.998 0 0 0-2.325-2.922L3.45 2.332A2 2 0 0 0 1 4.28v9.869c0 1.397.965 2.61 2.325 2.924z"/></g></g></svg>